<svg xmlns="http://www.w3.org/2000/svg" xmlns:xlink="http://www.w3.org/1999/xlink" width="1082" height="542.804" viewBox="0 0 1082 542.804">
  <defs>
    <clipPath id="clip-path">
      <rect id="Rectángulo_33998" data-name="Rectángulo 33998" width="565.642" height="542.804" fill="none"/>
    </clipPath>
  </defs>
  <g id="Grupo_80808" data-name="Grupo 80808" transform="translate(-259 -9886)">
    <g id="Grupo_80524" data-name="Grupo 80524" transform="translate(541.733 9886)">
      <g id="Grupo_80523" data-name="Grupo 80523" clip-path="url(#clip-path)">
        <path id="Trazado_114196" data-name="Trazado 114196" d="M195.14,233.582a53.886,53.886,0,0,0,7.515,22.208c6.6,10.317,16.378,10.317,16.378,10.317s10.828,27.007,27.155,38a66.4,66.4,0,0,0,45.935,10.329s.837,19.84,7.513,35.529a97.453,97.453,0,0,0,17.693,26.926s-18.459,24.133-36.943,4.421c-6.392-6.82-18.515-6.416-25.054-12.732-24.233-23.412-19.194-41.808-19.194-41.808s-25.054,5.847-47.517-13.113C159.4,289,154.952,262.02,154.952,262.02s6.517.282,20.092-10.032,20.1-18.406,20.1-18.406" transform="translate(101.99 153.744)" fill="#ffe6c1"/>
        <path id="Trazado_114197" data-name="Trazado 114197" d="M267.242,37.52a82.413,82.413,0,0,0-52.535-10.17c-23.886,3.411-35.772,13.642-40.563,19.116A66.742,66.742,0,0,0,178,68.867c7.886,21.868,28.886,18.121,29.776,17.95a4.459,4.459,0,0,1,1.731,8.749,31.9,31.9,0,0,1-6.173.572c-10.984,0-26.768-4.955-33.725-24.243a75.4,75.4,0,0,1-4.346-22.072c-7.243.255-20.368,2.059-37,10.206-18.2,8.914-22.6,19.761-25.271,27.185l.207,6.434.007,1.68c.007,1.061.415,26.178,19.739,26.661.237.007.473.008.7.008,16.454,0,19.348-14.708,19.628-16.408a4.459,4.459,0,0,1,8.812,1.378c-1.288,8.367-8.891,23.949-28.433,23.949-.308,0-.617,0-.934-.01-21.371-.534-27.811-21.437-28.393-33.822l.017-1.894a75.5,75.5,0,0,0-31.942,13.332,40.728,40.728,0,0,0-16.637,27.772c12.407,2.908,24.639,10,34.927,25.725,8.185,12.513,10.923,23.687,8.133,33.219-2.424,8.294-8.8,14.809-18.955,19.376a25.8,25.8,0,0,1-10.51,2.516,17.032,17.032,0,0,1-7.988-1.927c-8.783-4.573-10.986-15.67-11.075-16.141a4.46,4.46,0,1,1,8.764-1.666c.4,2.026,2.36,7.8,6.462,9.914,2.733,1.408,6.331,1.126,10.689-.832,7.664-3.444,12.393-8.069,14.053-13.745,2.021-6.911-.347-15.6-7.037-25.83C62.7,150.8,50.433,145,35.9,143.718c-4.348,2.917-9.823,8.49-15.69,19.091C6.509,187.583,16,208.667,16,208.667S-2.8,216.487.358,242.313s21.436,30.658,21.436,30.658-5.8,18.444,3.691,29.516a33.943,33.943,0,0,0,15.793,10.52C47.634,303,63.884,279.988,79.8,278.475a16.991,16.991,0,0,1,4.092.1c2.925-4.238,11.525-18.718-.187-28.261-14.05-11.447-26.153-.637-26.662-.171a4.459,4.459,0,0,1-6.028-6.573c6.273-5.749,22.354-13.183,38.323-.171,14.637,11.922,9.1,29.2,2.826,38.9a21.547,21.547,0,0,1,2.827,2.711c5.072,5.858,7.2,12.092,6.314,18.527C99.7,315.271,88.367,322.892,87.885,323.21a4.46,4.46,0,0,1-4.933-7.432c.119-.08,8.49-5.79,9.523-13.491.512-3.82-.871-7.563-4.227-11.44-2.3-2.655-4.714-3.771-7.6-3.491-11.677,1.1-26.921,22.334-33.137,32.512,2.043,7.348,8.523,19.288,29.1,21.1,17.844,1.562,29.74-1.894,36.456-4.953l2.559-4.585c-1.023-4.96-2.685-19.631,8.651-35.219,10.874-14.952,29.218-17.2,36.991-17.454a44.013,44.013,0,0,1,14.2-23.518,27.952,27.952,0,0,1,2.418-1.884c-2.884-6.46-6.407-14.775-10.158-24.583-6.024-15.731-15.182-26.661-24.5-29.232-5.88-1.623-12.027.043-18.268,4.956-6.852,5.392-10.457,11.049-10.712,16.814-.352,7.941,5.8,13.962,5.862,14.025a4.459,4.459,0,1,1-6.114,6.494c-.376-.353-9.195-8.8-8.659-20.915.376-8.475,5.122-16.357,14.108-23.429,10.7-8.422,20.131-8.21,26.156-6.543,12.223,3.373,23.324,16,30.461,34.645,3.6,9.4,7.013,17.464,9.825,23.777,9.266-3.109,18.8-1.915,23.2-1.055l5.852-6.581a22.429,22.429,0,0,1-2.527-18.4,24.566,24.566,0,0,1,7.051-11.486c-3.749-4.074-8.425-11.3-6.951-21.024a28.432,28.432,0,0,1,9.621-17.161,4.432,4.432,0,0,1-.655-1.191c-.083-.227-8.752-20.845-24.616-23.488-15.67-2.605-26.455,10.788-26.559,10.949a4.461,4.461,0,0,1-7.43-4.938c.569-.854,12.884-19.625,34.177-16.081,11.868,1.973,21.527,10.21,26.656,18.323a100.9,100.9,0,0,1,2.713-30.806c5.28-21.449,19.5-35.439,25.4-40.49-2.947-6.615-7.739-22.008-1.048-33.225,6.177-10.355,13.005-13.247,16.469-15.182" transform="translate(0 17.462)" fill="#3484c4"/>
        <path id="Trazado_114198" data-name="Trazado 114198" d="M343.215,103.644s-.007-.114-.027-.317c-9.032-.189-17.1,2.021-21.351,6.125a9.482,9.482,0,0,0-2.953,8.594c1.305,9.641,4.219,11.448,4.643,11.662a4.46,4.46,0,0,1-.479,8.893h-.01c-1.754,0-11.777.33-14.267-18.084-.844-6.246,2.365-13.126,6.872-17.479,5.525-5.334,14.813-8.381,25.263-8.621C337.713,86.069,330.123,73.377,312.117,62c-21.416-13.526-40.681-11.518-49.983-9.249a58.767,58.767,0,0,1-1.111,14.6C257.31,84.977,243.212,95.8,229.4,98.872c-.894,4.98-2.109,15.8,2.383,22.993,2.205,3.535,5.532,5.7,10.165,6.631,8.689,1.738,16.058.247,21.908-4.432a23.386,23.386,0,0,0,6.142-7.329,4.46,4.46,0,1,1,8.109,3.718c-3.066,6.681-12.821,17.645-29.571,17.645a42.547,42.547,0,0,1-8.337-.854c-7.089-1.418-12.471-5.013-16-10.685-5.366-8.628-4.912-20.013-3.968-26.82-13.635-.464-19.648-8.7-19.9-9.064a4.459,4.459,0,0,1,7.286-5.144c.128.166,4.126,5.324,13.776,5.333h.018c12.392,0,27.423-8.878,30.891-25.342A51.888,51.888,0,0,0,253,49.979c-4.51-5.684-13.8-14.99-28.382-18.545a52.708,52.708,0,0,0-33.988,3.152s-10.46,4.563-19.25,17.963c-5.255,8.009-.982,25.266,1.771,30.377A3.954,3.954,0,0,1,171.994,88c-.186.134-19.086,14.164-24.969,38.067a92.3,92.3,0,0,0-1.6,36.271c6.787,1.716,22.187,4.184,30.715-.575a11.386,11.386,0,0,0,5.693-7.195c4.348-15.562-9.233-26.069-9.371-26.173a4.459,4.459,0,1,1,5.386-7.109c.759.574,18.537,14.34,12.576,35.68a20.172,20.172,0,0,1-9.954,12.6c-5.29,2.947-11.851,3.887-18.071,3.887a80.533,80.533,0,0,1-15.468-1.642,3.927,3.927,0,0,1-2.071,2.358c-.39.187-9.977,4.887-11.6,15.59-1.569,10.365,7.454,16.844,7.838,17.114a3.959,3.959,0,0,1-1.065,7.013c-.123.046-4.776,1.819-7.132,9.51a14.249,14.249,0,0,0,.813,10.309c8.8-7.566,32.794-25.714,61.858-27.14,21.22-1.04,45.038,7.245,54.429,10.911,5.61-13.579,12.9-36.757,7.2-48.793-1.857-3.915-5.014-6.346-9.649-7.429-9.516-2.227-17.423-.834-23.507,4.134a24.063,24.063,0,0,0-6.59,8.468,4.46,4.46,0,0,1-8.293-3.283c3.416-8.7,16.25-23.654,40.42-18,7.352,1.72,12.629,5.858,15.678,12.3,6.225,13.141,1.174,33.514-3.82,47.633a39.227,39.227,0,0,1,8.333-2.52c7.364-1.337,14.9.265,19.719,1.753a20.486,20.486,0,0,1,6.152-10.952,24.39,24.39,0,0,1,10.027-5.973c.29-5.931,2.109-17.346,11.453-22.752a36.053,36.053,0,0,1,19.451-4.693c.476-7.059,2.86-20.514,13.693-29,12.08-9.453,25.43-6.314,30.765-4.451A44.524,44.524,0,0,0,372.2,115.24c-8.961-11.068-28.989-11.6-28.989-11.6" transform="translate(87.07 19.703)" fill="#ffe6c1"/>
        <path id="Trazado_114199" data-name="Trazado 114199" d="M353.588,189.506a3.964,3.964,0,0,1,.29-5.8,14.23,14.23,0,0,0,3.6-15.735c-2.419-6.243-10.748-5.877-15.332-5.152-1.56,5.066-8.52,25.264-21.771,31.224a18.544,18.544,0,0,1-7.648,1.666c-.163,0-.327-.025-.489-.028-2,4.169-4.683,11.314-3.411,15.959a5.362,5.362,0,0,0,2.781,3.51c4.194,2.323,7.979,2.509,11.568.57a14.551,14.551,0,0,0,4.31-3.615,5.1,5.1,0,0,1,8.329,5.873c-2.763,3.92-9.147,9.274-17.665,9.274a23.533,23.533,0,0,1-11.48-3.185,15.626,15.626,0,0,1-7.681-9.76c-2.036-7.475.944-16.221,3.343-21.538-5.257-2.875-8.729-6.638-10.3-11.226a17.217,17.217,0,0,1,.68-12.644,5.1,5.1,0,0,1,9.142,4.512c-.7,1.539-2.258,6.82,6.51,11.019a8.716,8.716,0,0,0,7.827.313c8.508-3.826,14.871-20.222,16.429-25.662a5.1,5.1,0,0,1,.685-1.421l-2.975-10.71c-3.341-1.249-11.263-3.733-18.537-2.408a34.263,34.263,0,0,0-15.949,7.848,3.971,3.971,0,0,1-4.336.776c-.3-.131-30.241-13.143-54.944-11.926-32.04,1.572-58.51,26.43-60.191,28.042l-6.215,6.993a5.044,5.044,0,0,1,.086.859c0,1.244.376,30.708,22.964,32.726,13.125,1.172,17.264-10.427,17.695-11.753a5.1,5.1,0,0,1,9.725,3.048c-2.109,6.807-10.084,18.983-25.571,18.983-.894,0-1.811-.04-2.756-.123-23.6-2.109-31.131-25.173-32.128-39.568-5.446-.92-17.693-1.948-25.956,5.28-11.148,9.755-12.067,21.3-12.1,21.785a3.959,3.959,0,0,1-4.2,3.694c-.211-.01-22.523-1.184-33.708,14.193-11.35,15.61-7.11,29.826-7.064,29.972a3.949,3.949,0,0,1-.323,3.1l-6.233,11.165c.274,5.686,2.358,12.8,8.737,20.5a42.243,42.243,0,0,0,28.662,15.4,211,211,0,0,1,2.494-23.873c3.655-22.145,10.354-37.638,19.907-46.042a28.18,28.18,0,0,1,23.09-7.014c9.492,1.22,16.857,5.384,21.887,12.375,10.72,14.9,6.435,37.29,6.25,38.235a5.1,5.1,0,0,1-10-1.978c.063-.327,3.567-19.094-4.542-30.327-3.361-4.658-8.235-7.338-14.892-8.193a18.112,18.112,0,0,0-15.055,4.55c-7.613,6.7-13.34,20.5-16.564,39.91a198.319,198.319,0,0,0-2.562,28.6c0,.036-.01.071-.012.111,4.107,6.283,15.086,14.9,44.458,14.231,35.346-.814,71.924-28.229,86.843-40.759l.136-.318c-5.782-14.589-22.422-62.04,1.159-72.46,9.513-4.2,17.5-4.283,23.742-.235,10.644,6.9,11.014,22.717,11.022,24.5a5.1,5.1,0,0,1-5.076,5.117h-.022a5.1,5.1,0,0,1-5.1-5.062c-.031-3.325-1.24-12.689-6.391-16.008-3.174-2.046-7.9-1.7-14.06,1.018-11.43,5.049-4.99,33.693,1.9,53.238,4.17-.711,21.993-4.164,33.676-12.818,11.728-8.691,11.1-15.692,11.09-15.761a3.89,3.89,0,0,1,2.388-4.278,4,4,0,0,1,4.757,1.436c.028.017,3.517,3.908,15,4.333,11.244.431,17.091-12.465,17.146-12.6.018-.038.045-.07.061-.106a3.5,3.5,0,0,1,.284-.5c.033-.051.065-.1.1-.149a3.546,3.546,0,0,1,.443-.511l.018-.02a3.677,3.677,0,0,1,.584-.454.536.536,0,0,1,.051-.032,4.732,4.732,0,0,1,.592-.3l.095-.035a4.174,4.174,0,0,1,.655-.189.12.12,0,0,0,.035-.007,3.838,3.838,0,0,1,.708-.07c-.063,0,7.308-.706,14.343-15.65,7.122-15.136-4.547-27.423-5.048-27.939" transform="translate(46.462 92.915)" fill="#a5d20e"/>
        <path id="Trazado_114200" data-name="Trazado 114200" d="M346.223,152.512c-5.817,3.676-13.667,7.134-22.621,7.134a35.579,35.579,0,0,1-15.847-3.784c-.733-.36-1.423-.735-2.1-1.114-5.386,5.673-19.169,22.411-8.666,35.6,12.831,16.121,31.214,3.608,31.992,3.066a3.823,3.823,0,1,1,4.368,6.275,37.274,37.274,0,0,1-20.293,6.479c-7.482,0-15.464-2.786-22.049-11.059-12.382-15.552-1.353-34.567,8.284-44.844-15.862-14.181-6.127-34.986-6.011-35.225a3.823,3.823,0,0,1,6.887,3.321c-.988,2.086-9.13,20.766,10.959,30.635,8.815,4.331,18.131,4.016,27.674-.934.655-.34,1.283-.695,1.9-1.053.4-2.277,1.492-12.112-5.379-29.521-4.026-10.2-8.868-15.882-12.657-19.01l-6.127.294a4.014,4.014,0,0,1-1.9-.385c-.534-.254-13.566-6.228-24.84,2.6-11.672,9.137-10.755,26.76-10.747,26.937a3.954,3.954,0,0,1-4.835,4.089,28.326,28.326,0,0,0-18.477,3.278c-8.3,4.8-7.535,18.932-7.523,19.074a3.9,3.9,0,0,1-1.2,3.31,3.653,3.653,0,0,1-3.2.905c-.526.012-3.683.264-8.137,4.391a13.091,13.091,0,0,0-4.091,9.966l3.237,11.649c8.374-1.419,19.988-.421,24.077,10.14a22.019,22.019,0,0,1-3.175,21.774c4.134,5.58,11.36,18.532,4.121,33.912-3.719,7.9-7.731,12.718-11.274,15.645,4.663.652,11.8.74,22.27-1.186,22.684-4.165,24.706-19.595,24.72-19.752a3.931,3.931,0,0,1,.607-1.665c.151-5.152,1.265-14.534,6.966-20.666a18.605,18.605,0,0,1,14.231-5.877h.095c5.456.02,9.8,1.779,12.9,5.22,5.5,6.094,4.656,15.191,4.618,15.572a3.822,3.822,0,0,1-7.608-.741c.01-.111.509-6.2-2.711-9.734-1.622-1.786-3.986-2.658-7.228-2.671h-.068a11.114,11.114,0,0,0-8.618,3.419c-5.749,6.167-4.913,18.469-4.9,18.593a3.823,3.823,0,0,1-.075,1,14.484,14.484,0,0,0,6.092,8.788c10.558,6.913,28.261-.143,28.261-.143,10.143-5.293,24.83-17.93,26.2-47.012,1.471-31.216-10.612-48.857-18.084-56.694" transform="translate(152.416 63.306)" fill="#ffe6c1"/>
        <path id="Trazado_114201" data-name="Trazado 114201" d="M331.713,290.718a40.079,40.079,0,0,1-32.64-16.88,32.307,32.307,0,0,1-4.353-8.72c-3.4-1.519-16.5-6.346-25.813,4.588-10.145,11.922-1.157,22.44-.1,23.6a3.822,3.822,0,0,1-5.61,5.192c-5.21-5.6-11.936-19.855-.113-33.749,9.264-10.886,21.915-10.724,30.418-8.233a23.262,23.262,0,0,1,2.532-9.82c8.6-16.9,23.873-17.007,30.745-14.7a3.822,3.822,0,0,1-2.409,7.255c-1.421-.453-13.945-3.961-21.52,10.914-2.935,5.767-2.028,12.806,2.5,19.3a32.325,32.325,0,0,0,29.967,13.4c.721-.088,1.421-.179,2.108-.282,4.913-4.081,12.065-12.762,19.374-31.192,9.871-24.873,4.288-48.668,4.288-48.668-3.149,1.073-14.954,1.648-23.619-3.232a19.6,19.6,0,0,1-6.911-6.442c-4.071,6.13-11.886,13.1-26.806,15.851a95.294,95.294,0,0,1-17.089,1.725c-7.346,0-12.188-1.192-15.234-2.4-3.28,5.25-10.606,14.053-22.661,13.594-6.941-.259-11.777-1.643-15.061-3.171-1.554,4.272-5.137,9.934-13.174,15.891-12.329,9.132-29.8,12.961-35.951,14.073,0,0-3.953,13.519,5.135,23.863,3.583,4.074,8.092,5.124,11.312,5.973a51.915,51.915,0,0,0,9.8-.982c7.818-1.607,12.5-4.878,13.907-9.717,3.618-12.4-4.636-18.852-4.988-19.121a3.822,3.822,0,0,1,4.552-6.14c.531.388,12.926,9.749,7.777,27.4-2.877,9.863-12.558,13.781-20.948,15.3.546,7.041,3.436,18.393,14.952,28.927,18.448,16.864,52.708,28.461,82.751,12.123,21.981-11.954,23.646-27.85,22.959-35.525-.027,0-.051,0-.078,0" transform="translate(120.925 127.064)" fill="#ffe6c1"/>
        <path id="Trazado_114202" data-name="Trazado 114202" d="M215.19,231.166c-4.628,4.915-11.3,4.323-16.842,4.827a157.494,157.494,0,0,1-68.716-8.944c-3.517-1.278-5.7-4.207-8.946-5.653-4.946-4.57-8.886-10.6-16.466-11.35-10.984-4.837-22.149-9.409-29.087-20.1-1.264-3.1-2.62-6.134-5.93-7.651-.07-.9-.138-1.8-.206-2.7-5.383-20.9,1.584-42.6,21.477-57.586A167.23,167.23,0,0,1,147.3,94.061a212.408,212.408,0,0,1,37.845-6.348c6.124,1.1,12.234,1.622,18.27-.5,24.11,2.9,48.424,5.167,69.805,18.3,30.08,18.477,45.521,44.9,43.221,80.763q-.333,1.724-.667,3.442c-2.341,11.085-4.81,22.056-8.982,32.726-11.068,28.309-31.635,45.269-59.687,56.021-17.879,6.853-36.132,6.542-54.316,8.749-3.348.406-6.319-1.463-4.454-5.953q5.335-.306,10.669-.615c7.187,1.819,14.125-.948,21.079-1.691,13.985-1.492,27.568-5.149,37.953-15.828,22.285-10.016,33.375-28.848,39.774-51.126,2.254-7.842,4.772-15.821,3.147-24.243,3.257-20.52-5.285-36.84-19.036-50.782-12.136-12.307-13-11.961-24.676.035-.96.987-1.849,2.045-2.771,3.069-4.427,4.374-8.687,8.936-13.332,13.067-4.245,3.772-4.616,7,.237,10.339,14.028,18.781,12.284,37.62-4.5,53.9-6.359,6.167-14.728,8.784-21.691,13.785M184.139,122.288c-2.355,3.945-3.293,8.349-.98,12.277,1.245,2.114,4.54,2.811,7.411,1.975,5.17-1.5,6.6-5.9,7.677-10.377.428-1.784.086-3.751.1-5.636a9.789,9.789,0,0,1,1.416-2.877c2.1-2.061,3.5-4.988,2.628-7.266-1.159-3.02-4.779-1.5-7.3-1.544-10.71-.192-11.163.449-10.946,13.448m-7.391,3c2.469-2.127,1.69-5.076,1.759-7.7.1-3.832,1.754-8.609-5.106-8.757-6.177-.133-9.236,2.87-9.623,8.643a111.841,111.841,0,0,0,.343,11.46c-.733,3.968.562,5.91,4.943,6.288,8.109.7,6.9-5.265,7.682-9.931m42.191,8.517c4.492-4.058,8.177-8.6,9.044-14.867,1.264-2.046,3.665-4.719,1.161-6.467-5.044-3.52-11.437-3.792-17.189-3.253-4.744.446-5.177,5.4-4.907,9.646-1.438,4.769-5.525,8.9-3.471,14.509-3.214,2.618-1.748,4.709.892,6.4,6.943,4.437,10.77,2.822,14.469-5.963m9.445,1.293c-2.663,1.778-3.053,4.995-4.666,7.442-1.449,2.2-1.832,4.636.814,6.326,2.452,1.565,5.62,4.538,7.989,2.3,4.228-3.99,10.7-5.8,12.569-12.183,5.689-3.854,12.067-7.115,12.974-15.081-3.071-4.931-8.133-5.877-13.261-7.427-4.963-1.5-7.787-.657-9.581,4.043-1.725,5.119-7.648,8.271-6.838,14.579m-69.777-11.447c-1.862-2.661,3.612-9.578-4.308-9.349-4.326.126-11.523.381-10.069,7.52.952,4.678-2.862,13.251,7.475,13.349,8.684.081,6.523-6.1,6.9-11.52m-18.313,8.614c-4.238-2.048,2.288-10-4.859-11.057-2.8-.413-8.759,1.182-7.784,6.285.771,4.038.885,9.848,6.756,10.879,3.293.577,5.946-.942,5.887-6.107m-28.548,16.869c-1.778-3.439-3.044-8.248-6.956-8.364-3.968-.118-6.363,4.532-6.863,8.032-.524,3.671,3.8,5.3,6.623,5.858,3.55.695,5.436-2.693,7.2-5.527m13.823-10.079c-4.257-.988-1.463-7.865-6.792-8.482-3.733-.431-6.256,2.33-6.45,5.946-.221,4.086,2.295,6.643,6.44,6.983,2.718.222,5.6.187,6.8-4.447m-33,23.266c.965,2.192.967,6.454,4.358,6.436,2.9-.017,4.567-3.852,4.547-6.8-.022-3.273-3.31-4.311-5.878-4.734-3.486-.574-2.656,2.517-3.026,5.1" transform="translate(44.26 57.401)" fill="#08306e"/>
      </g>
    </g>
    <rect id="Rectángulo_34002" data-name="Rectángulo 34002" width="326" height="68" rx="16" transform="translate(259 9936.77)" fill="#0053a6"/>
    <path id="Trazado_114816" data-name="Trazado 114816" d="M11.32-4.333a4.673,4.673,0,0,1-.721,2.36A4.35,4.35,0,0,1,8.75-.387a6.3,6.3,0,0,1-2.72.563A5.025,5.025,0,0,1,2.057-1.468,6.786,6.786,0,0,1,.606-6.108v-.633a7.746,7.746,0,0,1,.655-3.292,4.961,4.961,0,0,1,1.885-2.18,5.26,5.26,0,0,1,2.848-.769,5.516,5.516,0,0,1,3.744,1.226,4.844,4.844,0,0,1,1.608,3.379H8.271a2.292,2.292,0,0,0-.589-1.679,2.422,2.422,0,0,0-1.687-.51A1.843,1.843,0,0,0,4.307-9.7a5.536,5.536,0,0,0-.562,2.751v.905A6.125,6.125,0,0,0,4.258-3.12a1.882,1.882,0,0,0,1.771.879,2.369,2.369,0,0,0,1.626-.5,2.126,2.126,0,0,0,.6-1.591Zm.949-.51a5.613,5.613,0,0,1,.554-2.536,3.96,3.96,0,0,1,1.591-1.709,4.791,4.791,0,0,1,2.435-.6,4.373,4.373,0,0,1,3.366,1.323,5.076,5.076,0,0,1,1.23,3.6v.105A4.925,4.925,0,0,1,20.21-1.129,4.384,4.384,0,0,1,16.866.176a4.434,4.434,0,0,1-3.261-1.217,4.761,4.761,0,0,1-1.327-3.3Zm2.962.185a3.538,3.538,0,0,0,.413,1.934,1.376,1.376,0,0,0,1.222.615q1.582,0,1.617-2.435v-.3q0-2.558-1.635-2.558-1.485,0-1.608,2.206ZM28.5-6.829l-.976-.07a1.752,1.752,0,0,0-1.793.879V0H22.772V-9.51H25.55l.1,1.222a2.294,2.294,0,0,1,2.083-1.4,2.888,2.888,0,0,1,.826.105Zm4.957-5.045V-9.51h1.564v2.057H33.46V-3.1a1.111,1.111,0,0,0,.193.747,1.037,1.037,0,0,0,.765.211,4.345,4.345,0,0,0,.738-.053V-.079a5.466,5.466,0,0,1-1.67.255,3.1,3.1,0,0,1-2.259-.721A2.954,2.954,0,0,1,30.5-2.733v-4.72H29.285V-9.51H30.5v-2.364ZM40.79.176a4.889,4.889,0,0,1-3.542-1.305,4.507,4.507,0,0,1-1.354-3.4v-.246a5.84,5.84,0,0,1,.541-2.575,3.955,3.955,0,0,1,1.578-1.727,4.763,4.763,0,0,1,2.461-.611,4.117,4.117,0,0,1,3.164,1.244A4.887,4.887,0,0,1,44.8-4.975v1.151H38.909A2.135,2.135,0,0,0,39.6-2.566a2.066,2.066,0,0,0,1.389.457,2.662,2.662,0,0,0,2.2-.984l1.354,1.6A3.784,3.784,0,0,1,42.974-.277,5.3,5.3,0,0,1,40.79.176ZM40.456-7.4q-1.3,0-1.547,1.723H41.9v-.229a1.467,1.467,0,0,0-.36-1.1A1.434,1.434,0,0,0,40.456-7.4Zm9.026,5.115h4.333V0H45.738V-1.652l4.219-5.572H45.923V-9.51h7.8v1.6ZM60.609,0a3.344,3.344,0,0,1-.281-.853A2.754,2.754,0,0,1,58.043.176a3.374,3.374,0,0,1-2.285-.813,2.588,2.588,0,0,1-.94-2.043A2.66,2.66,0,0,1,55.96-5.019a5.821,5.821,0,0,1,3.322-.791H60.2v-.5q0-1.316-1.134-1.316a.927.927,0,0,0-1.055,1.042H55.046a2.655,2.655,0,0,1,1.173-2.239,4.931,4.931,0,0,1,2.993-.86,4.323,4.323,0,0,1,2.874.888,3.086,3.086,0,0,1,1.081,2.435v4.21a4.311,4.311,0,0,0,.4,2V0ZM58.755-1.934a1.652,1.652,0,0,0,.918-.237,1.487,1.487,0,0,0,.523-.536V-4.228h-.861q-1.547,0-1.547,1.389a.848.848,0,0,0,.272.655A.986.986,0,0,0,58.755-1.934ZM78.117-4.685a5.735,5.735,0,0,1-1,3.538A3.2,3.2,0,0,1,74.426.176a2.742,2.742,0,0,1-2.153-.958V3.656H69.311V-9.51h2.769l.088.879a2.742,2.742,0,0,1,2.241-1.055,3.224,3.224,0,0,1,2.733,1.3,5.805,5.805,0,0,1,.976,3.564Zm-2.962-.185q0-2.531-1.477-2.531a1.394,1.394,0,0,0-1.406.756V-2.9a1.439,1.439,0,0,0,1.424.791q1.415,0,1.459-2.443Zm10.02-1.96L84.2-6.9a1.752,1.752,0,0,0-1.793.879V0H79.444V-9.51h2.777l.1,1.222a2.294,2.294,0,0,1,2.083-1.4,2.888,2.888,0,0,1,.826.105Zm5.5,7a4.889,4.889,0,0,1-3.542-1.305,4.507,4.507,0,0,1-1.354-3.4v-.246a5.84,5.84,0,0,1,.541-2.575A3.955,3.955,0,0,1,87.9-9.075a4.763,4.763,0,0,1,2.461-.611,4.117,4.117,0,0,1,3.164,1.244,4.887,4.887,0,0,1,1.16,3.467v1.151H88.8a2.135,2.135,0,0,0,.694,1.257,2.066,2.066,0,0,0,1.389.457,2.662,2.662,0,0,0,2.2-.984l1.354,1.6A3.784,3.784,0,0,1,92.861-.277,5.3,5.3,0,0,1,90.677.176ZM90.343-7.4q-1.3,0-1.547,1.723h2.988v-.229a1.467,1.467,0,0,0-.36-1.1A1.434,1.434,0,0,0,90.343-7.4ZM96.53,0V-7.453H95.15V-9.51h1.38v-.756a3.286,3.286,0,0,1,.958-2.522,3.785,3.785,0,0,1,2.689-.9,5.89,5.89,0,0,1,1.389.185l.009,2.18a2.706,2.706,0,0,0-.729-.079q-1.345,0-1.345,1.16v.729h1.854v2.057H99.5V0Zm11.619-6.829-.976-.07a1.752,1.752,0,0,0-1.793.879V0h-2.962V-9.51H105.2l.1,1.222a2.294,2.294,0,0,1,2.083-1.4,2.888,2.888,0,0,1,.826.105Zm.378,1.986a5.613,5.613,0,0,1,.554-2.536,3.96,3.96,0,0,1,1.591-1.709,4.791,4.791,0,0,1,2.435-.6,4.373,4.373,0,0,1,3.366,1.323,5.076,5.076,0,0,1,1.23,3.6v.105a4.925,4.925,0,0,1-1.235,3.529A4.384,4.384,0,0,1,113.124.176a4.434,4.434,0,0,1-3.261-1.217,4.761,4.761,0,0,1-1.327-3.3Zm2.962.185a3.538,3.538,0,0,0,.413,1.934,1.376,1.376,0,0,0,1.222.615q1.582,0,1.617-2.435v-.3q0-2.558-1.635-2.558-1.485,0-1.608,2.206ZM121.729-9.51l.1,1.116a3.225,3.225,0,0,1,2.716-1.292,2.713,2.713,0,0,1,2.219.888,4.226,4.226,0,0,1,.76,2.672V0H124.55V-6a1.6,1.6,0,0,0-.29-1.059,1.342,1.342,0,0,0-1.055-.338,1.413,1.413,0,0,0-1.292.686V0h-2.962V-9.51Zm10.881-2.364V-9.51h1.564v2.057h-1.564V-3.1a1.111,1.111,0,0,0,.193.747,1.037,1.037,0,0,0,.765.211,4.345,4.345,0,0,0,.738-.053V-.079a5.466,5.466,0,0,1-1.67.255,3.1,3.1,0,0,1-2.259-.721,2.954,2.954,0,0,1-.729-2.188v-4.72h-1.213V-9.51h1.213v-2.364ZM140.7,0a3.344,3.344,0,0,1-.281-.853A2.754,2.754,0,0,1,138.129.176a3.374,3.374,0,0,1-2.285-.813,2.588,2.588,0,0,1-.94-2.043,2.66,2.66,0,0,1,1.143-2.338,5.821,5.821,0,0,1,3.322-.791h.914v-.5q0-1.316-1.134-1.316a.927.927,0,0,0-1.055,1.042h-2.962a2.655,2.655,0,0,1,1.173-2.239,4.931,4.931,0,0,1,2.993-.86,4.323,4.323,0,0,1,2.874.888,3.086,3.086,0,0,1,1.081,2.435v4.21a4.311,4.311,0,0,0,.4,2V0Zm-1.854-1.934a1.652,1.652,0,0,0,.918-.237,1.487,1.487,0,0,0,.523-.536V-4.228h-.861q-1.547,0-1.547,1.389a.848.848,0,0,0,.272.655A.986.986,0,0,0,138.841-1.934ZM148.017,0h-2.971V-13.5h2.971Z" transform="translate(344.5 9976.77)" fill="#fff"/>
    <path id="Trazado_114814" data-name="Trazado 114814" d="M16,0A16,16,0,1,1,0,16,16,16,0,0,1,16,0Z" transform="translate(565 10114.77)" fill="#0053a6"/>
    <path id="Trazado_114813" data-name="Trazado 114813" d="M16,0A16,16,0,1,1,0,16,16,16,0,0,1,16,0Z" transform="translate(744 10114.77)" fill="#0053a6"/>
    <path id="Trazado_114812" data-name="Trazado 114812" d="M16,0A16,16,0,1,1,0,16,16,16,0,0,1,16,0Z" transform="translate(744 10189.77)" fill="#729206"/>
    <path id="Trazado_114203" data-name="Trazado 114203" d="M-7838-1524h-70.589v-132.959" transform="translate(8419 11654.77)" fill="none" stroke="#0053a6" stroke-width="2"/>
    <path id="Trazado_114204" data-name="Trazado 114204" d="M-7659-1524h329v-133" transform="translate(8419 11654.77)" fill="none" stroke="#0053a6" stroke-width="2"/>
    <rect id="Rectángulo_34001" data-name="Rectángulo 34001" width="326" height="68" rx="16" transform="translate(1015 9936.77)" fill="#08306e"/>
    <path id="Trazado_114817" data-name="Trazado 114817" d="M11.443-1.582A4.96,4.96,0,0,1,9.36-.308,8.984,8.984,0,0,1,6.354.176,5.36,5.36,0,0,1,2.338-1.362,6.226,6.226,0,0,1,.729-5.643L.721-6.75a7.637,7.637,0,0,1,.668-3.3A4.96,4.96,0,0,1,3.3-12.221a5.407,5.407,0,0,1,2.878-.76,5.669,5.669,0,0,1,3.713,1.094,4.637,4.637,0,0,1,1.542,3.265H8.464a2.426,2.426,0,0,0-.686-1.529,2.212,2.212,0,0,0-1.494-.457,2.013,2.013,0,0,0-1.793.984A5.256,5.256,0,0,0,3.85-6.812v.773A5.145,5.145,0,0,0,4.5-3.16,2.316,2.316,0,0,0,6.565-2.2a2.592,2.592,0,0,0,1.793-.536V-4.72H6.214V-6.838h5.229ZM18.457,0a3.344,3.344,0,0,1-.281-.853A2.754,2.754,0,0,1,15.891.176a3.374,3.374,0,0,1-2.285-.813,2.588,2.588,0,0,1-.94-2.043,2.66,2.66,0,0,1,1.143-2.338A5.821,5.821,0,0,1,17.13-5.81h.914v-.5q0-1.316-1.134-1.316a.927.927,0,0,0-1.055,1.042H12.894a2.655,2.655,0,0,1,1.173-2.239,4.931,4.931,0,0,1,2.993-.86,4.323,4.323,0,0,1,2.874.888,3.086,3.086,0,0,1,1.081,2.435v4.21a4.311,4.311,0,0,0,.4,2V0ZM16.6-1.934a1.652,1.652,0,0,0,.918-.237,1.487,1.487,0,0,0,.523-.536V-4.228h-.861q-1.547,0-1.547,1.389a.848.848,0,0,0,.272.655A.986.986,0,0,0,16.6-1.934ZM25.374-9.51l.1,1.116a3.225,3.225,0,0,1,2.716-1.292,2.713,2.713,0,0,1,2.219.888,4.226,4.226,0,0,1,.76,2.672V0H28.2V-6a1.6,1.6,0,0,0-.29-1.059A1.342,1.342,0,0,0,26.851-7.4a1.413,1.413,0,0,0-1.292.686V0H22.6V-9.51Zm7.084,4.685a6.421,6.421,0,0,1,.475-2.549,3.821,3.821,0,0,1,1.362-1.709,3.591,3.591,0,0,1,2.065-.6,2.855,2.855,0,0,1,2.32,1l.105-.826h2.689V-.36a4.009,4.009,0,0,1-.584,2.184A3.75,3.75,0,0,1,39.2,3.248a6.219,6.219,0,0,1-2.566.5,5.365,5.365,0,0,1-2.026-.4,3.657,3.657,0,0,1-1.5-1.028L34.348.58a2.716,2.716,0,0,0,2.18.976A1.764,1.764,0,0,0,38.5-.466v-.3a2.781,2.781,0,0,1-2.153.94A3.437,3.437,0,0,1,33.53-1.156,5.517,5.517,0,0,1,32.458-4.72Zm2.971.185a3.383,3.383,0,0,0,.439,1.85,1.386,1.386,0,0,0,1.23.681,1.573,1.573,0,0,0,1.4-.642v-4a1.534,1.534,0,0,0-1.38-.65,1.4,1.4,0,0,0-1.239.708A3.858,3.858,0,0,0,35.429-4.641ZM46.283,0H43.313V-13.5h2.971Zm4.948,0H48.261V-9.51h2.971ZM48.085-11.962A1.322,1.322,0,0,1,48.542-13a1.724,1.724,0,0,1,1.187-.4,1.724,1.724,0,0,1,1.187.4,1.322,1.322,0,0,1,.457,1.037,1.322,1.322,0,0,1-.457,1.037,1.724,1.724,0,0,1-1.187.4,1.724,1.724,0,0,1-1.187-.4A1.322,1.322,0,0,1,48.085-11.962Zm4.6,7.119a5.613,5.613,0,0,1,.554-2.536,3.96,3.96,0,0,1,1.591-1.709,4.791,4.791,0,0,1,2.435-.6,4.373,4.373,0,0,1,3.366,1.323,5.076,5.076,0,0,1,1.23,3.6v.105a4.925,4.925,0,0,1-1.235,3.529A4.384,4.384,0,0,1,57.278.176a4.434,4.434,0,0,1-3.261-1.217,4.761,4.761,0,0,1-1.327-3.3Zm2.962.185a3.538,3.538,0,0,0,.413,1.934,1.376,1.376,0,0,0,1.222.615q1.582,0,1.617-2.435v-.3Q58.9-7.4,57.261-7.4q-1.485,0-1.608,2.206Zm12.5,1.986a.684.684,0,0,0-.4-.606,6.016,6.016,0,0,0-1.5-.475A6.853,6.853,0,0,1,64.415-4.4a3.062,3.062,0,0,1-1.1-.971,2.319,2.319,0,0,1-.378-1.31A2.628,2.628,0,0,1,64.02-8.837a4.453,4.453,0,0,1,2.83-.848,4.934,4.934,0,0,1,3.023.853,2.666,2.666,0,0,1,1.143,2.241H68.045q0-1.143-1.2-1.143a1.194,1.194,0,0,0-.782.259.8.8,0,0,0-.316.646.737.737,0,0,0,.387.642,3.654,3.654,0,0,0,1.235.4,10.671,10.671,0,0,1,1.49.378A2.706,2.706,0,0,1,71-2.76,2.491,2.491,0,0,1,69.842-.642,5.068,5.068,0,0,1,66.85.176a5.172,5.172,0,0,1-2.18-.439,3.645,3.645,0,0,1-1.494-1.2A2.707,2.707,0,0,1,62.64-3.05h2.769a1.145,1.145,0,0,0,.439.962,1.808,1.808,0,0,0,1.081.3,1.422,1.422,0,0,0,.91-.246A.787.787,0,0,0,68.142-2.672Zm17.552-2a5.8,5.8,0,0,1-.967,3.595A3.238,3.238,0,0,1,82,.176,2.81,2.81,0,0,1,79.664-.976L79.541,0H76.887V-13.5h2.962v4.755a2.711,2.711,0,0,1,2.136-.94,3.239,3.239,0,0,1,2.742,1.274,5.826,5.826,0,0,1,.967,3.586Zm-2.971-.189a3.866,3.866,0,0,0-.365-1.952A1.229,1.229,0,0,0,81.237-7.4a1.418,1.418,0,0,0-1.389.763v3.773a1.426,1.426,0,0,0,1.406.755,1.258,1.258,0,0,0,1.327-1.018A7.309,7.309,0,0,0,82.723-4.865ZM92.355,0a3.344,3.344,0,0,1-.281-.853A2.754,2.754,0,0,1,89.789.176,3.374,3.374,0,0,1,87.5-.637a2.588,2.588,0,0,1-.94-2.043,2.66,2.66,0,0,1,1.143-2.338,5.821,5.821,0,0,1,3.322-.791h.914v-.5q0-1.316-1.134-1.316a.927.927,0,0,0-1.055,1.042H86.792a2.655,2.655,0,0,1,1.173-2.239,4.931,4.931,0,0,1,2.993-.86,4.323,4.323,0,0,1,2.874.888,3.086,3.086,0,0,1,1.081,2.435v4.21a4.311,4.311,0,0,0,.4,2V0ZM90.5-1.934a1.652,1.652,0,0,0,.918-.237,1.487,1.487,0,0,0,.523-.536V-4.228h-.861q-1.547,0-1.547,1.389a.848.848,0,0,0,.272.655A.986.986,0,0,0,90.5-1.934Zm11.03-.738a.684.684,0,0,0-.4-.606,6.016,6.016,0,0,0-1.5-.475A6.853,6.853,0,0,1,97.8-4.4a3.062,3.062,0,0,1-1.1-.971,2.319,2.319,0,0,1-.378-1.31,2.628,2.628,0,0,1,1.081-2.158,4.453,4.453,0,0,1,2.83-.848,4.934,4.934,0,0,1,3.023.853,2.666,2.666,0,0,1,1.143,2.241h-2.971q0-1.143-1.2-1.143a1.194,1.194,0,0,0-.782.259.8.8,0,0,0-.316.646.737.737,0,0,0,.387.642,3.654,3.654,0,0,0,1.235.4,10.671,10.671,0,0,1,1.49.378,2.706,2.706,0,0,1,2.145,2.646,2.491,2.491,0,0,1-1.156,2.118,5.068,5.068,0,0,1-2.993.817,5.172,5.172,0,0,1-2.18-.439,3.645,3.645,0,0,1-1.494-1.2,2.707,2.707,0,0,1-.536-1.591H98.8a1.145,1.145,0,0,0,.439.962,1.808,1.808,0,0,0,1.081.3,1.422,1.422,0,0,0,.91-.246A.787.787,0,0,0,101.531-2.672ZM111.129,0a3.344,3.344,0,0,1-.281-.853A2.754,2.754,0,0,1,108.563.176a3.374,3.374,0,0,1-2.285-.813,2.588,2.588,0,0,1-.94-2.043,2.66,2.66,0,0,1,1.143-2.338A5.821,5.821,0,0,1,109.8-5.81h.914v-.5q0-1.316-1.134-1.316a.927.927,0,0,0-1.055,1.042h-2.962a2.655,2.655,0,0,1,1.173-2.239,4.931,4.931,0,0,1,2.993-.86,4.323,4.323,0,0,1,2.874.888,3.086,3.086,0,0,1,1.081,2.435v4.21a4.311,4.311,0,0,0,.4,2V0Zm-1.854-1.934a1.652,1.652,0,0,0,.918-.237,1.487,1.487,0,0,0,.523-.536V-4.228h-.861q-1.547,0-1.547,1.389a.848.848,0,0,0,.272.655A.986.986,0,0,0,109.274-1.934ZM118.45,0h-2.971V-13.5h2.971Zm6.425.176a4.889,4.889,0,0,1-3.542-1.305,4.507,4.507,0,0,1-1.354-3.4v-.246a5.84,5.84,0,0,1,.541-2.575A3.955,3.955,0,0,1,122.1-9.075a4.763,4.763,0,0,1,2.461-.611,4.117,4.117,0,0,1,3.164,1.244,4.887,4.887,0,0,1,1.16,3.467v1.151h-5.889a2.135,2.135,0,0,0,.694,1.257,2.066,2.066,0,0,0,1.389.457,2.662,2.662,0,0,0,2.2-.984l1.354,1.6a3.784,3.784,0,0,1-1.569,1.217A5.3,5.3,0,0,1,124.875.176ZM124.541-7.4q-1.3,0-1.547,1.723h2.988v-.229a1.467,1.467,0,0,0-.36-1.1A1.434,1.434,0,0,0,124.541-7.4Zm10.512,4.729a.684.684,0,0,0-.4-.606,6.016,6.016,0,0,0-1.5-.475,6.853,6.853,0,0,1-1.828-.646,3.062,3.062,0,0,1-1.1-.971,2.319,2.319,0,0,1-.378-1.31,2.628,2.628,0,0,1,1.081-2.158,4.453,4.453,0,0,1,2.83-.848,4.934,4.934,0,0,1,3.023.853,2.666,2.666,0,0,1,1.143,2.241h-2.971q0-1.143-1.2-1.143a1.194,1.194,0,0,0-.782.259.8.8,0,0,0-.316.646.737.737,0,0,0,.387.642,3.654,3.654,0,0,0,1.235.4,10.671,10.671,0,0,1,1.49.378,2.706,2.706,0,0,1,2.145,2.646,2.491,2.491,0,0,1-1.156,2.118,5.068,5.068,0,0,1-2.993.817,5.172,5.172,0,0,1-2.18-.439,3.645,3.645,0,0,1-1.494-1.2,2.707,2.707,0,0,1-.536-1.591h2.769a1.145,1.145,0,0,0,.439.962,1.808,1.808,0,0,0,1.081.3,1.422,1.422,0,0,0,.91-.246A.787.787,0,0,0,135.053-2.672Z" transform="translate(1109 9976.77)" fill="#fff"/>
    <path id="Trazado_114205" data-name="Trazado 114205" d="M-7659-1449v122.666h-176.363" transform="translate(8419 11654.77)" fill="none" stroke="#729206" stroke-width="2"/>
    <rect id="Rectángulo_34003" data-name="Rectángulo 34003" width="326" height="68" rx="16" transform="translate(259 10290.77)" fill="#a5d20e"/>
    <path id="Trazado_114815" data-name="Trazado 114815" d="M8.235-2.391H4.008L3.27,0h-3.3L4.667-12.8h2.9L12.3,0H8.982ZM4.746-4.772H7.5L6.117-9.211ZM15.469-9.51l.1,1.116a3.27,3.27,0,0,1,2.716-1.292,2.407,2.407,0,0,1,2.435,1.433,3.165,3.165,0,0,1,2.795-1.433q2.892,0,2.971,3.5V0H23.511V-6a1.813,1.813,0,0,0-.246-1.063,1.048,1.048,0,0,0-.9-.334,1.4,1.4,0,0,0-1.31.782l.009.123V0H18.1V-5.985a1.906,1.906,0,0,0-.237-1.081,1.045,1.045,0,0,0-.905-.334,1.42,1.42,0,0,0-1.3.782V0H12.691V-9.51ZM31.4,0H28.424V-9.51H31.4ZM30.3-13.324h3.129l-2.443,2.76-2.417,0Zm2.663,8.5a6.421,6.421,0,0,1,.475-2.549A3.821,3.821,0,0,1,34.8-9.083a3.591,3.591,0,0,1,2.065-.6,2.855,2.855,0,0,1,2.32,1l.105-.826h2.689V-.36a4.009,4.009,0,0,1-.584,2.184A3.75,3.75,0,0,1,39.7,3.248a6.219,6.219,0,0,1-2.566.5,5.365,5.365,0,0,1-2.026-.4,3.657,3.657,0,0,1-1.5-1.028L34.849.58a2.716,2.716,0,0,0,2.18.976A1.764,1.764,0,0,0,39-.466v-.3a2.781,2.781,0,0,1-2.153.94,3.437,3.437,0,0,1-2.812-1.332A5.517,5.517,0,0,1,32.959-4.72Zm2.971.185a3.383,3.383,0,0,0,.439,1.85,1.386,1.386,0,0,0,1.23.681A1.573,1.573,0,0,0,39-2.751v-4a1.534,1.534,0,0,0-1.38-.65,1.4,1.4,0,0,0-1.239.708A3.858,3.858,0,0,0,35.93-4.641Zm7.356-.185a5.809,5.809,0,0,1,.976-3.56,3.211,3.211,0,0,1,2.725-1.3,2.731,2.731,0,0,1,2.145,1V-13.5H52.1V0H49.438l-.149-1.02a2.8,2.8,0,0,1-2.32,1.2,3.205,3.205,0,0,1-2.689-1.3A5.993,5.993,0,0,1,43.286-4.825Zm2.962.185q0,2.531,1.477,2.531a1.458,1.458,0,0,0,1.406-.826V-6.557A1.419,1.419,0,0,0,47.742-7.4q-1.371,0-1.485,2.215ZM59.142,0a3.344,3.344,0,0,1-.281-.853A2.754,2.754,0,0,1,56.575.176,3.374,3.374,0,0,1,54.29-.637a2.588,2.588,0,0,1-.94-2.043,2.66,2.66,0,0,1,1.143-2.338,5.821,5.821,0,0,1,3.322-.791h.914v-.5q0-1.316-1.134-1.316A.927.927,0,0,0,56.54-6.587H53.578a2.655,2.655,0,0,1,1.173-2.239,4.931,4.931,0,0,1,2.993-.86,4.323,4.323,0,0,1,2.874.888A3.086,3.086,0,0,1,61.7-6.363v4.21a4.311,4.311,0,0,0,.4,2V0ZM57.287-1.934a1.652,1.652,0,0,0,.918-.237,1.487,1.487,0,0,0,.523-.536V-4.228h-.861q-1.547,0-1.547,1.389a.848.848,0,0,0,.272.655A.986.986,0,0,0,57.287-1.934ZM66.463,0H63.492V-13.5h2.971Zm7.181,0a3.344,3.344,0,0,1-.281-.853A2.754,2.754,0,0,1,71.077.176a3.374,3.374,0,0,1-2.285-.813,2.588,2.588,0,0,1-.94-2.043,2.66,2.66,0,0,1,1.143-2.338,5.821,5.821,0,0,1,3.322-.791h.914v-.5q0-1.316-1.134-1.316a.927.927,0,0,0-1.055,1.042H68.08a2.655,2.655,0,0,1,1.173-2.239,4.931,4.931,0,0,1,2.993-.86A4.323,4.323,0,0,1,75.12-8.8,3.086,3.086,0,0,1,76.2-6.363v4.21a4.311,4.311,0,0,0,.4,2V0ZM71.789-1.934a1.652,1.652,0,0,0,.918-.237,1.487,1.487,0,0,0,.523-.536V-4.228h-.861q-1.547,0-1.547,1.389a.848.848,0,0,0,.272.655A.986.986,0,0,0,71.789-1.934ZM86.924.176a4.889,4.889,0,0,1-3.542-1.305,4.507,4.507,0,0,1-1.354-3.4v-.246a5.84,5.84,0,0,1,.541-2.575,3.955,3.955,0,0,1,1.578-1.727,4.763,4.763,0,0,1,2.461-.611,4.117,4.117,0,0,1,3.164,1.244,4.887,4.887,0,0,1,1.16,3.467v1.151H85.043a2.135,2.135,0,0,0,.694,1.257,2.066,2.066,0,0,0,1.389.457,2.662,2.662,0,0,0,2.2-.984l1.354,1.6A3.784,3.784,0,0,1,89.108-.277,5.3,5.3,0,0,1,86.924.176ZM86.59-7.4q-1.3,0-1.547,1.723h2.988v-.229a1.467,1.467,0,0,0-.36-1.1A1.434,1.434,0,0,0,86.59-7.4Zm9.387.51,1.38-2.619h3.076l-2.5,4.632L100.556,0H97.462L95.968-2.812,94.5,0H91.389l2.637-4.878-2.5-4.632h3.111Zm8.859-4.983V-9.51H106.4v2.057h-1.564V-3.1a1.111,1.111,0,0,0,.193.747,1.037,1.037,0,0,0,.765.211,4.345,4.345,0,0,0,.738-.053V-.079a5.466,5.466,0,0,1-1.67.255A3.1,3.1,0,0,1,102.6-.545a2.954,2.954,0,0,1-.729-2.188v-4.72h-1.213V-9.51h1.213v-2.364Zm7.33,12.05a4.889,4.889,0,0,1-3.542-1.305,4.507,4.507,0,0,1-1.354-3.4v-.246a5.84,5.84,0,0,1,.541-2.575,3.955,3.955,0,0,1,1.578-1.727,4.763,4.763,0,0,1,2.461-.611,4.117,4.117,0,0,1,3.164,1.244,4.887,4.887,0,0,1,1.16,3.467v1.151h-5.889a2.135,2.135,0,0,0,.694,1.257,2.066,2.066,0,0,0,1.389.457,2.662,2.662,0,0,0,2.2-.984l1.354,1.6A3.784,3.784,0,0,1,114.35-.277,5.3,5.3,0,0,1,112.166.176ZM111.832-7.4q-1.3,0-1.547,1.723h2.988v-.229a1.467,1.467,0,0,0-.36-1.1A1.434,1.434,0,0,0,111.832-7.4Zm8.253-2.109.1,1.116A3.225,3.225,0,0,1,122.9-9.686a2.713,2.713,0,0,1,2.219.888,4.226,4.226,0,0,1,.76,2.672V0h-2.971V-6a1.6,1.6,0,0,0-.29-1.059,1.342,1.342,0,0,0-1.055-.338,1.413,1.413,0,0,0-1.292.686V0h-2.962V-9.51Zm7.058,4.685a5.809,5.809,0,0,1,.976-3.56,3.211,3.211,0,0,1,2.725-1.3,2.731,2.731,0,0,1,2.145,1V-13.5h2.971V0h-2.663l-.149-1.02a2.8,2.8,0,0,1-2.32,1.2,3.205,3.205,0,0,1-2.689-1.3A5.993,5.993,0,0,1,127.143-4.825Zm2.962.185q0,2.531,1.477,2.531a1.458,1.458,0,0,0,1.406-.826V-6.557A1.419,1.419,0,0,0,131.6-7.4q-1.371,0-1.485,2.215ZM140.766,0h-2.971V-9.51h2.971Zm-3.146-11.962A1.322,1.322,0,0,1,138.076-13a1.724,1.724,0,0,1,1.187-.4,1.724,1.724,0,0,1,1.187.4,1.322,1.322,0,0,1,.457,1.037,1.322,1.322,0,0,1-.457,1.037,1.724,1.724,0,0,1-1.187.4,1.724,1.724,0,0,1-1.187-.4A1.322,1.322,0,0,1,137.619-11.962Zm4.6,7.137a5.809,5.809,0,0,1,.976-3.56,3.211,3.211,0,0,1,2.725-1.3,2.731,2.731,0,0,1,2.145,1V-13.5h2.971V0h-2.663l-.149-1.02a2.8,2.8,0,0,1-2.32,1.2,3.205,3.205,0,0,1-2.689-1.3A5.993,5.993,0,0,1,142.216-4.825Zm2.962.185q0,2.531,1.477,2.531a1.458,1.458,0,0,0,1.406-.826V-6.557a1.419,1.419,0,0,0-1.389-.844q-1.371,0-1.485,2.215ZM158.071,0a3.344,3.344,0,0,1-.281-.853A2.754,2.754,0,0,1,155.5.176a3.374,3.374,0,0,1-2.285-.813,2.588,2.588,0,0,1-.94-2.043,2.66,2.66,0,0,1,1.143-2.338,5.821,5.821,0,0,1,3.322-.791h.914v-.5q0-1.316-1.134-1.316a.927.927,0,0,0-1.055,1.042h-2.962a2.655,2.655,0,0,1,1.173-2.239,4.931,4.931,0,0,1,2.993-.86,4.323,4.323,0,0,1,2.874.888,3.086,3.086,0,0,1,1.081,2.435v4.21a4.311,4.311,0,0,0,.4,2V0Zm-1.854-1.934a1.652,1.652,0,0,0,.918-.237,1.487,1.487,0,0,0,.523-.536V-4.228H156.8q-1.547,0-1.547,1.389a.848.848,0,0,0,.272.655A.986.986,0,0,0,156.217-1.934Z" transform="translate(338.5 10330.77)" fill="#12263f"/>
  </g>
</svg>
