<svg xmlns="http://www.w3.org/2000/svg" xmlns:xlink="http://www.w3.org/1999/xlink" width="606.5" height="452" viewBox="0 0 606.5 452">
  <defs>
    <clipPath id="clip-path">
      <rect id="Rectángulo_33959" data-name="Rectángulo 33959" width="452" height="452" fill="none"/>
    </clipPath>
  </defs>
  <g id="Grupo_80485" data-name="Grupo 80485" transform="translate(-485.5 -8310)">
    <path id="Trazado_114811" data-name="Trazado 114811" d="M-98.039-4.641l3.4-12.422h4.594L-95.789,0h-4.5l-5.7-17.062h4.559ZM-84.82,0h-3.961V-12.68h3.961Zm-4.2-15.949a1.763,1.763,0,0,1,.609-1.383,2.3,2.3,0,0,1,1.582-.539,2.3,2.3,0,0,1,1.582.539,1.763,1.763,0,0,1,.609,1.383,1.763,1.763,0,0,1-.609,1.383,2.3,2.3,0,0,1-1.582.539,2.3,2.3,0,0,1-1.582-.539A1.763,1.763,0,0,1-89.016-15.949ZM-77.332-4.7l2-7.98h4.16L-75.3,0h-4.031l-4.137-12.68H-79.3ZM-65.824,0h-3.961V-12.68h3.961Zm-4.2-15.949a1.763,1.763,0,0,1,.609-1.383,2.3,2.3,0,0,1,1.582-.539,2.3,2.3,0,0,1,1.582.539,1.763,1.763,0,0,1,.609,1.383,1.763,1.763,0,0,1-.609,1.383,2.3,2.3,0,0,1-1.582.539,2.3,2.3,0,0,1-1.582-.539A1.763,1.763,0,0,1-70.02-15.949Zm14.3,6.844-1.3-.094a2.336,2.336,0,0,0-2.391,1.172V0h-3.949V-12.68h3.7l.129,1.629a3.058,3.058,0,0,1,2.777-1.863,3.851,3.851,0,0,1,1.1.141Zm19.172,2.859a7.646,7.646,0,0,1-1.33,4.717A4.264,4.264,0,0,1-41.473.234a3.655,3.655,0,0,1-2.871-1.277V4.875h-3.949V-12.68H-44.6l.117,1.172A3.656,3.656,0,0,1-41.5-12.914a4.3,4.3,0,0,1,3.645,1.729,7.741,7.741,0,0,1,1.3,4.752ZM-40.5-6.492q0-3.375-1.969-3.375a1.859,1.859,0,0,0-1.875,1.008v4.992a1.919,1.919,0,0,0,1.9,1.055q1.887,0,1.945-3.258ZM-27.668,0a4.459,4.459,0,0,1-.375-1.137A3.672,3.672,0,0,1-31.09.234,4.5,4.5,0,0,1-34.137-.85a3.45,3.45,0,0,1-1.254-2.725,3.546,3.546,0,0,1,1.523-3.117,7.761,7.761,0,0,1,4.43-1.055h1.219v-.671q0-1.755-1.512-1.755a1.236,1.236,0,0,0-1.406,1.39h-3.949a3.54,3.54,0,0,1,1.564-2.985,6.575,6.575,0,0,1,3.99-1.147A5.764,5.764,0,0,1-25.7-11.73a4.115,4.115,0,0,1,1.441,3.246v5.613A5.748,5.748,0,0,0-23.719-.2V0Zm-2.473-2.578a2.2,2.2,0,0,0,1.225-.316,1.983,1.983,0,0,0,.7-.715V-5.637h-1.148q-2.062,0-2.062,1.852a1.131,1.131,0,0,0,.363.873A1.315,1.315,0,0,0-30.141-2.578ZM-14.4-9.105-15.7-9.2a2.336,2.336,0,0,0-2.391,1.172V0h-3.949V-12.68h3.7l.129,1.629a3.058,3.058,0,0,1,2.777-1.863,3.851,3.851,0,0,1,1.1.141ZM-6.187,0a4.459,4.459,0,0,1-.375-1.137A3.672,3.672,0,0,1-9.609.234,4.5,4.5,0,0,1-12.656-.85,3.45,3.45,0,0,1-13.91-3.574a3.546,3.546,0,0,1,1.523-3.117,7.761,7.761,0,0,1,4.43-1.055h1.219v-.671q0-1.755-1.512-1.755a1.236,1.236,0,0,0-1.406,1.39h-3.949a3.54,3.54,0,0,1,1.564-2.985,6.575,6.575,0,0,1,3.99-1.147A5.764,5.764,0,0,1-4.219-11.73,4.115,4.115,0,0,1-2.777-8.484v5.613A5.748,5.748,0,0,0-2.238-.2V0ZM-8.66-2.578a2.2,2.2,0,0,0,1.225-.316,1.983,1.983,0,0,0,.7-.715V-5.637H-7.887q-2.062,0-2.062,1.852a1.131,1.131,0,0,0,.363.873A1.315,1.315,0,0,0-8.66-2.578Zm19.406-.234a1.756,1.756,0,0,0,1.289-.451,1.654,1.654,0,0,0,.445-1.26h3.7A4.384,4.384,0,0,1,14.689-1.1,5.558,5.558,0,0,1,10.84.234,5.627,5.627,0,0,1,6.48-1.5,6.834,6.834,0,0,1,4.887-6.3v-.164A7.723,7.723,0,0,1,5.6-9.861a5.162,5.162,0,0,1,2.045-2.262,6.1,6.1,0,0,1,3.164-.791,5.488,5.488,0,0,1,3.926,1.371,4.863,4.863,0,0,1,1.453,3.715h-3.7A2.168,2.168,0,0,0,12-9.34a1.658,1.658,0,0,0-1.289-.527q-1.535,0-1.793,1.957A13.809,13.809,0,0,0,8.836-6.2a5.424,5.424,0,0,0,.457,2.648A1.582,1.582,0,0,0,10.746-2.812Zm6.609-3.645a7.484,7.484,0,0,1,.738-3.381,5.28,5.28,0,0,1,2.121-2.279,6.388,6.388,0,0,1,3.246-.8,5.83,5.83,0,0,1,4.488,1.764,6.768,6.768,0,0,1,1.641,4.8v.141a6.566,6.566,0,0,1-1.646,4.705A5.846,5.846,0,0,1,23.484.234a5.912,5.912,0,0,1-4.348-1.623,6.348,6.348,0,0,1-1.77-4.4Zm3.949.246a4.718,4.718,0,0,0,.551,2.578,1.835,1.835,0,0,0,1.629.82q2.109,0,2.156-3.246v-.4q0-3.41-2.18-3.41-1.98,0-2.145,2.941ZM34.957-12.68l.129,1.488a4.3,4.3,0,0,1,3.621-1.723,3.618,3.618,0,0,1,2.959,1.184A5.635,5.635,0,0,1,42.68-8.168V0H38.719V-8a2.14,2.14,0,0,0-.387-1.412,1.789,1.789,0,0,0-1.406-.451,1.883,1.883,0,0,0-1.723.914V0H31.254V-12.68ZM51.5-3.562a.912.912,0,0,0-.527-.809,8.021,8.021,0,0,0-2-.633,9.138,9.138,0,0,1-2.437-.861A4.083,4.083,0,0,1,45.07-7.16a3.092,3.092,0,0,1-.5-1.746,3.5,3.5,0,0,1,1.441-2.877,5.938,5.938,0,0,1,3.773-1.131,6.579,6.579,0,0,1,4.031,1.137,3.555,3.555,0,0,1,1.523,2.988H51.375q0-1.523-1.605-1.523a1.591,1.591,0,0,0-1.043.346,1.07,1.07,0,0,0-.422.861.982.982,0,0,0,.516.855,4.872,4.872,0,0,0,1.646.539,14.228,14.228,0,0,1,1.986.5q2.859.984,2.859,3.527A3.321,3.321,0,0,1,53.771-.855a6.758,6.758,0,0,1-3.99,1.09,6.9,6.9,0,0,1-2.906-.586,4.86,4.86,0,0,1-1.992-1.594,3.609,3.609,0,0,1-.715-2.121h3.691a1.526,1.526,0,0,0,.586,1.283,2.41,2.41,0,0,0,1.441.4A1.9,1.9,0,0,0,51.1-2.707,1.05,1.05,0,0,0,51.5-3.562ZM64.711-1.371A4.072,4.072,0,0,1,61.324.234,3.993,3.993,0,0,1,58.166-.979a5.1,5.1,0,0,1-1.072-3.486V-12.68h3.949v8.238a1.419,1.419,0,0,0,1.582,1.629,2.064,2.064,0,0,0,1.934-.973V-12.68h3.973V0h-3.7ZM74.426-12.68l.129,1.488a4.36,4.36,0,0,1,3.621-1.723A3.21,3.21,0,0,1,81.422-11a4.22,4.22,0,0,1,3.727-1.91q3.855,0,3.961,4.664V0H85.148V-8a2.417,2.417,0,0,0-.328-1.418,1.4,1.4,0,0,0-1.2-.445,1.871,1.871,0,0,0-1.746,1.043l.012.164V0H77.93V-7.98a2.541,2.541,0,0,0-.316-1.441,1.393,1.393,0,0,0-1.207-.445,1.894,1.894,0,0,0-1.734,1.043V0H70.723V-12.68ZM95.531,0H91.57V-12.68h3.961Zm-4.2-15.949a1.763,1.763,0,0,1,.609-1.383,2.3,2.3,0,0,1,1.582-.539,2.3,2.3,0,0,1,1.582.539,1.763,1.763,0,0,1,.609,1.383,1.763,1.763,0,0,1-.609,1.383,2.3,2.3,0,0,1-1.582.539,2.3,2.3,0,0,1-1.582-.539A1.763,1.763,0,0,1,91.336-15.949Zm14.3,6.844-1.3-.094a2.336,2.336,0,0,0-2.391,1.172V0H97.992V-12.68h3.7l.129,1.629a3.058,3.058,0,0,1,2.777-1.863,3.851,3.851,0,0,1,1.1.141ZM-104.262,27.469l2.109-7.148h4.23l-5.168,14.8-.223.539a3.926,3.926,0,0,1-3.891,2.461,6.189,6.189,0,0,1-1.629-.233V35.074h.516a2.7,2.7,0,0,0,1.271-.24,1.459,1.459,0,0,0,.65-.862l.316-.844-4.406-12.807h4.219Zm18.7,2.719a1.756,1.756,0,0,0,1.289-.451,1.654,1.654,0,0,0,.445-1.26h3.7A4.384,4.384,0,0,1-81.615,31.9a5.558,5.558,0,0,1-3.85,1.336A5.627,5.627,0,0,1-89.824,31.5a6.834,6.834,0,0,1-1.594-4.8v-.164a7.723,7.723,0,0,1,.709-3.393,5.162,5.162,0,0,1,2.045-2.262,6.1,6.1,0,0,1,3.164-.791,5.488,5.488,0,0,1,3.926,1.371,4.863,4.863,0,0,1,1.453,3.715h-3.7a2.168,2.168,0,0,0-.48-1.512,1.658,1.658,0,0,0-1.289-.527q-1.535,0-1.793,1.957a13.809,13.809,0,0,0-.082,1.711,5.424,5.424,0,0,0,.457,2.648A1.582,1.582,0,0,0-85.559,30.188Zm6.609-3.645a7.484,7.484,0,0,1,.738-3.381,5.28,5.28,0,0,1,2.121-2.279,6.388,6.388,0,0,1,3.246-.8,5.83,5.83,0,0,1,4.488,1.764,6.768,6.768,0,0,1,1.641,4.8v.141a6.566,6.566,0,0,1-1.646,4.705,5.846,5.846,0,0,1-4.459,1.74,5.912,5.912,0,0,1-4.348-1.623,6.348,6.348,0,0,1-1.77-4.4Zm3.949.246a4.718,4.718,0,0,0,.551,2.578,1.835,1.835,0,0,0,1.629.82q2.109,0,2.156-3.246v-.4q0-3.41-2.18-3.41-1.98,0-2.145,2.941Zm13.652-6.469.129,1.488A4.3,4.3,0,0,1-57.6,20.086a3.618,3.618,0,0,1,2.959,1.184,5.635,5.635,0,0,1,1.014,3.563V33h-3.961V25a2.14,2.14,0,0,0-.387-1.412,1.789,1.789,0,0,0-1.406-.451,1.883,1.883,0,0,0-1.723.914V33h-3.949V20.32ZM-44.8,29.438a.912.912,0,0,0-.527-.809,8.021,8.021,0,0,0-2-.633,9.138,9.138,0,0,1-2.437-.861,4.083,4.083,0,0,1-1.465-1.295,3.092,3.092,0,0,1-.5-1.746A3.5,3.5,0,0,1-50.3,21.217a5.938,5.938,0,0,1,3.773-1.131,6.579,6.579,0,0,1,4.031,1.137,3.555,3.555,0,0,1,1.523,2.988H-44.93q0-1.523-1.605-1.523a1.591,1.591,0,0,0-1.043.346,1.07,1.07,0,0,0-.422.861.982.982,0,0,0,.516.855,4.872,4.872,0,0,0,1.646.539,14.228,14.228,0,0,1,1.986.5q2.859.984,2.859,3.527a3.321,3.321,0,0,1-1.541,2.824,6.758,6.758,0,0,1-3.99,1.09,6.9,6.9,0,0,1-2.906-.586,4.86,4.86,0,0,1-1.992-1.594,3.609,3.609,0,0,1-.715-2.121h3.691a1.526,1.526,0,0,0,.586,1.283,2.41,2.41,0,0,0,1.441.4,1.9,1.9,0,0,0,1.213-.328A1.05,1.05,0,0,0-44.8,29.438Zm13.207,2.191a4.072,4.072,0,0,1-3.387,1.605,3.993,3.993,0,0,1-3.158-1.213,5.1,5.1,0,0,1-1.072-3.486V20.32h3.949v8.238a1.419,1.419,0,0,0,1.582,1.629,2.064,2.064,0,0,0,1.934-.973V20.32h3.973V33h-3.7Zm9.715-11.309.129,1.488a4.36,4.36,0,0,1,3.621-1.723A3.21,3.21,0,0,1-14.883,22a4.22,4.22,0,0,1,3.727-1.91q3.855,0,3.961,4.664V33h-3.961V25a2.417,2.417,0,0,0-.328-1.418,1.4,1.4,0,0,0-1.2-.445,1.871,1.871,0,0,0-1.746,1.043l.012.164V33h-3.961V25.02a2.541,2.541,0,0,0-.316-1.441,1.393,1.393,0,0,0-1.207-.445,1.894,1.894,0,0,0-1.734,1.043V33h-3.949V20.32ZM-.773,33H-4.734V20.32H-.773Zm-4.2-15.949a1.763,1.763,0,0,1,.609-1.383,2.3,2.3,0,0,1,1.582-.539,2.3,2.3,0,0,1,1.582.539,1.763,1.763,0,0,1,.609,1.383A1.763,1.763,0,0,1-1.2,18.434a2.3,2.3,0,0,1-1.582.539,2.3,2.3,0,0,1-1.582-.539A1.763,1.763,0,0,1-4.969,17.051Zm14.3,6.844-1.3-.094a2.336,2.336,0,0,0-2.391,1.172V33H1.688V20.32h3.7l.129,1.629A3.058,3.058,0,0,1,8.3,20.086a3.851,3.851,0,0,1,1.1.141ZM28.5,26.754a7.646,7.646,0,0,1-1.33,4.717,4.264,4.264,0,0,1-3.592,1.764,3.655,3.655,0,0,1-2.871-1.277v5.918H16.758V20.32h3.691l.117,1.172a3.656,3.656,0,0,1,2.988-1.406A4.3,4.3,0,0,1,27.2,21.814a7.741,7.741,0,0,1,1.3,4.752Zm-3.949-.246q0-3.375-1.969-3.375a1.859,1.859,0,0,0-1.875,1.008v4.992a1.919,1.919,0,0,0,1.9,1.055q1.887,0,1.945-3.258ZM37.383,33a4.459,4.459,0,0,1-.375-1.137,3.672,3.672,0,0,1-3.047,1.371,4.5,4.5,0,0,1-3.047-1.084,3.45,3.45,0,0,1-1.254-2.725,3.546,3.546,0,0,1,1.523-3.117,7.761,7.761,0,0,1,4.43-1.055h1.219v-.671q0-1.755-1.512-1.755a1.236,1.236,0,0,0-1.406,1.39H29.965a3.54,3.54,0,0,1,1.564-2.985,6.575,6.575,0,0,1,3.99-1.147,5.764,5.764,0,0,1,3.832,1.184,4.115,4.115,0,0,1,1.441,3.246v5.613a5.748,5.748,0,0,0,.539,2.672V33ZM34.91,30.422a2.2,2.2,0,0,0,1.225-.316,1.983,1.983,0,0,0,.7-.715V27.363H35.684q-2.062,0-2.062,1.852a1.131,1.131,0,0,0,.363.873A1.315,1.315,0,0,0,34.91,30.422Zm15.738-6.527-1.3-.094a2.336,2.336,0,0,0-2.391,1.172V33H43.008V20.32h3.7l.129,1.629a3.058,3.058,0,0,1,2.777-1.863,3.851,3.851,0,0,1,1.1.141ZM58.863,33a4.459,4.459,0,0,1-.375-1.137,3.672,3.672,0,0,1-3.047,1.371,4.5,4.5,0,0,1-3.047-1.084,3.45,3.45,0,0,1-1.254-2.725,3.546,3.546,0,0,1,1.523-3.117,7.761,7.761,0,0,1,4.43-1.055h1.219v-.671q0-1.755-1.512-1.755a1.236,1.236,0,0,0-1.406,1.39H51.445a3.54,3.54,0,0,1,1.564-2.985A6.575,6.575,0,0,1,57,20.086a5.764,5.764,0,0,1,3.832,1.184,4.115,4.115,0,0,1,1.441,3.246v5.613a5.748,5.748,0,0,0,.539,2.672V33Zm-2.473-2.578a2.2,2.2,0,0,0,1.225-.316,1.983,1.983,0,0,0,.7-.715V27.363H57.164q-2.062,0-2.062,1.852a1.131,1.131,0,0,0,.363.873A1.315,1.315,0,0,0,56.391,30.422Zm19.1-2.121,2-7.98h4.16L77.52,33H73.488L69.352,20.32h4.172ZM87,33H83.039V20.32H87ZM82.8,17.051a1.763,1.763,0,0,1,.609-1.383,2.591,2.591,0,0,1,3.164,0,1.874,1.874,0,0,1,0,2.766,2.591,2.591,0,0,1-3.164,0A1.763,1.763,0,0,1,82.8,17.051ZM94.488,28.3l2-7.98h4.16L96.516,33H92.484L88.348,20.32H92.52ZM106,33h-3.961V20.32H106Zm-4.2-15.949a1.763,1.763,0,0,1,.609-1.383,2.591,2.591,0,0,1,3.164,0,1.874,1.874,0,0,1,0,2.766,2.591,2.591,0,0,1-3.164,0A1.763,1.763,0,0,1,101.8,17.051Zm14.3,6.844-1.3-.094a2.336,2.336,0,0,0-2.391,1.172V33h-3.949V20.32h3.7l.129,1.629a3.058,3.058,0,0,1,2.777-1.863,3.851,3.851,0,0,1,1.1.141Z" transform="translate(790 8528)" fill="#12263f"/>
    <path id="Trazado_114808" data-name="Trazado 114808" d="M-37.383-5.777a6.231,6.231,0,0,1-.961,3.146A5.8,5.8,0,0,1-40.811-.516a8.4,8.4,0,0,1-3.627.75,6.7,6.7,0,0,1-5.3-2.191,9.048,9.048,0,0,1-1.934-6.187v-.844a10.328,10.328,0,0,1,.873-4.389,6.615,6.615,0,0,1,2.514-2.906,7.013,7.013,0,0,1,3.8-1.025,7.354,7.354,0,0,1,4.992,1.635,6.459,6.459,0,0,1,2.145,4.506h-4.1a3.056,3.056,0,0,0-.785-2.238,3.229,3.229,0,0,0-2.25-.68,2.457,2.457,0,0,0-2.25,1.148,7.381,7.381,0,0,0-.75,3.668v1.207a8.167,8.167,0,0,0,.686,3.9,2.509,2.509,0,0,0,2.361,1.172,3.159,3.159,0,0,0,2.168-.668,2.835,2.835,0,0,0,.8-2.121Zm1.266-.68a7.484,7.484,0,0,1,.738-3.381,5.28,5.28,0,0,1,2.121-2.279,6.388,6.388,0,0,1,3.246-.8,5.83,5.83,0,0,1,4.488,1.764,6.768,6.768,0,0,1,1.641,4.8v.141a6.566,6.566,0,0,1-1.646,4.705A5.846,5.846,0,0,1-29.988.234a5.912,5.912,0,0,1-4.348-1.623,6.348,6.348,0,0,1-1.77-4.4Zm3.949.246a4.718,4.718,0,0,0,.551,2.578,1.835,1.835,0,0,0,1.629.82q2.109,0,2.156-3.246v-.4q0-3.41-2.18-3.41-1.98,0-2.145,2.941Zm13.652-6.469.129,1.488a4.3,4.3,0,0,1,3.621-1.723,3.618,3.618,0,0,1,2.959,1.184,5.635,5.635,0,0,1,1.014,3.563V0h-3.961V-8a2.14,2.14,0,0,0-.387-1.412,1.789,1.789,0,0,0-1.406-.451,1.883,1.883,0,0,0-1.723.914V0h-3.949V-12.68ZM-1.969-3.562A.912.912,0,0,0-2.5-4.371,8.021,8.021,0,0,0-4.5-5a9.138,9.138,0,0,1-2.437-.861A4.083,4.083,0,0,1-8.4-7.16a3.092,3.092,0,0,1-.5-1.746,3.5,3.5,0,0,1,1.441-2.877,5.938,5.938,0,0,1,3.773-1.131A6.579,6.579,0,0,1,.34-11.777,3.555,3.555,0,0,1,1.863-8.789H-2.1q0-1.523-1.605-1.523a1.591,1.591,0,0,0-1.043.346,1.07,1.07,0,0,0-.422.861.982.982,0,0,0,.516.855,4.872,4.872,0,0,0,1.646.539,14.228,14.228,0,0,1,1.986.5Q1.84-6.223,1.84-3.68A3.321,3.321,0,0,1,.3-.855,6.758,6.758,0,0,1-3.691.234,6.9,6.9,0,0,1-6.6-.352,4.86,4.86,0,0,1-8.59-1.945,3.609,3.609,0,0,1-9.3-4.066h3.691a1.526,1.526,0,0,0,.586,1.283,2.41,2.41,0,0,0,1.441.4,1.9,1.9,0,0,0,1.213-.328A1.05,1.05,0,0,0-1.969-3.562ZM11.238-1.371A4.072,4.072,0,0,1,7.852.234,3.993,3.993,0,0,1,4.693-.979,5.1,5.1,0,0,1,3.621-4.465V-12.68H7.57v8.238A1.419,1.419,0,0,0,9.152-2.812a2.064,2.064,0,0,0,1.934-.973V-12.68h3.973V0h-3.7ZM20.953-12.68l.129,1.488A4.36,4.36,0,0,1,24.7-12.914,3.21,3.21,0,0,1,27.949-11a4.22,4.22,0,0,1,3.727-1.91q3.855,0,3.961,4.664V0H31.676V-8a2.417,2.417,0,0,0-.328-1.418,1.4,1.4,0,0,0-1.2-.445,1.871,1.871,0,0,0-1.746,1.043l.012.164V0H24.457V-7.98a2.541,2.541,0,0,0-.316-1.441,1.393,1.393,0,0,0-1.207-.445A1.894,1.894,0,0,0,21.2-8.824V0H17.25V-12.68ZM42.059,0H38.1V-12.68h3.961Zm-4.2-15.949a1.763,1.763,0,0,1,.609-1.383,2.3,2.3,0,0,1,1.582-.539,2.3,2.3,0,0,1,1.582.539,1.763,1.763,0,0,1,.609,1.383,1.763,1.763,0,0,1-.609,1.383,2.3,2.3,0,0,1-1.582.539,2.3,2.3,0,0,1-1.582-.539A1.763,1.763,0,0,1,37.863-15.949Zm14.3,6.844-1.3-.094a2.336,2.336,0,0,0-2.391,1.172V0H44.52V-12.68h3.7l.129,1.629a3.058,3.058,0,0,1,2.777-1.863,3.851,3.851,0,0,1,1.1.141Z" transform="translate(554 8374)" fill="#12263f"/>
    <path id="Trazado_114810" data-name="Trazado 114810" d="M-37.383-5.777a6.231,6.231,0,0,1-.961,3.146A5.8,5.8,0,0,1-40.811-.516a8.4,8.4,0,0,1-3.627.75,6.7,6.7,0,0,1-5.3-2.191,9.048,9.048,0,0,1-1.934-6.187v-.844a10.328,10.328,0,0,1,.873-4.389,6.615,6.615,0,0,1,2.514-2.906,7.013,7.013,0,0,1,3.8-1.025,7.354,7.354,0,0,1,4.992,1.635,6.459,6.459,0,0,1,2.145,4.506h-4.1a3.056,3.056,0,0,0-.785-2.238,3.229,3.229,0,0,0-2.25-.68,2.457,2.457,0,0,0-2.25,1.148,7.381,7.381,0,0,0-.75,3.668v1.207a8.167,8.167,0,0,0,.686,3.9,2.509,2.509,0,0,0,2.361,1.172,3.159,3.159,0,0,0,2.168-.668,2.835,2.835,0,0,0,.8-2.121Zm1.266-.68a7.484,7.484,0,0,1,.738-3.381,5.28,5.28,0,0,1,2.121-2.279,6.388,6.388,0,0,1,3.246-.8,5.83,5.83,0,0,1,4.488,1.764,6.768,6.768,0,0,1,1.641,4.8v.141a6.566,6.566,0,0,1-1.646,4.705A5.846,5.846,0,0,1-29.988.234a5.912,5.912,0,0,1-4.348-1.623,6.348,6.348,0,0,1-1.77-4.4Zm3.949.246a4.718,4.718,0,0,0,.551,2.578,1.835,1.835,0,0,0,1.629.82q2.109,0,2.156-3.246v-.4q0-3.41-2.18-3.41-1.98,0-2.145,2.941Zm13.652-6.469.129,1.488a4.3,4.3,0,0,1,3.621-1.723,3.618,3.618,0,0,1,2.959,1.184,5.635,5.635,0,0,1,1.014,3.563V0h-3.961V-8a2.14,2.14,0,0,0-.387-1.412,1.789,1.789,0,0,0-1.406-.451,1.883,1.883,0,0,0-1.723.914V0h-3.949V-12.68ZM-1.969-3.562A.912.912,0,0,0-2.5-4.371,8.021,8.021,0,0,0-4.5-5a9.138,9.138,0,0,1-2.437-.861A4.083,4.083,0,0,1-8.4-7.16a3.092,3.092,0,0,1-.5-1.746,3.5,3.5,0,0,1,1.441-2.877,5.938,5.938,0,0,1,3.773-1.131A6.579,6.579,0,0,1,.34-11.777,3.555,3.555,0,0,1,1.863-8.789H-2.1q0-1.523-1.605-1.523a1.591,1.591,0,0,0-1.043.346,1.07,1.07,0,0,0-.422.861.982.982,0,0,0,.516.855,4.872,4.872,0,0,0,1.646.539,14.228,14.228,0,0,1,1.986.5Q1.84-6.223,1.84-3.68A3.321,3.321,0,0,1,.3-.855,6.758,6.758,0,0,1-3.691.234,6.9,6.9,0,0,1-6.6-.352,4.86,4.86,0,0,1-8.59-1.945,3.609,3.609,0,0,1-9.3-4.066h3.691a1.526,1.526,0,0,0,.586,1.283,2.41,2.41,0,0,0,1.441.4,1.9,1.9,0,0,0,1.213-.328A1.05,1.05,0,0,0-1.969-3.562ZM11.238-1.371A4.072,4.072,0,0,1,7.852.234,3.993,3.993,0,0,1,4.693-.979,5.1,5.1,0,0,1,3.621-4.465V-12.68H7.57v8.238A1.419,1.419,0,0,0,9.152-2.812a2.064,2.064,0,0,0,1.934-.973V-12.68h3.973V0h-3.7ZM20.953-12.68l.129,1.488A4.36,4.36,0,0,1,24.7-12.914,3.21,3.21,0,0,1,27.949-11a4.22,4.22,0,0,1,3.727-1.91q3.855,0,3.961,4.664V0H31.676V-8a2.417,2.417,0,0,0-.328-1.418,1.4,1.4,0,0,0-1.2-.445,1.871,1.871,0,0,0-1.746,1.043l.012.164V0H24.457V-7.98a2.541,2.541,0,0,0-.316-1.441,1.393,1.393,0,0,0-1.207-.445A1.894,1.894,0,0,0,21.2-8.824V0H17.25V-12.68ZM42.059,0H38.1V-12.68h3.961Zm-4.2-15.949a1.763,1.763,0,0,1,.609-1.383,2.3,2.3,0,0,1,1.582-.539,2.3,2.3,0,0,1,1.582.539,1.763,1.763,0,0,1,.609,1.383,1.763,1.763,0,0,1-.609,1.383,2.3,2.3,0,0,1-1.582.539,2.3,2.3,0,0,1-1.582-.539A1.763,1.763,0,0,1,37.863-15.949Zm14.3,6.844-1.3-.094a2.336,2.336,0,0,0-2.391,1.172V0H44.52V-12.68h3.7l.129,1.629a3.058,3.058,0,0,1,2.777-1.863,3.851,3.851,0,0,1,1.1.141Z" transform="translate(1024 8732)" fill="#12263f"/>
    <path id="Trazado_114807" data-name="Trazado 114807" d="M-40.482-5.777a6.231,6.231,0,0,1-.961,3.146A5.8,5.8,0,0,1-43.91-.516a8.4,8.4,0,0,1-3.627.75,6.7,6.7,0,0,1-5.3-2.191,9.048,9.048,0,0,1-1.934-6.187v-.844a10.328,10.328,0,0,1,.873-4.389,6.615,6.615,0,0,1,2.514-2.906,7.013,7.013,0,0,1,3.8-1.025,7.354,7.354,0,0,1,4.992,1.635,6.459,6.459,0,0,1,2.145,4.506h-4.1a3.056,3.056,0,0,0-.785-2.238,3.229,3.229,0,0,0-2.25-.68,2.457,2.457,0,0,0-2.25,1.148,7.381,7.381,0,0,0-.75,3.668v1.207a8.167,8.167,0,0,0,.686,3.9,2.509,2.509,0,0,0,2.361,1.172,3.159,3.159,0,0,0,2.168-.668,2.835,2.835,0,0,0,.8-2.121Zm1.266-.68a7.484,7.484,0,0,1,.738-3.381,5.28,5.28,0,0,1,2.121-2.279,6.388,6.388,0,0,1,3.246-.8,5.83,5.83,0,0,1,4.488,1.764,6.768,6.768,0,0,1,1.641,4.8v.141a6.566,6.566,0,0,1-1.646,4.705A5.846,5.846,0,0,1-33.088.234a5.912,5.912,0,0,1-4.348-1.623,6.348,6.348,0,0,1-1.77-4.4Zm3.949.246a4.718,4.718,0,0,0,.551,2.578,1.835,1.835,0,0,0,1.629.82q2.109,0,2.156-3.246v-.4q0-3.41-2.18-3.41-1.98,0-2.145,2.941Zm13.652-6.469.129,1.488a4.3,4.3,0,0,1,3.621-1.723,3.618,3.618,0,0,1,2.959,1.184,5.635,5.635,0,0,1,1.014,3.563V0h-3.961V-8a2.14,2.14,0,0,0-.387-1.412,1.789,1.789,0,0,0-1.406-.451,1.883,1.883,0,0,0-1.723.914V0h-3.949V-12.68ZM-5.068-3.562A.912.912,0,0,0-5.6-4.371,8.021,8.021,0,0,0-7.6-5a9.138,9.138,0,0,1-2.437-.861A4.083,4.083,0,0,1-11.5-7.16a3.092,3.092,0,0,1-.5-1.746,3.5,3.5,0,0,1,1.441-2.877,5.938,5.938,0,0,1,3.773-1.131A6.579,6.579,0,0,1-2.76-11.777,3.555,3.555,0,0,1-1.236-8.789H-5.2q0-1.523-1.605-1.523a1.591,1.591,0,0,0-1.043.346,1.07,1.07,0,0,0-.422.861.982.982,0,0,0,.516.855,4.872,4.872,0,0,0,1.646.539,14.228,14.228,0,0,1,1.986.5Q-1.26-6.223-1.26-3.68A3.321,3.321,0,0,1-2.8-.855,6.758,6.758,0,0,1-6.791.234,6.9,6.9,0,0,1-9.7-.352a4.86,4.86,0,0,1-1.992-1.594A3.609,3.609,0,0,1-12.4-4.066h3.691a1.526,1.526,0,0,0,.586,1.283,2.41,2.41,0,0,0,1.441.4,1.9,1.9,0,0,0,1.213-.328A1.05,1.05,0,0,0-5.068-3.562ZM6.721.234A6.518,6.518,0,0,1,2-1.506a6.009,6.009,0,0,1-1.8-4.529v-.328A7.787,7.787,0,0,1,.914-9.8a5.274,5.274,0,0,1,2.1-2.3A6.35,6.35,0,0,1,6.3-12.914a5.489,5.489,0,0,1,4.219,1.658,6.516,6.516,0,0,1,1.547,4.623V-5.1H4.213a2.846,2.846,0,0,0,.926,1.676,2.755,2.755,0,0,0,1.852.609A3.549,3.549,0,0,0,9.92-4.125l1.8,2.133A5.045,5.045,0,0,1,9.633-.369,7.069,7.069,0,0,1,6.721.234Zm-.445-10.1q-1.734,0-2.062,2.3H8.2v-.3a1.956,1.956,0,0,0-.48-1.471A1.912,1.912,0,0,0,6.275-9.867Zm6.914,3.434a8.561,8.561,0,0,1,.633-3.4,5.094,5.094,0,0,1,1.816-2.279,4.788,4.788,0,0,1,2.754-.8,3.807,3.807,0,0,1,3.094,1.336l.141-1.1h3.586V-.48a5.346,5.346,0,0,1-.779,2.912,5,5,0,0,1-2.256,1.9,8.292,8.292,0,0,1-3.422.662,7.153,7.153,0,0,1-2.7-.527,4.876,4.876,0,0,1-2-1.371L15.709.773a3.621,3.621,0,0,0,2.906,1.3q2.625,0,2.625-2.7v-.4A3.708,3.708,0,0,1,18.369.234a4.583,4.583,0,0,1-3.75-1.775,7.356,7.356,0,0,1-1.43-4.752Zm3.961.246a4.511,4.511,0,0,0,.586,2.467,1.849,1.849,0,0,0,1.641.908,2.1,2.1,0,0,0,1.863-.855V-9a2.045,2.045,0,0,0-1.84-.867,1.861,1.861,0,0,0-1.652.943A5.144,5.144,0,0,0,17.15-6.187ZM35.01-1.371A4.072,4.072,0,0,1,31.623.234,3.993,3.993,0,0,1,28.465-.979a5.1,5.1,0,0,1-1.072-3.486V-12.68h3.949v8.238a1.419,1.419,0,0,0,1.582,1.629,2.064,2.064,0,0,0,1.934-.973V-12.68H38.83V0h-3.7ZM45.158,0H41.2V-12.68h3.961Zm-4.2-15.949a1.763,1.763,0,0,1,.609-1.383,2.3,2.3,0,0,1,1.582-.539,2.3,2.3,0,0,1,1.582.539,1.763,1.763,0,0,1,.609,1.383,1.763,1.763,0,0,1-.609,1.383,2.3,2.3,0,0,1-1.582.539,2.3,2.3,0,0,1-1.582-.539A1.763,1.763,0,0,1,40.963-15.949Zm14.3,6.844-1.3-.094a2.336,2.336,0,0,0-2.391,1.172V0H47.619V-12.68h3.7l.129,1.629a3.058,3.058,0,0,1,2.777-1.863,3.851,3.851,0,0,1,1.1.141Z" transform="translate(1028 8374)" fill="#12263f"/>
    <path id="Trazado_114809" data-name="Trazado 114809" d="M-40.482-5.777a6.231,6.231,0,0,1-.961,3.146A5.8,5.8,0,0,1-43.91-.516a8.4,8.4,0,0,1-3.627.75,6.7,6.7,0,0,1-5.3-2.191,9.048,9.048,0,0,1-1.934-6.187v-.844a10.328,10.328,0,0,1,.873-4.389,6.615,6.615,0,0,1,2.514-2.906,7.013,7.013,0,0,1,3.8-1.025,7.354,7.354,0,0,1,4.992,1.635,6.459,6.459,0,0,1,2.145,4.506h-4.1a3.056,3.056,0,0,0-.785-2.238,3.229,3.229,0,0,0-2.25-.68,2.457,2.457,0,0,0-2.25,1.148,7.381,7.381,0,0,0-.75,3.668v1.207a8.167,8.167,0,0,0,.686,3.9,2.509,2.509,0,0,0,2.361,1.172,3.159,3.159,0,0,0,2.168-.668,2.835,2.835,0,0,0,.8-2.121Zm1.266-.68a7.484,7.484,0,0,1,.738-3.381,5.28,5.28,0,0,1,2.121-2.279,6.388,6.388,0,0,1,3.246-.8,5.83,5.83,0,0,1,4.488,1.764,6.768,6.768,0,0,1,1.641,4.8v.141a6.566,6.566,0,0,1-1.646,4.705A5.846,5.846,0,0,1-33.088.234a5.912,5.912,0,0,1-4.348-1.623,6.348,6.348,0,0,1-1.77-4.4Zm3.949.246a4.718,4.718,0,0,0,.551,2.578,1.835,1.835,0,0,0,1.629.82q2.109,0,2.156-3.246v-.4q0-3.41-2.18-3.41-1.98,0-2.145,2.941Zm13.652-6.469.129,1.488a4.3,4.3,0,0,1,3.621-1.723,3.618,3.618,0,0,1,2.959,1.184,5.635,5.635,0,0,1,1.014,3.563V0h-3.961V-8a2.14,2.14,0,0,0-.387-1.412,1.789,1.789,0,0,0-1.406-.451,1.883,1.883,0,0,0-1.723.914V0h-3.949V-12.68ZM-5.068-3.562A.912.912,0,0,0-5.6-4.371,8.021,8.021,0,0,0-7.6-5a9.138,9.138,0,0,1-2.437-.861A4.083,4.083,0,0,1-11.5-7.16a3.092,3.092,0,0,1-.5-1.746,3.5,3.5,0,0,1,1.441-2.877,5.938,5.938,0,0,1,3.773-1.131A6.579,6.579,0,0,1-2.76-11.777,3.555,3.555,0,0,1-1.236-8.789H-5.2q0-1.523-1.605-1.523a1.591,1.591,0,0,0-1.043.346,1.07,1.07,0,0,0-.422.861.982.982,0,0,0,.516.855,4.872,4.872,0,0,0,1.646.539,14.228,14.228,0,0,1,1.986.5Q-1.26-6.223-1.26-3.68A3.321,3.321,0,0,1-2.8-.855,6.758,6.758,0,0,1-6.791.234,6.9,6.9,0,0,1-9.7-.352a4.86,4.86,0,0,1-1.992-1.594A3.609,3.609,0,0,1-12.4-4.066h3.691a1.526,1.526,0,0,0,.586,1.283,2.41,2.41,0,0,0,1.441.4,1.9,1.9,0,0,0,1.213-.328A1.05,1.05,0,0,0-5.068-3.562ZM6.721.234A6.518,6.518,0,0,1,2-1.506a6.009,6.009,0,0,1-1.8-4.529v-.328A7.787,7.787,0,0,1,.914-9.8a5.274,5.274,0,0,1,2.1-2.3A6.35,6.35,0,0,1,6.3-12.914a5.489,5.489,0,0,1,4.219,1.658,6.516,6.516,0,0,1,1.547,4.623V-5.1H4.213a2.846,2.846,0,0,0,.926,1.676,2.755,2.755,0,0,0,1.852.609A3.549,3.549,0,0,0,9.92-4.125l1.8,2.133A5.045,5.045,0,0,1,9.633-.369,7.069,7.069,0,0,1,6.721.234Zm-.445-10.1q-1.734,0-2.062,2.3H8.2v-.3a1.956,1.956,0,0,0-.48-1.471A1.912,1.912,0,0,0,6.275-9.867Zm6.914,3.434a8.561,8.561,0,0,1,.633-3.4,5.094,5.094,0,0,1,1.816-2.279,4.788,4.788,0,0,1,2.754-.8,3.807,3.807,0,0,1,3.094,1.336l.141-1.1h3.586V-.48a5.346,5.346,0,0,1-.779,2.912,5,5,0,0,1-2.256,1.9,8.292,8.292,0,0,1-3.422.662,7.153,7.153,0,0,1-2.7-.527,4.876,4.876,0,0,1-2-1.371L15.709.773a3.621,3.621,0,0,0,2.906,1.3q2.625,0,2.625-2.7v-.4A3.708,3.708,0,0,1,18.369.234a4.583,4.583,0,0,1-3.75-1.775,7.356,7.356,0,0,1-1.43-4.752Zm3.961.246a4.511,4.511,0,0,0,.586,2.467,1.849,1.849,0,0,0,1.641.908,2.1,2.1,0,0,0,1.863-.855V-9a2.045,2.045,0,0,0-1.84-.867,1.861,1.861,0,0,0-1.652.943A5.144,5.144,0,0,0,17.15-6.187ZM35.01-1.371A4.072,4.072,0,0,1,31.623.234,3.993,3.993,0,0,1,28.465-.979a5.1,5.1,0,0,1-1.072-3.486V-12.68h3.949v8.238a1.419,1.419,0,0,0,1.582,1.629,2.064,2.064,0,0,0,1.934-.973V-12.68H38.83V0h-3.7ZM45.158,0H41.2V-12.68h3.961Zm-4.2-15.949a1.763,1.763,0,0,1,.609-1.383,2.3,2.3,0,0,1,1.582-.539,2.3,2.3,0,0,1,1.582.539,1.763,1.763,0,0,1,.609,1.383,1.763,1.763,0,0,1-.609,1.383,2.3,2.3,0,0,1-1.582.539,2.3,2.3,0,0,1-1.582-.539A1.763,1.763,0,0,1,40.963-15.949Zm14.3,6.844-1.3-.094a2.336,2.336,0,0,0-2.391,1.172V0H47.619V-12.68h3.7l.129,1.629a3.058,3.058,0,0,1,2.777-1.863,3.851,3.851,0,0,1,1.1.141Z" transform="translate(550 8732)" fill="#12263f"/>
    <g id="Grupo_80484" data-name="Grupo 80484" transform="translate(563.931 8309.931)">
      <g id="Grupo_80483" data-name="Grupo 80483" transform="translate(0.069 0.069)" clip-path="url(#clip-path)">
        <path id="Trazado_114005" data-name="Trazado 114005" d="M240.189,23.1a2.015,2.015,0,0,1-.456,1.613L215.616,52.672a2.008,2.008,0,0,1-1.472.675c-86.058.936-156.873,68.926-161.232,154.824a1.957,1.957,0,0,1-1.212,1.751,1.924,1.924,0,0,1-2.071-.318l-22.961-19.8a5.97,5.97,0,0,0-3.662-1.453C38.387,83.235,135.071,9.892,240.189,23.1" transform="translate(10.045 9.411)" fill="#7b9d09"/>
        <path id="Trazado_114006" data-name="Trazado 114006" d="M250.264,32.593C145.145,19.381,48.462,92.723,33.082,197.842a6.106,6.106,0,0,0-3.92,1.273L3.335,219.331a1.936,1.936,0,0,1-2.128.219,1.977,1.977,0,0,1-1.1-1.869A225.564,225.564,0,0,1,224.079,0a2.216,2.216,0,0,1,1.591.8l24.2,30.882a2.205,2.205,0,0,1,.4.914" transform="translate(-0.029 -0.077)" fill="#a5d20e"/>
        <path id="Trazado_114007" data-name="Trazado 114007" d="M348.5,240.19a2.02,2.02,0,0,1-1.613-.458l-27.956-24.115a2.026,2.026,0,0,1-.677-1.473c-.935-86.058-68.945-156.873-154.824-161.23a1.946,1.946,0,0,1-1.75-1.234A1.887,1.887,0,0,1,162,49.63l19.8-22.962a5.969,5.969,0,0,0,1.453-3.66C288.369,38.387,361.712,135.07,348.5,240.19" transform="translate(70.985 10.046)" fill="#e58f10"/>
        <path id="Trazado_114008" data-name="Trazado 114008" d="M381.149,224.079a2.014,2.014,0,0,1-.8,1.593l-30.88,24.195a2.078,2.078,0,0,1-.916.4c13.212-105.12-60.131-201.8-165.251-217.184a6.082,6.082,0,0,0-1.271-3.92L161.818,3.336a1.989,1.989,0,0,1,1.65-3.224A225.582,225.582,0,0,1,381.149,224.079" transform="translate(70.929 -0.029)" fill="#ffb74d"/>
        <path id="Trazado_114009" data-name="Trazado 114009" d="M357.359,183.233C342,288.353,245.3,361.714,140.177,348.5a2.014,2.014,0,0,1,.456-1.613l24.117-27.956a2,2,0,0,1,1.472-.675c86.056-.936,156.873-68.946,161.23-154.825a2.061,2.061,0,0,1,2.03-1.93,1.919,1.919,0,0,1,1.254.5L353.7,181.8a6.07,6.07,0,0,0,3.662,1.431" transform="translate(61.588 70.982)" fill="#216ba7"/>
        <path id="Trazado_114010" data-name="Trazado 114010" d="M390.324,163.47A225.581,225.581,0,0,1,166.355,381.151a2.174,2.174,0,0,1-1.591-.8l-24.195-30.88a2.2,2.2,0,0,1-.4-.916c105.119,13.212,201.822-60.149,217.184-165.27a5.95,5.95,0,0,0,3.918-1.253L387.1,161.82a1.989,1.989,0,0,1,3.224,1.65" transform="translate(61.595 70.926)" fill="#42a5f5"/>
        <path id="Trazado_114011" data-name="Trazado 114011" d="M209.6,330.736l-19.8,22.961a5.976,5.976,0,0,0-1.451,3.662C83.235,341.978,9.892,245.295,23.1,140.176a1.49,1.49,0,0,1,.3-.02,2.027,2.027,0,0,1,1.315.477l27.956,24.117a2.019,2.019,0,0,1,.675,1.473c.936,86.058,68.926,156.872,154.824,161.23a1.949,1.949,0,0,1,1.751,1.233,1.89,1.89,0,0,1-.318,2.051" transform="translate(9.412 61.589)" fill="#05204a"/>
        <path id="Trazado_114012" data-name="Trazado 114012" d="M219.551,389.229a1.979,1.979,0,0,1-1.85,1.094A225.586,225.586,0,0,1,0,166.356a2.021,2.021,0,0,1,.8-1.593l30.882-24.2a2,2,0,0,1,.914-.4c-13.212,105.119,60.131,201.8,165.251,217.182a6.1,6.1,0,0,0,1.273,3.921L219.332,387.1a1.985,1.985,0,0,1,.219,2.13" transform="translate(-0.077 61.595)" fill="#08306e"/>
      </g>
    </g>
    <line id="Línea_155" data-name="Línea 155" x1="166.5" transform="translate(487 8380.5)" fill="none" stroke="#a5d20e" stroke-linecap="round" stroke-width="3"/>
    <line id="Línea_157" data-name="Línea 157" x1="243.5" transform="translate(487 8745.5)" fill="none" stroke="#08306e" stroke-linecap="round" stroke-width="3"/>
    <line id="Línea_156" data-name="Línea 156" x1="145" transform="translate(945.5 8380.5)" fill="none" stroke="#ffb74d" stroke-linecap="round" stroke-width="3"/>
    <line id="Línea_158" data-name="Línea 158" x1="244" transform="translate(846.5 8745.5)" fill="none" stroke="#42a5f5" stroke-linecap="round" stroke-width="3"/>
  </g>
</svg>
