<svg xmlns="http://www.w3.org/2000/svg" xmlns:xlink="http://www.w3.org/1999/xlink" width="489.194" height="385.251" viewBox="0 0 489.194 385.251">
  <defs>
    <clipPath id="clip-path">
      <rect id="Rect치ngulo_33905" data-name="Rect치ngulo 33905" width="354.572" height="340.731" fill="none"/>
    </clipPath>
  </defs>
  <g id="Grupo_80804" data-name="Grupo 80804" transform="translate(-804.484 -5237)">
    <rect id="BG" width="489.194" height="385.251" transform="translate(804.484 5237)" fill="#e8e8e8" opacity="0.949"/>
    <g id="Grupo_80393" data-name="Grupo 80393" transform="translate(917.26 5270.746)">
      <g id="Grupo_80392" data-name="Grupo 80392" transform="translate(0 0.003)" clip-path="url(#clip-path)">
        <path id="Trazado_113767" data-name="Trazado 113767" d="M528.787,417.98H316.518A10.081,10.081,0,0,1,306.436,407.9V142.384A10.081,10.081,0,0,1,316.518,132.3H528.787a10.081,10.081,0,0,1,10.081,10.082V407.9a10.081,10.081,0,0,1-10.081,10.081" transform="translate(-236.224 -101.99)" fill="#a5d20e"/>
        <path id="Trazado_113768" data-name="Trazado 113768" d="M698.353,24.193h-2.048a3.328,3.328,0,0,1-3.328-3.328V17.21a3.328,3.328,0,0,0-3.328-3.328H668.124a2.085,2.085,0,0,1-2.067-2.121,11.394,11.394,0,0,0-.221-2.259,11.729,11.729,0,0,0-23.244,2.233v.022a2.09,2.09,0,0,1-2.074,2.124H619a3.328,3.328,0,0,0-3.328,3.328v3.656a3.328,3.328,0,0,1-3.328,3.328h-2.048a3.328,3.328,0,0,0-3.328,3.328V42.368a3.328,3.328,0,0,0,3.328,3.328h88.058a3.328,3.328,0,0,0,3.328-3.328V27.521a3.328,3.328,0,0,0-3.328-3.328" transform="translate(-467.896 -0.003)" fill="#08306e"/>
        <path id="Trazado_113769" data-name="Trazado 113769" d="M572.756,504.519H409.284A13.621,13.621,0,0,1,395.663,490.9V286.251a13.621,13.621,0,0,1,13.621-13.621H572.756a13.621,13.621,0,0,1,13.621,13.621V490.9a13.621,13.621,0,0,1-13.621,13.621" transform="translate(-305.007 -210.164)" fill="#fffaff"/>
        <path id="Trazado_113770" data-name="Trazado 113770" d="M974.538,570.122a.807.807,0,0,0-.986.586.825.825,0,0,0,.631.971,8.29,8.29,0,0,1,5.883,5.364,7.126,7.126,0,0,1-2.044,7.326,7.223,7.223,0,0,1-7.69.962.823.823,0,0,0-1.1.351.806.806,0,0,0,.39,1.079,8.339,8.339,0,0,0,.805.341,8.952,8.952,0,0,0,8.713-1.522,8.6,8.6,0,0,0,2.51-8.961,9.89,9.89,0,0,0-7.111-6.5" transform="translate(-747.093 -439.475)" fill="#404096"/>
        <path id="Trazado_113771" data-name="Trazado 113771" d="M718.477,340.662c23.177,9.335,40.087,32.588,41.825,57.513.526,7.534-.316,15.414-4.149,21.922-7.955,13.505-16.631,34.543-32.909,30.564-5.9-1.441-10.366-8.894-15.053-12.75-4.972-4.09-13.62-6.023-23.737-12.212-7.668-4.691-10.829-16.281-14.946-19.668-8-6.582-21.025-6.213-24.372-17.771-4.037-13.937,3.189-28.771,12.766-38.672,10.606-10.965,25.461-14.366,40.376-13.437a64.958,64.958,0,0,1,20.2,4.509" transform="translate(-496.437 -259.02)" fill="#f8b6c2"/>
        <path id="Trazado_113772" data-name="Trazado 113772" d="M486.27,495.176a1.019,1.019,0,0,1-.514-.88v-5.389c-.94-18.968-9.155-26.893-13.968-29.929-10.586-6.675-20.728-5.569-30.03-10.029-5.047-2.419-8.55-6.289-9.611-10.618-1.1-4.494.768-9.148,2.418-13.253.24-.6.477-1.188.7-1.772,1.332-3.438-1.433-5.153-2.4-6.924a5.627,5.627,0,0,1-.08-5.166,5.988,5.988,0,0,1,1.962-2.137,5.1,5.1,0,0,1-1.375-1.625c-1.018-1.913-.858-3.833.409-4.893,2.069-1.731,3.826-3.334,4.357-5.431a3.836,3.836,0,0,0,.012-2.019,22.889,22.889,0,0,1-5.776-4.966A8.8,8.8,0,0,1,430.8,381.9c.955-2.493,3.2-4.063,5.005-5.325,1.487-1.04,3.029-2.023,4.521-2.973,4.156-2.648,8.082-5.149,11.04-8.864,3.34-4.195,4.552-9.7,6.739-14.867,3.206-7.576,8.366-14.03,13.355-20.272,5.6-7,16.09-13.6,19.173-15.459,15.812-9.523,28.638-9.837,42.584-9.279,43.212,1.728,71.016,33.494,72.579,68.453A71.619,71.619,0,0,1,581.6,429.708a153.2,153.2,0,0,0-16.667,16.6,40.774,40.774,0,0,0-6.162,43.058,1.062,1.062,0,0,1-1.93.889,42.951,42.951,0,0,1,6.494-45.348,155.017,155.017,0,0,1,16.87-16.8,69.5,69.5,0,0,0,23.463-54.7c-1.549-34.61-29.11-64.768-70.542-66.424-16.48-.659-27.409.549-41.4,8.976-3.006,1.81-13.232,8.24-18.609,14.966-4.9,6.128-9.967,12.467-13.059,19.772-2.138,5.049-3.441,10.85-7.033,15.362-3.179,3.992-7.44,6.707-11.56,9.332-1.473.939-3,1.909-4.445,2.923-1.924,1.345-3.57,2.6-4.238,4.344-.839,2.191.119,4.645,1.295,6.21a22.067,22.067,0,0,0,5.59,4.7,1.065,1.065,0,0,1,.428.582,6.135,6.135,0,0,1,.108,3.5c-.743,2.934-3.235,5.017-5.054,6.539-.523.438-.313,1.48.1,2.264a3.073,3.073,0,0,0,2.315,1.569,1.047,1.047,0,0,1,.847.551,1.071,1.071,0,0,1-.8,1.56,4.368,4.368,0,0,0-2.93,2.038,3.526,3.526,0,0,0,.049,3.191c.719,1.315,4.32,4.043,2.512,8.708-.229.592-.471,1.191-.714,1.8-1.6,3.995-3.265,8.125-2.326,11.955.91,3.709,4,7.066,8.465,9.209,8.986,4.307,19.294,3.242,30.246,10.148,5.563,3.508,9.677,9.093,12.227,16.6a52.433,52.433,0,0,1,2.611,20.157c0,.166,0,.332,0,.5-.015.884-1.057.987-1.486.741" transform="translate(-331.746 -234.881)" fill="#ab97ff"/>
        <path id="Trazado_113773" data-name="Trazado 113773" d="M792.97,427.692a9.572,9.572,0,0,1-3.67,3.853,7.614,7.614,0,0,1-5.178.879l-.119-.013a7.941,7.941,0,0,0-2.363-5.169,6.6,6.6,0,0,0,1.615-5.806.85.85,0,0,0-.984-.637.779.779,0,0,0-.632.938,5.013,5.013,0,0,1-2.325,5.3,5.527,5.527,0,0,1-5.99-.458.839.839,0,0,0-1.161.106.791.791,0,0,0,.139,1.129,6.826,6.826,0,0,0,1.9,1.044,7.235,7.235,0,0,0,5.995-.441l.214-.137a6.194,6.194,0,0,1,1.874,5.373,5.161,5.161,0,0,1-3.808,4.04,4.883,4.883,0,0,1-5.124-2.094.855.855,0,0,0-1.132-.314.776.776,0,0,0-.294,1.09A6.311,6.311,0,0,0,775.208,439a6.9,6.9,0,0,0,1.909.4,8.113,8.113,0,0,1-1.156,6.1,8.408,8.408,0,0,1-5.222,3.526,11.428,11.428,0,0,1-5.893-.456,11.589,11.589,0,0,1-5.558-3.672,7.03,7.03,0,0,1-1.449-5.825,8.219,8.219,0,0,0,3.875-.386,5.957,5.957,0,0,0,3.974-6.735.851.851,0,0,0-1-.619.779.779,0,0,0-.613.95,4.439,4.439,0,0,1-2.986,4.9,7.861,7.861,0,0,1-6.593-.943,9.39,9.39,0,0,1-4.168-5.036,6.835,6.835,0,0,1,.883-6.071.794.794,0,0,0-.2-1.123.837.837,0,0,0-1.152.163,7.4,7.4,0,0,0-.86,1.509l-.075.121a7.742,7.742,0,0,1-7.057,4.023,9.624,9.624,0,0,1-7.479-4.167,10.91,10.91,0,0,1-1.576-8.4.765.765,0,0,0-.005-.346l.047-.147a.824.824,0,0,0-.6-.987.808.808,0,0,0-1,.559,6.037,6.037,0,0,1-3.195,3.732,9.465,9.465,0,0,1-5.252.815,11.046,11.046,0,0,1-7.531-4.045,7.988,7.988,0,0,1-1.168-7.913l.025-.076a8.238,8.238,0,0,0,1.69.852l.029.01a11.159,11.159,0,0,0,5.929.3.779.779,0,0,0,.619-.946.85.85,0,0,0-.992-.625,9.461,9.461,0,0,1-5.018-.232,5.683,5.683,0,0,1-3.444-3.136,3.667,3.667,0,0,1,.887-4.041.781.781,0,0,0,.067-1.13.849.849,0,0,0-1.167-.094,5.189,5.189,0,0,0-1.335,5.79,6.423,6.423,0,0,0,1.323,2.067.813.813,0,0,0-.5.182c-1.43,1.182-3.719.862-5.244.226a10.1,10.1,0,0,1-6.065-7.905,9.369,9.369,0,0,1,3.915-8.572,11.4,11.4,0,0,0,2.909,1.567,10.9,10.9,0,0,0,5.345.555.782.782,0,0,0,.663-.917.849.849,0,0,0-.963-.667,9.6,9.6,0,0,1-8.481-3.208,9.213,9.213,0,0,1-1.711-8.706,9.556,9.556,0,0,1,6.559-6.05,10.712,10.712,0,0,1,9.131,1.82.839.839,0,0,0,1.159-.122,6.461,6.461,0,0,0,.4-1.237,8.822,8.822,0,0,1,1.692-8.149,11.536,11.536,0,0,1,7.782-3.952,16.311,16.311,0,0,1,8.966,1.86,12.456,12.456,0,0,1,4.409,3.553,7.03,7.03,0,0,1,1.451,4.332,7.575,7.575,0,0,0-1.57.2,7.4,7.4,0,0,0-5.22,4.561.814.814,0,0,0,.5,1.035h0a.814.814,0,0,0,1.052-.464A5.879,5.879,0,0,1,743,374.027a6.4,6.4,0,0,1,5.442,1.319,6.019,6.019,0,0,1,2.079,5.069.833.833,0,0,0,.738.9.8.8,0,0,0,.906-.693,7.6,7.6,0,0,0-3.76-7.25,14.156,14.156,0,0,1,8.109-4.092,23.4,23.4,0,0,1,18.283,5.8,14.079,14.079,0,0,1,4.312,7.855,10.062,10.062,0,0,1-2.053,7.93l-.047.009a8.867,8.867,0,0,0-9.513-1.855.775.775,0,0,0-.394,1.057.855.855,0,0,0,1.1.41,7.21,7.21,0,0,1,7.8,1.655,6.634,6.634,0,0,1,.906,7.677.8.8,0,0,0,.308,1.1l.139.064a.823.823,0,0,0,.989-.336,8.118,8.118,0,0,0-.2-8.348,13.971,13.971,0,0,1,9.232,1.636,11.636,11.636,0,0,1,5.675,8.14,9.333,9.333,0,0,1-3.576,8.745,14.611,14.611,0,0,0-8.459-2.274.787.787,0,0,0-.761.843.845.845,0,0,0,.889.76,13.059,13.059,0,0,1,11.134,5.54,11.917,11.917,0,0,1,.687,12.007M756.3,448.38a4.058,4.058,0,0,1-2.048,1.864,2.2,2.2,0,0,1-2.41-.793,4.62,4.62,0,0,1-.5-2.182l-.02-.259a24.531,24.531,0,0,0-7.758-15.694,9.591,9.591,0,0,0,4.781-2.15,8.757,8.757,0,0,0,.41,2.473,11.073,11.073,0,0,0,4.905,5.957,11.332,11.332,0,0,0,1.963.935c.2.072.4.131.594.19a8.527,8.527,0,0,0,1.732,7.075,13.684,13.684,0,0,0-1.136,1.734c-.166.286-.332.571-.509.85m37.36-33.548a13.867,13.867,0,0,0-2.791-3.019A10.931,10.931,0,0,0,794.7,401.9a13.327,13.327,0,0,0-6.486-9.333,15.6,15.6,0,0,0-8.91-2.02,11.864,11.864,0,0,0,1.447-7.813,15.727,15.727,0,0,0-4.8-8.784,25.12,25.12,0,0,0-19.735-6.253,15.643,15.643,0,0,0-9.39,4.971,8.192,8.192,0,0,0-1.029-.263,8.621,8.621,0,0,0-1.765-5.371,14.117,14.117,0,0,0-5-4.056,18.055,18.055,0,0,0-9.925-2.044,13.172,13.172,0,0,0-8.875,4.53,10.5,10.5,0,0,0-2.26,8.407,12.47,12.47,0,0,0-9.3-1.246,11.159,11.159,0,0,0-7.651,7.066,10.838,10.838,0,0,0,2.02,10.235c.164.194.338.382.516.563a10.968,10.968,0,0,0-4.281,9.815,11.81,11.81,0,0,0,7.09,9.242c.132.055.267.107.405.157a7.559,7.559,0,0,0,5.321.11,9.837,9.837,0,0,0,1.869,7.958,12.265,12.265,0,0,0,5.574,3.978,13.435,13.435,0,0,0,3.137.727,11.127,11.127,0,0,0,6.181-.98,8.326,8.326,0,0,0,2.064-1.46,12.134,12.134,0,0,0,2.113,6.493,11.591,11.591,0,0,0,5.54,4.264,10.682,10.682,0,0,0,2.674.594l.147.159a22.9,22.9,0,0,1,8.284,15.551l.02.252a5.931,5.931,0,0,0,.766,2.944,3.7,3.7,0,0,0,1.834,1.406,3.951,3.951,0,0,0,2.51.074,5.526,5.526,0,0,0,2.915-2.524c.188-.3.366-.6.542-.9a14.979,14.979,0,0,1,.818-1.3,13.656,13.656,0,0,0,4.775,2.87c.166.06.334.118.5.174a13.132,13.132,0,0,0,6.781.5,10.02,10.02,0,0,0,6.224-4.2,9.665,9.665,0,0,0,1.408-7.1l.121-.023a6.687,6.687,0,0,0,5.012-5.253,9.315,9.315,0,0,0,6.257-1.068,11.132,11.132,0,0,0,4.281-4.475,13.347,13.347,0,0,0-.779-13.631" transform="translate(-539 -278.175)" fill="#f4eaf3"/>
        <path id="Trazado_113774" data-name="Trazado 113774" d="M850.995,539.2a7.266,7.266,0,0,1-6.227-.22A7.087,7.087,0,0,1,841.109,534a6.583,6.583,0,0,1,1.321-5.1,8.617,8.617,0,0,0,2.88,1.754,8.257,8.257,0,0,0,1.92.447c2.35.254,5.273-.8,6.061-3.246a.831.831,0,0,0-1.581-.513c-.512,1.594-2.608,2.352-4.339,2.165a6.737,6.737,0,0,1-5.035-3.254,6.236,6.236,0,0,1-.192-5.8.806.806,0,0,0-.383-1.08.823.823,0,0,0-1.1.344,7.737,7.737,0,0,0,.242,7.293c.128.221.269.436.418.644a8.178,8.178,0,0,0-1.942,5.309,6.6,6.6,0,0,1-7.615.422,6.281,6.281,0,0,1-2.453-7.3.831.831,0,0,0-1.547-.605,7.1,7.1,0,0,0-.44,3.237,6.537,6.537,0,0,1-3.777,2.081,6.963,6.963,0,0,1-4.365-.727,3.139,3.139,0,0,1-1.579-1.63.851.851,0,0,0-1.017-.583.779.779,0,0,0-.576.972,4.655,4.655,0,0,0,2.4,2.639,8.629,8.629,0,0,0,5.461.91,8.157,8.157,0,0,0,3.861-1.767,7.976,7.976,0,0,0,3.136,4.1,7.664,7.664,0,0,0,1.57.781,8.5,8.5,0,0,0,7.172-.674,8.833,8.833,0,0,0,4.4,5.571,8.553,8.553,0,0,0,1.07.471,8.989,8.989,0,0,0,6.643-.2.776.776,0,0,0,.38-1.062.856.856,0,0,0-1.107-.4" transform="translate(-629.014 -400.303)" fill="#f4eaf3"/>
        <path id="Trazado_113775" data-name="Trazado 113775" d="M806.43,30.8a3.055,3.055,0,1,1-3.055-3.055A3.055,3.055,0,0,1,806.43,30.8" transform="translate(-616.947 -21.392)" fill="#fff"/>
        <path id="Trazado_113776" data-name="Trazado 113776" d="M1394.584,866.45c-4.518,4.832-12.171,18.348-14.838,22.617a51.392,51.392,0,0,0-6.193,14.428c-.949.11-1.93.211-2.926.3a39.862,39.862,0,0,1-5.9-.089c-1.24-6.218-2.094-14.719-1.977-26.306a63.8,63.8,0,0,1,.577-7.864c4.615-34.215,35.255-63.339,37.746-59.93,2.676,3.669,10.144,39.07-6.489,56.841" transform="translate(-1050.501 -623.898)" fill="#86ab0a" fill-rule="evenodd"/>
        <path id="Trazado_113777" data-name="Trazado 113777" d="M1323.013,1216.436s2.566,26.664-1.487,36.008c-5.939,13.7-39.832,12.954-41.622-1.085-.892-6.979-1.52-34.656-1.52-34.656Z" transform="translate(-985.474 -937.721)" fill="#fffffd" fill-rule="evenodd"/>
        <path id="Trazado_113778" data-name="Trazado 113778" d="M1323.019,1200.36c1.156-1.536-8.067-4.778-23.243-4.778s-21.392,5.045-21.392,5.045a91.145,91.145,0,0,0,20.674,3.431c8.007.354,22.806-2.161,23.962-3.7" transform="translate(-985.473 -921.645)" fill="#08306e" fill-rule="evenodd"/>
        <path id="Trazado_113779" data-name="Trazado 113779" d="M1407.369,869.736a84.457,84.457,0,0,1-1.713,10.015,82.168,82.168,0,0,1-9.247,23.631c-5.85,9.3-8.59,10.263-13.354,21.331a62.964,62.964,0,0,0-5,19.308v.018a.59.59,0,0,1-1.179-.059,60.19,60.19,0,0,1,4.962-19.793c4.666-10.853,7.992-12.725,13.618-21.389a85.247,85.247,0,0,0,9.583-23.2,83.981,83.981,0,0,0,2.008-9.9V869.7a.164.164,0,0,1,.325.039" transform="translate(-1061.396 -670.319)" fill="#9a84f7"/>
        <path id="Trazado_113780" data-name="Trazado 113780" d="M1322.744,857.024c1.3.867,5.057-85.162-15.762-103.578,0,0-.953-5.471-4.423,19.335-4.236,30.281,6.8,75.391,20.185,84.243" transform="translate(-1003.402 -580.419)" fill="#6c8b05" fill-rule="evenodd"/>
        <path id="Trazado_113781" data-name="Trazado 113781" d="M1335.61,835.706c1.28,9.9,2.535,22.6,3.1,30.442q.573,7.631.827,15.291a108.778,108.778,0,0,1-.37,15.361.59.59,0,0,1-1.174-.117l0-.029c.343-3.865.563-5.176.417-15.187q-.189-7.625-.706-15.25c-.543-8.009-1.3-18.437-2.56-30.456a.235.235,0,0,1,.466-.055" transform="translate(-1029.228 -644.068)" fill="#9e89f7"/>
        <path id="Trazado_113782" data-name="Trazado 113782" d="M1236.887,924.748a39.859,39.859,0,0,1-5.9-.089c-2.193-.151-4.358-.351-6.074-.337-37.515-30.829-36.77-63.092-35.042-72.294,1.9-10.114,0-15.514,0-15.514,13.784,4.2,16.426,18.637,28.648,29.651,4.305,3.882,8.038,13.5,11.069,24.324a338.883,338.883,0,0,1,7.3,34.259" transform="translate(-916.761 -644.848)" fill="#607b03" fill-rule="evenodd"/>
        <path id="Trazado_113783" data-name="Trazado 113783" d="M1216.848,896.208c1.662,6.626,3.359,13.314,5.6,19.75a93.356,93.356,0,0,0,7.228,16.348c.414.745.847,1.48,1.283,2.214,4.822,8.119,12.137,17.729,16.514,26.1a49.1,49.1,0,0,1,3.929,9.581.344.344,0,0,1-.659.195v0a50.276,50.276,0,0,0-4.065-9.346c-4.876-8.85-11.547-17.292-16.714-25.927a88.712,88.712,0,0,1-8.561-18.8,189.632,189.632,0,0,1-5.225-19.949.344.344,0,0,1,.67-.155" transform="translate(-937.515 -690.664)" fill="#ab90ff"/>
        <path id="Trazado_113784" data-name="Trazado 113784" d="M35.117,842.677c-2.068-6.052-9.746-8.221-14.438-3.874a8.216,8.216,0,0,0-2.337,3.7c-1.856,6.172-9.236,2.21-10.79,8.852S4.4,858.683,1.338,860.8s-1.813,11.351,13.94,8.545,21.536-10.876,21.536-16.4a34.406,34.406,0,0,0-1.7-10.267" transform="translate(0 -644.852)" fill="#1d134c"/>
        <path id="Trazado_113785" data-name="Trazado 113785" d="M131.31,1403.037h-8.823l.1,3.25h12.3s.318-1.878-3.579-3.25" transform="translate(-94.422 -1081.567)" fill="#28213f"/>
        <path id="Trazado_113786" data-name="Trazado 113786" d="M125.421,1133.985l-11.288.322,1.914,61.324h8.823Z" transform="translate(-87.982 -874.162)" fill="#363687"/>
        <path id="Trazado_113787" data-name="Trazado 113787" d="M68.3,1403.037H59.563v3.25H71.878s.318-1.878-3.579-3.25" transform="translate(-45.916 -1081.567)" fill="#28213f"/>
        <path id="Trazado_113788" data-name="Trazado 113788" d="M72.359,1126.958l-12.795-2.507v63.831H68.3Z" transform="translate(-45.916 -866.811)" fill="#363687"/>
        <path id="Trazado_113789" data-name="Trazado 113789" d="M45.266,946.36l13.984,2.7,2.087-20.774s-14.768-1.432-16.071,18.07" transform="translate(-34.894 -715.578)" fill="#e18e14"/>
        <path id="Trazado_113790" data-name="Trazado 113790" d="M80.338,945.1c0-9.648-1.78-17.588-8.621-17.588s-13.431,2.545-13.431,11.931-3.593,38.692-3.593,38.692l25.645.959Z" transform="translate(-42.161 -714.995)" fill="#ffb74d"/>
        <path id="Trazado_113791" data-name="Trazado 113791" d="M103.329,939.664l-.087-.1c-.542-.625-5.321-7.378-5.321-11.866,0-4.321,4.34-4.824,5.237-4.882V922.8l.119,0c.553.022,5.4.346,5.4,4.89,0,4.461-4.753,11.275-5.265,11.866Zm-.037-16.625h-.014c-.525.021-5.127.329-5.127,4.658,0,4.238,4.346,10.55,5.178,11.608.811-1.045,5.123-7.4,5.123-11.608,0-4.272-4.53-4.63-5.159-4.659" transform="translate(-75.485 -711.368)" fill="#130a21"/>
        <rect id="Rect치ngulo_33904" data-name="Rect치ngulo 33904" width="0.23" height="0.96" transform="translate(27.729 228.12)" fill="#130a21"/>
        <path id="Trazado_113792" data-name="Trazado 113792" d="M109.716,913.477h0a3.42,3.42,0,0,1-3.42-3.421v-5.868h6.841v5.868a3.421,3.421,0,0,1-3.42,3.421" transform="translate(-81.941 -697.017)" fill="#f8bd8c"/>
        <path id="Trazado_113793" data-name="Trazado 113793" d="M105.5,928.266s.822,3.485,3.385,3.485,3.47-3.485,3.47-3.485,1.624,3.852-3.47,8.946c-4.957-5.045-3.385-8.946-3.385-8.946" transform="translate(-81.145 -715.578)" fill="#fee9e7"/>
        <path id="Trazado_113794" data-name="Trazado 113794" d="M115.319,1001.467h-4.01a.654.654,0,0,1-.653-.654V999.1a.653.653,0,0,1,.653-.653h4.01a.653.653,0,0,1,.653.653v1.71a.654.654,0,0,1-.653.654" transform="translate(-85.302 -769.681)" fill="#fff"/>
        <path id="Trazado_113795" data-name="Trazado 113795" d="M130.7,1005.871h-12.77a1.7,1.7,0,0,1-1.66-2.063l4.008-18.267a1.7,1.7,0,0,1,1.659-1.335H134.7a1.7,1.7,0,0,1,1.66,2.063l-4.008,18.268a1.7,1.7,0,0,1-1.66,1.335" transform="translate(-89.596 -758.7)" fill="#ff496a"/>
        <path id="Trazado_113796" data-name="Trazado 113796" d="M51.984,1016.3a28.712,28.712,0,0,1,.936-7.662l-7.035-.886c-1.456,11.209-.334,13.909,3.618,13.909,4.3,0,17.179-1.384,17.179-1.384l-1.038-2.791-12.264-1.2Z" transform="translate(-34.9 -776.851)" fill="#f8bd8c"/>
        <path id="Trazado_113797" data-name="Trazado 113797" d="M140.444,1036.942c-.021-.732-4.069.115-4.069.115s1.851-.785,1.1-1.5c-.519-.491-3.156.9-4.742,1.808a2.343,2.343,0,0,0,1.665,4.32c1.249-.272,2.576-.559,3.164-.681,1.261-.263,1.909-.755,1.141-1.149.889-.025,1.208-.791.467-.9,0-.095.729-.323.718-.7s-.475-.387-.475-.387,1.053-.193,1.033-.925" transform="translate(-101.413 -798.209)" fill="#f8bd8c"/>
        <path id="Trazado_113798" data-name="Trazado 113798" d="M106.286,906.847l6.842-2.455-6.835-1.728-.008,4.066Z" transform="translate(-81.933 -695.841)" fill="#edb183"/>
        <path id="Trazado_113799" data-name="Trazado 113799" d="M107.673,854.094c0,4.349-2.044,6.8-5.251,6.8a6.414,6.414,0,0,1-6.363-6.8c0-4.349,0-8.923,5.806-8.923s5.807,4.574,5.807,8.923" transform="translate(-74.05 -651.522)" fill="#f8bd8c"/>
        <path id="Trazado_113800" data-name="Trazado 113800" d="M108.292,876.518a.5.5,0,1,0,.5-.5.5.5,0,0,0-.5.5" transform="translate(-83.48 -675.3)" fill="#1d134c"/>
        <path id="Trazado_113801" data-name="Trazado 113801" d="M135.59,876.518a.5.5,0,1,0,.5-.5.5.5,0,0,0-.5.5" transform="translate(-104.523 -675.3)" fill="#1d134c"/>
        <path id="Trazado_113802" data-name="Trazado 113802" d="M86.225,851.549s9.209.244,12.885-6.966c-8.043-4.1-13.339,2.1-12.885,6.966" transform="translate(-66.448 -650.038)" fill="#1d134c"/>
        <path id="Trazado_113803" data-name="Trazado 113803" d="M92.055,879.772a1.432,1.432,0,1,1-1.432-1.432,1.432,1.432,0,0,1,1.432,1.432" transform="translate(-68.755 -677.091)" fill="#f8bd8c"/>
        <path id="Trazado_113804" data-name="Trazado 113804" d="M124.15,882.273a.085.085,0,0,1,0-.171l.578-.005A.211.211,0,0,0,124.9,882a.564.564,0,0,0,.046-.483l-.422-1.4a.085.085,0,0,1,.163-.049l.422,1.4a.734.734,0,0,1-.072.634.38.38,0,0,1-.306.162l-.579.005Z" transform="translate(-95.639 -678.382)" fill="#1d134c"/>
        <path id="Trazado_113805" data-name="Trazado 113805" d="M120.072,899.258h-.013c-.174-.026-1.7-.26-1.821-.3a.085.085,0,1,1,.051-.162c.08.025,1.144.192,1.8.291a.085.085,0,0,1-.013.169" transform="translate(-91.101 -692.858)" fill="#1d134c"/>
        <path id="Trazado_113806" data-name="Trazado 113806" d="M133.836,869.758s1.177.273,1.26-.211c0,0,.047-.328-.982-.545s-1.732-.22-1.872.074,1.036.6,1.594.682" transform="translate(-101.933 -669.772)" fill="#1d134c"/>
        <path id="Trazado_113807" data-name="Trazado 113807" d="M109.618,868.138s-1.223.324-1.325-.179c0,0-.06-.342,1.01-.6s1.8-.287,1.961.017-1.065.658-1.646.766" transform="translate(-83.48 -668.467)" fill="#1d134c"/>
        <path id="Trazado_113808" data-name="Trazado 113808" d="M596.545,1206.8c-3.812.254-7.634.259-11.452.371-.935.029-1.871.09-2.806.107-1,.018-1.02-.017-1.134-.964-.123-1.013-.1-2.063-.156-3.085q-.551-10.935-1.1-21.87c-.137-2.7-.311-5.4-.408-8.108-.042-1.14.173-1.208,1.376-1.387,1.718-.254,3.438-.5,5.165-.7a57.677,57.677,0,0,1,10.383-.418,16.629,16.629,0,0,1,11.831,6.073c7.25,8.741,4.578,22.383-5.177,27.934a13.611,13.611,0,0,1-6.52,2.046" transform="translate(-446.709 -902.436)" fill="#ffe0b2"/>
        <path id="Trazado_113809" data-name="Trazado 113809" d="M449.468,1210.216a27.944,27.944,0,0,0-3.126.339,116.141,116.141,0,0,1-21.444.512c-5.881-.407-10.258-2.495-13.438-9.168-3.66-7.675-2.1-17.807,5.049-22.918,4.94-3.535,11.966-2.919,17.851-3.411.885-.073,13.367-1.159,13.389-.785q.074,1.473.147,2.941.492,9.729.983,19.459c.113,2.254.219,4.5.329,6.759.093,1.934.628,4.4.26,6.273" transform="translate(-315.713 -905.552)" fill="#08306e"/>
        <path id="Trazado_113810" data-name="Trazado 113810" d="M564.225,1209.185c-.653.869-2.584.767-3.527.769-1.467,0-2.655.7-3.131-1.19-.7-2.768-.472-5.4-.613-8.2q-.433-8.551-.863-17.1-.164-3.28-.332-6.562c-.031-.634-.315-1.738.093-2.333.58-.85,2.2-.4,3.074-.462.946-.064,3.178-.823,3.782.144a2.779,2.779,0,0,1,.3,1.413c.26,8.283.787,16.543,1.095,24.827q.078,2.1.118,4.191c.016.907.525,3.767.022,4.485a.07.07,0,0,1-.013.017" transform="translate(-428.324 -904.826)" fill="#1d134c"/>
        <path id="Trazado_113811" data-name="Trazado 113811" d="M459.893,1358.339c3.864.207,7.736.161,11.6.225.947.017,1.9.066,2.843.071,1.015.005,1.033-.031,1.136-.991.111-1.028.079-2.091.117-3.127l.83-22.165c.1-2.738.244-5.477.307-8.217.027-1.155-.191-1.222-1.412-1.387-1.743-.234-3.489-.46-5.241-.639a58.426,58.426,0,0,0-10.522-.286,16.843,16.843,0,0,0-11.9,6.307c-7.228,8.948-4.343,22.73,5.61,28.223a14.1,14.1,0,0,0,6.631,1.986" transform="translate(-341.981 -1018.862)" fill="#fffaff"/>
        <path id="Trazado_113812" data-name="Trazado 113812" d="M582.262,1362.337a28.2,28.2,0,0,1,3.16.3,117.3,117.3,0,0,0,21.654.235c5.933-.489,10.323-2.652,13.446-9.431,3.594-7.8,1.883-18-5.4-23.07-5.034-3.5-12.118-2.791-18.065-3.21-.894-.063-13.508-.995-13.527-.618q-.056,1.489-.11,2.971-.369,9.828-.737,19.656c-.085,2.276-.162,4.55-.244,6.827-.069,1.953-.576,4.448-.18,6.337" transform="translate(-448.736 -1022.532)" fill="#08306e"/>
        <path id="Trazado_113813" data-name="Trazado 113813" d="M572.44,1361.408c.67.868,2.618.741,3.571.73,1.481-.017,2.689.672,3.145-1.243.669-2.8.407-5.457.511-8.286q.324-8.637.648-17.273.123-3.313.248-6.629c.024-.64.3-1.758-.124-2.353-.6-.851-2.227-.379-3.109-.426-.956-.052-3.219-.789-3.816.2a2.807,2.807,0,0,0-.28,1.431c-.154,8.365-.578,16.71-.78,25.076q-.051,2.119-.064,4.232c0,.916-.48,3.81.036,4.528a.08.08,0,0,0,.013.017" transform="translate(-441.083 -1021.883)" fill="#1d134c"/>
        <path id="Trazado_113814" data-name="Trazado 113814" d="M726.607,1348.648c1.46,1.088,2.988,2.078,4.487,3.11.367.254.726.52,1.1.769.4.266.413.257.7-.092.311-.374.576-.8.86-1.194l6.1-8.466c.754-1.045,1.522-2.082,2.26-3.139.312-.445.243-.528-.192-.911-.622-.546-1.247-1.089-1.886-1.615a27.489,27.489,0,0,0-4.047-2.853,8.253,8.253,0,0,0-10.855,2.792,8.664,8.664,0,0,0,1.475,11.6" transform="translate(-557.775 -1027.768)" fill="#fffaff"/>
        <path id="Trazado_113815" data-name="Trazado 113815" d="M763.176,1372.707a13.331,13.331,0,0,1,1.16.941,55.159,55.159,0,0,0,8.42,5.733,6.8,6.8,0,0,0,7.723-.192c3.439-2.117,5.427-6.561,3.9-10.442-1.059-2.684-4.02-4.25-6.24-5.963-.334-.258-5.032-3.908-5.137-3.766l-.817,1.135-5.409,7.507q-.939,1.3-1.874,2.611a13.631,13.631,0,0,0-1.721,2.435" transform="translate(-588.313 -1047.631)" fill="#ff496a"/>
        <path id="Trazado_113816" data-name="Trazado 113816" d="M759.781,1370.141c.036.515.833.972,1.208,1.216.585.379.878.964,1.556.333a19.206,19.206,0,0,0,2.359-3.112l4.753-6.6q.911-1.266,1.824-2.532c.176-.245.574-.612.564-.954-.012-.489-.774-.728-1.107-.977-.361-.269-1.055-1.148-1.546-.918a1.318,1.318,0,0,0-.482.488c-2.239,3.236-4.579,6.395-6.838,9.62q-.572.816-1.128,1.641c-.24.358-1.18,1.367-1.165,1.783a.035.035,0,0,0,0,.01" transform="translate(-585.696 -1045.74)" fill="#261a5b"/>
        <path id="Trazado_113817" data-name="Trazado 113817" d="M485.814,1041.316c2.874,2.088,5.978,5.917,9.623,12.1,3.813,6.471,5.1,9.047,5.952,10.115s1.693,2.136,1.632,2.432-4.492,1.472-5.331.6-4.283-5.074-6.279-7.271-9.24-10.462-10.581-12.067c-1.843-2.2-1.72-6.388-.645-7.382s4.452.62,5.63,1.475" transform="translate(-369.561 -801.347)" fill="#f9ac88"/>
        <path id="Trazado_113818" data-name="Trazado 113818" d="M529.057,1151.265a6.239,6.239,0,0,1,1.792,3.434,1.709,1.709,0,0,1-1.966,2.037c-.446-.049-11.862.545-12.3.478-.826-.128-2.682-.464-3.041-1.105s.954-.567,1.792-.889,6.784-2.337,7.194-2.89-.052-1.372-.052-1.372l6.012.769Z" transform="translate(-395.834 -887.245)" fill="#f9ac88"/>
        <path id="Trazado_113819" data-name="Trazado 113819" d="M482.62,1031.96c1.35.77,6.972,4.738,9.552,10.343s6.918,13.554,6.918,13.554-1.587.823-3.6,1.66a23.915,23.915,0,0,1-5.074,1.218s-11.945-17.1-12.8-18.7-1.227-6.005.754-7.275,3.21-1.392,4.245-.8" transform="translate(-367.653 -795.25)" fill="#ea4266"/>
        <path id="Trazado_113820" data-name="Trazado 113820" d="M495.871,1023.554a.576.576,0,0,0,.217-.73,1.961,1.961,0,0,1-.709.291,5.9,5.9,0,0,0,.2.582,1.148,1.148,0,0,0,.3-.144" transform="translate(-381.875 -788.47)" fill="#f8bd8c"/>
        <path id="Trazado_113821" data-name="Trazado 113821" d="M455.85,975.262c-2.257-.125-7-.333-8.012.052-.133.051-.264.1-.393.159-.353-.02-.719-.023-1.109-.011-2.78.082-6.561,1.224-8.04,5.724s3.191,8.276,5.789,8.846a4.8,4.8,0,0,0,3.768-.908,7.668,7.668,0,0,0,1.143-.99c.376-.4.621-.842,1.181-1.007.361-.107.805-.1,1.177-.224a5.864,5.864,0,0,1-.2-.582,1.458,1.458,0,0,1-.17.026.494.494,0,0,0,.156-.077c-1.071-4,2.679-7.557,4.706-11.007" transform="translate(-337.653 -751.675)" fill="#f8bd8c"/>
        <path id="Trazado_113822" data-name="Trazado 113822" d="M446.015,990.288s-3.351-1.6-2.664-7c.148-1.164,3.837-1.757,3.957-2.107.128-.375-3.849-1.2-3.472-1.325,3.854-1.281,4.873-3.556,4.69-3.86-.56-.923-6.958-.481-9.643,3.417a7.394,7.394,0,0,0,.535,8.84c.85.795,3.032,3.461,6.6,2.04" transform="translate(-337.365 -752.053)" fill="#1d134c"/>
        <path id="Trazado_113823" data-name="Trazado 113823" d="M481.044,1049.556c2.874,2.088,5.978,5.917,9.622,12.1,3.813,6.471,5.1,9.047,5.952,10.115s1.693,2.136,1.632,2.432-4.492,1.472-5.331.6-4.281-5.073-6.279-7.271-9.24-10.462-10.581-12.067c-1.843-2.2-1.72-6.388-.644-7.382s4.451.62,5.628,1.475" transform="translate(-365.883 -807.699)" fill="#ffbd95"/>
        <path id="Trazado_113824" data-name="Trazado 113824" d="M522.917,1018.973c-3.91.61-8.822-4.508-8.4-8.85s3.2-8.553,2.055-9.683-13.795-8.06-15.778-10.112-3.4-6.618-2.763-9.135a6.5,6.5,0,0,1,6.036-5.214c3.442-.129,15.672,1.39,21.768,11.427s5.464,20.473,4.444,24.544-3.644,6.443-7.362,7.023" transform="translate(-383.8 -752.353)" fill="#ea4266"/>
        <path id="Trazado_113825" data-name="Trazado 113825" d="M519.18,1152.01c.407.534,2.085,1.02,2.355,2.973a1.709,1.709,0,0,1-1.966,2.036c-.446-.049-11.862.545-12.295.478-.827-.127-2.684-.464-3.042-1.1s.954-.567,1.793-.889,6.784-2.337,7.194-2.89-.052-1.372-.052-1.372Z" transform="translate(-388.654 -887.464)" fill="#ffbd95"/>
        <path id="Trazado_113826" data-name="Trazado 113826" d="M477.851,1040.2c1.348.77,6.972,4.737,9.55,10.343s6.918,13.555,6.918,13.555-1.586.823-3.6,1.66a23.928,23.928,0,0,1-5.074,1.219s-11.945-17.1-12.8-18.7-1.227-6.005.756-7.276,3.209-1.392,4.245-.8" transform="translate(-363.976 -801.602)" fill="#ff496a"/>
        <path id="Trazado_113827" data-name="Trazado 113827" d="M508.646,1060.556a11.226,11.226,0,0,0-4.234-9.227c-2.637-1.88-21.166-11.375-22.857-11.312s-3.6-.084-4.84,2.089.738,4.552,1.738,5.524,21.929,19.272,25.283,20.382c2.786.922,4.607-4.642,4.91-7.456" transform="translate(-367.183 -801.724)" fill="#ea4266"/>
        <path id="Trazado_113828" data-name="Trazado 113828" d="M497.194,974.924l3.194-4.785s17.129.16,24.1,12.184,6.281,27.849,6.281,27.849-4.666,1.953-6.41.242-1.508-5.967-3.694-8.946-18.224-9.6-18.224-9.6-10.026-8.644-5.247-16.944" transform="translate(-382.279 -747.857)" fill="#ff496a"/>
        <path id="Trazado_113829" data-name="Trazado 113829" d="M496.8,996.709a4.017,4.017,0,0,0-2.972,4.805c.534,2.473,5.8,13.787,6.519,15.373s3.528,4.12,4.477,4.011,2.649-1.713,2.684-4.647-2.843-11.259-3.489-12.848-2.326-7.245-7.219-6.695" transform="translate(-380.608 -768.309)" fill="#efb081"/>
        <path id="Trazado_113830" data-name="Trazado 113830" d="M486.544,1066.84c-.542.09-.9.135-.9.135s-11.946-17.1-12.8-18.7-1.227-6.005.756-7.275,3.209-1.392,4.245-.8a24.392,24.392,0,0,1,3.358,2.5l-6.751,3.937s-.307,2.73,3.942,8.245c1.487,1.931,7.5,10.976,8.144,11.96" transform="translate(-363.976 -801.602)" fill="#ea4266"/>
        <path id="Trazado_113831" data-name="Trazado 113831" d="M494.816,995.846c.862-.453,4.407-.96,6.866,2.7s4.111,10.855,4.111,10.855a6.829,6.829,0,0,1-4.387,1.5,20.23,20.23,0,0,1-5.673-1.169s-3.133-7.164-3.388-8.7a5.256,5.256,0,0,1,2.47-5.187" transform="translate(-379.498 -767.431)" fill="#ea4266"/>
        <path id="Trazado_113832" data-name="Trazado 113832" d="M491.253,1049.507c.681-.922-3.518-8.127-5.62-10.049a47.124,47.124,0,0,0-8.261-5.207,1.92,1.92,0,0,0-1.987.4c-.375.457.067.994.6,1.936a71.316,71.316,0,0,0,5.631,7.968c1.293,1.248,8.457,6.545,9.637,4.949" transform="translate(-366.355 -797.191)" fill="#efb081"/>
        <path id="Trazado_113833" data-name="Trazado 113833" d="M453.381,1011.786a6.9,6.9,0,0,1-.922-2.289,7.21,7.21,0,0,0-1.252-3.8,8.449,8.449,0,0,1-1.515-3.064c-.067-.351-.7-.044-.809.632s1.195,2.648.919,2.9-4.474-4.666-5.314-4.116c-.612.4,2.662,3.435,2.493,3.665-.363.494-3.37-3.111-4.051-2.519-.579.5,3.232,3.585,3.028,3.785s-3.839-2.286-4.215-1.538c-.329.656,3.631,2.4,3.434,2.738-.12.206-2.7-.487-2.792-.012-.113.6,2.726,1.156,3.169,1.354s3.668,2.484,4.164,2.332,2.034.859,2.034.859Z" transform="translate(-340.513 -772.423)" fill="#efb081"/>
        <path id="Trazado_113834" data-name="Trazado 113834" d="M439.144,1439a5.657,5.657,0,1,1-2.989-7.244,5.545,5.545,0,0,1,2.989,7.244" transform="translate(-330.206 -1103.325)" fill="#ab90ff"/>
        <path id="Trazado_113835" data-name="Trazado 113835" d="M439.8,1447.217a4.963,4.963,0,0,1-.349.659l-10.25-4.507a4.957,4.957,0,0,1,.25-.7,5.335,5.335,0,0,1,.405-.751l10.22,4.494a5.1,5.1,0,0,1-.277.807" transform="translate(-330.857 -1111.538)" fill="#8366b2"/>
        <path id="Trazado_113836" data-name="Trazado 113836" d="M402.873,1416.687a4.116,4.116,0,1,1-5.649-.839,4.041,4.041,0,0,1,5.649.839" transform="translate(-304.85 -1090.835)" fill="#ff496a"/>
        <path id="Trazado_113837" data-name="Trazado 113837" d="M404.2,1420.56a3.6,3.6,0,0,1,.283.465l-6.635,4.729a3.6,3.6,0,0,1-.347-.419,3.936,3.936,0,0,1-.319-.534l6.617-4.715a3.747,3.747,0,0,1,.4.475" transform="translate(-306.177 -1094.709)" fill="#ea4266"/>
      </g>
    </g>
  </g>
</svg>
