<svg xmlns="http://www.w3.org/2000/svg" xmlns:xlink="http://www.w3.org/1999/xlink" width="107" height="107" viewBox="0 0 107 107">
  <defs>
    <clipPath id="clip-path">
      <rect id="Rectángulo_46528" data-name="Rectángulo 46528" width="80.364" height="80.29" fill="#12263f" stroke="#12263f" stroke-width="1"/>
    </clipPath>
  </defs>
  <g id="Grupo_80811" data-name="Grupo 80811" transform="translate(-795.667 -1710)">
    <circle id="Elipse_4721" data-name="Elipse 4721" cx="53.5" cy="53.5" r="53.5" transform="translate(795.667 1710)" fill="#ffb74d"/>
    <g id="Grupo_80711" data-name="Grupo 80711" transform="translate(808.985 1723.355)">
      <g id="Grupo_80710" data-name="Grupo 80710" clip-path="url(#clip-path)">
        <path id="Trazado_114638" data-name="Trazado 114638" d="M42.4,0c1.212.151,2.425.291,3.635.455A38.1,38.1,0,0,1,61.312,6.009,39.926,39.926,0,0,1,78.483,27.95a38.375,38.375,0,0,1,1.789,9.556,38.938,38.938,0,0,1-5.8,23.548A39.59,39.59,0,0,1,50.754,78.89a38.982,38.982,0,0,1-13.246,1.3,39.083,39.083,0,0,1-21.3-7.867A39.658,39.658,0,0,1,.96,48.772,38.35,38.35,0,0,1,.2,36.332a40.283,40.283,0,0,1,29.817-35c2.351-.619,4.818-.8,7.231-1.182.254-.04.506-.1.758-.149ZM40.149,76.408A36.265,36.265,0,1,0,3.9,40.143,36.274,36.274,0,0,0,40.149,76.408" transform="translate(0)" fill="#12263f" stroke="#12263f" stroke-width="1"/>
        <path id="Trazado_114639" data-name="Trazado 114639" d="M171.45,245.451a15.707,15.707,0,1,1,14.569-17.65,15.708,15.708,0,0,1-14.569,17.65m9.148-9.817a11.606,11.606,0,0,0-2.614-14.973,11.769,11.769,0,0,0-15.821.646c-4.177,4-4.739,11.022-1.216,15.4,6.283-5.187,12.837-5.652,19.651-1.071m-16.208,3.385c2.879,3.431,9.478,3.439,13.72-.311a10.8,10.8,0,0,0-13.72.311" transform="translate(-130.423 -180.432)" fill="#12263f" stroke="#12263f" stroke-width="1"/>
        <path id="Trazado_114640" data-name="Trazado 114640" d="M129.943,133.117c-.374-.209-.759-.41-1.129-.636a2,2,0,0,1-.838-2.68,1.961,1.961,0,0,1,2.714-.69c1.808.976,3.591,2,5.4,2.97,1.048.561,2.147,1.029,3.191,1.6a5.231,5.231,0,0,1,1.14.941,1.894,1.894,0,0,1,.231,2.43,1.81,1.81,0,0,1-2.335.684,23.816,23.816,0,0,1-2.334-1.261,3.828,3.828,0,0,0-4.31.264c-.33.207-.617.482-.946.692a1.964,1.964,0,0,1-2.54-.367,1.925,1.925,0,0,1,.125-2.566c.5-.491,1.065-.907,1.628-1.379" transform="translate(-107.673 -108.592)" fill="#12263f" stroke="#12263f" stroke-width="1"/>
        <path id="Trazado_114641" data-name="Trazado 114641" d="M307.2,133.06c.523.423,1.031.789,1.486,1.212a1.93,1.93,0,0,1,.211,2.786,2.011,2.011,0,0,1-2.749.139,11.135,11.135,0,0,0-2.321-1.2,3.148,3.148,0,0,0-2.884.517c-.611.391-1.263.721-1.91,1.054a1.892,1.892,0,0,1-2.508-.485,1.957,1.957,0,0,1,.314-2.668,10.353,10.353,0,0,1,1.826-1.326c2.584-1.385,5.194-2.72,7.8-4.065a1.917,1.917,0,0,1,2.859,1.18,1.948,1.948,0,0,1-.827,2.1c-.409.268-.844.5-1.3.759" transform="translate(-249.605 -108.523)" fill="#12263f" stroke="#12263f" stroke-width="1"/>
      </g>
    </g>
  </g>
</svg>
