<svg id="Grupo_80732" data-name="Grupo 80732" xmlns="http://www.w3.org/2000/svg" xmlns:xlink="http://www.w3.org/1999/xlink" width="529.795" height="353.421" viewBox="0 0 529.795 353.421">
  <defs>
    <clipPath id="clip-path">
      <rect id="Rectángulo_46555" data-name="Rectángulo 46555" width="529.795" height="353.421" fill="none"/>
    </clipPath>
  </defs>
  <g id="Grupo_80731" data-name="Grupo 80731" clip-path="url(#clip-path)">
    <path id="Trazado_114705" data-name="Trazado 114705" d="M529.8,401.109c0,8.79-118.6,15.916-264.9,15.916S0,409.9,0,401.109,118.6,385.2,264.9,385.2s264.9,7.125,264.9,15.914" transform="translate(0 -63.604)" fill="#298198"/>
    <path id="Trazado_114706" data-name="Trazado 114706" d="M380.4,332.138a9.287,9.287,0,0,1,7.046,3.235h4.791V312.255a6.312,6.312,0,0,0-6.312-6.312H362.8v-2.7a9.311,9.311,0,1,0-12.152,0v2.7H327.533a6.312,6.312,0,0,0-6.312,6.312v23.118h-3.843a9.31,9.31,0,1,0,0,12.152h3.843v23.119a6.313,6.313,0,0,0,6.313,6.312h23.118v-4a9.31,9.31,0,1,1,12.152,0v4h23.119a6.314,6.314,0,0,0,6.312-6.312V347.524h-4.791a9.307,9.307,0,1,1-7.046-15.387" transform="translate(-49.705 -47.371)" fill="#08306e"/>
    <path id="Trazado_114707" data-name="Trazado 114707" d="M502.834,332.059a4.176,4.176,0,0,1-4.967,3.193l-4.894-1.065a4.174,4.174,0,0,1-3.193-4.965l22.882-105.241a4.174,4.174,0,0,1,4.965-3.192l4.895,1.065a4.173,4.173,0,0,1,3.193,4.965Z" transform="translate(-80.858 -36.441)" fill="#c6cbcc"/>
    <path id="Trazado_114708" data-name="Trazado 114708" d="M538.7,101.487A55.937,55.937,0,1,0,581.47,168.03,55.935,55.935,0,0,0,538.7,101.487m-21.2,97.49a43.831,43.831,0,1,1,52.143-33.519A43.83,43.83,0,0,1,517.5,198.978" transform="translate(-77.75 -16.545)" fill="#08306e"/>
    <rect id="Rectángulo_46545" data-name="Rectángulo 46545" width="13.358" height="288.033" rx="5" transform="translate(106.03 44.185)" fill="#08306e"/>
    <rect id="Rectángulo_46546" data-name="Rectángulo 46546" width="13.358" height="288.033" rx="5" transform="translate(161.132 44.185)" fill="#08306e"/>
    <rect id="Rectángulo_46547" data-name="Rectángulo 46547" width="57.189" height="13.358" rx="5" transform="translate(110.621 67.144)" fill="#08306e"/>
    <rect id="Rectángulo_46548" data-name="Rectángulo 46548" width="57.189" height="13.358" rx="5" transform="translate(110.621 101.652)" fill="#08306e"/>
    <rect id="Rectángulo_46549" data-name="Rectángulo 46549" width="57.189" height="13.358" rx="5" transform="translate(110.621 136.161)" fill="#08306e"/>
    <rect id="Rectángulo_46550" data-name="Rectángulo 46550" width="57.189" height="13.358" rx="5" transform="translate(110.621 170.669)" fill="#08306e"/>
    <rect id="Rectángulo_46551" data-name="Rectángulo 46551" width="57.189" height="13.358" rx="5" transform="translate(110.621 205.177)" fill="#08306e"/>
    <rect id="Rectángulo_46552" data-name="Rectángulo 46552" width="57.189" height="13.358" rx="5" transform="translate(110.621 239.686)" fill="#08306e"/>
    <rect id="Rectángulo_46553" data-name="Rectángulo 46553" width="57.189" height="13.358" rx="5" transform="translate(110.621 274.194)" fill="#08306e"/>
    <rect id="Rectángulo_46554" data-name="Rectángulo 46554" width="98.516" height="168.785" transform="translate(183.675 172.408)" fill="#ffb74d"/>
    <path id="Trazado_114709" data-name="Trazado 114709" d="M255.495,203.877s-1.691,33.13,17.917,42.934,66.6,28.059,77.756,18.255,4.394-20.622,1.69-23.326c1.015-6.085,9.129-4.734,6.085-13.861,6.762-4.057,5.41-11.832,3.719-15.89s5.747-8.113,11.495-12.509,8.79-7.437,0-17.578-14.875-24.343-12.17-32.117,8.853-8.385,1.69-29.074C352.243,87.692,232.909,43.563,196.4,93.259s14.134,110.619,17.852,116.028v60.854Z" transform="translate(-30.257 -11.713)" fill="#ffb74d"/>
    <path id="Trazado_114710" data-name="Trazado 114710" d="M293.048,82.2c45.058,10.5,77.729,35.542,72.977,55.935S320.9,166.549,275.84,156.05s-77.728-35.541-72.976-55.934S247.993,71.7,293.048,82.2" transform="translate(-33.421 -12.811)" fill="#e28700"/>
    <path id="Trazado_114711" data-name="Trazado 114711" d="M220.385,236.649c16.8,27.223,43.3,28.475,98.2,53.73v20.037s-63.659-16.489-98.2-73.767" transform="translate(-36.39 -39.076)" fill="#e28700"/>
    <path id="Trazado_114712" data-name="Trazado 114712" d="M241.258,135.581,262.332,141,265,130.632a33.366,33.366,0,0,0,12.175-3.486l7.526,7.375,15.231-15.541-7.65-7.495A33.293,33.293,0,0,0,295.347,99.2L305.5,96.37l-5.845-20.96-10.306,2.875a33.322,33.322,0,0,0-9.114-8.788l2.627-10.22-21.075-5.418L259.125,64.23a33.376,33.376,0,0,0-12.174,3.485l-7.526-7.376-15.23,15.54,7.65,7.5a33.272,33.272,0,0,0-3.068,12.282L218.62,98.489l5.845,20.96,10.307-2.876a33.276,33.276,0,0,0,9.113,8.79Zm3.759-33.4a17.7,17.7,0,1,1,21.8,12.292,17.694,17.694,0,0,1-21.8-12.292" transform="translate(-36.099 -8.894)" fill="#42a5f5"/>
    <path id="Trazado_114713" data-name="Trazado 114713" d="M305.592,145.109l4.629-4.841-9.985-9.548-4.7,4.913a21.187,21.187,0,0,0-7.823-1.853l-1.876-6.424-13.261,3.874,1.907,6.528a21.129,21.129,0,0,0-5.514,5.847l-6.5-1.587-3.276,13.422,6.6,1.61c.055.549.138,1.093.235,1.633q6.094,2.149,12.638,3.933a11.229,11.229,0,1,1,12.082,2.851c4.411.888,8.765,1.6,13.031,2.137.33-.44.655-.885.953-1.354l6.5,1.588,3.275-13.422-6.6-1.61a21.146,21.146,0,0,0-2.317-7.7" transform="translate(-42.798 -21.029)" fill="#fff"/>
    <path id="Trazado_114714" data-name="Trazado 114714" d="M251.553,129.256l5.908-.583-1.2-12.2-6.006.594a18.76,18.76,0,0,0-4.2-5.768l2.45-5.412-11.168-5.059-2.487,5.493a18.756,18.756,0,0,0-7.093.758l-3.464-4.832-9.964,7.144,3.515,4.9a18.8,18.8,0,0,0-2.9,6.52l-5.909.584.176,1.788c5.257,7.238,13.911,14.347,25.006,20.586a18.875,18.875,0,0,0,4.52-.778l3.464,4.831,9.964-7.142-3.515-4.9a18.818,18.818,0,0,0,2.9-6.52m-9.22-.11a9.971,9.971,0,1,1-4.97-13.2,9.97,9.97,0,0,1,4.97,13.2" transform="translate(-34.517 -16.649)" fill="#799b09"/>
    <path id="Trazado_114715" data-name="Trazado 114715" d="M362.66,127.625l-28.7,20.633,3.969,20.611c12.35-.19,23.246-2.044,31.711-5.363-2.822-13.871-5.451-27.837-6.984-36.122l-1.423.037Z" transform="translate(-55.145 -21.034)" fill="#34193d"/>
    <path id="Trazado_114716" data-name="Trazado 114716" d="M297.088,117.759c-1.741,6.018-8.669,30.166-11.788,43.889q2.1.54,4.228,1.036a174.24,174.24,0,0,0,32.535,4.5l3.865-20.516,28.7-20.633Z" transform="translate(-47.109 -19.445)" fill="#5f3c66"/>
    <path id="Trazado_114717" data-name="Trazado 114717" d="M413.219,129.343s4.587,1.6,8.31-.024,3.941,2.229.2,3.572,8.846,3.8,7.08,6.625c-1.949,3.112-3.886,3.021-11.332-.478s-10.661-5.425-10.661-5.425Z" transform="translate(-67.175 -21.288)" fill="#ffae6a"/>
    <path id="Trazado_114718" data-name="Trazado 114718" d="M399.421,122.942a5.81,5.81,0,0,1-2.89-.769C359.244,100.9,350.261,63.014,349.9,61.412a5.843,5.843,0,0,1,4.4-6.994c3.141-.713,8.716,4.715,9.436,7.855.08.344,5.892,31.092,38.587,49.747a5.845,5.845,0,0,1-2.9,10.921" transform="translate(-57.751 -8.975)" fill="#62cac0"/>
    <path id="Trazado_114719" data-name="Trazado 114719" d="M393.229,154.591s4.291,2.283,8.219,1.239,3.556,2.8-.342,3.562,8.165,5.1,5.989,7.624c-2.4,2.779-4.3,2.4-11.128-2.194s-9.712-6.983-9.712-6.983Z" transform="translate(-63.779 -25.526)" fill="#ffae6a"/>
    <path id="Trazado_114720" data-name="Trazado 114720" d="M404.176,114.721c-3.3,12.429-22.812-2.263-31.548-16.961C363.861,83.01,364.14,65.34,364.14,65.34l-8.35,3.618s-.751,1.712-1.909,4.367c5.18,13.076,17.421,35.877,43.332,50.662a5.841,5.841,0,0,0,6.963-9.265" transform="translate(-58.433 -10.789)" fill="#47a095"/>
    <path id="Trazado_114721" data-name="Trazado 114721" d="M353.693.86S346.771-1.1,344.9,5.538s-2.713,11.971-.936,15.994c6.173-.561,9.447-5.893,9.447-5.893Z" transform="translate(-56.635 -0.097)" fill="#34193d"/>
    <path id="Trazado_114722" data-name="Trazado 114722" d="M336.6,46.1S325,48.1,318.14,55.454s-19.954,53.629-19.954,53.629,18.158,14.848,58.566,5.119c3.491-24.07,2.062-50.042-4.174-58.024s-8.622-8.831-8.622-8.831Z" transform="translate(-49.237 -7.612)" fill="#62cac0"/>
    <path id="Trazado_114723" data-name="Trazado 114723" d="M352.414,50.114c0,2.268-2.741,4.105-6.123,4.105s-6.123-1.838-6.123-4.105,2.741-4.105,6.123-4.105,6.123,1.838,6.123,4.105" transform="translate(-56.169 -7.597)" fill="#47a095"/>
    <path id="Trazado_114724" data-name="Trazado 114724" d="M350.2,47.751a3.8,3.8,0,0,1-7.175-2.529l6.054-17.173a3.8,3.8,0,1,1,7.176,2.53Z" transform="translate(-56.605 -4.212)" fill="#ffae6a"/>
    <path id="Trazado_114725" data-name="Trazado 114725" d="M354.788,25.725a3.8,3.8,0,0,0-4.852,2.323l-1.95,5.534a9.314,9.314,0,0,0,4.521,3.128l2.14.68.058.016,2.408-6.829a3.805,3.805,0,0,0-2.323-4.852" transform="translate(-57.46 -4.212)" fill="#f07555"/>
    <path id="Trazado_114726" data-name="Trazado 114726" d="M364.723,25.778a9.354,9.354,0,0,1-11.743,6.089l-2.14-.679a9.354,9.354,0,0,1-6.09-11.743l2.9-9.154A9.353,9.353,0,0,1,359.4,4.2l2.141.68a9.353,9.353,0,0,1,6.089,11.743Z" transform="translate(-56.853 -0.621)" fill="#ffae6a"/>
    <path id="Trazado_114727" data-name="Trazado 114727" d="M348.508,16.1c5.613,0,1.309-7.764,4.49-9.354s8.325,11.412,18.988,9.447c-1.777-.842,2.058-7.764-4.864-13.282-7.247-5.778-14.811-1.861-17.772,2.245a10.052,10.052,0,0,0-.842,10.944" transform="translate(-57.342 0)" fill="#34193d"/>
    <path id="Trazado_114728" data-name="Trazado 114728" d="M349.651,16.74a3.391,3.391,0,1,1-3.39-3.39,3.391,3.391,0,0,1,3.39,3.39" transform="translate(-56.615 -2.204)" fill="#ffae6a"/>
    <path id="Trazado_114729" data-name="Trazado 114729" d="M380.731,144.258a5.822,5.822,0,0,1-2.394-.516c-20.911-9.406-37.2-26.744-47.1-50.144a116.69,116.69,0,0,1-8.714-32.774,5.844,5.844,0,0,1,11.649-.952c.058.665,5.038,53.454,48.961,73.21a5.845,5.845,0,0,1-2.4,11.176" transform="translate(-53.252 -9)" fill="#62cac0"/>
    <path id="Trazado_114730" data-name="Trazado 114730" d="M383.208,133.306c-1.152-.518-2.271-1.064-3.37-1.626l-.071.137c5.009,5.984-12.7,7.471-30.612-13.5-18.785-21.985-29.208-50.6-24.177-62.46-1.585,1.16-2.154,8.178-1.983,10.28.05.615.912,10.187,8.315,27.681,9.9,23.4,26.192,40.739,47.1,50.144a5.844,5.844,0,0,0,4.794-10.66" transform="translate(-53.329 -9.224)" fill="#47a095"/>
    <path id="Trazado_114731" data-name="Trazado 114731" d="M413.242,343.417c.113,9.735,3.178,14.711,11.457,20.725,53.143,38.6,136.853-3.9,141.88-65.358,1.218-14.892-.574-31.31-14.168-36.665Z" transform="translate(-68.235 -43.282)" fill="#ffb74d"/>
    <path id="Trazado_114732" data-name="Trazado 114732" d="M469.055,278.147c39.965-23.306,80.913-27.534,91.462-9.446s-13.3,51.646-53.259,74.95S426.345,371.188,415.8,353.1s13.3-51.645,53.259-74.95" transform="translate(-68.245 -42.516)" fill="#e28700"/>
    <path id="Trazado_114733" data-name="Trazado 114733" d="M556.332,392.174s1.461,13.775-1.67,13.775H529.825c-5.635,0-1.252-7.1,5.635-7.1s8.14-3.966,8.14-3.966Z" transform="translate(-87.06 -64.756)" fill="#e4e9ea"/>
    <path id="Trazado_114734" data-name="Trazado 114734" d="M538.7,392.174s1.461,13.775-1.67,13.775H512.193c-5.635,0-8.14-7.1,5.635-7.1,6.888,0,8.14-3.966,8.14-3.966Z" transform="translate(-83.83 -64.756)" fill="#fff"/>
    <path id="Trazado_114735" data-name="Trazado 114735" d="M561.506,282.047l-.148,94.2H547.444L536.195,264.117Z" transform="translate(-88.537 -43.612)" fill="#34193d"/>
    <path id="Trazado_114736" data-name="Trazado 114736" d="M568.966,285.593s.131,22.815-21.576,25.876v68.323H517.335l1.568-91.565Z" transform="translate(-85.423 -47.158)" fill="#2f3f4f"/>
    <path id="Trazado_114737" data-name="Trazado 114737" d="M524.02,218.248a39.365,39.365,0,0,1-18.226-4.265c-9.923-5.16-17.008-14.6-21.062-28.069a5.427,5.427,0,0,1,10.394-3.129c3.176,10.556,8.451,17.812,15.674,21.568,10.541,5.48,22.236,1.86,22.35,1.822a5.427,5.427,0,1,1,3.41,10.3,43.249,43.249,0,0,1-12.539,1.769" transform="translate(-80.001 -29.544)" fill="#298198"/>
    <path id="Trazado_114738" data-name="Trazado 114738" d="M540.006,209.623a5.415,5.415,0,0,0-4.039-3.6c.586,2.394.053-.556-6.1.905-.331.078-4.652,9.81-10.853,9.81-4.725,0-26.4-4.7-31.771-31.942a4.971,4.971,0,0,1,2.951-5.86,5.372,5.372,0,0,0-1.826.22,5.427,5.427,0,0,0-3.633,6.761c4.054,13.467,11.14,22.91,21.062,28.069a39.365,39.365,0,0,0,18.226,4.265,43.249,43.249,0,0,0,12.539-1.769,5.427,5.427,0,0,0,3.447-6.857" transform="translate(-80.001 -29.545)" fill="#1b6475"/>
    <path id="Trazado_114739" data-name="Trazado 114739" d="M547.758,200.642s9.881,3.952,12.736,19.542,8.782,51.382,8.782,51.382S549.514,286.5,519.213,274.2c4.172-23.494,8.344-60.6,28.544-73.558" transform="translate(-85.733 -33.13)" fill="#298198"/>
    <path id="Trazado_114740" data-name="Trazado 114740" d="M466.206,220.121l17.686-12.677-6.238-8.7a33.376,33.376,0,0,0,5.144-11.571l10.487-1.035-2.136-21.655-10.658,1.053a33.291,33.291,0,0,0-7.446-10.238l4.35-9.605-19.822-8.976-4.414,9.748a33.294,33.294,0,0,0-12.588,1.345l-6.147-8.576-17.685,12.678,6.238,8.7a33.364,33.364,0,0,0-5.145,11.571l-10.488,1.036,2.136,21.653,10.66-1.052a33.264,33.264,0,0,0,7.445,10.238l-4.35,9.6,19.822,8.977,4.413-9.747a33.292,33.292,0,0,0,12.588-1.344ZM443.016,195.8a17.7,17.7,0,1,1,23.419-8.82,17.695,17.695,0,0,1-23.419,8.82" transform="translate(-67.261 -22.575)" fill="#a5d20e"/>
    <path id="Trazado_114741" data-name="Trazado 114741" d="M473.562,230.675s-7.6-5.593-10.434-8.5c-3.361-3.442-4.154-1.8-2.975,1.99s-8.365-4.772-9.551-1.664c-1.312,3.431-.073,4.922,7.2,8.761s10.752,5.244,10.752,5.244Z" transform="translate(-74.329 -36.375)" fill="#ffae6a"/>
    <path id="Trazado_114742" data-name="Trazado 114742" d="M512.061,252.816c-9.078,0-32.741-9.549-41.505-16.749a5.427,5.427,0,1,1,6.889-8.386c7.5,6.158,28.233,13.97,34.273,14.273,3.707-1.529,14.9-14.366,24.735-28.418a5.427,5.427,0,0,1,8.891,6.225c-.224.32-5.57,7.942-11.921,15.7-12.495,15.256-17.651,17.359-21.362,17.359" transform="translate(-77.372 -34.877)" fill="#298198"/>
    <path id="Trazado_114743" data-name="Trazado 114743" d="M545.844,215.06c.186,3.9-5.008,8.907-7.758,12.687-19.759,31.03-32.838,21.707-48.005,16.976s-16.558-16.7-11.409-15.028l.228-.282c-.525-.371-1.014-.738-1.454-1.1a5.427,5.427,0,0,0-6.889,8.386c8.765,7.2,32.427,16.749,41.505,16.749,3.711,0,8.867-2.1,21.362-17.359,6.351-7.754,11.7-15.377,11.921-15.7a5.421,5.421,0,0,0,.5-5.334" transform="translate(-77.372 -35.511)" fill="#1b6475"/>
    <path id="Trazado_114744" data-name="Trazado 114744" d="M477.579,193.823a26.314,26.314,0,1,0-34.826,13.116,26.312,26.312,0,0,0,34.826-13.116m-31.27,5.265a17.7,17.7,0,1,1,23.419-8.82,17.695,17.695,0,0,1-23.419,8.82" transform="translate(-70.555 -25.866)" fill="#7a9c05"/>
    <path id="Trazado_114745" data-name="Trazado 114745" d="M557.909,206.792c0,2.229-2.367,4.036-5.287,4.036s-5.287-1.807-5.287-4.036,2.367-4.034,5.287-4.034,5.287,1.807,5.287,4.034" transform="translate(-90.377 -33.48)" fill="#1b6475"/>
    <path id="Trazado_114746" data-name="Trazado 114746" d="M548.146,201.294a4.245,4.245,0,0,0,8.491,0V187.241a4.245,4.245,0,0,0-8.491,0Z" transform="translate(-90.511 -30.217)" fill="#ffae6a"/>
    <path id="Trazado_114747" data-name="Trazado 114747" d="M552.392,183a4.245,4.245,0,0,0-4.246,4.245v6.294c.207.012.412.031.622.031a10.575,10.575,0,0,0,7.869-3.51v-2.815A4.245,4.245,0,0,0,552.392,183" transform="translate(-90.511 -30.217)" fill="#f07555"/>
    <path id="Trazado_114748" data-name="Trazado 114748" d="M537.959,174.529a10.613,10.613,0,0,0,20.846,4l1.517-7.908a10.613,10.613,0,0,0-20.846-4Z" transform="translate(-88.797 -26.09)" fill="#ffae6a"/>
    <path id="Trazado_114749" data-name="Trazado 114749" d="M555.707,177.083c-3.7-1.928-1.141-11.45-7.985-14.926s-7.985,6.031-14.054,1.948c1.505-.787-.782-5.645,5.009-8.766s10.965-7.2,18.049,1.137,8.654,8.9,5.015,14.357c-2.836,5.078-4.634,6.98-6.035,6.251" transform="translate(-88.12 -25.023)" fill="#34193d"/>
    <path id="Trazado_114750" data-name="Trazado 114750" d="M561.971,177.522a2.87,2.87,0,1,1-2.871-2.87,2.871,2.871,0,0,1,2.871,2.87" transform="translate(-91.846 -28.839)" fill="#ffae6a"/>
    <path id="Trazado_114751" data-name="Trazado 114751" d="M117.583,211.424s13.567,23.585,18.576,44.04a38.551,38.551,0,0,1-15.654,9.184Z" transform="translate(-19.416 -34.911)" fill="#dda21f"/>
    <path id="Trazado_114752" data-name="Trazado 114752" d="M103.526,170.853a7.1,7.1,0,1,1-7.1-7.1,7.1,7.1,0,0,1,7.1,7.1" transform="translate(-14.751 -27.04)" fill="#f07555"/>
    <path id="Trazado_114753" data-name="Trazado 114753" d="M147.454,391.174s-1.461,13.776,1.67,13.776h24.838c5.635,0,8.14-7.1-5.635-7.1-6.888,0-8.14-3.966-8.14-3.966Z" transform="translate(-24.292 -64.591)" fill="#e4e9ea"/>
    <path id="Trazado_114754" data-name="Trazado 114754" d="M76.971,384.762s-6.049,12.462-3.1,13.524l23.364,8.428c5.3,1.913,10.066-3.914-2.894-8.588-6.479-2.337-6.311-6.493-6.311-6.493Z" transform="translate(-12.064 -63.533)" fill="#fff"/>
    <path id="Trazado_114755" data-name="Trazado 114755" d="M90.845,281.593l38.116,94.2h29.5l-28.126-91.565Z" transform="translate(-15 -46.497)" fill="#34193d"/>
    <path id="Trazado_114756" data-name="Trazado 114756" d="M77.3,281.593l-4.463,94.2h23.1l31.428-91.565Z" transform="translate(-12.026 -46.497)" fill="#43827c"/>
    <path id="Trazado_114757" data-name="Trazado 114757" d="M99.7,196.642s-9.881,3.952-12.736,19.542-8.782,51.382-8.782,51.382S97.941,282.5,128.242,270.2c-4.172-23.494-8.344-60.6-28.544-73.558" transform="translate(-12.909 -32.47)" fill="#ffc529"/>
    <path id="Trazado_114758" data-name="Trazado 114758" d="M108.1,202.445c0,2.036-2.336,3.687-5.218,3.687s-5.218-1.651-5.218-3.687,2.336-3.688,5.218-3.688,5.218,1.651,5.218,3.688" transform="translate(-16.127 -32.819)" fill="#dda21f"/>
    <path id="Trazado_114759" data-name="Trazado 114759" d="M107.531,197.294a4.245,4.245,0,1,1-8.491,0V183.241a4.245,4.245,0,0,1,8.491,0Z" transform="translate(-16.354 -29.556)" fill="#ffae6a"/>
    <path id="Trazado_114760" data-name="Trazado 114760" d="M103.285,179a4.245,4.245,0,0,1,4.245,4.245v6.294c-.207.012-.412.031-.621.031a10.576,10.576,0,0,1-7.87-3.51v-2.815A4.246,4.246,0,0,1,103.285,179" transform="translate(-16.354 -29.556)" fill="#f07555"/>
    <path id="Trazado_114761" data-name="Trazado 114761" d="M114.51,172.489a10.613,10.613,0,0,1-21.226.2l-.073-8.052a10.613,10.613,0,0,1,21.225-.2Z" transform="translate(-15.391 -25.416)" fill="#ffae6a"/>
    <path id="Trazado_114762" data-name="Trazado 114762" d="M140.949,272.533s8.919-3.071,12.5-5c4.235-2.282,4.5-.481,2.245,2.787s9.407-2.058,9.612,1.262c.228,3.667-1.4,4.72-9.491,6.211s-11.827,1.8-11.827,1.8Z" transform="translate(-23.274 -44.007)" fill="#ffae6a"/>
    <path id="Trazado_114763" data-name="Trazado 114763" d="M92.8,168.139c4.9-5.417,2.922-7.723,9.6-10.019s12.21,4.174,13.88-1.983c.522-5.635-4.592-9.5-10.332-6.992-8.766-1.878-14.4.313-16.384,6.366-9.5,5.74,1.252,14.819,3.235,12.628" transform="translate(-14.152 -24.499)" fill="#f07555"/>
    <path id="Trazado_114764" data-name="Trazado 114764" d="M167.855,262.8a9.61,9.61,0,0,1-9.609,9.609H62.582a9.609,9.609,0,0,1,0-19.219h95.664a9.61,9.61,0,0,1,9.609,9.609" transform="translate(-8.747 -41.808)" fill="#2f3f4f"/>
    <path id="Trazado_114765" data-name="Trazado 114765" d="M56.428,255.946v13.717a9.573,9.573,0,0,0,6.725,2.751H78.8a25.5,25.5,0,0,0,0-19.219H63.153a9.573,9.573,0,0,0-6.725,2.751" transform="translate(-9.317 -41.808)" fill="#34193d"/>
    <path id="Trazado_114766" data-name="Trazado 114766" d="M188.18,269.663V255.946a9.573,9.573,0,0,0-6.725-2.751H165.808a25.5,25.5,0,0,0,0,19.219h15.646a9.573,9.573,0,0,0,6.725-2.751" transform="translate(-27.068 -41.808)" fill="#34193d"/>
    <path id="Trazado_114767" data-name="Trazado 114767" d="M22.41,246.573H42.769a2.755,2.755,0,0,1,2.755,2.756V270a2.756,2.756,0,0,1-2.755,2.756H22.41a25.491,25.491,0,1,0,0-26.18" transform="translate(-3.7 -38.667)" fill="#2f3f4f"/>
    <path id="Trazado_114768" data-name="Trazado 114768" d="M217.48,272.754H197.123A2.756,2.756,0,0,1,194.367,270V249.329a2.756,2.756,0,0,1,2.756-2.756H217.48a25.491,25.491,0,1,0,0,26.18" transform="translate(-28.09 -38.667)" fill="#2f3f4f"/>
    <path id="Trazado_114769" data-name="Trazado 114769" d="M91.626,171.4a2.87,2.87,0,1,0,2.87-2.87,2.871,2.871,0,0,0-2.87,2.87" transform="translate(-15.129 -27.827)" fill="#ffae6a"/>
    <path id="Trazado_114770" data-name="Trazado 114770" d="M135.86,271.726c-15.742,0-34.32-17.062-35.21-17.889-9.268-8.605-8.976-34.2-8.823-39.245a5.844,5.844,0,1,1,11.682.354c-.354,12.032,1.608,27.089,5.094,30.327,9.455,8.781,23.594,16.665,29.575,14.4a5.844,5.844,0,1,1,4.137,10.932,18.142,18.142,0,0,1-6.455,1.12" transform="translate(-15.155 -34.498)" fill="#ffc529"/>
    <path id="Trazado_114771" data-name="Trazado 114771" d="M97.846,208.928a5.852,5.852,0,0,0-6.018,5.665c-.154,5.043-.446,30.639,8.822,39.245.89.827,19.469,17.89,35.21,17.889a18.15,18.15,0,0,0,6.456-1.12,5.844,5.844,0,0,0,3.4-7.534c1.213,5.407-4.91,9.025-14.65,5.964s-23.237-8.906-29.916-21.986-10.639-37.145-3.3-38.122" transform="translate(-15.155 -34.498)" fill="#dda21f"/>
  </g>
</svg>
