<svg id="Grupo_80784" data-name="Grupo 80784" xmlns="http://www.w3.org/2000/svg" width="41.016" height="13.891" viewBox="0 0 41.016 13.891">
  <path id="Trazado_113163" data-name="Trazado 113163" d="M69.622,473.995v9.724a2.084,2.084,0,0,1-2.084,2.084h0a2.084,2.084,0,0,1-2.084-2.084v-9.724a2.084,2.084,0,0,1,2.084-2.084h0A2.084,2.084,0,0,1,69.622,473.995Z" transform="translate(-65.455 -471.911)" fill="#ffb74d"/>
  <path id="Trazado_113164" data-name="Trazado 113164" d="M88.244,473.995v9.724a2.084,2.084,0,0,1-2.084,2.084h0a2.084,2.084,0,0,1-2.084-2.084v-9.724a2.084,2.084,0,0,1,2.084-2.084h0A2.084,2.084,0,0,1,88.244,473.995Z" transform="translate(-74.865 -471.911)" fill="#ffb74d"/>
  <path id="Trazado_113165" data-name="Trazado 113165" d="M106.866,473.995v9.724a2.083,2.083,0,0,1-2.084,2.084h0a2.084,2.084,0,0,1-2.084-2.084v-9.724a2.084,2.084,0,0,1,2.084-2.084h0A2.083,2.083,0,0,1,106.866,473.995Z" transform="translate(-84.275 -471.911)" fill="#ffb74d"/>
  <path id="Trazado_113166" data-name="Trazado 113166" d="M125.488,473.995v9.724A2.084,2.084,0,0,1,123.4,485.8h0a2.084,2.084,0,0,1-2.084-2.084v-9.724a2.084,2.084,0,0,1,2.084-2.084h0A2.084,2.084,0,0,1,125.488,473.995Z" transform="translate(-93.685 -471.911)" fill="#ffb74d"/>
  <path id="Trazado_113167" data-name="Trazado 113167" d="M144.11,473.995v9.724a2.084,2.084,0,0,1-2.084,2.084h0a2.084,2.084,0,0,1-2.084-2.084v-9.724a2.084,2.084,0,0,1,2.084-2.084h0A2.083,2.083,0,0,1,144.11,473.995Z" transform="translate(-103.095 -471.911)" fill="#ffb74d"/>
</svg>
