<svg xmlns="http://www.w3.org/2000/svg" width="24.737" height="24.737" viewBox="0 0 24.737 24.737">
  <path id="Trazado_114794" data-name="Trazado 114794" d="M325.19,447.624a3.206,3.206,0,0,0,.942,2.274l3.256,3.255-3.256,3.255a3.217,3.217,0,1,0,4.55,4.55l3.255-3.254,3.255,3.254a3.217,3.217,0,0,0,4.549-4.55l-3.255-3.255,3.255-3.255a3.217,3.217,0,0,0,0-4.549h0a3.217,3.217,0,0,0-4.549,0l-3.255,3.255-3.255-3.255a3.218,3.218,0,0,0-4.55,0h0a3.206,3.206,0,0,0-.942,2.274Z" transform="translate(-544.188 -71.932) rotate(-45)" fill="#fff"/>
</svg>
