<svg xmlns="http://www.w3.org/2000/svg" xmlns:xlink="http://www.w3.org/1999/xlink" width="489.194" height="385.251" viewBox="0 0 489.194 385.251">
  <defs>
    <clipPath id="clip-path">
      <rect id="Rectángulo_33958" data-name="Rectángulo 33958" width="309.191" height="384.176" fill="none"/>
    </clipPath>
    <clipPath id="clip-path-3">
      <rect id="Rectángulo_33949" data-name="Rectángulo 33949" width="3.301" height="9.169" fill="none"/>
    </clipPath>
    <clipPath id="clip-path-4">
      <rect id="Rectángulo_33950" data-name="Rectángulo 33950" width="15.701" height="11.723" fill="none"/>
    </clipPath>
    <clipPath id="clip-path-5">
      <rect id="Rectángulo_33951" data-name="Rectángulo 33951" width="37.288" height="23.122" fill="none"/>
    </clipPath>
    <clipPath id="clip-path-6">
      <rect id="Rectángulo_33952" data-name="Rectángulo 33952" width="3.843" height="22.453" fill="none"/>
    </clipPath>
    <clipPath id="clip-path-7">
      <rect id="Rectángulo_33953" data-name="Rectángulo 33953" width="2.564" height="20.579" fill="none"/>
    </clipPath>
    <clipPath id="clip-path-8">
      <rect id="Rectángulo_33954" data-name="Rectángulo 33954" width="1.881" height="10.84" fill="none"/>
    </clipPath>
    <clipPath id="clip-path-9">
      <rect id="Rectángulo_33955" data-name="Rectángulo 33955" width="12.202" height="11.233" fill="none"/>
    </clipPath>
    <clipPath id="clip-path-10">
      <rect id="Rectángulo_33956" data-name="Rectángulo 33956" width="12.027" height="9.858" fill="none"/>
    </clipPath>
  </defs>
  <g id="Grupo_80805" data-name="Grupo 80805" transform="translate(-804.484 -7757)">
    <rect id="BG" width="489.194" height="385.251" transform="translate(804.484 7757)" fill="#e8e8e8" opacity="0.949"/>
    <g id="Grupo_80482" data-name="Grupo 80482" transform="translate(961.069 7774.502)">
      <g id="Grupo_80481" data-name="Grupo 80481" transform="translate(0 -17)" clip-path="url(#clip-path)">
        <g id="Grupo_80480" data-name="Grupo 80480">
          <g id="Grupo_80479" data-name="Grupo 80479" clip-path="url(#clip-path)">
            <path id="Trazado_113951" data-name="Trazado 113951" d="M287.664,202.724c-7.986-3.718-16.659-8.461-20.381-18.518-4.917-13.284,1.184-29.094,8.532-40.245s16.492-21.555,18.907-36c3.461-20.686-8.352-40.375-21.073-53.257-27.762-28.113-63.3-40.933-98.264-41.088S105.9,25.319,73.464,42.578C51.11,54.471,28.481,70.178,15.5,97.022,5.638,117.405,2.408,142.108.75,166.2-1.185,194.338-.3,226.04,14.789,246.032,24.918,259.45,39.92,265.213,49.421,279.41c3.811,5.693,6.711,12.7,11.566,16.77,5.079,4.259,11.427,4.577,17.439,4.766L183.4,304.252c32.418,1.02,68.361,1.716,96.173-23.83,24.351-22.365,48.244-59,8.092-77.7" transform="translate(0 9.768)" fill="#ffe0b2"/>
            <path id="Trazado_113952" data-name="Trazado 113952" d="M294,195.349c.775,22.283-117.754,46.552-174.78,37.2C99.026,229.244,84.571,214.516,69.28,212.5c-27.9-3.675-49.871,4.551-52.878-13.564-4.655-28.044,129.157-29,162.907-29S292.933,164.718,294,195.349" transform="translate(11.81 121.665)" fill="#f5c783"/>
            <path id="Trazado_113953" data-name="Trazado 113953" d="M37.505,266.914c-8.866-12.559-15.381-27.33-15.289-42.68.1-16.478,7.672-31.922,10.828-48.1,3.421-17.532,1.6-35.589,1.052-53.442s.378-36.435,8.668-52.276S68.488,42.263,86.222,44.985C99.564,47.034,110.2,56.7,121.838,63.5s27.858,10.352,37.672,1.125c5.963-5.609,7.688-14.766,5.614-22.666s-7.46-14.616-13.811-19.786c-12.81-10.428-29.718-15.2-46.264-14.914S71.2,9.161,56.458,16.647c-8.285,4.206-15.22,12.762-21.18,19.87C21.431,53.037,21.331,76.655,21.924,98.161q.564,20.49,1.132,40.978c.316,11.472.619,23.083-1.894,34.282-2.174,9.682-6.4,18.805-8.737,28.451-5.982,24.72,1.356,51.761,17.286,71.638,10.761,13.425,33.2,30.842,78.126,37.15-53.643-16.9-56.881-24.7-70.331-43.746" transform="translate(7.509 5.202)" fill="#08306e"/>
            <path id="Trazado_113954" data-name="Trazado 113954" d="M114.452,184.236q1.159,4.575,2.559,9.088c1.646,5.245,3.52,10.43,5.571,15.528a7.007,7.007,0,0,0,1.984,3.126,7.389,7.389,0,0,0,3.043,1.1q14.5,2.828,29.073,5.2a10.075,10.075,0,0,0,4.658.029,3.51,3.51,0,0,0,2.626-3.45,4.892,4.892,0,0,0-2.086-2.88,53.6,53.6,0,0,0-11.861-7.386c-3.573-1.625-7.3-3.124-10.519-5.42-2.811-2.009-4.843-5.973-5.988-9.148-.205-.577-.407-1.139-.626-1.7a60.4,60.4,0,0,0-5.643-11.036,8.052,8.052,0,0,0-1.53-1.881c-1.622-1.352-3.7-.96-5.58-.491-1.606.393-3.385,2.1-4.972,2.143-2.138,1.841-1.315,4.807-.707,7.185" transform="translate(82.52 125.157)" fill="#171b43"/>
            <path id="Trazado_113955" data-name="Trazado 113955" d="M128.039,174.1c.8,5.131,3.049,10.089,5.2,15.01,1.17,2.662,2.312,5.3,3.2,7.95a8.06,8.06,0,0,0,2.277,3.971,8.384,8.384,0,0,0,3.526,1.343l14.22,3c5.274,1.12,10.8,2.221,16.011.8a3.58,3.58,0,0,0,2.5-1.674c.654-1.5-.733-3.1-2.1-4.029-4.08-2.762-8.963-3.988-13.457-5.994a21.31,21.31,0,0,1-5.471-2.981,33.269,33.269,0,0,1-4.5-5.861c-.267-.4-.537-.8-.792-1.2a65.475,65.475,0,0,1-6.2-12.064c-.1-.282-.219-.562-.349-.843a3.388,3.388,0,0,0-.5-.744c-1.132-1.216-3.763-.01-5.083.416-2.008.634-6.679,1.808-8.483,2.9" transform="translate(92.865 122.137)" fill="#171b43"/>
            <path id="Trazado_113956" data-name="Trazado 113956" d="M128.039,174.188c.8,5.131,3.049,10.089,5.2,15.01,4.546-.172,11.209-1.52,15.405-4.671-2.476-3.79-3.583-8.554-5.188-12.8-1.151-3.04-5.616-.86-6.936-.434-2.008.634-6.679,1.808-8.483,2.9" transform="translate(92.865 122.049)" fill="#ff8873"/>
            <path id="Trazado_113957" data-name="Trazado 113957" d="M112.757,181.535c.773,3.05,4.149,8.786,5.084,11.79,4.7-.175,11.71-1.614,15.873-5.008-1.5-3.855-2.59-8.379-4.855-11.862-.438-.678-1.693-.532-2.317-1.056-1.625-1.352-3.706-.958-5.583-.491-1.606.393-3.382,2.1-4.971,2.143-2.138,1.841-3.837,2.105-3.231,4.484" transform="translate(81.691 125.158)" fill="#ff8873"/>
            <path id="Trazado_113958" data-name="Trazado 113958" d="M61.881,84.525s1.056.831,1.988,3.845c1.341-5.312,3.278-12.8,3.6-15.362,5.376.429,16.6,1.085,18.749-.457,5.654,1.152,11.352.991,13.292-4.515,1.387-3.943.887-8.841-.63-12.674-.763-1.925-2.039-3.972-4.182-4.572-1.425-.4-2.973-.179-3.608,1.3a2.409,2.409,0,0,0-.183.6s3.6.383,2.471,2.317c-.619,1.056-4.282-.757-3.266-3.452a3.049,3.049,0,0,0-.183,3.723c-1.208.6-3.7-1.168-5.649-2.142s-5.949-1.5-10.348.156C72,50.669,59.226,48.971,54.312,59.1c-1.071,1.86-6.492.314-8.878,8.963s-1.606,30.758,14.282,32.958c4.489.335,8.205-3.225,8.205-3.225L64.034,93Z" transform="translate(32.22 36.31)" fill="#171b43"/>
            <path id="Trazado_113959" data-name="Trazado 113959" d="M51.026,100.2a21.314,21.314,0,0,0,32.294,2.2.3.3,0,0,0-.017-.033c-.68-.184-1.372-.368-2.053-.551a3.326,3.326,0,0,1-.709-.263,2.6,2.6,0,0,1-.747-.773,15.987,15.987,0,0,1-2.276-4.694,10.176,10.176,0,0,1-.271-1.145,11.711,11.711,0,0,1-.171-2.48c-.009-.127.005-.258.007-.386,0-.185.009-.373.028-.584.026-.445.083-.962.145-1.549-4.4-4.038-20.762-12.276-20.762-12.276s.48,20.852-5.467,22.537" transform="translate(37.009 55.714)" fill="#ff8873"/>
            <path id="Trazado_113960" data-name="Trazado 113960" d="M57.142,91.358c.355.247,11.73,15.436,21.8,13.71,6.228-1.534,9.493-7.474,11.116-14.307.281-1.178.526-2.392.716-3.586a70.077,70.077,0,0,0,.733-7.12l.026-1.1c.066-1.7.1-3.352.057-4.852l-.007-.275c-.029-1.078-.055-2.066-.1-2.962-.154-3.088-.409-5.076-.409-5.076L71.563,58.572l-14.8,9.7s.293,10.534.8,13.632a9.434,9.434,0,0,0-3.257-.812,3.552,3.552,0,0,0-4.016,3.179c-1.22,6.071,5.5,7.8,6.86,7.088" transform="translate(36.362 42.017)" fill="#ff8873"/>
            <path id="Trazado_113961" data-name="Trazado 113961" d="M56.926,79a.422.422,0,0,0,.055-.244,16.708,16.708,0,0,0-.252-3.629,2.442,2.442,0,0,0-2.61-2.36,4.227,4.227,0,0,0-1.641.182c-2.257.809-1.42,3.792-.043,5.027a4.931,4.931,0,0,0,4.3,1.14.366.366,0,0,0,.19-.117" transform="translate(37.047 52.194)" fill="#bc675a"/>
            <g id="Grupo_80457" data-name="Grupo 80457" transform="translate(114.055 121.745)" opacity="0.5" style="mix-blend-mode: multiply;isolation: isolate">
              <g id="Grupo_80456" data-name="Grupo 80456">
                <g id="Grupo_80455" data-name="Grupo 80455" clip-path="url(#clip-path-3)">
                  <path id="Trazado_113962" data-name="Trazado 113962" d="M67.542,70.891c.1,1,.085,1.958.129,2.918a7.949,7.949,0,0,0,.424,2.628,1.66,1.66,0,0,0,.278.465c.048.074.121.108.176.17.1.084.235.184.342.287a1.868,1.868,0,0,1,.49.884,1.356,1.356,0,0,1-.217,1.044,2.473,2.473,0,0,1-3.055.447c.964.012,2.022-.311,2.3-.9.088-.266.014-.457-.257-.7l-.229-.17a2.319,2.319,0,0,1-.366-.318,2.671,2.671,0,0,1-.5-.761,6.159,6.159,0,0,1-.266-3.115,12.75,12.75,0,0,1,.752-2.878" transform="translate(-66.108 -70.891)" fill="#b4744b"/>
                </g>
              </g>
            </g>
            <path id="Trazado_113963" data-name="Trazado 113963" d="M66.144,66.278S63,68.421,60.932,68.334s-1.6,1.856,1.7,1.573S67.3,68.452,67.6,67.556s-.474-1.881-1.458-1.278" transform="translate(43.292 47.412)" fill="#232221"/>
            <path id="Trazado_113964" data-name="Trazado 113964" d="M70.674,66.777s2.49,2.258,4.241,2.358,1.2,1.858-1.567,1.307-3.825-1.755-4.01-2.61.552-1.7,1.335-1.054" transform="translate(50.27 47.74)" fill="#232221"/>
            <path id="Trazado_113965" data-name="Trazado 113965" d="M65.372,71.471a3.251,3.251,0,0,1-1.53,2.389,3.025,3.025,0,0,1-1.423.4A3.621,3.621,0,0,1,61,74.006a4.572,4.572,0,0,0,2.628-.5,3.425,3.425,0,0,0,1-.864,5.891,5.891,0,0,0,.742-1.166" transform="translate(44.243 51.27)" fill="#9d5f3b"/>
            <path id="Trazado_113966" data-name="Trazado 113966" d="M69.458,72.8a10.668,10.668,0,0,0,2.076,1.388,7.433,7.433,0,0,0,2.367.733A4.292,4.292,0,0,1,69.458,72.8" transform="translate(50.377 52.226)" fill="#9d5f3b"/>
            <path id="Trazado_113967" data-name="Trazado 113967" d="M64.568,72.109c-.333,1.209-1.275,2.008-2.107,1.781s-1.237-1.391-.9-2.6,1.275-2.008,2.107-1.781,1.237,1.391.9,2.6" transform="translate(44.562 49.835)" fill="#202222"/>
            <path id="Trazado_113968" data-name="Trazado 113968" d="M73.277,73.015c-.3,1.219-1.187,2.051-1.986,1.856s-1.206-1.338-.909-2.557,1.185-2.049,1.986-1.856,1.206,1.338.909,2.557" transform="translate(50.977 50.523)" fill="#202222"/>
            <path id="Trazado_113969" data-name="Trazado 113969" d="M71.02,83.7a46.04,46.04,0,0,0-6.872-1.64c-1.035-.172-1.518-1.166-.9-1.874,1.9-2.181,6.491-2.3,9.437-1.75,2.855.529.913,2.581.257,4.493a1.525,1.525,0,0,1-1.922.771" transform="translate(45.675 56.069)" fill="#fff"/>
            <path id="Trazado_113970" data-name="Trazado 113970" d="M92.482,67.566c-3.249,4.245-14.044,4.147-21.509-.007-3.356-1.712-8.426-2.518-9.2,2.332-.257,1.851.33,16.377-5.214,14.252S51.51,72.691,51.51,72.691s1.623-7.357,1.762-8.151S62,57.547,62,57.547l9.28-1.846,7.412-.244L91.957,66.721s.676.649.524.845" transform="translate(37.351 39.782)" fill="#171b43"/>
            <g id="Grupo_80460" data-name="Grupo 80460" transform="translate(98.555 138.932)" opacity="0.5" style="mix-blend-mode: multiply;isolation: isolate">
              <g id="Grupo_80459" data-name="Grupo 80459">
                <g id="Grupo_80458" data-name="Grupo 80458" clip-path="url(#clip-path-4)">
                  <path id="Trazado_113971" data-name="Trazado 113971" d="M72.69,89.172c-.019.211-.029.4-.028.584,0,.129-.016.258-.007.386a11.711,11.711,0,0,0,.171,2.48c-9.267-1.214-13.11-4.967-15.7-11.723,4.123,8.02,13.858,8.291,15.566,8.273" transform="translate(-57.124 -80.899)" fill="#b4744b"/>
                </g>
              </g>
            </g>
            <g id="Grupo_80463" data-name="Grupo 80463" transform="translate(90.661 106.012)" opacity="0.5" style="mix-blend-mode: multiply;isolation: isolate">
              <g id="Grupo_80462" data-name="Grupo 80462">
                <g id="Grupo_80461" data-name="Grupo 80461" clip-path="url(#clip-path-5)">
                  <path id="Trazado_113972" data-name="Trazado 113972" d="M52.548,78.826l0,.074a11.054,11.054,0,0,0,1.334,5.253,1.444,1.444,0,0,0,.53.572,1.707,1.707,0,0,0,.794.127,25.925,25.925,0,0,0,14.385-4.6c3.161-2.188,5.806-5.075,9.2-6.864a16.574,16.574,0,0,1,7.893-1.906,13.764,13.764,0,0,1,3.154.357l-.009-.275c-.028-1.078-.053-2.066-.095-2.962-.078-1.571-.186-2.868-.264-3.744C84.9,67.172,76.4,66.513,70.21,63.068c-3.356-1.724-8.431-2.526-9.206,2.325-.245,1.855.335,16.336-5.2,14.245a1.95,1.95,0,0,0-.28-.12,9.013,9.013,0,0,0-2.978-.692" transform="translate(-52.548 -61.73)" fill="#b4744b"/>
                </g>
              </g>
            </g>
            <path id="Trazado_113973" data-name="Trazado 113973" d="M123.374,147.386c1.517-.4,10.407,3.984,11.8,4.549,7.929,3.213,16.075,6.474,24.632,6.706a11.936,11.936,0,0,0,4.167-.464,9.524,9.524,0,0,0,4.015-2.88c3.589-4.139,4.494-10.1,3.489-15.473s-3.706-10.284-6.663-14.891a127.72,127.72,0,0,0-12.676-16.59C141.769,96.861,129.262,86.717,120.5,73.979a33.141,33.141,0,0,0-16,1.353.873.873,0,0,0-.557,1.5c2.633,4.721,6.27,8.8,9.36,13.239s5.7,9.475,5.831,14.874c-.455-.79-1.551-.931-2.448-1.108A90.385,90.385,0,0,0,91.2,102.5a22.1,22.1,0,0,1-3.4.445,44.172,44.172,0,0,1-9.762-2.315,115.941,115.941,0,0,0-16.934-4.209c-5.038-.776-11.918-2.119-16.487.369-4.16,2.265-7.158,6.72-8.789,11.037A40.384,40.384,0,0,0,33.744,123.5c.438,12.882,4.153,25.326,7.738,37.617,3.6,12.327,6.161,24.854,9.12,37.253a32.643,32.643,0,0,1,1.156,7.228,32.944,32.944,0,0,1-.928,6.948,32.932,32.932,0,0,0,.267,12.9,3.3,3.3,0,0,0,1.127,2.241c1.265.838,2.866-.239,4.173-1.008,5.243-3.088,12.061-1.211,17.86-3.067,2.195-.7,4.2-1.932,6.439-2.487a40.48,40.48,0,0,1,6.824-.579c2.5-.185,4.965-.744,7.469-.939,10.424-.816,20.593,4.678,31.01,3.773.752-.065,1.62-.244,1.951-.919a2.258,2.258,0,0,0,.117-1.19c-.5-5.82-1.625-11.611-2.231-17.381a68.827,68.827,0,0,1-.816-9.221c.085-3.27.452-6.522.7-9.782a129.527,129.527,0,0,0-.511-25q-.36-3.065-.866-6.11c-.154-.924-1.661-5.674-1.14-6.292a.33.33,0,0,1,.169-.1" transform="translate(24.445 52.764)" fill="#b0c0d2"/>
            <path id="Trazado_113974" data-name="Trazado 113974" d="M72.993,101.553a18.507,18.507,0,0,0-.217-5.626c-.928-3.744-4.042-6.5-6.075-9.779-3.137-5.07-3.616-11.269-4.213-17.194-.105-1.054-.48-2.385-1.541-2.485-1.27,5.389-.4,11.022.476,16.488a18.433,18.433,0,0,1-2.888-9.694c-.174-3.411.193-6.825.264-10.239.016-.745-.119-1.688-.838-1.9-.856-.252-1.491.79-1.724,1.647-.043-.622-.956-.842-1.47-.486A2.7,2.7,0,0,0,53.9,63.9c-.129-.422-.754-.495-1.111-.234a2.054,2.054,0,0,0-.626,1.14q-.888,3.047-1.5,6.165c.074-.491-.64-.787-1.073-.539a1.881,1.881,0,0,0-.735,1.252A21.671,21.671,0,0,0,49.9,84.8a33.754,33.754,0,0,0,7.389,11.056,11.109,11.109,0,0,1,2.531,3.261,9.911,9.911,0,0,1,.528,3.655q.085,4.737.171,9.471a2.886,2.886,0,0,0,.25,1.367,2.766,2.766,0,0,0,1.18.982,30.666,30.666,0,0,0,8.447,3.086.99.99,0,0,0,.552.005c.3-.115.412-.469.485-.78,1.251-5.312,1.222-10.012,1.561-15.351" transform="translate(35.012 43.821)" fill="#ff8873"/>
            <path id="Trazado_113975" data-name="Trazado 113975" d="M72.993,101.553a18.507,18.507,0,0,0-.217-5.626c-.928-3.744-4.042-6.5-6.075-9.779-3.137-5.07-3.616-11.269-4.213-17.194-.105-1.054-.48-2.385-1.541-2.485-1.27,5.389-.4,11.022.476,16.488a18.433,18.433,0,0,1-2.888-9.694c-.174-3.411.193-6.825.264-10.239.016-.745-.119-1.688-.838-1.9-.856-.252-1.491.79-1.724,1.647-.043-.622-.956-.842-1.47-.486A2.7,2.7,0,0,0,53.9,63.9c-.129-.422-.754-.495-1.111-.234a2.054,2.054,0,0,0-.626,1.14q-.888,3.047-1.5,6.165c.074-.491-.64-.787-1.073-.539a1.881,1.881,0,0,0-.735,1.252A21.671,21.671,0,0,0,49.9,84.8a33.754,33.754,0,0,0,7.389,11.056,11.109,11.109,0,0,1,2.531,3.261,9.911,9.911,0,0,1,.528,3.655q.085,4.737.171,9.471a2.886,2.886,0,0,0,.25,1.367,2.766,2.766,0,0,0,1.18.982,30.666,30.666,0,0,0,8.447,3.086.99.99,0,0,0,.552.005c.3-.115.412-.469.485-.78C72.682,111.593,72.653,106.893,72.993,101.553Z" transform="translate(35.012 43.821)" fill="none" stroke="#f2705f" stroke-miterlimit="10" stroke-width="0.787"/>
            <path id="Trazado_113976" data-name="Trazado 113976" d="M88.835,79.911a112.29,112.29,0,0,0-3.756-15.118,9.324,9.324,0,0,0-1.094-2.485,8.58,8.58,0,0,0-1.739-1.729A36.908,36.908,0,0,0,77,57.07c-.9-.495-2.167-1.671-3.283-1.4-.933.228-.538.984-1.61.7-1.218-.321-2.415-.811-3.611-1.211A2.409,2.409,0,0,0,67.047,55a1.59,1.59,0,0,0-.738,2.179A3.756,3.756,0,0,0,68.284,58.8a8.814,8.814,0,0,1,2.3,1.214,2.145,2.145,0,0,0,.283,2.741A6.308,6.308,0,0,0,73.5,64.193c2.8.993,4.936,1.506,5.949,4.6a18.4,18.4,0,0,1,.683,4.5,58.485,58.485,0,0,1-.621,12.585,1.824,1.824,0,0,0,.083,1.2c.181.311.531.483.783.742a7.788,7.788,0,0,1,.87,1.705c.721,1.247,2.357,1.575,3.8,1.69,1.984.158,10.4,1,8.271-3.237-.521-1.037-1.9-1.644-2.617-2.559-1.22-1.565-1.529-3.615-1.863-5.516" transform="translate(47.975 39.41)" fill="#ff8873"/>
            <path id="Trazado_113977" data-name="Trazado 113977" d="M43.4,138.133q1.638-3.485,3.275-6.972a89.718,89.718,0,0,0,3.551-8.266c1.946-5.528,2.793-11.4,4.87-16.88a64.253,64.253,0,0,1,3.7-7.792q1.465-2.7,3.033-5.356c.6-1.02,1.746-4,2.76-4.556,1.118-.6,4.184.465,5.378.74a38.242,38.242,0,0,1,5.19,1.57c.721.28,1.427.6,2.167.821,1.218.364,4.525.529,5.01,2.023.361,1.118-1.268,4.031-1.473,5.322-.649,4.094-.01,8.3.833,12.315,1.222,5.824,2.859,11.809,1.629,17.629-.668,3.151-2.151,6.081-2.907,9.212-.7,2.9-.764,5.916-1.382,8.832a47.4,47.4,0,0,1-4.2,10.771,25.805,25.805,0,0,1-4.317,6.9c-4,4.118-10.564,5.116-16.028,3.32a21.081,21.081,0,0,1-10.717-8.075,26.936,26.936,0,0,1-3.123-6.11c-.405-1.1-.657-2.246-1.021-3.359-.414-1.267-1.137-2.42-1.548-3.721" transform="translate(27.618 63.22)" fill="#b0c0d2"/>
            <path id="Trazado_113978" data-name="Trazado 113978" d="M66.724,91.317a15.235,15.235,0,0,0-1.844,5.578,23.175,23.175,0,0,0,.159,6c.5,4.264.983,8.534,1.158,12.823a53.545,53.545,0,0,1-.716,12.693,55.491,55.491,0,0,1-1.724,5.806,37.154,37.154,0,0,0-1.2,5.408c-.321,2.021-.576,4.051-1,6.054a25.121,25.121,0,0,1-2.094,6.045.406.406,0,0,0,.7.409c1.988-3.079,2.488-6.936,3.03-10.481.278-1.812.557-3.625.992-5.408.464-1.911,1.213-3.734,1.736-5.63a44.5,44.5,0,0,0,1.235-12.387,118.369,118.369,0,0,0-.994-12.834,44.965,44.965,0,0,1-.661-7.01,15.111,15.111,0,0,1,.568-3.454c.317-1.159.806-2.262,1.123-3.419a.258.258,0,0,0-.469-.2" transform="translate(43.092 65.42)" fill="#939393"/>
            <path id="Trazado_113979" data-name="Trazado 113979" d="M76.923,92.945A9.437,9.437,0,0,0,72.308,90.9a11.491,11.491,0,0,0-2.571-.058,1.634,1.634,0,0,1-.556.019c-.259-.074-.45-.355-.64-.527a2.562,2.562,0,0,0-.945-.56,8.941,8.941,0,0,0-2.151-.208,8.548,8.548,0,0,1-3.116-.824c-1.261-.61-2.666-2.209-4.008-.855a9.406,9.406,0,0,0-1.3,2.061q-.738,1.3-1.46,2.619Q54.115,95.2,52.8,97.9a73.723,73.723,0,0,0-4.356,10.962,61.14,61.14,0,0,0-1.573,6.385c-.212,1.137-.4,2.277-.6,3.416a19.191,19.191,0,0,0-.547,3.5.228.228,0,0,0,.421.113c.906-1.65,1-3.84,1.327-5.669s.7-3.644,1.194-5.435a68.4,68.4,0,0,1,4.008-10.521c1.522-3.3,3.231-6.517,4.988-9.7a11.648,11.648,0,0,1,1.315-2.265c.44-.481.875-.3,1.356.017a12.537,12.537,0,0,0,1.275.783,10.369,10.369,0,0,0,4.541,1.058,3.053,3.053,0,0,1,1.482.261c.316.184.524.5.825.709.735.5,1.682.168,2.514.163a9.974,9.974,0,0,1,5.568,1.774c.3.2.673-.27.39-.5" transform="translate(33.161 62.666)" fill="#939393"/>
            <g id="Grupo_80466" data-name="Grupo 80466" transform="translate(90.914 108.066)" opacity="0.5" style="mix-blend-mode: multiply;isolation: isolate">
              <g id="Grupo_80465" data-name="Grupo 80465">
                <g id="Grupo_80464" data-name="Grupo 80464" clip-path="url(#clip-path-6)">
                  <path id="Trazado_113980" data-name="Trazado 113980" d="M52.717,63.058a82.077,82.077,0,0,0,.5,12.164,25.543,25.543,0,0,0,3.209,10.126.063.063,0,0,0,.109-.062,35.205,35.205,0,0,1-3.19-10.644,86.517,86.517,0,0,1-.352-11.584.136.136,0,0,0-.273,0" transform="translate(-52.695 -62.926)" fill="#b4744b"/>
                </g>
              </g>
            </g>
            <g id="Grupo_80469" data-name="Grupo 80469" transform="translate(88.194 108.441)" opacity="0.5" style="mix-blend-mode: multiply;isolation: isolate">
              <g id="Grupo_80468" data-name="Grupo 80468">
                <g id="Grupo_80467" data-name="Grupo 80467" clip-path="url(#clip-path-7)">
                  <path id="Trazado_113981" data-name="Trazado 113981" d="M51.632,63.2a34.5,34.5,0,0,0-.217,10.534,48.11,48.11,0,0,0,.735,4.862,23.956,23.956,0,0,0,1.41,5.094c.033.072.136.019.122-.052-.366-1.714-.987-3.371-1.351-5.092a42.121,42.121,0,0,1-.776-5.186,45.753,45.753,0,0,1-.148-4.888c.041-1.762.286-3.5.378-5.252a.078.078,0,0,0-.152-.021" transform="translate(-51.119 -63.144)" fill="#b4744b"/>
                </g>
              </g>
            </g>
            <g id="Grupo_80472" data-name="Grupo 80472" transform="translate(85.641 114.575)" opacity="0.5" style="mix-blend-mode: multiply;isolation: isolate">
              <g id="Grupo_80471" data-name="Grupo 80471">
                <g id="Grupo_80470" data-name="Grupo 80470" clip-path="url(#clip-path-8)">
                  <path id="Trazado_113982" data-name="Trazado 113982" d="M49.8,66.787a7.8,7.8,0,0,0-.1,2.672A24.239,24.239,0,0,0,50,72.028c.152.91.35,1.814.573,2.708a21.794,21.794,0,0,0,.792,2.763.08.08,0,0,0,.155-.041c-.159-.872-.443-1.726-.652-2.59-.217-.9-.409-1.8-.559-2.713a23.817,23.817,0,0,1-.305-2.8c-.038-.843.11-1.74,0-2.569-.014-.1-.166-.084-.193,0" transform="translate(-49.639 -66.716)" fill="#b4744b"/>
                </g>
              </g>
            </g>
            <g id="Grupo_80475" data-name="Grupo 80475" transform="translate(118.505 99.095)" opacity="0.5" style="mix-blend-mode: multiply;isolation: isolate">
              <g id="Grupo_80474" data-name="Grupo 80474">
                <g id="Grupo_80473" data-name="Grupo 80473" clip-path="url(#clip-path-9)">
                  <path id="Trazado_113983" data-name="Trazado 113983" d="M68.739,57.9c1.406.6,2.845,1.077,4.229,1.74a26.483,26.483,0,0,1,3.682,1.975,8,8,0,0,1,2.712,3.248c.606,1.291.868,2.679,1.347,4.012.033.089.193.084.179-.024-.35-2.691-1.442-5.557-3.658-7.252a22.679,22.679,0,0,0-4.082-2.267A14.956,14.956,0,0,0,68.792,57.7a.106.106,0,0,0-.053.2" transform="translate(-68.687 -57.702)" fill="#b4744b"/>
                </g>
              </g>
            </g>
            <g id="Grupo_80478" data-name="Grupo 80478" transform="translate(120.782 95.684)" opacity="0.5" style="mix-blend-mode: multiply;isolation: isolate">
              <g id="Grupo_80477" data-name="Grupo 80477">
                <g id="Grupo_80476" data-name="Grupo 80476" clip-path="url(#clip-path-10)">
                  <path id="Trazado_113984" data-name="Trazado 113984" d="M70.05,55.874a16.609,16.609,0,0,0,1.789.788c.6.263,1.194.539,1.775.838a22.037,22.037,0,0,1,3.459,2.171,16.272,16.272,0,0,1,4.71,5.839c.064.134.3.04.243-.1a14.3,14.3,0,0,0-4.662-5.925,22.1,22.1,0,0,0-3.4-2.169,14.675,14.675,0,0,0-3.847-1.6.086.086,0,0,0-.066.156" transform="translate(-70.006 -55.716)" fill="#b4744b"/>
                </g>
              </g>
            </g>
            <path id="Trazado_113985" data-name="Trazado 113985" d="M89.112,116.837a4.835,4.835,0,0,0-.418-.366,4.611,4.611,0,0,0-.63-.3c-.411-.172-.833-.321-1.258-.46a10.635,10.635,0,0,0-2.688-.536,6.422,6.422,0,0,0-2.352.313,2.935,2.935,0,0,0-1.881,1.334c-.133.326.245.592.531.529a4.388,4.388,0,0,0,.935-.453,5.009,5.009,0,0,1,.982-.357,6.377,6.377,0,0,1,1.986-.137,9.663,9.663,0,0,1,2.245.476c.4.127.79.283,1.187.421a4.929,4.929,0,0,0,.6.177c.167.034.326-.01.483.012a.357.357,0,0,0,.274-.649" transform="translate(57.921 82.614)" fill="#939393"/>
            <path id="Trazado_113986" data-name="Trazado 113986" d="M82.856,91.768a19.51,19.51,0,0,0,1.139,3.819q.647,1.837,1.387,3.639a74.1,74.1,0,0,0,3.337,7.024,76.524,76.524,0,0,0,4.122,6.766c.7,1.032,1.429,2.049,2.2,3.033a15.57,15.57,0,0,0,2.631,2.911c.148.113.3-.1.235-.232a24.874,24.874,0,0,0-2.217-3.177c-.761-1.053-1.522-2.105-2.246-3.184A76.346,76.346,0,0,1,89.49,105.8q-1.843-3.442-3.333-7.057-.743-1.8-1.4-3.637a33.235,33.235,0,0,0-1.24-3.519c-.148-.3-.709-.172-.664.179" transform="translate(60.093 65.581)" fill="#939393"/>
            <path id="Trazado_113987" data-name="Trazado 113987" d="M74.316,131.887c-1.5,2.736-4.3,4.386-6.984,5.782-3.219,1.673-6.67,3.074-10.295,1.853a29.812,29.812,0,0,1-8.145-4.513,35.662,35.662,0,0,1-6.344-6.131,34.247,34.247,0,0,1-2.921-4.247q-.637-1.09-1.192-2.226a8.128,8.128,0,0,0-1.149-2.063.309.309,0,0,0-.523.216,5.211,5.211,0,0,0,.664,2.035c.34.728.716,1.441,1.111,2.14a34.993,34.993,0,0,0,2.657,4.024,36.258,36.258,0,0,0,6.72,6.758,32.556,32.556,0,0,0,8.366,4.736,10.21,10.21,0,0,0,5.385.536,18.667,18.667,0,0,0,5.247-1.932c3.076-1.571,6.541-3.39,7.817-6.8.09-.24-.293-.395-.414-.173" transform="translate(26.664 86.265)" fill="#939393"/>
            <path id="Trazado_113988" data-name="Trazado 113988" d="M82.721,141.52c0,2.8-1.639,5.157-3.283,7.3a76.42,76.42,0,0,1-4.95,5.879A36.347,36.347,0,0,1,62.3,163.547c-.162.067-.047.342.121.283A29.612,29.612,0,0,0,72.671,157.4a59.487,59.487,0,0,0,8.18-9.378,11.273,11.273,0,0,0,2.453-6.5.292.292,0,0,0-.583,0" transform="translate(45.132 101.319)" fill="#939393"/>
            <path id="Trazado_113989" data-name="Trazado 113989" d="M96.388,82.725q-2.138-3.194-4.277-6.387c-1.1-1.638-2.483-3.448-4.46-3.55a6.417,6.417,0,0,0-2.229.419q-4.666,1.471-9.336,2.94c-.669.211-1.422.5-1.668,1.152a2.333,2.333,0,0,0,.614,2.047C80.8,87.44,88.02,94.78,91.39,104.117" transform="translate(53.918 52.212)" fill="#b0c0d2"/>
            <path id="Trazado_113990" data-name="Trazado 113990" d="M193.834,218.751c-1.451,2.138-4.367,2.475-6.734,2.684-3.282.292-6.5,1.321-9.784,1.34a38.353,38.353,0,0,0-2.25-6.607,78.993,78.993,0,0,0-5.816-11.582q-1.964-3.23-3.949-6.447c-.431-.7-3.14-6.088-3.754-6.071-7.239-11.666-14.565-23.279-21.678-35.02-.216-.355-1.611-2.138-1.5-2.478-4.629,13.646-8.578,27.926-14.249,41.177a82.8,82.8,0,0,1-11.413,19.49c-8.3,10.3-19.551,18.79-33.74,15.975-4.615-.915-10.136-3.984-12.793-7.847-4.964-7.213-5.678-16.665-3.882-25.225s5.854-16.452,9.869-24.227q3.142-6.09,6.287-12.178a115.346,115.346,0,0,1,8.343-14.412c6.006-8.388,14.14-15.013,22.444-21.158,6.718-4.973,13.816-9.8,21.935-11.827s17.544-.763,23.433,5.162c3.145,3.165,5.024,7.333,6.836,11.4,6.672,14.984,12.874,30.188,19.594,45.142,2.71,6.035,5.25,10.6,6.894,17.186q1.441,5.765,3.064,11.484c.821,2.9,4.191,9.263,3.609,12.137a5.136,5.136,0,0,1-.769,1.9" transform="translate(44.532 81.376)" fill="#50536d"/>
            <path id="Trazado_113991" data-name="Trazado 113991" d="M44.284,198.711c-2.139,14.838,7.279,30.533,21.421,35.69a43.037,43.037,0,0,0,13.578,2.37c6.239.168,12.7-.706,18.033-3.934,6.906-4.185,10.987-11.681,14.423-18.968a276.359,276.359,0,0,0,16.011-42.862q.22,1.342.438,2.686c2.672,16.363,19.473,27.339,26.706,42.273,1.967,4.062,4.55,11.3,8.766,13.629,4.484,2.473,12.21-1.183,17.26-2.416.977-.239,2.179-.759,2.132-1.759-12.5-33.555-21.085-59.931-32.123-89.77-3.73-10.089-9.679-21.163-20.264-23.3-4.91-.993-10.015.2-14.682,2.02-15.785,6.155-27.9,19.124-37.635,32.941S60.674,176.2,50,189.31c-2.969,3.651-5.048,4.75-5.719,9.4" transform="translate(31.899 80.337)" fill="#5c5e7c"/>
            <path id="Trazado_113992" data-name="Trazado 113992" d="M96.937,154.7l.019-.022-.556.139a.312.312,0,0,1,.15.273l.34-.41c-.6.182-1.377-1.779-1.6-2.2q-.619-1.157-1.221-2.32-1.172-2.254-2.291-4.534a88.611,88.611,0,0,1-4.167-9.243c-.093-.265-.473.294-.355.52.968,1.884,1.808,3.838,2.716,5.758s1.837,3.854,2.8,5.762c.97,1.929,1.979,3.837,2.99,5.743.193.364.543,1.549,1.1.965.117-.125.357-.483.164-.632-.157-.122-.454.045-.588.113-.373.189.266.369.506.091" transform="translate(63.268 97.78)" fill="#020202"/>
            <path id="Trazado_113993" data-name="Trazado 113993" d="M95.867,149.96a24.132,24.132,0,0,1-6.254-4.111,27.861,27.861,0,0,1-2.566-2.595q-.6-.685-1.142-1.408c-.242-.318-.478-.641-.7-.97a7.551,7.551,0,0,1-.526-1.115c-.09-.191-.706.18-.568.371.259.357.6.618.859.979.171.239.342.476.518.711q.6.8,1.249,1.563a29.784,29.784,0,0,0,2.788,2.844,38.865,38.865,0,0,0,6.284,4.386c.183.108.279-.558.059-.654" transform="translate(60.99 100.221)" fill="#020202"/>
            <path id="Trazado_113994" data-name="Trazado 113994" d="M50.73,156.641a21.207,21.207,0,0,0,.692,16.54,20.508,20.508,0,0,0,2.536,4.359c.141.177.678-.239.538-.41a19.923,19.923,0,0,1-3.049-4.673A20.683,20.683,0,0,1,50,167.426a21.33,21.33,0,0,1,.977-10.527c.1-.285-.081-.689-.248-.258" transform="translate(35.809 112.232)" fill="#020202"/>
            <path id="Trazado_113995" data-name="Trazado 113995" d="M88.064,121a10.6,10.6,0,0,0-1.437-1.719q-.859-.948-1.686-1.925-1.661-1.963-3.2-4.027-1.441-1.945-2.769-3.976-.7-1.069-1.368-2.16c-.359-.591-.659-1.41-1.275-1.767a.309.309,0,0,0-.461.263,4.258,4.258,0,0,0,.94,1.968q.668,1.09,1.37,2.159,1.405,2.138,2.952,4.18,1.454,1.924,3.021,3.763.831.974,1.691,1.92a9.453,9.453,0,0,0,1.8,1.74.308.308,0,0,0,.419-.417" transform="translate(55.03 75.6)" fill="#939393"/>
            <path id="Trazado_113996" data-name="Trazado 113996" d="M123.459,0q-1.625,2.491-3.249,4.98l7.043,4.287-8.863,1.048a50.344,50.344,0,0,0,6.993,5.841c-11.132-3.462-23.262-2-34.456,1.262s-21.8,8.242-32.855,11.942c-9.606,3.215-9.995-6.229-3.8-11.058,4.022-3.134,10.136-3.426,14.9-4.943,8.92-2.841,14.437-5.939,23.555-8.183C96.741,4.187,121.741,2.633,123.459,0" transform="translate(36.368)" fill="#08306e"/>
            <path id="Trazado_113997" data-name="Trazado 113997" d="M73.606,52.8,66.51,42.4q6.346,3.565,12.691,7.134a48.6,48.6,0,0,1-5.654-8.6q4.519,2.939,9.035,5.882c-2.027-2.724-4.569-6.48-7.609-8.013-9.425-4.752-20.127-7.082-30.419-9.6-4.582-1.121-18.6.623-11.646,8.187,2.84,3.09,12.874.838,16.739,1.752,6.237,1.473,20.383,8.424,23.957,13.665" transform="translate(22.491 20.726)" fill="#08306e"/>
            <path id="Trazado_113998" data-name="Trazado 113998" d="M83.713,35.035c.186.345.366.692.533,1.046.062.132.124.266.185.4.04.089.079.179.117.27-.067-.163-.066-.158.007.017.261.658.5,1.322.735,1.99s.4,1.36.656,2.021a4.7,4.7,0,0,0,.2.5c.248.345.311.417.181.215.069.12.126.249.185.371.159.33.3.661.488.974a.9.9,0,0,0,1.629-.211,6.655,6.655,0,0,0,.221-1.252l.031-.289c.035-.259,0-.2-.1.192A1.5,1.5,0,0,0,89,40.513c-.005-.094-.012-.191-.021-.285a11.359,11.359,0,0,0-.514-2.416,19.363,19.363,0,0,0-2.027-4.36,1.574,1.574,0,0,0-2.721,1.583" transform="translate(60.569 23.438)" fill="#fff"/>
            <path id="Trazado_113999" data-name="Trazado 113999" d="M90.161,29a.974.974,0,0,0,.164.093c.141.045-.014-.048-.048-.065.183.1.3.235.5.318a2.788,2.788,0,0,0,.316.112c.283.082.568.153.851.235.547.163,1.1.292,1.648.438s1.09.316,1.641.46c.262.07.524.144.785.222.131.039.259.084.39.12.067.019.131.034.2.046s.631.106.274.024c.262.06.518.16.782.215a1.516,1.516,0,0,0,1.508-.5,1.318,1.318,0,0,0,.026-1.487,2.749,2.749,0,0,0-1.006-.807c-.057-.034-.117-.069-.173-.1.076.05.262.189-.053-.053a2.3,2.3,0,0,0-.455-.28q-.4-.185-.8-.357a14.967,14.967,0,0,0-1.881-.678,13.231,13.231,0,0,0-2.177-.445c-.312-.033-.625-.06-.939-.082a3.77,3.77,0,0,0-1.228.173,1.327,1.327,0,0,0-.316,2.4" transform="translate(64.933 18.951)" fill="#fff"/>
            <path id="Trazado_114000" data-name="Trazado 114000" d="M76.753,40.119A12.725,12.725,0,0,0,87.231,25.911c-.281-2.171-1.016-4.783-2.85-6.157-.985-.738-2.258.477-1.981,1.516a25.169,25.169,0,0,0,1.039,2.446,10.6,10.6,0,0,1,.638,2.478,10.155,10.155,0,0,1-.673,5.143c-1.3,3.074-3.982,4.893-7.032,5.98a1.439,1.439,0,0,0-1.025,1.565,1.409,1.409,0,0,0,1.406,1.236" transform="translate(54.636 14.009)" fill="#fff"/>
            <path id="Trazado_114001" data-name="Trazado 114001" d="M52.264,56.971a8.213,8.213,0,0,0-3.192-1.57,9.469,9.469,0,0,0-1.725-.285,2.9,2.9,0,0,0-1.765.216.257.257,0,0,0,0,.44,4.6,4.6,0,0,0,1.606.168,9.64,9.64,0,0,1,1.61.258,8.784,8.784,0,0,1,1.548.526c.516.234.987.536,1.477.816.349.2.763-.29.442-.568" transform="translate(32.969 39.513)" fill="#171b43"/>
            <path id="Trazado_114002" data-name="Trazado 114002" d="M50.577,58.719a6.908,6.908,0,0,1-1.146-2.768,7.928,7.928,0,0,1-.122-1.47c0-.5,0-1.013.031-1.513.012-.194-.3-.289-.381-.1a4.357,4.357,0,0,0-.4,1.52,6.475,6.475,0,0,0,.122,1.673,7.428,7.428,0,0,0,1.347,2.983c.242.319.79.021.552-.321" transform="translate(35.208 37.851)" fill="#171b43"/>
            <path id="Trazado_114003" data-name="Trazado 114003" d="M49.922,60.914c.7-3.648,3.447-6.5,6.641-8.228a9.693,9.693,0,0,1,6.261-1.365,12.3,12.3,0,0,1,3.128,1.063c.48.23.949.477,1.415.733.4.216,1.354.577,1.46,1.053a.28.28,0,0,0,.547-.074c0-1.027-1.358-1.458-2.108-1.853a17.333,17.333,0,0,0-3.242-1.369,9.6,9.6,0,0,0-6.844.735c-3.742,1.738-7.112,4.958-7.743,9.171-.047.313.424.457.487.134" transform="translate(35.853 36.254)" fill="#171b43"/>
            <path id="Trazado_114004" data-name="Trazado 114004" d="M51.831,56.472c-5.271.89-8.114,6.488-8.549,11.307a25.777,25.777,0,0,0,3.889,15.5,24.149,24.149,0,0,0,5.871,6.655c.347.264.787-.313.468-.6a28.724,28.724,0,0,1-8.242-12.09c-1.625-4.833-2.167-10.749.493-15.327a11.027,11.027,0,0,1,6.2-4.967.244.244,0,0,0-.129-.471" transform="translate(31.329 40.507)" fill="#171b43"/>
          </g>
        </g>
      </g>
    </g>
  </g>
</svg>
