<svg xmlns="http://www.w3.org/2000/svg" xmlns:xlink="http://www.w3.org/1999/xlink" width="400" height="334" viewBox="0 0 400 334">
  <defs>
    <clipPath id="clip-path">
      <rect id="Rectángulo_33997" data-name="Rectángulo 33997" width="307.317" height="334" fill="none"/>
    </clipPath>
    <clipPath id="clip-path-3">
      <rect id="Rectángulo_33967" data-name="Rectángulo 33967" width="60.815" height="23.915" fill="none"/>
    </clipPath>
    <clipPath id="clip-path-4">
      <rect id="Rectángulo_33970" data-name="Rectángulo 33970" width="5.687" height="17.936" fill="none"/>
    </clipPath>
    <clipPath id="clip-path-5">
      <rect id="Rectángulo_33974" data-name="Rectángulo 33974" width="42.837" height="144.725" fill="#42a5f5"/>
    </clipPath>
    <clipPath id="clip-path-6">
      <rect id="Rectángulo_33977" data-name="Rectángulo 33977" width="17.438" height="151.565" fill="none"/>
    </clipPath>
    <clipPath id="clip-path-7">
      <rect id="Rectángulo_33979" data-name="Rectángulo 33979" width="23.125" height="9.832" fill="none"/>
    </clipPath>
  </defs>
  <g id="Grupo_80807" data-name="Grupo 80807" transform="translate(-810 -8936)">
    <g id="Image_Place_Holder" data-name="Image Place Holder" transform="translate(810 8997.271)" opacity="0.1">
      <rect id="Image_Place_Holder-2" data-name="Image Place Holder" width="400" height="270.769" rx="10" fill="#a5d20e"/>
    </g>
    <g id="Grupo_80521" data-name="Grupo 80521" transform="translate(848 8936)">
      <g id="Grupo_80520" data-name="Grupo 80520" clip-path="url(#clip-path)">
        <g id="Grupo_80519" data-name="Grupo 80519">
          <g id="Grupo_80518" data-name="Grupo 80518" clip-path="url(#clip-path)">
            <path id="Trazado_114133" data-name="Trazado 114133" d="M291.059,284.857c0,43.741-34.18,79.2-76.343,79.2s-76.344-35.459-76.344-79.2,34.18-79.2,76.344-79.2,76.343,35.459,76.343,79.2" transform="translate(-26.227 -32.742)" fill="#ffe0b2"/>
            <path id="Trazado_114134" data-name="Trazado 114134" d="M263.591,224.108,156.823,334.871a78.274,78.274,0,0,0,16.011,16.611L279.6,240.72a78.3,78.3,0,0,0-16.011-16.612" transform="translate(-29.724 -35.68)" fill="#ffc67a"/>
            <path id="Trazado_114135" data-name="Trazado 114135" d="M196.906,356.4a1.145,1.145,0,0,1-.826-.355,1.244,1.244,0,0,1,0-1.713l48.739-50.563a1.138,1.138,0,0,1,1.651,0,1.244,1.244,0,0,1,0,1.713l-48.739,50.563a1.145,1.145,0,0,1-.826.355" transform="translate(-37.1 -48.306)" fill="#ffecbd"/>
            <path id="Trazado_114136" data-name="Trazado 114136" d="M267.82,292.05a1.142,1.142,0,0,1-.8-.334,1.244,1.244,0,0,1-.041-1.713L286.06,269.2a1.137,1.137,0,0,1,1.651-.041,1.243,1.243,0,0,1,.041,1.712l-19.086,20.806a1.148,1.148,0,0,1-.846.376" transform="translate(-50.541 -42.799)" fill="#ffecbd"/>
            <path id="Trazado_114137" data-name="Trazado 114137" d="M274.784,225.523a1.138,1.138,0,0,1-.724-.261c-.051-.042-5.413-4.349-15.878-7.253a1.218,1.218,0,0,1-.826-1.483,1.163,1.163,0,0,1,1.429-.858c10.974,3.045,16.494,7.5,16.724,7.693a1.243,1.243,0,0,1,.191,1.7,1.15,1.15,0,0,1-.917.46" transform="translate(-48.772 -34.33)" fill="#ffecbd"/>
            <path id="Trazado_114138" data-name="Trazado 114138" d="M180.008,232.392a1.135,1.135,0,0,1-.733-.27,1.241,1.241,0,0,1-.173-1.7c.53-.679,13.267-16.656,39.025-17.9a91.609,91.609,0,0,1,10.149.063,1.2,1.2,0,0,1,1.094,1.283A1.179,1.179,0,0,1,228.133,215a89.74,89.74,0,0,0-9.9-.061c-24.663,1.19-37.2,16.845-37.319,17a1.152,1.152,0,0,1-.908.447" transform="translate(-33.898 -33.818)" fill="#ffecbd"/>
            <path id="Trazado_114139" data-name="Trazado 114139" d="M156.823,334.87c1.239,1.736,2.551,3.413,3.92,5.036l107.7-111.732q-2.348-2.131-4.855-4.068Z" transform="translate(-29.724 -35.68)" fill="#e8ac68"/>
            <path id="Trazado_114140" data-name="Trazado 114140" d="M77.968,258.2c-9.758,2.892-16.379,8.408-24,18.789l13.292,5.887Z" transform="translate(-10.23 -41.108)" fill="#ffb74d"/>
            <path id="Trazado_114141" data-name="Trazado 114141" d="M22.177,368.839C19.192,387.847,1.028,382.127.032,388.118s20.827,5.224,24.2,1.387c4.086-4.651,6.044-22.058,6.044-22.058Z" transform="translate(0 -58.501)" fill="#514b4c"/>
            <path id="Trazado_114142" data-name="Trazado 114142" d="M51.17,368.839c-2.986,19.009-21.149,13.289-22.145,19.279s20.827,5.224,24.2,1.387c4.086-4.651,6.044-22.058,6.044-22.058Z" transform="translate(-5.495 -58.501)" fill="#514b4c"/>
            <path id="Trazado_114143" data-name="Trazado 114143" d="M98.009,252.3c9.758.413,28.277,5.31,38.034,27.621,10.634,24.315,7.169,59.5,7.169,59.5l-34.65-4.544-45-24.584s-4.978-46.006,16.13-53.03Z" transform="translate(-11.95 -40.169)" fill="#ffb74d"/>
            <path id="Trazado_114144" data-name="Trazado 114144" d="M18.714,355.46s1.195,5.165,9.16,5.578a25.318,25.318,0,0,0,13.94-3.512,14.125,14.125,0,0,0,9.359,5.785c6.172.827,12.545-2.273,12.545-2.273l2.091-4.958s2.452,11.106,11.65,16.217c11.151,6.2,34.445,5.157,43.61-.207,11.649-6.817,13.74-29.439,13.74-29.439s-7.468-7.127-15.981-10.535a301.255,301.255,0,0,0-15.88-36.359c-9.559-18.18-17.923-23.345-26.684-23.138A22.058,22.058,0,0,0,62.125,278.2s-1.991-4.958-10.354-5.165-15.333,11.569-22.5,39.045S18.714,355.46,18.714,355.46" transform="translate(-3.547 -43.403)" fill="#08306e"/>
            <path id="Trazado_114145" data-name="Trazado 114145" d="M73.369,368.1a.564.564,0,0,1-.256-.062.616.616,0,0,1-.267-.81c.181-.383,18.142-38.548,22.065-53.6a.583.583,0,0,1,.716-.427.608.608,0,0,1,.411.742c-3.952,15.169-21.962,53.436-22.143,53.821a.581.581,0,0,1-.524.34" transform="translate(-13.796 -49.861)" fill="#5e5254"/>
            <path id="Trazado_114146" data-name="Trazado 114146" d="M46.588,358.986a.593.593,0,0,1-.152-.021.608.608,0,0,1-.413-.742c.044-.169,4.436-17.177,9.356-38.2q1.025-4.381,1.914-8.24c3.735-16.141,5.99-25.883,9.291-32.19a.572.572,0,0,1,.791-.243.617.617,0,0,1,.234.821c-3.226,6.167-5.468,15.851-9.182,31.895q-.894,3.866-1.915,8.243c-4.923,21.042-9.319,38.063-9.362,38.232a.588.588,0,0,1-.563.449" transform="translate(-8.72 -44.463)" fill="#5e5254"/>
            <path id="Trazado_114147" data-name="Trazado 114147" d="M35.488,305.7c-2.348-1.328-2.931-3.262-4-3.321-3.042-.166-5.443,4.927-4.8,9.134A8.5,8.5,0,0,0,32.02,318.6Z" transform="translate(-5.038 -48.141)" fill="#e59e89"/>
            <path id="Trazado_114148" data-name="Trazado 114148" d="M75.6,297.014c7.49-.723,15.077-7.954,15.942-6.611,1.127,1.751-3.457,5.217-3.361,5.992s1.488.413,5.809-.981,7.059-5.32,8.5-4.184c1.144.9-2.737,12.86-25.929,14.255Z" transform="translate(-14.328 -46.208)" fill="#e59e89"/>
            <path id="Trazado_114149" data-name="Trazado 114149" d="M34.506,303.075c4.33,4.648,17.773,8.677,34.649,5.423,0,0,1.344-10.536-3.585-15.029,0,0-10.752-1.55-16.429-4.649s-12.827-7.148-16.727,0c-4.479,8.212,2.092,14.255,2.092,14.255" transform="translate(-5.848 -45.349)" fill="#ffb74d"/>
            <path id="Trazado_114150" data-name="Trazado 114150" d="M81,262.268c-.1,3.512,3.585,8.037,13.044,6.383s14.536-7.726,13.342-12.132c-1.05-3.871-3.983-5.511-14.338-2.867-8.892,2.269-11.9,3.709-12.047,8.616" transform="translate(-15.352 -40.178)" fill="#e59e89"/>
            <path id="Trazado_114151" data-name="Trazado 114151" d="M108.426,205.1c-.778-4.317-3.733-7.681-6.6-8.064-2.05-.274-3.583.91-5.155,2.428-1.757,1.7-16.288,4.481-16.908,6.832s5.366,5.533,5.309,7.911c-.075,3.078,7.429,1.659,7.63,4.7.149,2.258.453,4.68,1.97,6.15,1.584,1.534,2.419,13.54,4.458,12.255,0,0,7.774-.619,9.644-16.992a57.388,57.388,0,0,0-.344-15.222" transform="translate(-15.109 -31.363)" fill="#9b6f68"/>
            <path id="Trazado_114152" data-name="Trazado 114152" d="M99.6,234.573c-.145-1.773,1.428,16,4.049,21.176,1.841,3.636-20.4,7.737-20.052,5.916.773-4.025-3.187-17.688-3.021-17.057l14.8-10.554Z" transform="translate(-15.271 -37.263)" fill="#e59e89"/>
            <path id="Trazado_114153" data-name="Trazado 114153" d="M106.115,251.48a5.912,5.912,0,0,0-4.125-1.531c-.943-4.524-1.615-9.906-1.947-12.84l-9.079.73-4.486,3.2-4.774,7.43c.476,1.864,1.049,4.263,1.492,6.586a5.414,5.414,0,0,0-1.418,1.809c1.016,1.142,4.373,4.139,11.4,3.805,7.719-.369,12.422-5.572,12.934-9.187" transform="translate(-15.486 -37.75)" fill="#d0807b"/>
            <path id="Trazado_114154" data-name="Trazado 114154" d="M96.958,225.59c-3.423.122-4.653-4.408-4.067-7.746,0,0-6.334-2.979-5.971-10.064-5.916-3.354-21.724-2.766-21.179,7.57.909,17.274,4.073,26.513,6.8,30.908,2.867,4.624,8.553,5.523,14.288,2.022a19.6,19.6,0,0,0,8.7-13.743c3.431.509,5.764-2.115,6.743-5.365,1.43-6.94-3.893-6.1-5.31-3.582" transform="translate(-12.458 -32.79)" fill="#f2af97"/>
            <path id="Trazado_114155" data-name="Trazado 114155" d="M78.426,226.008a14.85,14.85,0,0,1,1.161,2.621,8.476,8.476,0,0,1,.351,1.4,5.334,5.334,0,0,1,.083.839,6.926,6.926,0,0,1-.009.8,10,10,0,0,1-.908,3.466,29.493,29.493,0,0,1-1.623,2.96,4.558,4.558,0,0,0-.281.545s-.02.058-.011.018a.459.459,0,0,0-.036-.293c.107.231-.061-.105.009.018a2.194,2.194,0,0,0,.8.43,6.876,6.876,0,0,0,1.67.351l.666.029h.014a.6.6,0,0,1,.558.647.637.637,0,0,1-.417.562,4.5,4.5,0,0,1-.81.166,5.739,5.739,0,0,1-2.175-.154,3.553,3.553,0,0,1-1.477-.8,1.825,1.825,0,0,1-.378-.574,1.3,1.3,0,0,1-.053-.658,2.16,2.16,0,0,1,.1-.341,5.8,5.8,0,0,1,.436-.821A27.988,27.988,0,0,0,77.7,234.46a9.865,9.865,0,0,0,.892-2.839,5.77,5.77,0,0,0,.049-.741,4.03,4.03,0,0,0-.028-.629,11.254,11.254,0,0,0-.219-1.23,14.921,14.921,0,0,0-.575-1.841c-.175-.43-.276-.674-.276-.674a.536.536,0,0,1,.26-.686.485.485,0,0,1,.619.187" transform="translate(-14.317 -35.945)" fill="#d1817c"/>
            <path id="Trazado_114156" data-name="Trazado 114156" d="M103.8,232.551c-.656,1.615-.378,3.181.619,3.5s2.338-.738,2.994-2.354.378-3.181-.62-3.5-2.337.738-2.993,2.353" transform="translate(-19.606 -36.641)" fill="#d0807b"/>
            <path id="Trazado_114157" data-name="Trazado 114157" d="M73.372,223.124c.172.973-1.241,2.058-3.076,2.91-2.711,1.258-4.131,1.253-4.329.405-.17-.725-.1-1.7,2.745-3.272,2.923-1.612,4.483-1.042,4.659-.044" transform="translate(-12.493 -35.37)" fill="#9b6f68"/>
            <path id="Trazado_114158" data-name="Trazado 114158" d="M87.616,223.655c2.256.208,4.1-.119,4.564-.992.392-.739-.279-1.586-3.916-2.326-2.008-.408-5.073-.892-5.185.929-.1,1.7,2.238,2.177,4.537,2.389" transform="translate(-15.746 -35.019)" fill="#9b6f68"/>
            <path id="Trazado_114159" data-name="Trazado 114159" d="M80.4,249.769a.533.533,0,0,1-.216-.046.576.576,0,0,1-.288-.746c1.115-2.7,5.36-5.511,9.084-6.024a.555.555,0,0,1,.616.489.564.564,0,0,1-.471.637c-3.337.461-7.255,3.009-8.222,5.347a.548.548,0,0,1-.5.344" transform="translate(-15.135 -38.68)" fill="#5e5254"/>
            <path id="Trazado_114160" data-name="Trazado 114160" d="M85.093,250.892a2.322,2.322,0,0,1,1.07-2.76,2.417,2.417,0,0,1,3.064.237c.308.545-.889.561-2.031,1.258s-1.794,1.81-2.1,1.265" transform="translate(-16.102 -39.439)" fill="#d0807b"/>
            <path id="Trazado_114161" data-name="Trazado 114161" d="M87.8,231.652a2.771,2.771,0,0,1-2.783-3.406,2.229,2.229,0,0,1,1.036-1.462,2.333,2.333,0,0,1,1.961-.278,1.809,1.809,0,0,1,1.057,1.065,1.488,1.488,0,0,1-.529,1.913,1.26,1.26,0,0,1-1.777-.394.5.5,0,0,1,.138-.67.458.458,0,0,1,.646.143.346.346,0,0,0,.486.108c.219-.148.331-.329.172-.733a.843.843,0,0,0-.5-.517,1.452,1.452,0,0,0-1.2.21,1.273,1.273,0,0,0-.581.842,1.818,1.818,0,0,0,.237,1.376,2.057,2.057,0,0,0,2.721.547,2.431,2.431,0,0,0,1.127-1.563,2.782,2.782,0,0,0-2.547-3.374,3.266,3.266,0,0,0-2.726.969.454.454,0,0,1-.661.008.5.5,0,0,1-.008-.685,4.2,4.2,0,0,1,3.486-1.256,3.76,3.76,0,0,1,2.854,1.7,3.851,3.851,0,0,1,.511,2.864,3.419,3.419,0,0,1-1.56,2.174,3,3,0,0,1-1.56.425" transform="translate(-15.91 -35.738)" fill="#5e5254"/>
            <path id="Trazado_114162" data-name="Trazado 114162" d="M72.232,234.232a2.771,2.771,0,0,1-2.783-3.407,2.229,2.229,0,0,1,1.036-1.461,2.335,2.335,0,0,1,1.961-.278,1.807,1.807,0,0,1,1.057,1.065,1.487,1.487,0,0,1-.529,1.913,1.259,1.259,0,0,1-1.777-.393.5.5,0,0,1,.138-.67.458.458,0,0,1,.645.143.344.344,0,0,0,.485.108c.22-.148.333-.33.173-.732a.844.844,0,0,0-.5-.518,1.453,1.453,0,0,0-1.2.21,1.279,1.279,0,0,0-.582.841,1.831,1.831,0,0,0,.238,1.377,2.057,2.057,0,0,0,2.721.546,2.434,2.434,0,0,0,1.128-1.562,2.783,2.783,0,0,0-2.549-3.375,3.279,3.279,0,0,0-2.725.969.455.455,0,0,1-.661.008.5.5,0,0,1-.008-.685,4.2,4.2,0,0,1,3.486-1.256,3.76,3.76,0,0,1,2.854,1.7,3.851,3.851,0,0,1,.511,2.864,3.421,3.421,0,0,1-1.56,2.174,3,3,0,0,1-1.56.425" transform="translate(-12.959 -36.148)" fill="#5e5254"/>
            <path id="Trazado_114163" data-name="Trazado 114163" d="M102.356,265.741s-1.294,25.41-25.191,32.124c-23.952,6.73-36.74-.31-36.74-.31s-6.173.827-8.363,5.785,1.394,10.949,1.394,10.949,17.766,16.954,52.969,9.3c37.038-8.057,41.22-37.805,41.22-44.622Z" transform="translate(-5.943 -42.308)" fill="#ffb74d"/>
            <path id="Trazado_114164" data-name="Trazado 114164" d="M32.781,288.107c3.534-6.508,11.9-7.747,11.9-7.747a24.946,24.946,0,0,0-2.788,4.855Z" transform="translate(-6.213 -44.636)" fill="#d0d0d0"/>
            <path id="Trazado_114165" data-name="Trazado 114165" d="M68.758,326.041c-23.536,0-35.689-11.283-35.834-11.422a.6.6,0,0,1-.1-.126c-.153-.256-3.723-6.327-1.429-11.521s8.554-6.1,8.819-6.133a.564.564,0,0,1,.348.066c.127.07,12.9,6.839,36.315.26,23.22-6.524,24.747-31.322,24.76-31.572a.581.581,0,0,1,.614-.572.6.6,0,0,1,.552.636c-.013.258-1.595,25.925-25.62,32.676-22.671,6.37-35.3.594-36.989-.266-.979.177-5.907,1.265-7.737,5.408-1.908,4.318.936,9.627,1.318,10.306,1.165,1.049,18.928,16.373,52.395,9.095,24.54-5.338,34.409-20.084,38.366-31.513a.578.578,0,0,1,.747-.366.612.612,0,0,1,.352.774c-4.059,11.721-14.157,26.836-39.225,32.29a82.948,82.948,0,0,1-17.649,1.978" transform="translate(-5.805 -42.193)" fill="#b7b7b7"/>
            <path id="Trazado_114166" data-name="Trazado 114166" d="M141.921,306.9a.583.583,0,0,1-.533-.36.616.616,0,0,1,.3-.8,12.221,12.221,0,0,0,4.909-4.291.573.573,0,0,1,.8-.225.618.618,0,0,1,.216.827,13.227,13.227,0,0,1-5.447,4.8.566.566,0,0,1-.237.052" transform="translate(-26.789 -47.944)" fill="#b7b7b7"/>
            <path id="Trazado_114167" data-name="Trazado 114167" d="M108.745,326.321a.592.592,0,0,1-.577-.519.6.6,0,0,1,.494-.687,13.838,13.838,0,0,0,7.87-4.1.566.566,0,0,1,.826,0,.62.62,0,0,1,0,.855,15,15,0,0,1-8.531,4.447.569.569,0,0,1-.084.007" transform="translate(-20.501 -51.08)" fill="#b7b7b7"/>
            <path id="Trazado_114168" data-name="Trazado 114168" d="M148.385,361.139a.586.586,0,0,1-.558-.432,116.7,116.7,0,0,0-5.937-16.43.617.617,0,0,1,.262-.812.576.576,0,0,1,.782.271,117.848,117.848,0,0,1,6.011,16.623.609.609,0,0,1-.391.754.559.559,0,0,1-.169.026" transform="translate(-26.882 -54.673)" fill="#5e5254"/>
            <path id="Trazado_114169" data-name="Trazado 114169" d="M152.529,356.371a.569.569,0,0,1-.382-.148,66.129,66.129,0,0,0-7.094-5.313.618.618,0,0,1-.189-.833.573.573,0,0,1,.8-.2,66.136,66.136,0,0,1,7.244,5.428.621.621,0,0,1,.058.854.572.572,0,0,1-.441.209" transform="translate(-27.441 -55.69)" fill="#5e5254"/>
            <path id="Trazado_114170" data-name="Trazado 114170" d="M53.3,379.788a16.921,16.921,0,0,1-2.247-.147,14.59,14.59,0,0,1-9.442-5.586A25.763,25.763,0,0,1,27.8,377.372c-8.328-.431-9.27-5.046-9.307-5.242a.6.6,0,0,1,.464-.708.584.584,0,0,1,.682.476c.035.171.888,3.885,8.219,4.265a24.829,24.829,0,0,0,13.6-3.418.572.572,0,0,1,.8.175A13.648,13.648,0,0,0,51.2,378.44c5.924.789,11.549-2.18,11.6-2.21a.573.573,0,0,1,.787.259.618.618,0,0,1-.25.816A23.458,23.458,0,0,1,53.3,379.788" transform="translate(-3.504 -59.132)" fill="#5e5254"/>
            <path id="Trazado_114171" data-name="Trazado 114171" d="M106.225,389.348a.572.572,0,0,1-.189-.033,26.152,26.152,0,0,1-10.948-8.337c-6.565-8.611-11.445-25.162-11.65-25.863a.61.61,0,0,1,.389-.755.583.583,0,0,1,.728.4c.049.169,5.023,17.034,11.449,25.463a25.46,25.46,0,0,0,10.41,7.942.612.612,0,0,1,.363.769.585.585,0,0,1-.552.409" transform="translate(-15.81 -56.414)" fill="#5e5254"/>
            <path id="Trazado_114172" data-name="Trazado 114172" d="M60.708,214.1s-4.547-4.893-3.286-11c1.344-6.507,7.219-9.4,7.219-9.4s-3.286-.775-4.929,0c0,0,2.091-5.578,10.6-5.578,5.825,0,8.613.258,8.613-.517s-2.987-.774-3.436-3.253a23.838,23.838,0,0,0,9.409.464c6.72-1.084,12.247,2.944,13.292,8.057a3.815,3.815,0,0,0,2.091-2.944s1.792,3.718-.9,6.2-9.857,8.832-16.876,10.691-9.409-.31-15.084,1.394c-4.178,1.255-6.721,5.888-6.721,5.888" transform="translate(-10.842 -29.351)" fill="#9b6f68"/>
            <path id="Trazado_114173" data-name="Trazado 114173" d="M107.15,220.937a8.8,8.8,0,0,1-6.583-2.995.5.5,0,0,1,.032-.684.453.453,0,0,1,.659.034,7.911,7.911,0,0,0,7.614,2.473.468.468,0,0,1,.56.363.485.485,0,0,1-.349.581,8.265,8.265,0,0,1-1.933.228" transform="translate(-19.038 -34.569)" fill="#895d5b"/>
            <path id="Trazado_114174" data-name="Trazado 114174" d="M105.881,224.619a5.647,5.647,0,0,1-3.961-1.651.5.5,0,0,1-.011-.684.452.452,0,0,1,.66-.012,4.705,4.705,0,0,0,3.729,1.36.465.465,0,0,1,.507.438.48.48,0,0,1-.422.526c-.167.016-.335.024-.5.024" transform="translate(-19.291 -35.366)" fill="#895d5b"/>
            <path id="Trazado_114175" data-name="Trazado 114175" d="M104.821,196.414h-.006a.477.477,0,0,1-.461-.491,7.066,7.066,0,0,0-4.68-6.654.487.487,0,0,1-.309-.605.465.465,0,0,1,.584-.321,8.062,8.062,0,0,1,5.339,7.594.475.475,0,0,1-.466.478" transform="translate(-18.83 -29.982)" fill="#895d5b"/>
            <path id="Trazado_114176" data-name="Trazado 114176" d="M111.618,204.559a.469.469,0,0,1-.447-.347,4.4,4.4,0,0,0-3.665-3.141.48.48,0,0,1-.418-.53.472.472,0,0,1,.511-.435,5.36,5.36,0,0,1,4.467,3.831.472.472,0,0,1-.447.621" transform="translate(-20.297 -31.858)" fill="#895d5b"/>
            <path id="Trazado_114177" data-name="Trazado 114177" d="M61.6,216.8a.452.452,0,0,1-.205-.05.492.492,0,0,1-.214-.647c.1-.217,2.562-5.3,8.118-6.155a32.122,32.122,0,0,1,4.963-.189c3.7.035,7.9.083,11.5-2.025a23.077,23.077,0,0,0,5.307-4.172,12.224,12.224,0,0,1,4-2.978.463.463,0,0,1,.614.253.49.49,0,0,1-.243.636,11.318,11.318,0,0,0-3.718,2.784,24.236,24.236,0,0,1-5.5,4.321c-3.823,2.235-8.152,2.187-11.971,2.149a31.353,31.353,0,0,0-4.817.18c-5.075.78-7.392,5.574-7.415,5.622a.465.465,0,0,1-.42.272" transform="translate(-11.588 -31.929)" fill="#895d5b"/>
            <path id="Trazado_114178" data-name="Trazado 114178" d="M61.234,214.7a.454.454,0,0,1-.213-.054.493.493,0,0,1-.2-.651c.094-.192,2.393-4.692,9.642-5.22a.473.473,0,0,1,.5.449.479.479,0,0,1-.434.517c-6.694.489-8.791,4.525-8.877,4.7a.465.465,0,0,1-.416.262" transform="translate(-11.518 -33.239)" fill="#895d5b"/>
            <path id="Trazado_114179" data-name="Trazado 114179" d="M94.924,187.965a.477.477,0,0,1-.1-.012,11.682,11.682,0,0,0-3.9,0,.467.467,0,0,1-.54-.394.483.483,0,0,1,.379-.56,12.458,12.458,0,0,1,4.263,0,.486.486,0,0,1,.355.578.471.471,0,0,1-.455.379" transform="translate(-17.13 -29.742)" fill="#895d5b"/>
            <path id="Trazado_114180" data-name="Trazado 114180" d="M102.8,198.377h-.037a.479.479,0,0,1-.429-.52A5.623,5.623,0,0,0,101.077,194a.5.5,0,0,1,0-.685.456.456,0,0,1,.66,0,6.538,6.538,0,0,1,1.529,4.617.473.473,0,0,1-.464.445" transform="translate(-19.132 -30.755)" fill="#895d5b"/>
            <path id="Trazado_114181" data-name="Trazado 114181" d="M63.077,200.713a.45.45,0,0,1-.24-.069.5.5,0,0,1-.16-.664c1.168-2.021,3.818-3.492,5.732-4.138a24.648,24.648,0,0,1,6.489-1.056,14.323,14.323,0,0,0,6-1.811.46.46,0,0,1,.631.2.493.493,0,0,1-.195.655,15.244,15.244,0,0,1-6.378,1.922,23.875,23.875,0,0,0-6.256,1.01c-1.9.64-4.252,2.038-5.22,3.714a.464.464,0,0,1-.4.235" transform="translate(-11.867 -30.715)" fill="#895d5b"/>
            <path id="Trazado_114182" data-name="Trazado 114182" d="M79.743,191.908a14.075,14.075,0,0,1-1.988-.141.48.48,0,0,1-.4-.545.464.464,0,0,1,.526-.415,13.3,13.3,0,0,0,6.912-.865.461.461,0,0,1,.606.272.491.491,0,0,1-.263.629,14.233,14.233,0,0,1-5.394,1.064" transform="translate(-14.661 -30.235)" fill="#895d5b"/>
            <path id="Trazado_114183" data-name="Trazado 114183" d="M65.474,192.582a.463.463,0,0,1-.383-.207.5.5,0,0,1,.115-.674,9.269,9.269,0,0,1,7.324-1.237.486.486,0,0,1,.342.586.465.465,0,0,1-.565.356,8.435,8.435,0,0,0-6.566,1.088.45.45,0,0,1-.267.088" transform="translate(-12.321 -30.279)" fill="#895d5b"/>
            <path id="Trazado_114184" data-name="Trazado 114184" d="M307.892,392.543H271.015a12.425,12.425,0,0,1,0-24.834h36.878a12.425,12.425,0,0,1,0,24.834" transform="translate(-49.099 -58.543)" fill="#f2e9e4"/>
            <path id="Trazado_114185" data-name="Trazado 114185" d="M314.928,367.708H296.166v24.834h18.762a12.425,12.425,0,0,0,0-24.834" transform="translate(-56.135 -58.543)" fill="#a5d20e"/>
            <g id="Grupo_80505" data-name="Grupo 80505" transform="translate(209.946 310.085)" opacity="0.3" style="mix-blend-mode: multiply;isolation: isolate">
              <g id="Grupo_80504" data-name="Grupo 80504">
                <g id="Grupo_80503" data-name="Grupo 80503" clip-path="url(#clip-path-3)">
                  <path id="Trazado_114186" data-name="Trazado 114186" d="M312.4,368.8a11.6,11.6,0,0,1,2.411,7.111A11.186,11.186,0,0,1,303.838,387.3H270.022a11.091,11.091,0,0,1-10.773-9.228,12.926,12.926,0,0,0-.2,2.228,12.2,12.2,0,0,0,11.969,12.417h36.878A12.2,12.2,0,0,0,319.862,380.3a12.422,12.422,0,0,0-7.459-11.5" transform="translate(-259.046 -368.802)" fill="#5e5270"/>
                </g>
              </g>
            </g>
            <path id="Trazado_114187" data-name="Trazado 114187" d="M264.962,377.033a.873.873,0,0,1-.216-.028.909.909,0,0,1-.634-1.1,7.3,7.3,0,0,1,7-5.611h16.067a.909.909,0,0,1,0,1.816H271.107c-4.195,0-5.254,4.065-5.3,4.238a.883.883,0,0,1-.847.683" transform="translate(-50.055 -58.955)" fill="#fff"/>
            <path id="Trazado_114189" data-name="Trazado 114189" d="M197.168,89.518V1.18a1.137,1.137,0,1,1,2.273,0V89.518Z" transform="translate(-37.371 0)" fill="#706466"/>
            <rect id="Rectángulo_33968" data-name="Rectángulo 33968" width="11.372" height="17.936" transform="translate(155.247 75.359)" fill="#d0d0d0"/>
            <g id="Grupo_80508" data-name="Grupo 80508" transform="translate(160.932 75.359)" opacity="0.3" style="mix-blend-mode: multiply;isolation: isolate">
              <g id="Grupo_80507" data-name="Grupo 80507">
                <g id="Grupo_80506" data-name="Grupo 80506" clip-path="url(#clip-path-4)">
                  <rect id="Rectángulo_33969" data-name="Rectángulo 33969" width="5.686" height="17.936" transform="translate(0.001)" fill="#5e5270"/>
                </g>
              </g>
            </g>
            <rect id="Rectángulo_33971" data-name="Rectángulo 33971" width="6.065" height="221.434" transform="translate(157.9 106.822)" fill="#706466"/>
            <rect id="Rectángulo_33972" data-name="Rectángulo 33972" width="46.249" height="9.832" transform="translate(137.808 324.168)" fill="#d0d0d0"/>
            <g id="Grupo_80511" data-name="Grupo 80511" transform="translate(139.325 95.023)" opacity="0.5">
              <g id="Grupo_80510" data-name="Grupo 80510">
                <g id="Grupo_80509" data-name="Grupo 80509" clip-path="url(#clip-path-5)">
                  <rect id="Rectángulo_33973" data-name="Rectángulo 33973" width="42.837" height="144.724" transform="translate(0 0.001)" fill="#42a5f5"/>
                </g>
              </g>
            </g>
            <rect id="Rectángulo_33975" data-name="Rectángulo 33975" width="42.837" height="86.127" transform="translate(139.325 95.023)" fill="#f2e9e4"/>
            <rect id="Rectángulo_33976" data-name="Rectángulo 33976" width="38.667" height="9.832" transform="translate(141.599 180.012)" fill="#b7b7b7"/>
            <path id="Trazado_114190" data-name="Trazado 114190" d="M170.037,114.256V256.425a4.616,4.616,0,0,0,4.529,4.7h37.191a4.616,4.616,0,0,0,4.529-4.7V114.256a4.616,4.616,0,0,0-4.529-4.7H174.566a4.616,4.616,0,0,0-4.529,4.7M212.495,253.89H173.828v-137.1h38.667Z" transform="translate(-32.229 -17.443)" fill="#d0d0d0"/>
            <g id="Grupo_80514" data-name="Grupo 80514" transform="translate(166.619 92.115)" opacity="0.3" style="mix-blend-mode: multiply;isolation: isolate">
              <g id="Grupo_80513" data-name="Grupo 80513">
                <g id="Grupo_80512" data-name="Grupo 80512" clip-path="url(#clip-path-6)">
                  <path id="Trazado_114191" data-name="Trazado 114191" d="M205.586,109.558V261.123h12.909a4.616,4.616,0,0,0,4.529-4.7V114.256a4.616,4.616,0,0,0-4.529-4.7Z" transform="translate(-205.586 -109.558)" fill="#5e5270"/>
                </g>
              </g>
            </g>
            <g id="Grupo_80517" data-name="Grupo 80517" transform="translate(160.932 324.168)" opacity="0.3" style="mix-blend-mode: multiply;isolation: isolate">
              <g id="Grupo_80516" data-name="Grupo 80516">
                <g id="Grupo_80515" data-name="Grupo 80515" clip-path="url(#clip-path-7)">
                  <rect id="Rectángulo_33978" data-name="Rectángulo 33978" width="23.124" height="9.832" transform="translate(0.001 0)" fill="#5e5270"/>
                </g>
              </g>
            </g>
            <rect id="Rectángulo_33980" data-name="Rectángulo 33980" width="11.941" height="1.324" transform="translate(141.599 146.319)" fill="#706466"/>
            <rect id="Rectángulo_33981" data-name="Rectángulo 33981" width="11.941" height="1.324" transform="translate(141.599 182.768)" fill="#706466"/>
            <rect id="Rectángulo_33982" data-name="Rectángulo 33982" width="11.941" height="1.324" transform="translate(141.599 219.217)" fill="#706466"/>
            <rect id="Rectángulo_33983" data-name="Rectángulo 33983" width="11.941" height="1.324" transform="translate(141.599 109.869)" fill="#706466"/>
            <rect id="Rectángulo_33984" data-name="Rectángulo 33984" width="5.413" height="1.146" transform="translate(141.599 116.294)" fill="#706466"/>
            <rect id="Rectángulo_33985" data-name="Rectángulo 33985" width="5.413" height="1.146" transform="translate(141.599 124.028)" fill="#706466"/>
            <rect id="Rectángulo_33986" data-name="Rectángulo 33986" width="5.413" height="1.146" transform="translate(141.599 131.763)" fill="#706466"/>
            <rect id="Rectángulo_33987" data-name="Rectángulo 33987" width="5.413" height="1.146" transform="translate(141.599 139.497)" fill="#706466"/>
            <rect id="Rectángulo_33988" data-name="Rectángulo 33988" width="5.413" height="1.146" transform="translate(141.599 152.672)" fill="#706466"/>
            <rect id="Rectángulo_33989" data-name="Rectángulo 33989" width="5.413" height="1.146" transform="translate(141.599 160.406)" fill="#706466"/>
            <rect id="Rectángulo_33990" data-name="Rectángulo 33990" width="5.413" height="1.146" transform="translate(141.599 168.14)" fill="#706466"/>
            <rect id="Rectángulo_33991" data-name="Rectángulo 33991" width="5.413" height="1.146" transform="translate(141.599 175.875)" fill="#706466"/>
            <rect id="Rectángulo_33992" data-name="Rectángulo 33992" width="5.413" height="1.146" transform="translate(141.599 189.049)" fill="#706466"/>
            <rect id="Rectángulo_33993" data-name="Rectángulo 33993" width="5.413" height="1.146" transform="translate(141.599 196.784)" fill="#706466"/>
            <rect id="Rectángulo_33994" data-name="Rectángulo 33994" width="5.413" height="1.146" transform="translate(141.599 204.518)" fill="#706466"/>
            <rect id="Rectángulo_33995" data-name="Rectángulo 33995" width="5.413" height="1.146" transform="translate(141.599 212.253)" fill="#706466"/>
            <path id="Trazado_114192" data-name="Trazado 114192" d="M373.438,379.662a12.3,12.3,0,1,1-12.292-12.752,12.529,12.529,0,0,1,12.292,12.752" transform="translate(-66.122 -58.416)" fill="#b4c8c1"/>
            <path id="Trazado_114193" data-name="Trazado 114193" d="M361.145,366.91c-.276,0-.548.024-.82.043a11.037,11.037,0,1,1-11.431,11.859c-.018.283-.041.563-.041.85a12.3,12.3,0,1,0,12.292-12.752" transform="translate(-66.122 -58.416)" fill="#88a29e"/>
            <path id="Trazado_114194" data-name="Trazado 114194" d="M352.784,382.576a.7.7,0,0,1-.626-.4,8.747,8.747,0,0,1,1.288-9.2,9.434,9.434,0,0,1,8.752-3.139.725.725,0,0,1,.545.857.7.7,0,0,1-.827.567,8.054,8.054,0,0,0-7.422,2.679,7.259,7.259,0,0,0-1.084,7.586.738.738,0,0,1-.316.972.673.673,0,0,1-.311.077" transform="translate(-66.602 -58.86)" fill="#d6e5df"/>
            <path id="Trazado_114195" data-name="Trazado 114195" d="M371.075,377.19a.71.71,0,0,1-.692-.62A4.479,4.479,0,0,0,368.1,373.1a.737.737,0,0,1-.369-.954.691.691,0,0,1,.92-.381,5.9,5.9,0,0,1,3.113,4.587.722.722,0,0,1-.591.825.607.607,0,0,1-.1.008" transform="translate(-69.69 -59.18)" fill="#d6e5df"/>
          </g>
        </g>
      </g>
    </g>
  </g>
</svg>
