<svg xmlns="http://www.w3.org/2000/svg" xmlns:xlink="http://www.w3.org/1999/xlink" width="569.191" height="448.251" viewBox="0 0 569.191 448.251">
  <defs>
    <clipPath id="clip-path">
      <rect id="Rectángulo_33823" data-name="Rectángulo 33823" width="416.759" height="300.496" fill="none"/>
    </clipPath>
    <clipPath id="clip-path-3">
      <rect id="Rectángulo_33770" data-name="Rectángulo 33770" width="22.327" height="14.969" fill="none"/>
    </clipPath>
    <clipPath id="clip-path-5">
      <rect id="Rectángulo_33792" data-name="Rectángulo 33792" width="17.424" height="17.423" fill="none"/>
    </clipPath>
    <clipPath id="clip-path-6">
      <rect id="Rectángulo_33796" data-name="Rectángulo 33796" width="13.755" height="13.755" fill="none"/>
    </clipPath>
    <clipPath id="clip-path-9">
      <rect id="Rectángulo_33805" data-name="Rectángulo 33805" width="7.554" height="14.543" fill="none"/>
    </clipPath>
    <clipPath id="clip-path-10">
      <rect id="Rectángulo_33806" data-name="Rectángulo 33806" width="56.52" height="61.384" fill="none"/>
    </clipPath>
    <clipPath id="clip-path-11">
      <rect id="Rectángulo_33815" data-name="Rectángulo 33815" width="17.511" height="24.24" fill="none"/>
    </clipPath>
    <clipPath id="clip-path-12">
      <rect id="Rectángulo_33816" data-name="Rectángulo 33816" width="66.236" height="64.063" fill="none"/>
    </clipPath>
    <clipPath id="clip-path-13">
      <rect id="Rectángulo_33817" data-name="Rectángulo 33817" width="5.206" height="7.3" fill="none"/>
    </clipPath>
    <clipPath id="clip-path-14">
      <rect id="Rectángulo_33818" data-name="Rectángulo 33818" width="21.856" height="34.429" fill="none"/>
    </clipPath>
    <clipPath id="clip-path-15">
      <rect id="Rectángulo_33820" data-name="Rectángulo 33820" width="9.406" height="29.314" fill="none"/>
    </clipPath>
    <clipPath id="clip-path-16">
      <rect id="Rectángulo_33821" data-name="Rectángulo 33821" width="5.009" height="29.071" fill="none"/>
    </clipPath>
  </defs>
  <g id="Grupo_80802" data-name="Grupo 80802" transform="translate(-804.809 -971)">
    <rect id="BG" width="569.191" height="448.251" transform="translate(804.809 971)" fill="#e8e8e8" opacity="0.949"/>
    <g id="Grupo_80168" data-name="Grupo 80168" transform="translate(956.241 1081.429)">
      <g id="Grupo_80167" data-name="Grupo 80167" clip-path="url(#clip-path)">
        <g id="Grupo_80166" data-name="Grupo 80166" transform="translate(0 -0.001)">
          <g id="Grupo_80165" data-name="Grupo 80165" clip-path="url(#clip-path)">
            <path id="Trazado_113532" data-name="Trazado 113532" d="M0,355.1v-2.721A10.5,10.5,0,0,1,13.04,342.2a17.383,17.383,0,0,1,25.027-19.38A27.788,27.788,0,0,1,87.9,330.449a18.19,18.19,0,0,1,23.566,17.363l-.154,7.293Z" transform="translate(0 -65.949)" fill="#08306e"/>
            <path id="Trazado_113533" data-name="Trazado 113533" d="M268.535,327.738v-5.01a19.332,19.332,0,0,1,24.014-18.75,32.011,32.011,0,0,1,46.088-35.689,51.174,51.174,0,0,1,91.776,14.045,33.5,33.5,0,0,1,43.4,31.974l-.284,13.43Z" transform="translate(-89.326 -52.143)" fill="#08306e"/>
            <path id="Trazado_113534" data-name="Trazado 113534" d="M213.6,336.386v-3.059a11.8,11.8,0,0,1,14.662-11.448A19.543,19.543,0,0,1,256.4,300.09a31.244,31.244,0,0,1,56.033,8.575,20.45,20.45,0,0,1,26.5,19.521l-.173,8.2Z" transform="translate(-45.383 -60.791)" fill="#ffe0b2"/>
            <path id="Trazado_113535" data-name="Trazado 113535" d="M64.7,125.71,42.4,172.311a9.984,9.984,0,0,0,9.484,14.281l23.9-1.147Z" transform="translate(-8.798 -26.708)" fill="#a5d20e"/>
            <path id="Trazado_113536" data-name="Trazado 113536" d="M171.386,0H153.042A84.822,84.822,0,0,0,68.22,84.821V134.91a84.752,84.752,0,0,0,40.157,72.1v81.853H216.052l.173-93.862c0-6.789,2.778-13.6,8.35-17.48,38.386-26.732,31.633-92.7,31.633-92.7A84.821,84.821,0,0,0,171.386,0" transform="translate(-14.494 0.001)" fill="#a5d20e"/>
            <path id="Trazado_113537" data-name="Trazado 113537" d="M68.91,196.8l-.263,31.6a29.849,29.849,0,0,0,34.439,29.855l71.2-11.329V193.647Z" transform="translate(-14.585 -41.142)" fill="#a5d20e"/>
            <path id="Trazado_113538" data-name="Trazado 113538" d="M324.034,250.585l-19.62,91.523H285.3l19.62-91.523Z" transform="translate(-60.615 -53.239)" fill="#fbb040"/>
            <path id="Trazado_113539" data-name="Trazado 113539" d="M370.513,250.585l19.62,91.523h19.118l-19.62-91.523Z" transform="translate(-78.72 -53.239)" fill="#fbb040"/>
            <g id="Grupo_80125" data-name="Grupo 80125" transform="translate(291.792 197.346)" opacity="0.2">
              <g id="Grupo_80124" data-name="Grupo 80124">
                <g id="Grupo_80123" data-name="Grupo 80123" clip-path="url(#clip-path-3)">
                  <path id="Trazado_113540" data-name="Trazado 113540" d="M389.631,250.585H370.513l3.208,14.97h19.119Z" transform="translate(-370.513 -250.585)" fill="#262262"/>
                </g>
              </g>
            </g>
            <g id="Grupo_80128" data-name="Grupo 80128" transform="translate(241.092 197.346)" opacity="0.2">
              <g id="Grupo_80127" data-name="Grupo 80127">
                <g id="Grupo_80126" data-name="Grupo 80126" clip-path="url(#clip-path-3)">
                  <path id="Trazado_113541" data-name="Trazado 113541" d="M306.134,265.555h19.118l3.209-14.97H309.343Z" transform="translate(-306.134 -250.585)" fill="#262262"/>
                </g>
              </g>
            </g>
            <rect id="Rectángulo_33772" data-name="Rectángulo 33772" width="108.645" height="12.465" transform="translate(224.372 186.267)" fill="#27aae1"/>
            <rect id="Rectángulo_33773" data-name="Rectángulo 33773" width="90.382" height="16.671" transform="translate(232.415 236.122)" fill="#27aae1"/>
            <path id="Trazado_113542" data-name="Trazado 113542" d="M312.365,309.856a3.389,3.389,0,1,1-3.39-3.389,3.39,3.39,0,0,1,3.39,3.389" transform="translate(-64.926 -65.112)" fill="#fff"/>
            <path id="Trazado_113543" data-name="Trazado 113543" d="M399.01,309.856a3.389,3.389,0,1,1-3.39-3.389,3.39,3.39,0,0,1,3.39,3.389" transform="translate(-83.335 -65.112)" fill="#fff"/>
            <path id="Trazado_113544" data-name="Trazado 113544" d="M29.724,247.063c0,6.8,6.055,12.31,6.055,12.31s6.055-5.511,6.055-12.31-6.055-12.31-6.055-12.31-6.055,5.511-6.055,12.31" transform="translate(-6.315 -49.876)" fill="#d1278a"/>
            <path id="Trazado_113545" data-name="Trazado 113545" d="M18.289,276.519c4.807,4.807,12.986,4.424,12.986,4.424s.384-8.179-4.423-12.986-12.986-4.423-12.986-4.423-.384,8.179,4.423,12.986" transform="translate(-2.944 -55.989)" fill="#92278f"/>
            <path id="Trazado_113546" data-name="Trazado 113546" d="M18.289,298.244c4.807,4.807,12.986,4.424,12.986,4.424s.384-8.179-4.423-12.986-12.986-4.423-12.986-4.423-.384,8.179,4.423,12.986" transform="translate(-2.944 -60.605)" fill="#92278f"/>
            <path id="Trazado_113547" data-name="Trazado 113547" d="M18.289,319.968c4.807,4.807,12.986,4.424,12.986,4.424s.384-8.179-4.423-12.986-12.986-4.423-12.986-4.423-.384,8.179,4.423,12.986" transform="translate(-2.944 -65.22)" fill="#92278f"/>
            <path id="Trazado_113548" data-name="Trazado 113548" d="M18.289,341.693c4.807,4.807,12.986,4.424,12.986,4.424s.384-8.179-4.423-12.987-12.986-4.423-12.986-4.423-.384,8.179,4.423,12.986" transform="translate(-2.944 -69.836)" fill="#92278f"/>
            <path id="Trazado_113549" data-name="Trazado 113549" d="M51.835,276.519c-4.807,4.807-12.986,4.424-12.986,4.424s-.384-8.179,4.423-12.986,12.986-4.423,12.986-4.423.384,8.179-4.424,12.986" transform="translate(-8.252 -55.989)" fill="#d1278a"/>
            <path id="Trazado_113550" data-name="Trazado 113550" d="M51.835,298.244c-4.807,4.807-12.986,4.424-12.986,4.424s-.384-8.179,4.423-12.986,12.986-4.423,12.986-4.423.384,8.179-4.424,12.986" transform="translate(-8.252 -60.605)" fill="#d1278a"/>
            <path id="Trazado_113551" data-name="Trazado 113551" d="M51.835,319.968c-4.807,4.807-12.986,4.424-12.986,4.424s-.384-8.179,4.423-12.986,12.986-4.423,12.986-4.423.384,8.179-4.424,12.986" transform="translate(-8.252 -65.22)" fill="#d1278a"/>
            <path id="Trazado_113552" data-name="Trazado 113552" d="M51.835,341.693c-4.807,4.807-12.986,4.424-12.986,4.424s-.384-8.179,4.423-12.987,12.986-4.423,12.986-4.423.384,8.179-4.424,12.986" transform="translate(-8.252 -69.836)" fill="#d1278a"/>
            <rect id="Rectángulo_33774" data-name="Rectángulo 33774" width="0.491" height="96.598" transform="translate(29.218 191.868)" fill="#fff"/>
            <rect id="Rectángulo_33775" data-name="Rectángulo 33775" width="0.491" height="19.248" transform="matrix(0.701, -0.713, 0.713, 0.701, 15.561, 212.448)" fill="#fff"/>
            <rect id="Rectángulo_33776" data-name="Rectángulo 33776" width="0.491" height="19.249" transform="matrix(0.701, -0.713, 0.713, 0.701, 15.561, 229.985)" fill="#fff"/>
            <rect id="Rectángulo_33777" data-name="Rectángulo 33777" width="0.491" height="19.249" transform="matrix(0.701, -0.713, 0.713, 0.701, 15.561, 247.093)" fill="#fff"/>
            <rect id="Rectángulo_33778" data-name="Rectángulo 33778" width="0.491" height="19.248" transform="matrix(0.701, -0.713, 0.713, 0.701, 15.561, 264.203)" fill="#fff"/>
            <rect id="Rectángulo_33779" data-name="Rectángulo 33779" width="19.248" height="0.491" transform="matrix(0.713, -0.701, 0.701, 0.713, 29.246, 225.587)" fill="#fff"/>
            <rect id="Rectángulo_33780" data-name="Rectángulo 33780" width="19.249" height="0.491" transform="matrix(0.713, -0.701, 0.701, 0.713, 29.246, 243.123)" fill="#fff"/>
            <rect id="Rectángulo_33781" data-name="Rectángulo 33781" width="19.249" height="0.491" transform="matrix(0.713, -0.701, 0.701, 0.713, 29.246, 260.232)" fill="#fff"/>
            <rect id="Rectángulo_33782" data-name="Rectángulo 33782" width="19.248" height="0.491" transform="matrix(0.713, -0.701, 0.701, 0.713, 29.246, 277.341)" fill="#fff"/>
            <rect id="Rectángulo_33783" data-name="Rectángulo 33783" width="201.426" height="0.491" transform="translate(0.132 288.623)" fill="#fff"/>
            <path id="Trazado_113553" data-name="Trazado 113553" d="M211.879,266.914c0,6.8,6.055,12.31,6.055,12.31s6.055-5.511,6.055-12.31-6.055-12.31-6.055-12.31-6.055,5.511-6.055,12.31" transform="translate(-45.017 -54.093)" fill="#d1278a"/>
            <path id="Trazado_113554" data-name="Trazado 113554" d="M200.444,296.37c4.807,4.807,12.986,4.424,12.986,4.424s.384-8.179-4.423-12.986-12.986-4.424-12.986-4.424-.384,8.179,4.423,12.986" transform="translate(-41.646 -60.206)" fill="#92278f"/>
            <path id="Trazado_113555" data-name="Trazado 113555" d="M200.444,318.095c4.807,4.807,12.986,4.423,12.986,4.423s.384-8.179-4.423-12.986-12.986-4.423-12.986-4.423-.384,8.178,4.423,12.986" transform="translate(-41.646 -64.822)" fill="#92278f"/>
            <path id="Trazado_113556" data-name="Trazado 113556" d="M200.444,339.819c4.807,4.807,12.986,4.424,12.986,4.424s.384-8.179-4.423-12.986-12.986-4.423-12.986-4.423-.384,8.179,4.423,12.986" transform="translate(-41.646 -69.438)" fill="#92278f"/>
            <path id="Trazado_113557" data-name="Trazado 113557" d="M233.99,296.37c-4.807,4.807-12.986,4.424-12.986,4.424s-.384-8.179,4.423-12.986,12.986-4.424,12.986-4.424.384,8.179-4.424,12.986" transform="translate(-46.954 -60.206)" fill="#d1278a"/>
            <path id="Trazado_113558" data-name="Trazado 113558" d="M233.99,318.095C229.183,322.9,221,322.518,221,322.518s-.384-8.179,4.423-12.986,12.986-4.423,12.986-4.423.384,8.178-4.424,12.986" transform="translate(-46.954 -64.822)" fill="#d1278a"/>
            <path id="Trazado_113559" data-name="Trazado 113559" d="M233.99,339.819c-4.807,4.807-12.986,4.424-12.986,4.424s-.384-8.179,4.423-12.986,12.986-4.423,12.986-4.423.384,8.179-4.424,12.986" transform="translate(-46.954 -69.438)" fill="#d1278a"/>
            <rect id="Rectángulo_33784" data-name="Rectángulo 33784" width="0.491" height="80.904" transform="translate(172.671 207.501)" fill="#fff"/>
            <rect id="Rectángulo_33785" data-name="Rectángulo 33785" width="0.491" height="19.248" transform="matrix(0.701, -0.713, 0.713, 0.701, 159.016, 228.082)" fill="#fff"/>
            <rect id="Rectángulo_33786" data-name="Rectángulo 33786" width="0.491" height="19.249" transform="matrix(0.701, -0.713, 0.713, 0.701, 159.016, 245.618)" fill="#fff"/>
            <rect id="Rectángulo_33787" data-name="Rectángulo 33787" width="0.491" height="19.248" transform="translate(159.016 262.727) rotate(-45.502)" fill="#fff"/>
            <rect id="Rectángulo_33788" data-name="Rectángulo 33788" width="19.248" height="0.491" transform="translate(172.7 241.22) rotate(-44.481)" fill="#fff"/>
            <rect id="Rectángulo_33789" data-name="Rectángulo 33789" width="19.249" height="0.491" transform="translate(172.7 258.757) rotate(-44.481)" fill="#fff"/>
            <rect id="Rectángulo_33790" data-name="Rectángulo 33790" width="19.248" height="0.491" transform="translate(172.7 275.866) rotate(-44.481)" fill="#fff"/>
            <path id="Trazado_113560" data-name="Trazado 113560" d="M232.2,90.755a22.951,22.951,0,0,0-2.37-42.75,22.959,22.959,0,0,0-31.612-16.549A22.951,22.951,0,0,0,159.465,19.67a22.946,22.946,0,0,0-34.082,17.959,22.956,22.956,0,1,0-4.65,43.786,22.945,22.945,0,0,0,32.4,18.068,22.951,22.951,0,0,0,42.7,15.187A22.952,22.952,0,1,0,232.2,90.755" transform="translate(-19.899 -2.748)" fill="#ffe0b2"/>
            <path id="Trazado_113561" data-name="Trazado 113561" d="M169.356,118.223l-.471-.135c.032-.115,3.416-11.559,13.561-15.732,7.281-2.993,16.167-1.6,26.419,4.155l-.24.428c-10.114-5.674-18.858-7.062-25.993-4.13-9.928,4.083-13.243,15.3-13.276,15.414" transform="translate(-35.882 -21.421)" fill="#d1278a"/>
            <path id="Trazado_113562" data-name="Trazado 113562" d="M128.084,93.619l-.128-.473c.191-.052,18.987-5.342,16.59-23.815l.487-.064c2.452,18.9-16.755,24.3-16.949,24.351" transform="translate(-27.186 -14.716)" fill="#d1278a"/>
            <path id="Trazado_113563" data-name="Trazado 113563" d="M219.314,119.748c-1.951-6.223-1.809-11.482.423-15.632a14.865,14.865,0,0,1,8.114-6.811l.136.471a14.355,14.355,0,0,0-7.822,6.579c-2.163,4.027-2.292,9.157-.383,15.246Z" transform="translate(-46.306 -20.673)" fill="#d1278a"/>
            <path id="Trazado_113564" data-name="Trazado 113564" d="M153.873,67.219a13.36,13.36,0,0,1-8.112-2.394c-6.388-4.687-5.795-14.757-5.788-14.858l.489.033c-.006.1-.58,9.906,5.591,14.432,4.3,3.152,10.816,3.061,19.37-.269l.178.458a33.049,33.049,0,0,1-11.729,2.6" transform="translate(-29.736 -10.615)" fill="#d1278a"/>
            <path id="Trazado_113565" data-name="Trazado 113565" d="M470.264,370.462v-2.435a9.392,9.392,0,0,0-11.67-9.11,15.556,15.556,0,0,0-22.4-17.343,24.867,24.867,0,0,0-44.6,6.825,16.276,16.276,0,0,0-21.089,15.537l.138,6.526Z" transform="translate(-82.488 -70.211)" fill="#ffe0b2"/>
            <rect id="Rectángulo_33791" data-name="Rectángulo 33791" width="212.571" height="0.491" transform="translate(178.972 300.006)" fill="#fff"/>
            <path id="Trazado_113566" data-name="Trazado 113566" d="M377.283,21.475,384.6,20.29l-7.318-1.184L376.1,11.787l-1.184,7.319L367.6,20.29l7.319,1.184,1.184,7.319Z" transform="translate(-78.101 -2.504)" fill="#fff"/>
            <path id="Trazado_113567" data-name="Trazado 113567" d="M227.12,178.113l7.319-1.184-7.319-1.184-1.184-7.319-1.184,7.319-7.319,1.184,7.319,1.184,1.184,7.319Z" transform="translate(-46.197 -35.783)" fill="#fff"/>
            <path id="Trazado_113568" data-name="Trazado 113568" d="M163.078,79.447l7.319-1.184-7.319-1.184-1.184-7.319-1.184,7.319-7.319,1.184,7.319,1.184,1.184,7.319Z" transform="translate(-32.59 -14.821)" fill="#fff"/>
            <path id="Trazado_113569" data-name="Trazado 113569" d="M185.644,39.541c0,6.8,6.055,12.31,6.055,12.31s6.055-5.511,6.055-12.31-6.055-12.31-6.055-12.31-6.055,5.511-6.055,12.31" transform="translate(-39.443 -5.785)" fill="#fbb040"/>
            <path id="Trazado_113570" data-name="Trazado 113570" d="M174.209,69c4.807,4.807,12.986,4.423,12.986,4.423s.384-8.178-4.423-12.986-12.986-4.423-12.986-4.423S169.4,64.19,174.209,69" transform="translate(-36.072 -11.898)" fill="#fbb040"/>
            <g id="Grupo_80131" data-name="Grupo 80131" transform="translate(133.706 44.106)" opacity="0.2">
              <g id="Grupo_80130" data-name="Grupo 80130">
                <g id="Grupo_80129" data-name="Grupo 80129" clip-path="url(#clip-path-5)">
                  <path id="Trazado_113571" data-name="Trazado 113571" d="M174.209,69c4.807,4.807,12.986,4.423,12.986,4.423s.384-8.178-4.423-12.986-12.986-4.423-12.986-4.423S169.4,64.19,174.209,69" transform="translate(-169.778 -56.004)" fill="#262262"/>
                </g>
              </g>
            </g>
            <path id="Trazado_113572" data-name="Trazado 113572" d="M207.755,69c-4.807,4.807-12.986,4.423-12.986,4.423s-.384-8.178,4.423-12.986,12.986-4.423,12.986-4.423.384,8.179-4.424,12.986" transform="translate(-41.38 -11.898)" fill="#fbb040"/>
            <rect id="Rectángulo_33793" data-name="Rectángulo 33793" width="0.491" height="51.474" transform="translate(152.01 28.437)" fill="#fff"/>
            <rect id="Rectángulo_33794" data-name="Rectángulo 33794" width="0.491" height="19.248" transform="matrix(0.701, -0.713, 0.713, 0.701, 138.354, 49.017)" fill="#fff"/>
            <rect id="Rectángulo_33795" data-name="Rectángulo 33795" width="19.248" height="0.49" transform="matrix(0.713, -0.702, 0.702, 0.713, 152.047, 62.164)" fill="#fff"/>
            <path id="Trazado_113573" data-name="Trazado 113573" d="M181.081,135.28c3.8,3.8,10.252,3.492,10.252,3.492s.3-6.456-3.492-10.251-10.252-3.492-10.252-3.492-.3,6.456,3.492,10.251" transform="translate(-37.73 -26.562)" fill="#fbb040"/>
            <g id="Grupo_80134" data-name="Grupo 80134" transform="translate(139.854 98.46)" opacity="0.2">
              <g id="Grupo_80133" data-name="Grupo 80133">
                <g id="Grupo_80132" data-name="Grupo 80132" clip-path="url(#clip-path-6)">
                  <path id="Trazado_113574" data-name="Trazado 113574" d="M181.081,135.28c3.8,3.8,10.252,3.492,10.252,3.492s.3-6.456-3.492-10.251-10.252-3.492-10.252-3.492-.3,6.456,3.492,10.251" transform="translate(-177.584 -125.022)" fill="#262262"/>
                </g>
              </g>
            </g>
            <path id="Trazado_113575" data-name="Trazado 113575" d="M207.564,135.28c-3.8,3.8-10.251,3.492-10.251,3.492s-.3-6.456,3.492-10.251,10.251-3.492,10.251-3.492.3,6.456-3.492,10.251" transform="translate(-41.92 -26.562)" fill="#fbb040"/>
            <rect id="Rectángulo_33797" data-name="Rectángulo 33797" width="0.491" height="15.196" transform="matrix(0.701, -0.713, 0.713, 0.701, 143.487, 102.374)" fill="#fff"/>
            <rect id="Rectángulo_33798" data-name="Rectángulo 33798" width="15.196" height="0.491" transform="matrix(0.713, -0.701, 0.701, 0.713, 154.296, 112.679)" fill="#fff"/>
            <path id="Trazado_113576" data-name="Trazado 113576" d="M118.353,37.23c3.8,3.8,10.251,3.492,10.251,3.492s.3-6.456-3.492-10.251-10.251-3.492-10.251-3.492-.3,6.456,3.492,10.251" transform="translate(-24.403 -5.73)" fill="#fbb040"/>
            <g id="Grupo_80137" data-name="Grupo 80137" transform="translate(90.453 21.242)" opacity="0.2">
              <g id="Grupo_80136" data-name="Grupo 80136">
                <g id="Grupo_80135" data-name="Grupo 80135" clip-path="url(#clip-path-6)">
                  <path id="Trazado_113577" data-name="Trazado 113577" d="M118.353,37.23c3.8,3.8,10.251,3.492,10.251,3.492s.3-6.456-3.492-10.251-10.251-3.492-10.251-3.492-.3,6.456,3.492,10.251" transform="translate(-114.855 -26.972)" fill="#262262"/>
                </g>
              </g>
            </g>
            <path id="Trazado_113578" data-name="Trazado 113578" d="M144.836,37.23c-3.8,3.8-10.251,3.492-10.251,3.492s-.3-6.456,3.492-10.251,10.251-3.492,10.251-3.492.3,6.456-3.492,10.251" transform="translate(-28.593 -5.73)" fill="#fbb040"/>
            <rect id="Rectángulo_33800" data-name="Rectángulo 33800" width="0.49" height="15.196" transform="translate(94.086 25.156) rotate(-45.504)" fill="#fff"/>
            <rect id="Rectángulo_33801" data-name="Rectángulo 33801" width="15.196" height="0.49" transform="matrix(0.713, -0.702, 0.702, 0.713, 104.896, 35.462)" fill="#fff"/>
            <path id="Trazado_113579" data-name="Trazado 113579" d="M211.281,28.094c3.8,3.8,10.251,3.492,10.251,3.492s.3-6.456-3.492-10.251-10.251-3.492-10.251-3.492-.3,6.456,3.492,10.251" transform="translate(-44.146 -3.789)" fill="#fbb040"/>
            <g id="Grupo_80140" data-name="Grupo 80140" transform="translate(163.637 14.048)" opacity="0.2">
              <g id="Grupo_80139" data-name="Grupo 80139">
                <g id="Grupo_80138" data-name="Grupo 80138" clip-path="url(#clip-path-6)">
                  <path id="Trazado_113580" data-name="Trazado 113580" d="M211.281,28.094c3.8,3.8,10.251,3.492,10.251,3.492s.3-6.456-3.492-10.251-10.251-3.492-10.251-3.492-.3,6.456,3.492,10.251" transform="translate(-207.784 -17.837)" fill="#262262"/>
                </g>
              </g>
            </g>
            <path id="Trazado_113581" data-name="Trazado 113581" d="M237.765,28.094c-3.8,3.8-10.251,3.492-10.251,3.492s-.3-6.456,3.491-10.251,10.252-3.492,10.252-3.492.3,6.456-3.492,10.251" transform="translate(-48.337 -3.789)" fill="#fbb040"/>
            <rect id="Rectángulo_33803" data-name="Rectángulo 33803" width="0.49" height="15.196" transform="matrix(0.701, -0.713, 0.713, 0.701, 167.27, 17.961)" fill="#fff"/>
            <rect id="Rectángulo_33804" data-name="Rectángulo 33804" width="15.196" height="0.491" transform="matrix(0.713, -0.702, 0.702, 0.713, 178.08, 28.267)" fill="#fff"/>
            <path id="Trazado_113582" data-name="Trazado 113582" d="M204.075,134.664l-38.786,14.387a8.084,8.084,0,0,0-4.769,10.392l1.829,4.929a8.083,8.083,0,0,0,10.391,4.769l38.787-14.386a8.085,8.085,0,0,0,4.769-10.392l-1.829-4.93a8.084,8.084,0,0,0-10.392-4.769" transform="translate(-33.997 -28.503)" fill="#d1278a"/>
            <path id="Trazado_113583" data-name="Trazado 113583" d="M197.915,144.057l-16.173,6a4.619,4.619,0,0,0-2.724,5.937l2.071,5.584a4.619,4.619,0,0,0,5.937,2.725l16.173-6a4.619,4.619,0,0,0,2.724-5.937l-2.071-5.584a4.619,4.619,0,0,0-5.937-2.725" transform="translate(-37.973 -30.545)" fill="#27aae1"/>
            <path id="Trazado_113584" data-name="Trazado 113584" d="M169.855,166.072a.921.921,0,1,1-1.184-.543.921.921,0,0,1,1.184.543" transform="translate(-35.709 -35.156)" fill="#262262"/>
            <path id="Trazado_113585" data-name="Trazado 113585" d="M167.712,160.295a.921.921,0,1,1-1.184-.543.921.921,0,0,1,1.184.543" transform="translate(-35.253 -33.928)" fill="#262262"/>
            <path id="Trazado_113586" data-name="Trazado 113586" d="M172,171.849a.921.921,0,1,1-1.184-.543.922.922,0,0,1,1.184.543" transform="translate(-36.164 -36.383)" fill="#262262"/>
            <path id="Trazado_113587" data-name="Trazado 113587" d="M175.084,164.132a.921.921,0,1,1-1.184-.543.922.922,0,0,1,1.184.543" transform="translate(-36.82 -34.744)" fill="#262262"/>
            <path id="Trazado_113588" data-name="Trazado 113588" d="M172.942,158.356a.921.921,0,1,1-1.184-.543.921.921,0,0,1,1.184.543" transform="translate(-36.365 -33.516)" fill="#262262"/>
            <path id="Trazado_113589" data-name="Trazado 113589" d="M177.227,169.909a.921.921,0,1,1-1.184-.543.921.921,0,0,1,1.184.543" transform="translate(-37.275 -35.971)" fill="#262262"/>
            <path id="Trazado_113590" data-name="Trazado 113590" d="M218.452,148.047a.921.921,0,1,1-1.184-.543.921.921,0,0,1,1.184.543" transform="translate(-46.034 -31.326)" fill="#262262"/>
            <path id="Trazado_113591" data-name="Trazado 113591" d="M216.309,142.27a.921.921,0,1,1-1.184-.543.921.921,0,0,1,1.184.543" transform="translate(-45.579 -30.099)" fill="#262262"/>
            <path id="Trazado_113592" data-name="Trazado 113592" d="M220.595,153.823a.921.921,0,1,1-1.184-.543.921.921,0,0,1,1.184.543" transform="translate(-46.489 -32.553)" fill="#262262"/>
            <path id="Trazado_113593" data-name="Trazado 113593" d="M223.681,146.107a.921.921,0,1,1-1.184-.543.921.921,0,0,1,1.184.543" transform="translate(-47.145 -30.914)" fill="#262262"/>
            <path id="Trazado_113594" data-name="Trazado 113594" d="M221.539,140.33a.921.921,0,1,1-1.184-.543.921.921,0,0,1,1.184.543" transform="translate(-46.69 -29.687)" fill="#262262"/>
            <path id="Trazado_113595" data-name="Trazado 113595" d="M225.824,151.884a.921.921,0,1,1-1.184-.543.921.921,0,0,1,1.184.543" transform="translate(-47.6 -32.141)" fill="#262262"/>
            <path id="Trazado_113596" data-name="Trazado 113596" d="M190.861,153.128a2.764,2.764,0,0,1,3.012.58,2.763,2.763,0,0,1,2.04-2.29c1.952-.661,4.769,1.069.109,8.662-8.315-3.2-7.113-6.291-5.161-6.952" transform="translate(-40.249 -32.142)" fill="#fff"/>
            <path id="Trazado_113597" data-name="Trazado 113597" d="M296.422,102.915s3.075-5.91-.694-14.543c0,0-2.324,1.146-1.285,8.275l-4.392,2.425Z" transform="translate(-61.625 -18.775)" fill="#ef6569"/>
            <g id="Grupo_80143" data-name="Grupo 80143" transform="translate(228.426 69.597)" opacity="0.2">
              <g id="Grupo_80142" data-name="Grupo 80142">
                <g id="Grupo_80141" data-name="Grupo 80141" clip-path="url(#clip-path-9)">
                  <path id="Trazado_113598" data-name="Trazado 113598" d="M296.422,102.915s3.075-5.91-.694-14.543c0,0-2.324,1.146-1.285,8.275l-4.392,2.425Z" transform="translate(-290.051 -88.372)" fill="#223b36"/>
                </g>
              </g>
            </g>
            <path id="Trazado_113599" data-name="Trazado 113599" d="M326.749,208.125,308.994,180.4,330.122,177l5.686,31.13Z" transform="translate(-65.65 -37.604)" fill="#ef6569"/>
            <path id="Trazado_113600" data-name="Trazado 113600" d="M344.356,209.449l-21.17-18,17.739-8.225,12.49,26.223Z" transform="translate(-68.665 -38.928)" fill="#ff9b9d"/>
            <path id="Trazado_113601" data-name="Trazado 113601" d="M296.938,101.252,314.1,117.874l8.021-27.806a10.312,10.312,0,0,1,20.088,4.5c-2.178,13.246-7.98,37.191-21.89,42.125-19.453,6.9-27.146-31.99-27.146-31.99Z" transform="translate(-62.289 -17.551)" fill="#ef6569"/>
            <path id="Trazado_113602" data-name="Trazado 113602" d="M327.989,82.574s-4.962-1.774-7.625,7.456l-8.022,27.807-14.106-13.663-13.332,14.9s15.007,26.265,30.148,24.68,43.114-61.214,12.937-61.178" transform="translate(-60.532 -17.514)" fill="#fff"/>
            <g id="Grupo_80146" data-name="Grupo 80146" transform="translate(224.372 64.923)" opacity="0.2">
              <g id="Grupo_80145" data-name="Grupo 80145">
                <g id="Grupo_80144" data-name="Grupo 80144" clip-path="url(#clip-path-10)">
                  <path id="Trazado_113603" data-name="Trazado 113603" d="M327.989,82.574s-4.962-1.774-7.625,7.456l-8.022,27.807-14.106-13.663-13.332,14.9s15.007,26.265,30.148,24.68,43.114-61.214,12.937-61.178" transform="translate(-284.904 -82.437)" fill="#262262"/>
                </g>
              </g>
            </g>
            <path id="Trazado_113604" data-name="Trazado 113604" d="M339.607,84.643s-11.2,13.02-9.012,29.057c1.273,9.325,22.22,38.989,22.22,38.989l38.377,2.944s-7.47-64.365-29.214-69.454-22.372-1.536-22.372-1.536" transform="translate(-70.179 -17.726)" fill="#fff"/>
            <path id="Trazado_113605" data-name="Trazado 113605" d="M347.067,60.449l-10.78,7.761,4.722,17.469s-1.152,6.622.5,6.461l17.551-11.776Z" transform="translate(-71.449 -12.842)" fill="#ff9b9d"/>
            <path id="Trazado_113606" data-name="Trazado 113606" d="M356.041,90.216a11.75,11.75,0,0,0,2.642-7.967L356.4,78l-11.5-.562s1.217,11.389,11.146,12.779" transform="translate(-73.278 -16.452)" fill="#ef6569"/>
            <path id="Trazado_113607" data-name="Trazado 113607" d="M347.6,62.663l-4.685,1.245-6.629,4.772,1.947,7.2A14.682,14.682,0,0,0,347.6,62.663" transform="translate(-71.449 -13.313)" fill="#ef6569"/>
            <path id="Trazado_113608" data-name="Trazado 113608" d="M344.205,44.345A14.406,14.406,0,1,0,331.662,60.4a14.406,14.406,0,0,0,12.544-16.054" transform="translate(-67.032 -6.733)" fill="#262262"/>
            <path id="Trazado_113609" data-name="Trazado 113609" d="M316.271,65.815c-1.737,0-3.151-1.933-3.151-4.31s1.414-4.31,3.151-4.31,3.151,1.933,3.151,4.31-1.414,4.31-3.151,4.31m0-7.715c-1.238,0-2.245,1.527-2.245,3.4s1.007,3.4,2.245,3.4c1.218,0,2.245-1.559,2.245-3.4s-1.028-3.4-2.245-3.4" transform="translate(-66.527 -12.151)" fill="#fff"/>
            <path id="Trazado_113610" data-name="Trazado 113610" d="M329.442,43.478a12.143,12.143,0,0,0-10.574,13.532,12.289,12.289,0,0,0,.228,1.279,3.751,3.751,0,0,1-1.969.662,23.678,23.678,0,0,0,1.782,2.766c3.218,3.916,8.354,6.5,13.491,5.868a12.144,12.144,0,0,0-2.958-24.106" transform="translate(-67.376 -9.217)" fill="#ff9b9d"/>
            <path id="Trazado_113611" data-name="Trazado 113611" d="M332.154,30.794c-4.3,1.321-5.215,2.535-9.448,9.282,0,0-2.619,16.13,14.113,12.189,0,0-1.1,20.906,15.866,23.574.9.143,1.776.227,2.625.276,1.128,15.418,7.48,41.065,38.186,31.16-14.719-8.3-33.739-98.435-61.343-76.482" transform="translate(-68.532 -5.812)" fill="#262262"/>
            <path id="Trazado_113612" data-name="Trazado 113612" d="M339.712,56.812a4.536,4.536,0,1,0-3.95,5.055,4.537,4.537,0,0,0,3.95-5.055" transform="translate(-70.256 -11.223)" fill="#ff9b9d"/>
            <path id="Trazado_113613" data-name="Trazado 113613" d="M333.608,61l2.614-6.2s3.036,4.8-2.614,6.2" transform="translate(-70.88 -11.641)" fill="#ef6569"/>
            <path id="Trazado_113614" data-name="Trazado 113614" d="M323.543,65.815c-1.737,0-3.151-1.933-3.151-4.31s1.414-4.31,3.151-4.31,3.151,1.933,3.151,4.31-1.414,4.31-3.151,4.31m0-7.715c-1.237,0-2.245,1.527-2.245,3.4s1.008,3.4,2.245,3.4c1.217,0,2.245-1.559,2.245-3.4s-1.028-3.4-2.245-3.4" transform="translate(-68.072 -12.151)" fill="#fff"/>
            <rect id="Rectángulo_33807" data-name="Rectángulo 33807" width="1.72" height="0.906" transform="translate(251.093 48.261)" fill="#fff"/>
            <path id="Trazado_113615" data-name="Trazado 113615" d="M286.322,96.092l-6.779,3.432L290.427,108l3.763-3.449c2.5-8.259-7.512-8.472-7.868-8.463" transform="translate(-59.393 -20.415)" fill="#ef6569"/>
            <path id="Trazado_113616" data-name="Trazado 113616" d="M325.111,216.523,302.4,228.366a2.069,2.069,0,0,0,.956,3.9h31.279a2.809,2.809,0,0,0,2.719-3.517l-3.183-12.229Z" transform="translate(-64.012 -46.002)" fill="#92278f"/>
            <rect id="Rectángulo_33808" data-name="Rectángulo 33808" width="0.49" height="9.358" transform="translate(254.052 174.214) rotate(-31.553)" fill="#fff"/>
            <rect id="Rectángulo_33809" data-name="Rectángulo 33809" width="0.49" height="7.882" transform="translate(251.589 175.471) rotate(-31.551)" fill="#fff"/>
            <rect id="Rectángulo_33810" data-name="Rectángulo 33810" width="0.49" height="6.383" transform="translate(249.138 176.749) rotate(-31.557)" fill="#fff"/>
            <path id="Trazado_113617" data-name="Trazado 113617" d="M343.639,216.523l-22.712,11.843a2.069,2.069,0,0,0,.956,3.9h31.279a2.809,2.809,0,0,0,2.719-3.517L352.7,216.523Z" transform="translate(-67.948 -46.002)" fill="#d1278a"/>
            <rect id="Rectángulo_33811" data-name="Rectángulo 33811" width="0.49" height="9.358" transform="translate(268.643 174.214) rotate(-31.553)" fill="#fff"/>
            <rect id="Rectángulo_33812" data-name="Rectángulo 33812" width="0.49" height="7.882" transform="translate(266.18 175.471) rotate(-31.551)" fill="#fff"/>
            <rect id="Rectángulo_33813" data-name="Rectángulo 33813" width="0.49" height="6.383" transform="translate(263.729 176.749) rotate(-31.557)" fill="#fff"/>
            <path id="Trazado_113618" data-name="Trazado 113618" d="M301.943,133.2c-21.359,19.849,18.317,62.768,18.317,62.768L337.4,183.012s28.8,18.967,39.1-.955c18.314-35.422-74.556-48.856-74.556-48.856" transform="translate(-62.81 -28.299)" fill="#2b3990"/>
            <path id="Trazado_113619" data-name="Trazado 113619" d="M311.081,132.21c-21.787,22.016,21.75,64.939,21.75,64.939l12.736-6.891s28.772,15.78,39.463-6.119c19.009-38.937-73.949-51.929-73.949-51.929" transform="translate(-64.796 -28.089)" fill="#27aae1"/>
            <rect id="Rectángulo_33814" data-name="Rectángulo 33814" width="0.49" height="53.174" transform="translate(247.513 119.822) rotate(-31.732)" fill="#fff"/>
            <path id="Trazado_113620" data-name="Trazado 113620" d="M379.426,169.28c-14.061,0-33.629-17.005-34.5-17.77l.324-.369c.224.2,22.576,19.623,36.461,17.48a10.8,10.8,0,0,0,7.876-5.329l.42.254a11.269,11.269,0,0,1-8.221,5.56,15.552,15.552,0,0,1-2.358.173" transform="translate(-73.284 -32.111)" fill="#fff"/>
            <path id="Trazado_113621" data-name="Trazado 113621" d="M391.493,170.025,389.9,155.743l.487-.055,1.594,14.284Z" transform="translate(-82.839 -33.077)" fill="#fff"/>
            <g id="Grupo_80149" data-name="Grupo 80149" transform="translate(255.923 117.991)" opacity="0.2">
              <g id="Grupo_80148" data-name="Grupo 80148">
                <g id="Grupo_80147" data-name="Grupo 80147" clip-path="url(#clip-path-11)">
                  <path id="Trazado_113622" data-name="Trazado 113622" d="M342.477,174.062s0-21.011-17.512-24.24c0,0,6.952,2.437,17.512,24.24" transform="translate(-324.966 -149.822)" fill="#262262"/>
                </g>
              </g>
            </g>
            <path id="Trazado_113623" data-name="Trazado 113623" d="M280.878,140.165l47.976-22.4,12.416-26.141a10.312,10.312,0,0,1,19.1,7.69c-4.292,12.718-13.894,35.409-28.419,38.027-20.313,3.66-45.04,8.793-45.04,8.793Z" transform="translate(-59.676 -18.215)" fill="#ff9b9d"/>
            <path id="Trazado_113624" data-name="Trazado 113624" d="M273.359,148.307l-16.677-3.375s-.8,4.694,10.274,5.678Z" transform="translate(-54.533 -30.792)" fill="#ef6569"/>
            <path id="Trazado_113625" data-name="Trazado 113625" d="M285.309,157.7l-12.059-8.479-17.088.065c-.147,2.22,1.748,3.569,8.517,2.549l-5.267.685s.3,2.294,5.4,2.73l3.667.1s1.452,10.251,9.154,8.537Z" transform="translate(-54.423 -31.703)" fill="#ff9b9d"/>
            <g id="Grupo_80152" data-name="Grupo 80152" transform="translate(236.926 72.858)" opacity="0.2">
              <g id="Grupo_80151" data-name="Grupo 80151">
                <g id="Grupo_80150" data-name="Grupo 80150" clip-path="url(#clip-path-12)">
                  <path id="Trazado_113626" data-name="Trazado 113626" d="M300.845,156.576l46.324-15.212a50.966,50.966,0,0,0,19.911-39.569l-.21-9.282Z" transform="translate(-300.845 -92.513)" fill="#262262"/>
                </g>
              </g>
            </g>
            <path id="Trazado_113627" data-name="Trazado 113627" d="M290.051,135.108l40.774-19.071s7.486-22.336,12.289-28.3c8.153-10.119,20.311-5.087,21.464,2.555,1.644,10.9-6.385,36.847-22.894,44.226s-47.24,21.4-47.24,21.4Z" transform="translate(-61.625 -17.435)" fill="#fff"/>
            <path id="Trazado_113628" data-name="Trazado 113628" d="M368.375,143.466l17.99,61.244,36.294-16.868-30.1-55.632Z" transform="translate(-78.266 -28.089)" fill="#fff"/>
            <g id="Grupo_80155" data-name="Grupo 80155" transform="translate(269.2 96.252)" opacity="0.2">
              <g id="Grupo_80154" data-name="Grupo 80154">
                <g id="Grupo_80153" data-name="Grupo 80153" clip-path="url(#clip-path-13)">
                  <path id="Trazado_113629" data-name="Trazado 113629" d="M346.805,129.518s1.542-4.426-3.434-7.3l-1.546,3.255Z" transform="translate(-341.825 -122.218)" fill="#262262"/>
                </g>
              </g>
            </g>
            <path id="Trazado_113630" data-name="Trazado 113630" d="M395.107,162.6l8.353,25.815s22.764-6.659,9.177-34.43Z" transform="translate(-83.946 -32.716)" fill="#fff"/>
            <g id="Grupo_80158" data-name="Grupo 80158" transform="translate(311.161 121.271)" opacity="0.2">
              <g id="Grupo_80157" data-name="Grupo 80157">
                <g id="Grupo_80156" data-name="Grupo 80156" clip-path="url(#clip-path-14)">
                  <path id="Trazado_113631" data-name="Trazado 113631" d="M395.107,162.6l8.353,25.815s22.764-6.659,9.177-34.43Z" transform="translate(-395.107 -153.987)" fill="#262262"/>
                </g>
              </g>
            </g>
            <path id="Trazado_113632" data-name="Trazado 113632" d="M267.387,101.516,266.98,98.6l12.8-1.791-1.072-17.34L264.7,80.541l-.224-2.934,16.983-1.3,1.425,23.038Z" transform="translate(-56.193 -16.212)" fill="#fbb040"/>
            <rect id="Rectángulo_33819" data-name="Rectángulo 33819" width="25.342" height="28.971" transform="translate(193.136 59.526) rotate(-4.972)" fill="#27aae1"/>
            <path id="Trazado_113633" data-name="Trazado 113633" d="M276.105,82.942l13.139-.965s1.716,4.819-12.386,5.036Z" transform="translate(-58.662 -17.416)" fill="#ef6569"/>
            <path id="Trazado_113634" data-name="Trazado 113634" d="M276.842,86.14l13.138-.965s1.717,4.819-12.385,5.036Z" transform="translate(-58.819 -18.096)" fill="#ef6569"/>
            <path id="Trazado_113635" data-name="Trazado 113635" d="M277.766,90.82l13.139-.965s1.716,4.819-12.385,5.036Z" transform="translate(-59.015 -19.09)" fill="#ef6569"/>
            <path id="Trazado_113636" data-name="Trazado 113636" d="M278.69,95.618l11.691-.858s1.528,4.288-11.02,4.481Z" transform="translate(-59.211 -20.132)" fill="#ef6569"/>
            <g id="Grupo_80161" data-name="Grupo 80161" transform="translate(198.882 58.383)" opacity="0.2">
              <g id="Grupo_80160" data-name="Grupo 80160">
                <g id="Grupo_80159" data-name="Grupo 80159" clip-path="url(#clip-path-15)">
                  <path id="Trazado_113637" data-name="Trazado 113637" d="M252.537,74.775l7.38-.642,2.026,28.9-4.7.41Z" transform="translate(-252.537 -74.133)" fill="#262262"/>
                </g>
              </g>
            </g>
            <g id="Grupo_80164" data-name="Grupo 80164" transform="translate(207.537 58.063)" opacity="0.5">
              <g id="Grupo_80163" data-name="Grupo 80163">
                <g id="Grupo_80162" data-name="Grupo 80162" clip-path="url(#clip-path-16)">
                  <path id="Trazado_113638" data-name="Trazado 113638" d="M263.527,73.936l2.4-.209,2.609,28.854-2.5.217Z" transform="translate(-263.527 -73.727)" fill="#fff"/>
                </g>
              </g>
            </g>
            <path id="Trazado_113639" data-name="Trazado 113639" d="M226.249,82.339l5.4-.362L242.4,90.7l1.046,12.021Z" transform="translate(-48.07 -17.416)" fill="#fbb040"/>
          </g>
        </g>
      </g>
    </g>
  </g>
</svg>
