<svg id="Grupo_80700" data-name="Grupo 80700" xmlns="http://www.w3.org/2000/svg" xmlns:xlink="http://www.w3.org/1999/xlink" width="197.957" height="198.665" viewBox="0 0 197.957 198.665">
  <defs>
    <clipPath id="clip-path">
      <rect id="Rectángulo_46522" data-name="Rectángulo 46522" width="197.957" height="198.665" fill="none"/>
    </clipPath>
    <clipPath id="clip-path-2">
      <circle id="Elipse_4719" data-name="Elipse 4719" cx="98.978" cy="98.978" r="98.978" fill="none"/>
    </clipPath>
    <clipPath id="clip-path-3">
      <rect id="Rectángulo_46519" data-name="Rectángulo 46519" width="6.583" height="9.981" fill="none"/>
    </clipPath>
    <clipPath id="clip-path-4">
      <rect id="Rectángulo_46520" data-name="Rectángulo 46520" width="9.667" height="10.864" fill="none"/>
    </clipPath>
    <clipPath id="clip-path-5">
      <rect id="Rectángulo_46521" data-name="Rectángulo 46521" width="9.666" height="10.864" fill="none"/>
    </clipPath>
  </defs>
  <g id="Grupo_80699" data-name="Grupo 80699" clip-path="url(#clip-path)">
    <g id="Grupo_80698" data-name="Grupo 80698" transform="translate(0 0)">
      <g id="Grupo_80697" data-name="Grupo 80697" clip-path="url(#clip-path-2)">
        <path id="Trazado_114322" data-name="Trazado 114322" d="M196.641,271.768c-1.221,5.037-4.356,9.893-8.785,12.343a23.546,23.546,0,0,1,.72,11.774H66.848a23.561,23.561,0,0,1,.72-11.774c-4.428-2.45-7.564-7.307-8.784-12.343-1.55-6.412-.612-13.131.334-19.658q2.923-20.224,5.855-40.444c.548-3.79,1.143-7.709,3.186-10.947,2.232-3.537,5.923-5.85,9.487-8.039q6.334-3.88,12.664-7.769a75.413,75.413,0,0,1,8.146-4.552,37.91,37.91,0,0,1,13.508-3.328c-.137,1.058-.317,2.112-.544,3.152a44.15,44.15,0,0,0,16.279,16.3h.025A44.15,44.15,0,0,0,144,180.183c-.227-1.04-.407-2.094-.544-3.152a37.91,37.91,0,0,1,13.508,3.328,75.326,75.326,0,0,1,8.146,4.552q6.334,3.887,12.665,7.769c3.563,2.189,7.255,4.5,9.486,8.039,2.043,3.238,2.639,7.157,3.186,10.947q2.929,20.218,5.855,40.444c.946,6.527,1.884,13.247.335,19.658" transform="translate(-31.829 -97.22)" fill="#95c4c6"/>
        <path id="Trazado_114323" data-name="Trazado 114323" d="M135.574,203.523a42.667,42.667,0,0,1-3.075-3.949c-1.251-1.81-4.175-.021-2.919,1.8a50.482,50.482,0,0,0,3.657,4.66,1.726,1.726,0,0,0,2.421-.084,1.751,1.751,0,0,0-.085-2.421" transform="translate(-70.993 -109.186)" fill="#a1d3d3"/>
        <path id="Trazado_114324" data-name="Trazado 114324" d="M128.6,224.647a31.517,31.517,0,0,0-2.1,5.252c-.637,2.111,2.708,2.859,3.343.753a26.5,26.5,0,0,1,1.794-4.418c1-1.96-2.031-3.557-3.038-1.587" transform="translate(-69.425 -122.875)" fill="#a1d3d3"/>
        <path id="Trazado_114325" data-name="Trazado 114325" d="M157.414,234.457l-1.425-3.93a1.753,1.753,0,0,0-2.133-1.149,1.73,1.73,0,0,0-1.149,2.133l1.425,3.93a1.753,1.753,0,0,0,2.133,1.149,1.73,1.73,0,0,0,1.149-2.133" transform="translate(-83.816 -125.928)" fill="#a1d3d3"/>
        <path id="Trazado_114326" data-name="Trazado 114326" d="M175.711,221.654l-3.592-4.09a1.725,1.725,0,0,0-2.421.085,1.75,1.75,0,0,0,.084,2.421l3.592,4.09a1.725,1.725,0,0,0,2.421-.084,1.751,1.751,0,0,0-.085-2.421" transform="translate(-92.947 -119.228)" fill="#a1d3d3"/>
        <path id="Trazado_114327" data-name="Trazado 114327" d="M152.747,198.727q-1.24,2.206-2.691,4.277a1.724,1.724,0,0,0,.725,2.312,1.759,1.759,0,0,0,2.312-.725q1.452-2.072,2.691-4.277c1.079-1.921-1.956-3.512-3.038-1.587" transform="translate(-82.286 -108.656)" fill="#a1d3d3"/>
        <path id="Trazado_114328" data-name="Trazado 114328" d="M109.785,216.817l-1.046,4.292c-.522,2.142,2.82,2.9,3.343.753l1.046-4.292c.523-2.142-2.819-2.9-3.343-.753" transform="translate(-59.686 -118.366)" fill="#a1d3d3"/>
        <path id="Trazado_114329" data-name="Trazado 114329" d="M92.963,241.3a17.074,17.074,0,0,1-2.3-4.787,1.714,1.714,0,0,0-3.283.984,20.213,20.213,0,0,0,2.664,5.6c1.243,1.816,4.166.027,2.92-1.8" transform="translate(-47.941 -129.238)" fill="#a1d3d3"/>
        <path id="Trazado_114330" data-name="Trazado 114330" d="M113.378,256.9a31.389,31.389,0,0,1-3.028-3.463,1.762,1.762,0,0,0-2.357-.562,1.728,1.728,0,0,0-.562,2.357,37.735,37.735,0,0,0,3.611,4.173c1.565,1.555,3.9-.952,2.337-2.506" transform="translate(-58.852 -138.738)" fill="#a1d3d3"/>
        <path id="Trazado_114331" data-name="Trazado 114331" d="M141.877,258.414l-3.837-2.736a1.77,1.77,0,0,0-2.421.085,1.722,1.722,0,0,0,.084,2.421l3.837,2.736a1.77,1.77,0,0,0,2.421-.084,1.723,1.723,0,0,0-.085-2.421" transform="translate(-74.228 -140.171)" fill="#a1d3d3"/>
        <path id="Trazado_114332" data-name="Trazado 114332" d="M132.836,277.423a1.725,1.725,0,0,0-2.312.725,33.015,33.015,0,0,0-1.57,5.065,1.714,1.714,0,0,0,3.343.753,27.538,27.538,0,0,1,1.265-4.231,1.765,1.765,0,0,0-.725-2.312" transform="translate(-70.792 -152.253)" fill="#a1d3d3"/>
        <path id="Trazado_114333" data-name="Trazado 114333" d="M108.462,279.413a1.754,1.754,0,0,0-2.312.725,35.467,35.467,0,0,0-2.287,3.944c-.979,1.97,2.053,3.569,3.038,1.587a35.471,35.471,0,0,1,2.287-3.944,1.726,1.726,0,0,0-.725-2.312" transform="translate(-56.933 -153.338)" fill="#a1d3d3"/>
        <path id="Trazado_114334" data-name="Trazado 114334" d="M86.087,264.76a39.336,39.336,0,0,0-.985,4.306c-.369,2.165,2.971,2.935,3.343.753a39.318,39.318,0,0,1,.985-4.306c.612-2.119-2.732-2.869-3.343-.753" transform="translate(-46.72 -144.706)" fill="#a1d3d3"/>
        <path id="Trazado_114335" data-name="Trazado 114335" d="M83.72,301.1q-1.521-1.9-2.907-3.895c-1.254-1.806-4.178-.018-2.919,1.8q1.386,2,2.907,3.895a1.771,1.771,0,0,0,2.357.562,1.726,1.726,0,0,0,.562-2.357" transform="translate(-42.607 -162.805)" fill="#a1d3d3"/>
        <path id="Trazado_114336" data-name="Trazado 114336" d="M108.949,317.786a31.232,31.232,0,0,1-2.821-3.519c-1.25-1.81-4.174-.021-2.919,1.8a37.642,37.642,0,0,0,3.4,4.23,1.729,1.729,0,0,0,2.421-.084,1.747,1.747,0,0,0-.085-2.421" transform="translate(-56.511 -172.172)" fill="#a1d3d3"/>
        <path id="Trazado_114337" data-name="Trazado 114337" d="M128.326,307.272a1.728,1.728,0,0,0-2.357-.562A10.8,10.8,0,0,1,123,308.325a1.75,1.75,0,0,0-1.149,2.133,1.732,1.732,0,0,0,2.134,1.149,13.736,13.736,0,0,0,3.782-1.978,1.762,1.762,0,0,0,.562-2.357" transform="translate(-66.876 -168.29)" fill="#a1d3d3"/>
        <path id="Trazado_114338" data-name="Trazado 114338" d="M152.963,299.884a23.9,23.9,0,0,0-2.329-4.331c-1.248-1.812-4.172-.023-2.92,1.8a19.662,19.662,0,0,1,1.966,3.52,1.766,1.766,0,0,0,2.133,1.149,1.726,1.726,0,0,0,1.149-2.133" transform="translate(-80.952 -161.894)" fill="#a1d3d3"/>
        <path id="Trazado_114339" data-name="Trazado 114339" d="M162.775,283.36l-3.3-4.183a1.767,1.767,0,0,0-2.357-.562,1.726,1.726,0,0,0-.562,2.357l3.3,4.183a1.768,1.768,0,0,0,2.357.562,1.727,1.727,0,0,0,.562-2.357" transform="translate(-85.829 -152.87)" fill="#a1d3d3"/>
        <path id="Trazado_114340" data-name="Trazado 114340" d="M171.591,261.836l-4.1,1.45c-2.077.734-1.1,4.019.984,3.283l4.1-1.45c2.077-.734,1.1-4.019-.984-3.283" transform="translate(-91.349 -143.734)" fill="#a1d3d3"/>
        <path id="Trazado_114341" data-name="Trazado 114341" d="M190.269,247.147a17.839,17.839,0,0,0-3.9-4.6c-1.686-1.407-4.034,1.09-2.337,2.506a14.853,14.853,0,0,1,3.322,3.892c1.126,1.9,4.042.1,2.92-1.8" transform="translate(-100.739 -132.969)" fill="#a1d3d3"/>
        <path id="Trazado_114342" data-name="Trazado 114342" d="M209.686,239.951a10.269,10.269,0,0,1-2.162-2.713,1.714,1.714,0,0,0-2.92,1.8,14.154,14.154,0,0,0,2.745,3.423c1.627,1.486,3.968-1.016,2.337-2.506" transform="translate(-112.231 -129.842)" fill="#a1d3d3"/>
        <path id="Trazado_114343" data-name="Trazado 114343" d="M217.695,254.272a1.755,1.755,0,0,0-2.357-.562l-4.847,2.267a1.725,1.725,0,0,0-.562,2.357,1.755,1.755,0,0,0,2.357.562l4.848-2.267a1.725,1.725,0,0,0,.562-2.357" transform="translate(-115.154 -139.207)" fill="#a1d3d3"/>
        <path id="Trazado_114344" data-name="Trazado 114344" d="M239.544,240.052a25.332,25.332,0,0,0-1.538-3.654,1.729,1.729,0,0,0-2.357-.562,1.749,1.749,0,0,0-.562,2.357,19.588,19.588,0,0,1,1.174,2.843c.688,2.1,3.971,1.114,3.283-.984" transform="translate(-128.976 -129.381)" fill="#a1d3d3"/>
        <path id="Trazado_114345" data-name="Trazado 114345" d="M250.1,215.926l-4.839.788a1.771,1.771,0,0,0-1.652,1.772,1.724,1.724,0,0,0,1.772,1.652l4.839-.788a1.77,1.77,0,0,0,1.652-1.772,1.724,1.724,0,0,0-1.772-1.652" transform="translate(-133.78 -118.572)" fill="#a1d3d3"/>
        <path id="Trazado_114346" data-name="Trazado 114346" d="M268.4,202.965l-1.873-3.8a1.728,1.728,0,0,0-2.357-.562,1.751,1.751,0,0,0-.562,2.357l1.873,3.8a1.727,1.727,0,0,0,2.357.562,1.751,1.751,0,0,0,.562-2.357" transform="translate(-144.638 -108.937)" fill="#a1d3d3"/>
        <path id="Trazado_114347" data-name="Trazado 114347" d="M289.429,203.116a12.431,12.431,0,0,1-3.588-3.156,1.763,1.763,0,0,0-2.357-.562,1.728,1.728,0,0,0-.562,2.357,16.9,16.9,0,0,0,4.921,4.4c1.9,1.118,3.486-1.919,1.587-3.038" transform="translate(-155.226 -109.367)" fill="#a1d3d3"/>
        <path id="Trazado_114348" data-name="Trazado 114348" d="M283.009,229.043a13.119,13.119,0,0,0-1.232-4.026,1.726,1.726,0,0,0-2.357-.562,1.751,1.751,0,0,0-.562,2.357,8,8,0,0,1,.727,2.351,1.764,1.764,0,0,0,1.772,1.652,1.725,1.725,0,0,0,1.652-1.772" transform="translate(-153.016 -123.132)" fill="#a1d3d3"/>
        <path id="Trazado_114349" data-name="Trazado 114349" d="M264.733,244.449a16.441,16.441,0,0,1-1.148-4.367,1.757,1.757,0,0,0-1.772-1.652,1.729,1.729,0,0,0-1.652,1.772,19.532,19.532,0,0,0,1.289,5.231,1.763,1.763,0,0,0,2.133,1.149,1.727,1.727,0,0,0,1.149-2.133" transform="translate(-142.868 -130.938)" fill="#a1d3d3"/>
        <path id="Trazado_114350" data-name="Trazado 114350" d="M251.032,266.362l-2.2-4.074a1.713,1.713,0,1,0-2.919,1.8l2.2,4.074a1.714,1.714,0,1,0,2.92-1.8" transform="translate(-134.916 -143.598)" fill="#a1d3d3"/>
        <path id="Trazado_114351" data-name="Trazado 114351" d="M231.438,283.768l-3.069-2.822c-1.622-1.492-3.962,1.011-2.337,2.506l3.069,2.822c1.622,1.492,3.963-1.01,2.337-2.506" transform="translate(-123.828 -154.036)" fill="#a1d3d3"/>
        <path id="Trazado_114352" data-name="Trazado 114352" d="M200.3,277.445l-1.423-3.4a1.766,1.766,0,0,0-2.134-1.149,1.726,1.726,0,0,0-1.149,2.133l1.423,3.4a1.766,1.766,0,0,0,2.133,1.149,1.727,1.727,0,0,0,1.149-2.133" transform="translate(-107.363 -149.828)" fill="#a1d3d3"/>
        <path id="Trazado_114353" data-name="Trazado 114353" d="M186.371,297.586a28.045,28.045,0,0,0-2.165-4.782c-1.1-1.919-4.012-.116-2.92,1.8a23.123,23.123,0,0,1,1.8,3.971c.718,2.084,4,1.1,3.282-.984" transform="translate(-99.425 -160.349)" fill="#a1d3d3"/>
        <path id="Trazado_114354" data-name="Trazado 114354" d="M213.782,301.887a1.749,1.749,0,0,0-2.421.085,21.11,21.11,0,0,1-3.58,2.562c-1.915,1.1-.113,4.019,1.8,2.919a25.48,25.48,0,0,0,4.291-3.144,1.726,1.726,0,0,0-.085-2.421" transform="translate(-113.658 -165.541)" fill="#a1d3d3"/>
        <path id="Trazado_114355" data-name="Trazado 114355" d="M297.435,228.246a20.736,20.736,0,0,0-3.161,4.817c-.932,1.988,2.1,3.591,3.038,1.587a17.309,17.309,0,0,1,2.628-4.067c1.445-1.659-1.054-4-2.505-2.337" transform="translate(-161.51 -125.032)" fill="#a1d3d3"/>
        <path id="Trazado_114356" data-name="Trazado 114356" d="M324.647,236.533a12.3,12.3,0,0,0-1.563-3.287,1.75,1.75,0,0,0-2.357-.562,1.732,1.732,0,0,0-.562,2.357,8.493,8.493,0,0,1,1.2,2.476,1.713,1.713,0,0,0,3.283-.984" transform="translate(-175.684 -127.648)" fill="#a1d3d3"/>
        <path id="Trazado_114357" data-name="Trazado 114357" d="M317.67,254.339l-1.265-3.209a1.76,1.76,0,0,0-2.133-1.149,1.729,1.729,0,0,0-1.149,2.133l1.265,3.209a1.76,1.76,0,0,0,2.133,1.149,1.728,1.728,0,0,0,1.149-2.133" transform="translate(-171.907 -137.243)" fill="#a1d3d3"/>
        <path id="Trazado_114358" data-name="Trazado 114358" d="M290.01,264.655l-2.317-3.575c-1.2-1.851-4.12-.057-2.919,1.795l2.317,3.575c1.2,1.851,4.12.057,2.92-1.8" transform="translate(-156.233 -142.95)" fill="#a1d3d3"/>
        <path id="Trazado_114359" data-name="Trazado 114359" d="M272.682,280.234l-1.358-3.776a1.753,1.753,0,0,0-2.133-1.149,1.731,1.731,0,0,0-1.149,2.133l1.358,3.776a1.753,1.753,0,0,0,2.133,1.149,1.731,1.731,0,0,0,1.149-2.133" transform="translate(-147.154 -151.153)" fill="#a1d3d3"/>
        <path id="Trazado_114360" data-name="Trazado 114360" d="M301.272,295.2l-2.7-2.834a1.723,1.723,0,0,0-2.421.084,1.752,1.752,0,0,0,.084,2.421l2.7,2.834a1.723,1.723,0,0,0,2.421-.084,1.752,1.752,0,0,0-.084-2.421" transform="translate(-162.391 -160.31)" fill="#a1d3d3"/>
        <path id="Trazado_114361" data-name="Trazado 114361" d="M319.128,282.013a1.73,1.73,0,0,0-2.357-.562l-3.222,2.311a1.757,1.757,0,0,0-.562,2.357,1.73,1.73,0,0,0,2.357.562l3.222-2.311a1.757,1.757,0,0,0,.562-2.357" transform="translate(-171.747 -154.421)" fill="#a1d3d3"/>
        <path id="Trazado_114362" data-name="Trazado 114362" d="M341.086,267.042l-2.141-1.966a1.713,1.713,0,0,0-2.337,2.506l2.142,1.966a1.713,1.713,0,1,0,2.337-2.506" transform="translate(-184.563 -145.324)" fill="#a1d3d3"/>
        <path id="Trazado_114363" data-name="Trazado 114363" d="M340.886,295.03a8.555,8.555,0,0,1-1.53-3.479,1.727,1.727,0,0,0-2.133-1.149,1.751,1.751,0,0,0-1.149,2.133,10.958,10.958,0,0,0,1.893,4.29,1.759,1.759,0,0,0,2.357.562,1.729,1.729,0,0,0,.562-2.357" transform="translate(-184.537 -159.445)" fill="#a1d3d3"/>
        <path id="Trazado_114364" data-name="Trazado 114364" d="M150.574,327.648A42.667,42.667,0,0,1,147.5,323.7c-1.251-1.81-4.175-.021-2.919,1.8a50.5,50.5,0,0,0,3.657,4.66,1.726,1.726,0,0,0,2.421-.084,1.751,1.751,0,0,0-.085-2.421" transform="translate(-79.231 -177.352)" fill="#a1d3d3"/>
        <path id="Trazado_114365" data-name="Trazado 114365" d="M131.329,349.9a31.517,31.517,0,0,0-2.1,5.252c-.637,2.111,2.708,2.859,3.343.753a26.5,26.5,0,0,1,1.794-4.418c1-1.96-2.031-3.557-3.038-1.587" transform="translate(-70.925 -191.66)" fill="#a1d3d3"/>
        <path id="Trazado_114366" data-name="Trazado 114366" d="M160.145,359.71l-1.425-3.93a1.753,1.753,0,0,0-2.133-1.149,1.73,1.73,0,0,0-1.149,2.133l1.425,3.93A1.753,1.753,0,0,0,159,361.843a1.73,1.73,0,0,0,1.149-2.133" transform="translate(-85.316 -194.713)" fill="#a1d3d3"/>
        <path id="Trazado_114367" data-name="Trazado 114367" d="M178.442,346.906l-3.592-4.09a1.725,1.725,0,0,0-2.421.085,1.75,1.75,0,0,0,.084,2.421l3.592,4.09a1.725,1.725,0,0,0,2.421-.084,1.751,1.751,0,0,0-.085-2.421" transform="translate(-94.446 -188.012)" fill="#a1d3d3"/>
        <path id="Trazado_114368" data-name="Trazado 114368" d="M169.726,314.713q-1.24,2.206-2.691,4.277a1.724,1.724,0,0,0,.725,2.312,1.759,1.759,0,0,0,2.312-.725q1.452-2.072,2.691-4.277c1.079-1.921-1.956-3.512-3.038-1.587" transform="translate(-91.61 -172.352)" fill="#a1d3d3"/>
        <path id="Trazado_114369" data-name="Trazado 114369" d="M112.516,342.069l-1.046,4.292c-.522,2.142,2.82,2.9,3.343.753l1.046-4.292c.523-2.142-2.819-2.9-3.343-.753" transform="translate(-61.186 -187.15)" fill="#a1d3d3"/>
        <path id="Trazado_114370" data-name="Trazado 114370" d="M95.694,366.549a17.074,17.074,0,0,1-2.3-4.787,1.714,1.714,0,0,0-3.282.984,20.213,20.213,0,0,0,2.664,5.6c1.243,1.816,4.166.027,2.92-1.8" transform="translate(-49.441 -198.023)" fill="#a1d3d3"/>
        <path id="Trazado_114371" data-name="Trazado 114371" d="M116.109,382.157a31.388,31.388,0,0,1-3.028-3.463,1.762,1.762,0,0,0-2.357-.562,1.728,1.728,0,0,0-.562,2.357,37.735,37.735,0,0,0,3.611,4.173c1.565,1.555,3.9-.952,2.337-2.506" transform="translate(-60.352 -207.522)" fill="#a1d3d3"/>
        <path id="Trazado_114372" data-name="Trazado 114372" d="M144.608,383.666l-3.837-2.736a1.769,1.769,0,0,0-2.421.085,1.722,1.722,0,0,0,.084,2.421l3.837,2.736a1.77,1.77,0,0,0,2.421-.084,1.723,1.723,0,0,0-.085-2.421" transform="translate(-75.728 -208.955)" fill="#a1d3d3"/>
        <path id="Trazado_114373" data-name="Trazado 114373" d="M135.567,402.676a1.725,1.725,0,0,0-2.312.725,33.017,33.017,0,0,0-1.57,5.065,1.714,1.714,0,0,0,3.343.753,27.541,27.541,0,0,1,1.265-4.232,1.765,1.765,0,0,0-.725-2.312" transform="translate(-72.292 -221.038)" fill="#a1d3d3"/>
        <path id="Trazado_114374" data-name="Trazado 114374" d="M108.485,401.106a1.754,1.754,0,0,0-2.312.725,35.466,35.466,0,0,0-2.287,3.944c-.979,1.97,2.053,3.569,3.038,1.587a35.472,35.472,0,0,1,2.287-3.944,1.726,1.726,0,0,0-.725-2.312" transform="translate(-56.946 -220.168)" fill="#a1d3d3"/>
        <path id="Trazado_114375" data-name="Trazado 114375" d="M88.818,390.013a39.332,39.332,0,0,0-.985,4.306c-.369,2.165,2.971,2.935,3.343.753a39.422,39.422,0,0,1,.985-4.306c.612-2.119-2.732-2.869-3.343-.753" transform="translate(-48.22 -213.491)" fill="#a1d3d3"/>
        <path id="Trazado_114376" data-name="Trazado 114376" d="M86.451,419.995q-1.521-1.9-2.907-3.895c-1.254-1.806-4.178-.018-2.919,1.8q1.386,2,2.907,3.895a1.771,1.771,0,0,0,2.357.562,1.726,1.726,0,0,0,.562-2.357" transform="translate(-44.107 -228.097)" fill="#a1d3d3"/>
        <path id="Trazado_114377" data-name="Trazado 114377" d="M104.946,422.939a31.236,31.236,0,0,1-2.821-3.519c-1.25-1.81-4.174-.021-2.919,1.8a37.642,37.642,0,0,0,3.4,4.23,1.729,1.729,0,0,0,2.421-.084,1.746,1.746,0,0,0-.085-2.421" transform="translate(-54.313 -229.919)" fill="#a1d3d3"/>
        <path id="Trazado_114378" data-name="Trazado 114378" d="M121.344,421.7a1.728,1.728,0,0,0-2.357-.562,10.8,10.8,0,0,1-2.971,1.615,1.75,1.75,0,0,0-1.149,2.133A1.732,1.732,0,0,0,117,426.038a13.737,13.737,0,0,0,3.782-1.978,1.762,1.762,0,0,0,.562-2.357" transform="translate(-63.042 -231.132)" fill="#a1d3d3"/>
        <path id="Trazado_114379" data-name="Trazado 114379" d="M153.269,420.391a23.9,23.9,0,0,0-2.329-4.331c-1.248-1.812-4.172-.023-2.92,1.8a19.663,19.663,0,0,1,1.966,3.52,1.766,1.766,0,0,0,2.133,1.149,1.726,1.726,0,0,0,1.149-2.133" transform="translate(-81.12 -228.073)" fill="#a1d3d3"/>
        <path id="Trazado_114380" data-name="Trazado 114380" d="M165.506,408.613l-3.3-4.183a1.767,1.767,0,0,0-2.357-.562,1.726,1.726,0,0,0-.562,2.357l3.3,4.183a1.768,1.768,0,0,0,2.357.562,1.726,1.726,0,0,0,.562-2.357" transform="translate(-87.329 -221.655)" fill="#a1d3d3"/>
        <path id="Trazado_114381" data-name="Trazado 114381" d="M174.322,387.089l-4.1,1.45c-2.077.734-1.1,4.019.984,3.283l4.1-1.45c2.077-.734,1.1-4.019-.984-3.283" transform="translate(-92.849 -212.519)" fill="#a1d3d3"/>
        <path id="Trazado_114382" data-name="Trazado 114382" d="M193,372.4a17.839,17.839,0,0,0-3.9-4.6c-1.686-1.407-4.034,1.09-2.337,2.506a14.854,14.854,0,0,1,3.322,3.892c1.126,1.9,4.042.1,2.92-1.8" transform="translate(-102.239 -201.754)" fill="#a1d3d3"/>
        <path id="Trazado_114383" data-name="Trazado 114383" d="M209.577,357.245a10.269,10.269,0,0,1-2.162-2.713,1.714,1.714,0,0,0-2.92,1.8,14.155,14.155,0,0,0,2.745,3.423c1.627,1.486,3.968-1.016,2.337-2.506" transform="translate(-112.171 -194.256)" fill="#a1d3d3"/>
        <path id="Trazado_114384" data-name="Trazado 114384" d="M220.426,379.524a1.755,1.755,0,0,0-2.357-.562l-4.847,2.267a1.725,1.725,0,0,0-.562,2.357,1.755,1.755,0,0,0,2.357.562l4.848-2.267a1.725,1.725,0,0,0,.562-2.357" transform="translate(-116.654 -207.992)" fill="#a1d3d3"/>
        <path id="Trazado_114385" data-name="Trazado 114385" d="M242.275,365.305a25.332,25.332,0,0,0-1.538-3.654,1.729,1.729,0,0,0-2.357-.562,1.749,1.749,0,0,0-.562,2.357,19.589,19.589,0,0,1,1.174,2.843c.688,2.1,3.971,1.114,3.283-.984" transform="translate(-130.476 -198.167)" fill="#a1d3d3"/>
        <path id="Trazado_114386" data-name="Trazado 114386" d="M250.632,342.393l-4.839.788a1.771,1.771,0,0,0-1.652,1.772,1.724,1.724,0,0,0,1.772,1.652l4.839-.789a1.77,1.77,0,0,0,1.652-1.772,1.724,1.724,0,0,0-1.772-1.652" transform="translate(-134.074 -188.024)" fill="#a1d3d3"/>
        <path id="Trazado_114387" data-name="Trazado 114387" d="M271.127,328.218l-1.873-3.8a1.728,1.728,0,0,0-2.357-.562,1.751,1.751,0,0,0-.562,2.357l1.873,3.8a1.727,1.727,0,0,0,2.357.562,1.751,1.751,0,0,0,.562-2.357" transform="translate(-146.138 -177.722)" fill="#a1d3d3"/>
        <path id="Trazado_114388" data-name="Trazado 114388" d="M292.16,328.368a12.431,12.431,0,0,1-3.588-3.156,1.763,1.763,0,0,0-2.357-.562,1.728,1.728,0,0,0-.562,2.357,16.9,16.9,0,0,0,4.921,4.4c1.9,1.119,3.486-1.919,1.587-3.038" transform="translate(-156.726 -178.151)" fill="#a1d3d3"/>
        <path id="Trazado_114389" data-name="Trazado 114389" d="M285.74,354.3a13.12,13.12,0,0,0-1.232-4.026,1.726,1.726,0,0,0-2.357-.562,1.751,1.751,0,0,0-.562,2.357,8,8,0,0,1,.727,2.351,1.764,1.764,0,0,0,1.772,1.652,1.725,1.725,0,0,0,1.652-1.772" transform="translate(-154.516 -191.916)" fill="#a1d3d3"/>
        <path id="Trazado_114390" data-name="Trazado 114390" d="M267.464,369.7a16.44,16.44,0,0,1-1.148-4.367,1.757,1.757,0,0,0-1.772-1.652,1.728,1.728,0,0,0-1.652,1.772,19.534,19.534,0,0,0,1.289,5.231,1.763,1.763,0,0,0,2.133,1.149,1.727,1.727,0,0,0,1.149-2.133" transform="translate(-144.368 -199.723)" fill="#a1d3d3"/>
        <path id="Trazado_114391" data-name="Trazado 114391" d="M253.763,391.614l-2.205-4.074a1.713,1.713,0,1,0-2.919,1.8l2.2,4.074a1.714,1.714,0,1,0,2.92-1.8" transform="translate(-136.416 -212.383)" fill="#a1d3d3"/>
        <path id="Trazado_114392" data-name="Trazado 114392" d="M234.169,409.021,231.1,406.2c-1.622-1.492-3.962,1.011-2.337,2.506l3.069,2.822c1.622,1.492,3.963-1.01,2.337-2.506" transform="translate(-125.328 -222.821)" fill="#a1d3d3"/>
        <path id="Trazado_114393" data-name="Trazado 114393" d="M203.035,402.7l-1.423-3.4a1.766,1.766,0,0,0-2.134-1.149,1.726,1.726,0,0,0-1.149,2.133l1.423,3.4a1.766,1.766,0,0,0,2.133,1.149,1.727,1.727,0,0,0,1.149-2.133" transform="translate(-108.863 -218.613)" fill="#a1d3d3"/>
        <path id="Trazado_114394" data-name="Trazado 114394" d="M189.1,422.838a28.047,28.047,0,0,0-2.165-4.782c-1.1-1.919-4.012-.116-2.92,1.8a23.12,23.12,0,0,1,1.8,3.971c.718,2.084,4,1.1,3.283-.984" transform="translate(-100.925 -229.133)" fill="#a1d3d3"/>
        <path id="Trazado_114395" data-name="Trazado 114395" d="M216.513,417.609a1.749,1.749,0,0,0-2.421.085,21.109,21.109,0,0,1-3.58,2.562c-1.915,1.1-.113,4.019,1.8,2.919a25.479,25.479,0,0,0,4.291-3.144,1.726,1.726,0,0,0-.085-2.421" transform="translate(-115.158 -229.092)" fill="#a1d3d3"/>
        <path id="Trazado_114396" data-name="Trazado 114396" d="M300.165,353.5A20.751,20.751,0,0,0,297,358.315c-.932,1.988,2.1,3.591,3.038,1.587a17.284,17.284,0,0,1,2.629-4.067c1.445-1.659-1.054-4-2.506-2.337" transform="translate(-163.009 -193.817)" fill="#a1d3d3"/>
        <path id="Trazado_114397" data-name="Trazado 114397" d="M327.378,361.785a12.3,12.3,0,0,0-1.563-3.287,1.75,1.75,0,0,0-2.357-.562,1.732,1.732,0,0,0-.562,2.357,8.493,8.493,0,0,1,1.2,2.476,1.713,1.713,0,1,0,3.282-.984" transform="translate(-177.184 -196.432)" fill="#a1d3d3"/>
        <path id="Trazado_114398" data-name="Trazado 114398" d="M320.4,379.591l-1.265-3.209A1.76,1.76,0,0,0,317,375.234a1.728,1.728,0,0,0-1.149,2.133l1.265,3.209a1.76,1.76,0,0,0,2.133,1.149,1.728,1.728,0,0,0,1.149-2.133" transform="translate(-173.407 -206.027)" fill="#a1d3d3"/>
        <path id="Trazado_114399" data-name="Trazado 114399" d="M292.741,389.907l-2.317-3.575c-1.2-1.851-4.12-.057-2.919,1.795l2.317,3.575c1.2,1.851,4.12.057,2.92-1.8" transform="translate(-157.733 -211.735)" fill="#a1d3d3"/>
        <path id="Trazado_114400" data-name="Trazado 114400" d="M275.413,405.486l-1.358-3.776a1.753,1.753,0,0,0-2.133-1.149,1.731,1.731,0,0,0-1.149,2.133l1.358,3.776a1.753,1.753,0,0,0,2.133,1.149,1.731,1.731,0,0,0,1.149-2.133" transform="translate(-148.654 -219.937)" fill="#a1d3d3"/>
        <path id="Trazado_114401" data-name="Trazado 114401" d="M294.508,420.039l-2.7-2.834a1.723,1.723,0,0,0-2.421.084,1.752,1.752,0,0,0,.084,2.421l2.7,2.834a1.723,1.723,0,0,0,2.421-.084,1.752,1.752,0,0,0-.084-2.421" transform="translate(-158.676 -228.866)" fill="#a1d3d3"/>
        <path id="Trazado_114402" data-name="Trazado 114402" d="M319.142,402.919a1.73,1.73,0,0,0-2.357-.562l-3.222,2.311a1.757,1.757,0,0,0-.562,2.357,1.73,1.73,0,0,0,2.357.562l3.222-2.311a1.757,1.757,0,0,0,.562-2.357" transform="translate(-171.754 -220.819)" fill="#a1d3d3"/>
        <path id="Trazado_114403" data-name="Trazado 114403" d="M343.817,392.294l-2.141-1.966a1.713,1.713,0,0,0-2.337,2.506l2.142,1.966a1.713,1.713,0,1,0,2.337-2.506" transform="translate(-186.062 -214.108)" fill="#a1d3d3"/>
        <path id="Trazado_114404" data-name="Trazado 114404" d="M332.486,422.422a8.554,8.554,0,0,1-1.53-3.479,1.727,1.727,0,0,0-2.133-1.149,1.751,1.751,0,0,0-1.149,2.133,10.958,10.958,0,0,0,1.893,4.29,1.759,1.759,0,0,0,2.357.562,1.729,1.729,0,0,0,.562-2.357" transform="translate(-179.924 -229.405)" fill="#a1d3d3"/>
        <path id="Trazado_114405" data-name="Trazado 114405" d="M253.85,420.734a1.752,1.752,0,0,0-2.133-1.149c-1.514.293-2.769,1.242-4.234,1.67-2.122.62-1.133,3.9.984,3.283,1.467-.429,2.726-1.378,4.234-1.67a1.726,1.726,0,0,0,1.149-2.133" transform="translate(-135.262 -230.4)" fill="#a1d3d3"/>
        <path id="Trazado_114406" data-name="Trazado 114406" d="M72.947,377.026l-3.773-2.905a1.759,1.759,0,0,0-2.421.085,1.725,1.725,0,0,0,.084,2.421l3.773,2.905a1.76,1.76,0,0,0,2.421-.084,1.726,1.726,0,0,0-.085-2.421" transform="translate(-36.409 -205.214)" fill="#a1d3d3"/>
        <path id="Trazado_114407" data-name="Trazado 114407" d="M74.307,351.372l-1.27-3.823c-.7-2.094-3.979-1.111-3.282.984l1.27,3.823c.7,2.094,3.979,1.111,3.282-.984" transform="translate(-38.254 -190.225)" fill="#a1d3d3"/>
        <path id="Trazado_114408" data-name="Trazado 114408" d="M96.834,336.939l-1.954-1.975a1.726,1.726,0,0,0-2.421.084,1.749,1.749,0,0,0,.085,2.421l1.954,1.975a1.726,1.726,0,0,0,2.421-.084,1.749,1.749,0,0,0-.085-2.421" transform="translate(-50.53 -183.702)" fill="#a1d3d3"/>
        <path id="Trazado_114409" data-name="Trazado 114409" d="M80.107,322.772a1.729,1.729,0,0,0-2.357-.562l-3.319,2.4a1.758,1.758,0,0,0-.562,2.357,1.729,1.729,0,0,0,2.357.562l3.319-2.4a1.758,1.758,0,0,0,.562-2.357" transform="translate(-40.43 -176.804)" fill="#a1d3d3"/>
        <path id="Trazado_114410" data-name="Trazado 114410" d="M194.532,328.995c.054-2.209-3.371-2.079-3.424.119a36.917,36.917,0,0,0,.134,4.166c.195,2.191,3.62,2.082,3.425-.12a36.8,36.8,0,0,1-.134-4.165" transform="translate(-104.945 -179.798)" fill="#a1d3d3"/>
        <path id="Trazado_114411" data-name="Trazado 114411" d="M220.859,329.071a35.28,35.28,0,0,1-.585-4.572c-.143-2.2-3.568-2.086-3.424.12a42.051,42.051,0,0,0,.727,5.437,1.726,1.726,0,0,0,2.133,1.149,1.751,1.751,0,0,0,1.149-2.133" transform="translate(-119.085 -177.33)" fill="#a1d3d3"/>
        <path id="Trazado_114412" data-name="Trazado 114412" d="M241,303.6a1.735,1.735,0,0,0-2.133-1.149l-2.979.945a1.713,1.713,0,0,0,.985,3.283l2.979-.945A1.745,1.745,0,0,0,241,303.6" transform="translate(-128.874 -166.057)" fill="#a1d3d3"/>
        <path id="Trazado_114413" data-name="Trazado 114413" d="M242.084,320.976a1.754,1.754,0,0,0-2.048,1.3,14.622,14.622,0,0,0-.672,3.086,1.767,1.767,0,0,0,1.295,2.048,1.725,1.725,0,0,0,2.048-1.3,14.636,14.636,0,0,1,.673-3.086,1.727,1.727,0,0,0-1.3-2.048" transform="translate(-131.444 -176.246)" fill="#a1d3d3"/>
        <path id="Trazado_114414" data-name="Trazado 114414" d="M264.471,296.015a1.713,1.713,0,0,0-3.283.984,11.925,11.925,0,0,1,.289,2.9,1.713,1.713,0,0,0,3.424-.119,15.607,15.607,0,0,0-.431-3.766" transform="translate(-143.408 -161.895)" fill="#a1d3d3"/>
        <path id="Trazado_114415" data-name="Trazado 114415" d="M278.853,310.589l-2.973-.495a1.753,1.753,0,0,0-2.048,1.3,1.73,1.73,0,0,0,1.295,2.048l2.974.495a1.753,1.753,0,0,0,2.048-1.295,1.731,1.731,0,0,0-1.3-2.048" transform="translate(-150.359 -170.28)" fill="#a1d3d3"/>
        <path id="Trazado_114416" data-name="Trazado 114416" d="M313.165,314.564a1.728,1.728,0,0,0-2.312.725l-1.452,3.323a1.756,1.756,0,0,0,.725,2.312,1.728,1.728,0,0,0,2.312-.725l1.452-3.324a1.756,1.756,0,0,0-.725-2.312" transform="translate(-169.821 -172.648)" fill="#a1d3d3"/>
        <path id="Trazado_114417" data-name="Trazado 114417" d="M339,315.454q-1.415-.82-2.749-1.765a1.717,1.717,0,0,0-2.312.725,1.77,1.77,0,0,0,.725,2.313q1.335.945,2.75,1.765a1.728,1.728,0,0,0,2.312-.725,1.751,1.751,0,0,0-.725-2.312" transform="translate(-183.288 -172.15)" fill="#a1d3d3"/>
        <path id="Trazado_114418" data-name="Trazado 114418" d="M328.9,330.617a1.743,1.743,0,0,0-2.312.725l-1.866,3.237a1.714,1.714,0,0,0,3.038,1.587l1.866-3.237a1.735,1.735,0,0,0-.725-2.312" transform="translate(-178.22 -181.46)" fill="#a1d3d3"/>
        <path id="Trazado_114419" data-name="Trazado 114419" d="M351.7,340.636c-.215-.332-.394-.675-.579-1.023-.034-.081-.067-.161-.1-.243-.075-.2-.141-.394-.2-.594a1.713,1.713,0,1,0-3.282.984,10.922,10.922,0,0,0,1.244,2.672,1.714,1.714,0,1,0,2.92-1.8" transform="translate(-190.817 -185.37)" fill="#a1d3d3"/>
        <path id="Trazado_114420" data-name="Trazado 114420" d="M341.7,352.69a1.737,1.737,0,0,0-2.048,1.3l-.679,3.077a1.713,1.713,0,1,0,3.343.753q.34-1.538.679-3.077a1.742,1.742,0,0,0-1.3-2.048" transform="translate(-186.132 -193.665)" fill="#a1d3d3"/>
        <path id="Trazado_114421" data-name="Trazado 114421" d="M353.407,367.2a1.732,1.732,0,0,0-2.048,1.3,24.333,24.333,0,0,1-.765,3.083,1.728,1.728,0,0,0,1.3,2.048,1.751,1.751,0,0,0,2.048-1.3,24.328,24.328,0,0,0,.765-3.083,1.75,1.75,0,0,0-1.3-2.048" transform="translate(-192.502 -201.636)" fill="#a1d3d3"/>
        <path id="Trazado_114422" data-name="Trazado 114422" d="M100.649,306.987a1.86,1.86,0,0,0-1.943-.487,1.838,1.838,0,0,0-.867.55,4.459,4.459,0,0,0-.51,1.189c-.213.466-.772.513-1.178.742a2.6,2.6,0,0,0-.834.767,4.788,4.788,0,0,0-.759,2.391c-.161,1.891.49,4.177-1.131,5.612a7.374,7.374,0,0,1-1.334.877c-.5.278-1,.55-1.5.83a22.833,22.833,0,0,0-2.8,1.786,8.244,8.244,0,0,0-3.483,5.58c-.026.274.4.257.428-.015A7.561,7.561,0,0,1,87.66,321.9a18.687,18.687,0,0,1,2.663-1.794c.917-.528,1.882-.99,2.768-1.569a3.831,3.831,0,0,0,1.667-2.1,8.823,8.823,0,0,0,.216-2.838c-.044-1.49-.019-3.658,1.611-4.352.453-.193.9-.321,1.124-.806.193-.42.2-.9.567-1.224a1.5,1.5,0,0,1,2.081.087c.179.208.47-.106.292-.313" transform="translate(-46.302 -168.272)" fill="#498e91"/>
        <path id="Trazado_114423" data-name="Trazado 114423" d="M120.555,329.843a3.086,3.086,0,0,1,.017-2.156c.23-.727.559-1.422.821-2.137a14.873,14.873,0,0,0,.615-2.066,6.838,6.838,0,0,0-.185-3.911,4.88,4.88,0,0,0-2.031-2.463,3.612,3.612,0,0,0-1.5-.46c-.274-.024-.257.4.015.428a3.657,3.657,0,0,1,2.675,1.784,5.532,5.532,0,0,1,.758,3.552,15,15,0,0,1-1.2,4.149,7.186,7.186,0,0,0-.592,1.994,3.164,3.164,0,0,0,.384,1.809c.3.566.7,1.074.955,1.66a5.025,5.025,0,0,1,.422,1.989,6.335,6.335,0,0,1-1.323,3.606,17,17,0,0,0-1.957,3.288,15.594,15.594,0,0,0-.879,3.777c-.316,2.545-.354,5.126-1.143,7.589a17.081,17.081,0,0,1-3.489,6.09,16.767,16.767,0,0,1-5.65,4.172,21.879,21.879,0,0,1-7.8,1.76,44.85,44.85,0,0,1-8.05-.391,61.317,61.317,0,0,1-8.576-1.587q-1.032-.283-2.045-.631c-.26-.089-.353.329-.094.418a48.847,48.847,0,0,0,8.9,1.982,55.609,55.609,0,0,0,8.26.684,24.953,24.953,0,0,0,8.052-1.239,17.369,17.369,0,0,0,6.311-3.831,17.657,17.657,0,0,0,4.048-5.846,16.867,16.867,0,0,0,1.035-3.373c.26-1.343.365-2.709.49-4.068a25.557,25.557,0,0,1,.6-4,11.192,11.192,0,0,1,1.712-3.652,11.033,11.033,0,0,0,1.858-3.357,5.455,5.455,0,0,0-.449-3.888c-.3-.57-.714-1.081-.96-1.679" transform="translate(-44.237 -173.894)" fill="#498e91"/>
        <path id="Trazado_114424" data-name="Trazado 114424" d="M319.55,321.822a4.345,4.345,0,0,0-2.479-1.639c-.962-.263-1.968-.332-2.925-.615a2.979,2.979,0,0,1-2.132-1.936c-.346-1.053-.261-2.182-.523-3.251a3.3,3.3,0,0,0-1.552-2.283,3.009,3.009,0,0,0-1.431-.206,2.046,2.046,0,0,1-1.35-.2,1.416,1.416,0,0,1-.348-.962c-.046-.331-.091-.663-.16-.99a3.453,3.453,0,0,0-.8-1.7,2.83,2.83,0,0,0-3.043-.669c-.254.1-.133.513.123.41a2.406,2.406,0,0,1,2.706.66,3.4,3.4,0,0,1,.638,1.6,4.665,4.665,0,0,0,.381,1.725c.536.811,1.648.5,2.455.555a2.318,2.318,0,0,1,1.88,1.864c.317,1.016.256,2.1.492,3.135a3.355,3.355,0,0,0,1.625,2.288c1.668.917,3.853.49,5.382,1.71,2.31,1.842,1.632,5.169,1.047,7.636a.214.214,0,0,0,.418.094c.559-2.356,1.125-5.1-.405-7.225" transform="translate(-166.216 -168.696)" fill="#498e91"/>
        <path id="Trazado_114425" data-name="Trazado 114425" d="M295.795,365.323a16.548,16.548,0,0,1-6.339,2.793,39.694,39.694,0,0,1-7.674,1.45,15.13,15.13,0,0,1-7.243-1.223,18.781,18.781,0,0,1-5.49-3.92,35.26,35.26,0,0,1-4.538-5.842c-.67-1.041-1.341-2.092-1.941-3.175a5.8,5.8,0,0,1-.924-3.585,10.515,10.515,0,0,0,.243-1.772,2.735,2.735,0,0,0-.4-1.325,14.113,14.113,0,0,0-1.9-2.087c-1.663-1.824-1.261-4.354-.917-6.583a12.115,12.115,0,0,0,.142-3.8,19.816,19.816,0,0,0-1.118-3.626c-.772-2.1-1.509-4.766.148-6.658a2.985,2.985,0,0,1,1.2-.84c.257-.1.135-.507-.123-.41a3.756,3.756,0,0,0-2.078,2.044,5.764,5.764,0,0,0-.324,3.318c.437,2.618,2.024,4.933,1.972,7.648-.048,2.462-1.049,4.951-.271,7.392a6.038,6.038,0,0,0,1.723,2.482,3.722,3.722,0,0,1,1.518,2.558c0,.636-.216,1.251-.269,1.883a4.764,4.764,0,0,0,.2,1.747,14.556,14.556,0,0,0,1.724,3.374,47.107,47.107,0,0,0,4.382,6.211,21.519,21.519,0,0,0,5.361,4.58,14.976,14.976,0,0,0,6.863,2.058,28.034,28.034,0,0,0,7.94-1,26.587,26.587,0,0,0,6.912-2.344,10.569,10.569,0,0,0,1.445-.981c.211-.171-.011-.537-.225-.365" transform="translate(-140.816 -178.316)" fill="#498e91"/>
        <path id="Trazado_114426" data-name="Trazado 114426" d="M208.211,183.841a42.16,42.16,0,0,1-6.622,9.319,64.934,64.934,0,0,1-8.6,7.673c-1.748,1.319-3.573,2.789-5.742,3.318a34.6,34.6,0,0,1-9.361-5.83,35.093,35.093,0,0,1-7.078-8.449q-.8-1.344-1.48-2.758a10.31,10.31,0,0,1-1.169-3.476c-.024-.274-.452-.26-.428.015a9.62,9.62,0,0,0,.97,3.126q.59,1.293,1.287,2.534a34.809,34.809,0,0,0,3.18,4.705,35.81,35.81,0,0,0,8.313,7.559,34.344,34.344,0,0,0,5.635,2.984.166.166,0,0,0,.025,0,.209.209,0,0,0,.147.02,14.847,14.847,0,0,0,5.282-2.907c1.558-1.154,3.079-2.358,4.547-3.625a53.123,53.123,0,0,0,8.02-8.485,39.638,39.638,0,0,0,3.456-5.528.214.214,0,0,0-.38-.2" transform="translate(-92.111 -100.739)" fill="#498e91"/>
        <path id="Trazado_114427" data-name="Trazado 114427" d="M206.98,78.235a17.608,17.608,0,0,1-.912,4.313q-.9,3.013-1.807,6.026a7.2,7.2,0,0,1-1.816,3.508,3.617,3.617,0,0,1-2.476.882,19.608,19.608,0,0,1-.994,5.76,18.215,18.215,0,0,1-2.681,4.912,26.182,26.182,0,0,1-2.214,2.553,60.8,60.8,0,0,1-6.9,5.764c-1.871,1.414-4.013,2.9-6.3,2.78-2.287.115-4.429-1.366-6.3-2.78a60.878,60.878,0,0,1-6.9-5.764,26.177,26.177,0,0,1-2.214-2.553,18.2,18.2,0,0,1-2.681-4.912,19.593,19.593,0,0,1-.994-5.76,3.616,3.616,0,0,1-2.476-.882,7.2,7.2,0,0,1-1.816-3.508q-.906-3.013-1.807-6.026a17.588,17.588,0,0,1-.912-4.313,5.941,5.941,0,0,1,1.247-4.133,4.4,4.4,0,0,1,5.028-1.19,20.9,20.9,0,0,0,.8-5.538,23.37,23.37,0,0,1,3.529-10.3,6.1,6.1,0,0,1,3.067-2.8,3.3,3.3,0,0,0,.827,2.236,2.969,2.969,0,0,0,2.784.223,13.434,13.434,0,0,0,6.257-4.034c-.013,1-.326,1.975-.347,2.972a2.637,2.637,0,0,0,1.251,2.535,3.059,3.059,0,0,0,2.707-.471c2.073-1.212,3.726-3.02,5.611-4.514a6.816,6.816,0,0,1,4.638-1.833,5.194,5.194,0,0,1,3.82,2.7,12.064,12.064,0,0,1,1.328,4.638c.313,2.518.368,5.067.745,7.572a16.2,16.2,0,0,0,2.373,6.746,4.4,4.4,0,0,1,2-.463,4.475,4.475,0,0,1,2.056.536,4.412,4.412,0,0,1,1.238.993,5.943,5.943,0,0,1,1.246,4.133" transform="translate(-84.992 -28.208)" fill="#f9bb91"/>
        <path id="Trazado_114428" data-name="Trazado 114428" d="M170.495,115.939a14.294,14.294,0,0,0-.539-2.849.214.214,0,0,0-.41.123c1.026,3.393.475,6.96.22,10.422-.076,1.028-.124,2.059-.1,3.09a.214.214,0,0,0,.428-.015c-.073-3.6.731-7.173.4-10.771" transform="translate(-93.104 -62.025)" fill="#e5a070"/>
        <path id="Trazado_114429" data-name="Trazado 114429" d="M162.857,115a10.734,10.734,0,0,0-.008-3.424,3.542,3.542,0,0,0-1.324-2.587,1.475,1.475,0,0,0-2.262.751.214.214,0,0,0,.418.094.957.957,0,0,1,.93-.692,1.523,1.523,0,0,1,1.164.643,5.489,5.489,0,0,1,.776,2.979,11,11,0,0,1-.352,3.282,13.284,13.284,0,0,0-.559,3.123c-.009.91.056,2.084.89,2.641.229.153.426-.228.2-.38a1.7,1.7,0,0,1-.6-1.23,7.156,7.156,0,0,1-.018-1.8c.135-1.157.562-2.254.743-3.4" transform="translate(-87.459 -59.715)" fill="#e5a070"/>
        <path id="Trazado_114430" data-name="Trazado 114430" d="M209.128,174.846a44.152,44.152,0,0,1-16.279,16.3h-.026a44.154,44.154,0,0,1-16.279-16.3c.227-1.041.407-2.095.544-3.152a37.4,37.4,0,0,0,.33-4.382,26.063,26.063,0,0,0,2.214,2.553,60.938,60.938,0,0,0,6.9,5.765c1.872,1.413,4.013,2.9,6.3,2.78,2.287.115,4.429-1.366,6.3-2.78a60.9,60.9,0,0,0,6.9-5.765,26.123,26.123,0,0,0,2.214-2.553,37.6,37.6,0,0,0,.33,4.382c.137,1.058.317,2.111.544,3.152" transform="translate(-96.953 -91.883)" fill="#f9bb91"/>
        <path id="Trazado_114431" data-name="Trazado 114431" d="M205.249,54.751a4.47,4.47,0,0,0-2.056-.535,4.393,4.393,0,0,0-2,.462,16.2,16.2,0,0,1-2.373-6.745c-.377-2.506-.432-5.054-.745-7.572a12.069,12.069,0,0,0-1.328-4.639,5.194,5.194,0,0,0-3.82-2.7,6.818,6.818,0,0,0-4.638,1.833c-1.885,1.495-3.538,3.3-5.611,4.514a3.06,3.06,0,0,1-2.707.472,2.638,2.638,0,0,1-1.251-2.536c.022-1,.335-1.974.347-2.972a13.435,13.435,0,0,1-6.257,4.035,2.968,2.968,0,0,1-2.784-.223,3.3,3.3,0,0,1-.827-2.236,6.105,6.105,0,0,0-3.067,2.8,23.37,23.37,0,0,0-3.529,10.3,20.878,20.878,0,0,1-.8,5.538,4.364,4.364,0,0,0-3.469.043c-.694-4.651-2.141-9.2-2.193-13.9-.073-6.823,3.118-13.748,8.737-17.616a26,26,0,0,1,5.906-2.921c6.9-2.505,14.656-3.127,21.56-.642s12.754,8.364,14.172,15.564c1.276,6.476-.981,13.071-1.264,19.672" transform="translate(-85.745 -9.85)" fill="#fef0e6"/>
        <path id="Trazado_114432" data-name="Trazado 114432" d="M198.6,134.205a1.877,1.877,0,0,1-.8-1.776.22.22,0,0,0-.162-.256.215.215,0,0,0-.256.162,2.324,2.324,0,0,0,1.023,2.25.216.216,0,0,0,.289-.091.219.219,0,0,0-.091-.289" transform="translate(-108.383 -72.583)" fill="#e5a070"/>
        <path id="Trazado_114433" data-name="Trazado 114433" d="M191.4,139.214c-.321,1.676-1.673,2.863-2.9,3.929a8.175,8.175,0,0,0-2.921,3.817,11.47,11.47,0,0,0-.053,3.346.214.214,0,0,0,.428-.015q-.034-.794-.068-1.588a5.976,5.976,0,0,1,.064-1.449,4.905,4.905,0,0,1,1.14-2.152c1.067-1.253,2.476-2.157,3.53-3.422a5.294,5.294,0,0,0,1.2-2.37c.052-.27-.366-.366-.418-.094" transform="translate(-101.827 -76.363)" fill="#e5a070"/>
        <path id="Trazado_114434" data-name="Trazado 114434" d="M192.926,114.185a13.128,13.128,0,0,1-5.55,3.861c-.259.093-.137.5.123.41a13.568,13.568,0,0,0,5.74-3.979c.178-.21-.135-.5-.313-.292" transform="translate(-102.822 -62.667)" fill="#e5a070"/>
        <path id="Trazado_114435" data-name="Trazado 114435" d="M188.25,90.246c-1.98-1.2-4.034,1.333-5.709,2.2-1.13.859-4.186,1.087-3.388,3.068,1.563,2.535,11.607-2.566,9.1-5.265" transform="translate(-98.313 -49.386)" fill="#f9e2d2"/>
        <path id="Trazado_114436" data-name="Trazado 114436" d="M188.77,84.891a20.492,20.492,0,0,1-4.382,2.637c-.249.11-.128.521.123.41a20.9,20.9,0,0,0,4.483-2.683c.215-.168-.008-.535-.225-.365" transform="translate(-101.185 -46.596)" fill="#e5a070"/>
        <path id="Trazado_114437" data-name="Trazado 114437" d="M185.611,86.49a.22.22,0,0,0-.3.01,10.927,10.927,0,0,1-1.524,1.046.214.214,0,0,0,.225.365,11.542,11.542,0,0,0,1.612-1.119.215.215,0,0,0-.01-.3" transform="translate(-100.874 -47.467)" fill="#e5a070"/>
        <path id="Trazado_114438" data-name="Trazado 114438" d="M190.784,109.852a1.985,1.985,0,1,1-1.985-1.946,1.966,1.966,0,0,1,1.985,1.946" transform="translate(-102.593 -59.259)" fill="#525272"/>
        <path id="Trazado_114439" data-name="Trazado 114439" d="M209.276,166.405a48.6,48.6,0,0,1-5.16,5.432,41.5,41.5,0,0,1-5.955,4.563,7.467,7.467,0,0,1-3.665,1.223,9.137,9.137,0,0,1-3.9-.8,19.773,19.773,0,0,1-3.266-1.855,35.843,35.843,0,0,1-2.985-2.258,36.61,36.61,0,0,1-5.689-6c-.165-.219-.531,0-.365.225a37.136,37.136,0,0,0,5.129,5.547,29.763,29.763,0,0,0,6.276,4.4,8.68,8.68,0,0,0,7.553.511,19.958,19.958,0,0,0,3.3-2.1q1.546-1.13,3-2.379a48.574,48.574,0,0,0,6.045-6.21c.173-.213-.139-.506-.313-.292" transform="translate(-97.888 -91.344)" fill="#e5a070"/>
        <path id="Trazado_114440" data-name="Trazado 114440" d="M235.87,88.846a10.032,10.032,0,0,1-3.16-1.127c-.24-.134-.439.245-.2.38a10.4,10.4,0,0,0,3.264,1.165c.27.048.367-.37.094-.418" transform="translate(-127.628 -48.157)" fill="#e5a070"/>
        <path id="Trazado_114441" data-name="Trazado 114441" d="M253.635,115.663a14.292,14.292,0,0,1,.539-2.849.214.214,0,0,1,.41.123c-1.026,3.393-.475,6.96-.22,10.422.076,1.028.124,2.059.1,3.09a.214.214,0,0,1-.428-.015c.073-3.6-.731-7.173-.4-10.771" transform="translate(-139.245 -61.874)" fill="#e5a070"/>
        <path id="Trazado_114442" data-name="Trazado 114442" d="M257.986,114.728a10.735,10.735,0,0,1,.008-3.424,3.542,3.542,0,0,1,1.324-2.587,1.475,1.475,0,0,1,2.262.751.214.214,0,0,1-.418.094.957.957,0,0,0-.93-.692,1.523,1.523,0,0,0-1.164.643,5.489,5.489,0,0,0-.776,2.979,11,11,0,0,0,.352,3.282,13.284,13.284,0,0,1,.559,3.123c.009.91-.056,2.084-.89,2.641-.229.153-.426-.228-.2-.38a1.7,1.7,0,0,0,.6-1.23,7.157,7.157,0,0,0,.018-1.8c-.135-1.157-.562-2.254-.743-3.4" transform="translate(-141.605 -59.564)" fill="#e5a070"/>
        <path id="Trazado_114443" data-name="Trazado 114443" d="M225.14,133.929a1.877,1.877,0,0,0,.8-1.776.22.22,0,0,1,.162-.256.215.215,0,0,1,.256.162,2.324,2.324,0,0,1-1.023,2.25.216.216,0,0,1-.289-.091.219.219,0,0,1,.091-.289" transform="translate(-123.577 -72.432)" fill="#e5a070"/>
        <path id="Trazado_114444" data-name="Trazado 114444" d="M226.2,138.938c.321,1.676,1.673,2.863,2.9,3.929a8.175,8.175,0,0,1,2.921,3.817,11.454,11.454,0,0,1,.053,3.346.214.214,0,0,1-.428-.015q.035-.794.068-1.588a5.931,5.931,0,0,0-.064-1.449,4.9,4.9,0,0,0-1.14-2.152c-1.067-1.253-2.476-2.157-3.53-3.422a5.293,5.293,0,0,1-1.2-2.37c-.052-.27.365-.366.418-.094" transform="translate(-123.992 -76.212)" fill="#e5a070"/>
        <path id="Trazado_114445" data-name="Trazado 114445" d="M225.087,113.91a13.128,13.128,0,0,0,5.55,3.861c.259.093.137.5-.123.41a13.568,13.568,0,0,1-5.74-3.979c-.178-.21.135-.5.313-.292" transform="translate(-123.41 -62.516)" fill="#e5a070"/>
        <path id="Trazado_114446" data-name="Trazado 114446" d="M225.413,89.971c1.98-1.2,4.034,1.333,5.709,2.2,1.13.859,4.186,1.087,3.388,3.068-1.563,2.535-11.607-2.566-9.1-5.265" transform="translate(-123.57 -49.235)" fill="#f9e2d2"/>
        <path id="Trazado_114447" data-name="Trazado 114447" d="M237.352,86.214a.22.22,0,0,1,.3.01,10.928,10.928,0,0,0,1.524,1.046.214.214,0,0,1-.225.365,11.584,11.584,0,0,1-1.612-1.119.215.215,0,0,1,.01-.3" transform="translate(-130.309 -47.315)" fill="#e5a070"/>
        <path id="Trazado_114448" data-name="Trazado 114448" d="M229.776,109.643a1.985,1.985,0,1,0,1.985-1.946,1.966,1.966,0,0,0-1.985,1.946" transform="translate(-126.186 -59.144)" fill="#525272"/>
        <g id="Grupo_80690" data-name="Grupo 80690" transform="translate(92.592 52.707)" style="mix-blend-mode: soft-light;isolation: isolate">
          <g id="Grupo_80689" data-name="Grupo 80689">
            <g id="Grupo_80688" data-name="Grupo 80688" clip-path="url(#clip-path-3)">
              <path id="Trazado_114449" data-name="Trazado 114449" d="M208.672,126.891c-4.814,0-3.37-5.195-1.769-8.831a1.935,1.935,0,0,1,3.538,0c1.6,3.636,3.045,8.831-1.769,8.831" transform="translate(-205.381 -116.91)" fill="#525272"/>
            </g>
          </g>
        </g>
        <g id="Grupo_80693" data-name="Grupo 80693" transform="translate(78.389 57.163)" style="mix-blend-mode: soft-light;isolation: isolate">
          <g id="Grupo_80692" data-name="Grupo 80692">
            <g id="Grupo_80691" data-name="Grupo 80691" clip-path="url(#clip-path-4)">
              <path id="Trazado_114450" data-name="Trazado 114450" d="M182.827,133.642c-2.175,3.391-7.836,6.438-8.87,1.19-.79-2.306,4.483-8.33,6.7-8.026,3.219.45,3.423,4.484,2.167,6.836" transform="translate(-173.876 -126.796)" fill="#525272"/>
            </g>
          </g>
        </g>
        <g id="Grupo_80696" data-name="Grupo 80696" transform="translate(103.946 56.596)" style="mix-blend-mode: soft-light;isolation: isolate">
          <g id="Grupo_80695" data-name="Grupo 80695">
            <g id="Grupo_80694" data-name="Grupo 80694" clip-path="url(#clip-path-5)">
              <path id="Trazado_114451" data-name="Trazado 114451" d="M231.281,132.384c2.175,3.391,7.836,6.438,8.87,1.19.79-2.306-4.483-8.33-6.7-8.026-3.219.45-3.423,4.484-2.167,6.836" transform="translate(-230.565 -125.538)" fill="#525272"/>
            </g>
          </g>
        </g>
        <path id="Trazado_114452" data-name="Trazado 114452" d="M211.347,135.3a3.336,3.336,0,0,0-1.307.174,4.816,4.816,0,0,0-1.082.636,4.3,4.3,0,0,1-2.618.818,3.267,3.267,0,0,1-1.375-.375c-.379-.2-.725-.454-1.093-.674a2.99,2.99,0,0,0-2.477-.366.214.214,0,0,0,.123.41,2.387,2.387,0,0,1,1.455,0,4.874,4.874,0,0,1,1.112.6,4.414,4.414,0,0,0,2.366.84,4.623,4.623,0,0,0,2.426-.687c.371-.221.7-.52,1.088-.706a2.891,2.891,0,0,1,1.4-.239c.275.015.259-.413-.015-.428" transform="translate(-110.519 -74.298)" fill="#e5a070"/>
        <path id="Trazado_114453" data-name="Trazado 114453" d="M212.086,151.344c0,1.964-1.226,2.634-2.738,2.634s-2.738-.67-2.738-2.634,1.226-3.5,2.738-3.5,2.738,1.54,2.738,3.5" transform="translate(-113.463 -81.189)" fill="#525272"/>
        <path id="Trazado_114454" data-name="Trazado 114454" d="M211.985,164.486a4.922,4.922,0,0,1-3.742.423c-.265-.076-.359.342-.094.418a5.353,5.353,0,0,0,4.061-.476c.241-.134.016-.5-.225-.365" transform="translate(-114.222 -90.315)" fill="#e5a070"/>
        <path id="Trazado_114455" data-name="Trazado 114455" d="M187.873,34.464a18.01,18.01,0,0,0-3.858,9.738c-.023.275.406.257.428-.015a17.5,17.5,0,0,1,3.743-9.431c.171-.214-.141-.508-.313-.292" transform="translate(-101.055 -18.885)" fill="#e0c7b6"/>
        <path id="Trazado_114456" data-name="Trazado 114456" d="M212.484,39.756q-1.435,1.414-2.748,2.944a7.562,7.562,0,0,0-1.822,3,.214.214,0,0,0,.418.094,7.482,7.482,0,0,1,1.848-2.95q1.251-1.449,2.617-2.792c.2-.194-.117-.486-.313-.292" transform="translate(-114.176 -21.798)" fill="#e0c7b6"/>
        <path id="Trazado_114457" data-name="Trazado 114457" d="M216.1,44.325a14.628,14.628,0,0,0-3.9,2.508c-.205.184.11.475.313.292a13.984,13.984,0,0,1,3.7-2.39c.25-.11.129-.521-.123-.41" transform="translate(-116.5 -24.332)" fill="#e0c7b6"/>
        <path id="Trazado_114458" data-name="Trazado 114458" d="M258.652,74.544a18.825,18.825,0,0,1-5.762,4.4c-.247.122-.021.486.225.365a19.157,19.157,0,0,0,5.85-4.47c.183-.206-.13-.5-.313-.292" transform="translate(-138.821 -40.898)" fill="#e0c7b6"/>
        <path id="Trazado_114459" data-name="Trazado 114459" d="M259.479,79.729a16.5,16.5,0,0,1-4.344,3.309c-.244.129-.018.493.225.365a16.9,16.9,0,0,0,4.433-3.382.214.214,0,0,0-.313-.292" transform="translate(-140.055 -43.748)" fill="#e0c7b6"/>
        <path id="Trazado_114460" data-name="Trazado 114460" d="M260.32,85.9a10.236,10.236,0,0,1-3.263,2.173c-.252.105-.131.516.123.411a10.8,10.8,0,0,0,3.453-2.292c.2-.194-.118-.486-.313-.292" transform="translate(-141.091 -47.139)" fill="#e0c7b6"/>
        <path id="Trazado_114461" data-name="Trazado 114461" d="M162.872,75.928a10.089,10.089,0,0,1-4.13-2.779.214.214,0,0,0-.293.313,10.526,10.526,0,0,0,4.328,2.884c.266.071.361-.347.095-.418" transform="translate(-86.979 -40.139)" fill="#e0c7b6"/>
        <path id="Trazado_114462" data-name="Trazado 114462" d="M163.22,82.554a1.551,1.551,0,0,1-1.072-.136,11.066,11.066,0,0,1-2.88-1.592c-.216-.166-.511.145-.292.313a11.572,11.572,0,0,0,2.1,1.29,11.37,11.37,0,0,0,1.1.449,1.7,1.7,0,0,0,1.169.086c.257-.1.135-.507-.123-.41" transform="translate(-87.263 -44.361)" fill="#e0c7b6"/>
        <path id="Trazado_114463" data-name="Trazado 114463" d="M163.658,88.743a7.494,7.494,0,0,1-3.374-1.524c-.214-.171-.507.141-.292.313a7.948,7.948,0,0,0,3.572,1.628c.27.048.367-.369.094-.418" transform="translate(-87.821 -47.871)" fill="#e0c7b6"/>
        <path id="Trazado_114464" data-name="Trazado 114464" d="M189.355,106.48a7.876,7.876,0,0,0-6.98,2.291c-.286.3.184.738.47.438a7.209,7.209,0,0,1,6.369-2.1c.406.071.55-.556.141-.627" transform="translate(-100.106 -58.414)" fill="#525272"/>
        <path id="Trazado_114465" data-name="Trazado 114465" d="M227.437,106.48a7.876,7.876,0,0,1,6.98,2.291c.286.3-.184.738-.47.438a7.209,7.209,0,0,0-6.369-2.1c-.406.071-.55-.556-.141-.627" transform="translate(-124.767 -58.414)" fill="#525272"/>
        <path id="Trazado_114466" data-name="Trazado 114466" d="M128.321,245.167a56.136,56.136,0,0,1-5.2,6.9,2.577,2.577,0,0,0-.694,1.122,2.541,2.541,0,0,0-.013.724,16.717,16.717,0,0,1-2.711,10.81,9.714,9.714,0,0,1-4.211,1.088,24.566,24.566,0,0,1-4.381.064,15.154,15.154,0,0,1-9.538-4.655c-.047-.052-.1-.1-.142-.159l.009-.009a27.488,27.488,0,0,0-2.3-5.889q-1.548-3.135-3.31-6.168c-.625-1.075-1.272-2.141-1.927-3.2-2.84-4.591-5.864-9.084-8.257-13.919-.471-.951-.9-2.155-.261-3.007a2.317,2.317,0,0,1,2.013-.72,6.515,6.515,0,0,1,3.906,1.833,19.539,19.539,0,0,1,2.75,3.426c.574.839,1.148,1.675,1.726,2.514a5.381,5.381,0,0,1,.351-1.537,8.54,8.54,0,0,1,1.058-1.7,69.844,69.844,0,0,0,5.341-8.548,7.329,7.329,0,0,1,1.174-1.786,2.288,2.288,0,0,1,1.922-.741,2.135,2.135,0,0,1,1.4,1,4.319,4.319,0,0,1,.561,1.674,11.535,11.535,0,0,1-.655,5.692,22.711,22.711,0,0,1-2.728,5.092,1.083,1.083,0,0,0-.2.42,1.038,1.038,0,0,0,.064.441c.193.626.381,1.251.573,1.876a36.674,36.674,0,0,0,4.544-7.319,44.137,44.137,0,0,1,2.419-4.951,3.589,3.589,0,0,1,2.159-1.816,2.606,2.606,0,0,1,2.557,1.28,5.286,5.286,0,0,1,.651,2.921,16.762,16.762,0,0,1-2.772,8.146,22.077,22.077,0,0,1-2.2,3.088,5.5,5.5,0,0,0-.865,1.16,4.722,4.722,0,0,0-.356,1.846c-.06,1.011-.12,2.017-.176,3.024,2.792-4.446,4.527-9.478,7.11-14.056a8.081,8.081,0,0,1,2.355-2.887,2.162,2.162,0,0,1,1.59-.424c.938.2,1.4,1.255,1.55,2.2a10.919,10.919,0,0,1-.188,3.85A36.328,36.328,0,0,1,120.7,240.6q-1.844,4.369-3.683,8.741a15.027,15.027,0,0,0,1.1-1.246q1.485-1.825,3.024-3.6a26.535,26.535,0,0,1,6.117-5.64,3.75,3.75,0,0,1,1.3-.54,1.48,1.48,0,0,1,1.3.39,1.872,1.872,0,0,1,.386,1.178,9.4,9.4,0,0,1-1.919,5.289" transform="translate(-46.716 -121.687)" fill="#f9bb91"/>
        <path id="Trazado_114467" data-name="Trazado 114467" d="M107.955,253.167a.214.214,0,0,0-.428.015,71.257,71.257,0,0,1-.015,8.988c-.018.275.411.258.428-.015a71.26,71.26,0,0,0,.015-8.988" transform="translate(-59.042 -138.922)" fill="#e5a070"/>
        <path id="Trazado_114468" data-name="Trazado 114468" d="M125.059,257.289c-.312.633-.858,1.1-1.2,1.717a6.665,6.665,0,0,0-.531,2.366L122.6,266.7c-.037.271.38.368.418.094q.359-2.609.719-5.219a6.738,6.738,0,0,1,.507-2.367c.342-.613.888-1.083,1.2-1.717.122-.247-.257-.447-.38-.2" transform="translate(-67.325 -141.233)" fill="#e5a070"/>
        <path id="Trazado_114469" data-name="Trazado 114469" d="M141.059,274.045a12.052,12.052,0,0,1-.138,2.086.219.219,0,0,0,.162.256.216.216,0,0,0,.256-.162,12.632,12.632,0,0,0,.148-2.194.214.214,0,0,0-.428.015" transform="translate(-77.388 -150.379)" fill="#e5a070"/>
        <path id="Trazado_114470" data-name="Trazado 114470" d="M154.91,282.679a.218.218,0,0,0-.289.091l-.715,1.369a.214.214,0,0,0,.38.2l.715-1.369a.217.217,0,0,0-.091-.289" transform="translate(-84.508 -155.227)" fill="#e5a070"/>
        <path id="Trazado_114471" data-name="Trazado 114471" d="M168.512,277.157a3.885,3.885,0,0,0-1.626-2.523.214.214,0,0,0-.2.38,3.49,3.49,0,0,1,1.414,2.266.214.214,0,0,0,.41-.123" transform="translate(-91.479 -150.807)" fill="#e5a070"/>
        <path id="Trazado_114472" data-name="Trazado 114472" d="M169.555,274.168a.219.219,0,0,0-.3.01.216.216,0,0,0,.01.3,2.5,2.5,0,0,1,.891,1.565.221.221,0,0,0,.222.206.216.216,0,0,0,.206-.221,2.944,2.944,0,0,0-1.027-1.863" transform="translate(-92.917 -150.534)" fill="#e5a070"/>
        <path id="Trazado_114473" data-name="Trazado 114473" d="M154.6,262.874a4.528,4.528,0,0,0-2.274-1,.22.22,0,0,0-.256.162.215.215,0,0,0,.162.256,4.117,4.117,0,0,1,2.076.9c.211.175.5-.137.292-.313" transform="translate(-83.508 -143.809)" fill="#e5a070"/>
        <path id="Trazado_114474" data-name="Trazado 114474" d="M154.44,265.408a2.5,2.5,0,0,0-1.465-.829.214.214,0,1,0-.094.418,1.962,1.962,0,0,1,.7.249c.054.03.105.063.156.1.01.007.04.029.015.01l.035.026.076.061a2.269,2.269,0,0,1,.285.281.215.215,0,0,0,.3-.011.22.22,0,0,0-.01-.3" transform="translate(-83.867 -145.297)" fill="#e5a070"/>
        <path id="Trazado_114475" data-name="Trazado 114475" d="M135,257.249a4.957,4.957,0,0,0-2.352-1.14c-.271-.05-.367.367-.094.418a4.52,4.52,0,0,1,2.154,1.036c.208.181.5-.132.293-.313" transform="translate(-72.704 -140.645)" fill="#e5a070"/>
        <path id="Trazado_114476" data-name="Trazado 114476" d="M133.379,260.589a3.205,3.205,0,0,0-1.982-.8.216.216,0,0,0-.206.222.219.219,0,0,0,.221.206,2.736,2.736,0,0,1,1.675.689c.206.183.5-.129.292-.313" transform="translate(-72.045 -142.666)" fill="#e5a070"/>
        <path id="Trazado_114477" data-name="Trazado 114477" d="M116.522,250.785a3.2,3.2,0,0,0-2.476-.164c-.26.091-.138.5.123.41a2.773,2.773,0,0,1,2.155.133.214.214,0,0,0,.2-.38" transform="translate(-62.551 -137.538)" fill="#e5a070"/>
        <path id="Trazado_114478" data-name="Trazado 114478" d="M115.277,253.171a3.262,3.262,0,0,0-1.185-.028.233.233,0,0,0-.149.068.219.219,0,0,0-.058.154c.008.1.1.226.222.206a3.1,3.1,0,0,1,.555-.041c.043,0,.086,0,.128,0l.075.005c.014,0,.014,0,0,0l.043,0c.092.01.184.026.275.045a.214.214,0,0,0,.094-.418" transform="translate(-62.542 -138.996)" fill="#e5a070"/>
        <path id="Trazado_114479" data-name="Trazado 114479" d="M100.368,258.908a.216.216,0,0,0-.266-.144,5.024,5.024,0,0,0-2,1.426c-.178.21.135.5.313.292a4.561,4.561,0,0,1,1.814-1.307.22.22,0,0,0,.144-.267" transform="translate(-53.843 -142.099)" fill="#e5a070"/>
        <path id="Trazado_114480" data-name="Trazado 114480" d="M101.359,261.386a.219.219,0,0,0-.295-.07,2.828,2.828,0,0,0-1.047,1.022.215.215,0,0,0,.091.289.219.219,0,0,0,.289-.091c.03-.049.061-.1.093-.145h0l.021-.029.048-.062a2.638,2.638,0,0,1,.226-.25c.04-.038.08-.075.122-.111l.011-.009.018-.014.069-.053a2.583,2.583,0,0,1,.284-.182.216.216,0,0,0,.07-.295" transform="translate(-54.913 -143.49)" fill="#e5a070"/>
        <path id="Trazado_114481" data-name="Trazado 114481" d="M120.15,283.59a4.462,4.462,0,0,0-2.953-.433c-.271.053-.145.462.123.41a4,4,0,0,1,2.632.4.214.214,0,0,0,.2-.38" transform="translate(-64.278 -155.455)" fill="#e5a070"/>
        <path id="Trazado_114482" data-name="Trazado 114482" d="M131.315,285.354a7,7,0,0,0-3.085-.535.214.214,0,0,0,.015.428,6.524,6.524,0,0,1,2.872.486c.252.105.454-.273.2-.38" transform="translate(-70.311 -156.408)" fill="#e5a070"/>
        <path id="Trazado_114483" data-name="Trazado 114483" d="M144.293,289.967a2.968,2.968,0,0,0-2.2-1.25.216.216,0,0,0-.206.221.22.22,0,0,0,.221.207,2.506,2.506,0,0,1,1.821,1.046.219.219,0,0,0,.294.07.216.216,0,0,0,.07-.295" transform="translate(-77.919 -158.554)" fill="#e5a070"/>
        <path id="Trazado_114484" data-name="Trazado 114484" d="M233.467,252.411a56.061,56.061,0,0,0,6.388,5.808,1.936,1.936,0,0,1,1.038,1.682,16.711,16.711,0,0,0,4.676,10.116,9.706,9.706,0,0,0,4.339.285,24.526,24.526,0,0,0,4.317-.752,15.152,15.152,0,0,0,8.5-6.35c.037-.059.078-.119.11-.182l-.01-.007a27.5,27.5,0,0,1,1.163-6.214q.937-3.368,2.1-6.676c.414-1.173.851-2.341,1.3-3.5,1.935-5.04,4.07-10.017,5.521-15.213.286-1.022.483-2.284-.3-3a2.316,2.316,0,0,0-2.112-.332,6.511,6.511,0,0,0-3.5,2.528,19.526,19.526,0,0,0-2.064,3.878c-.408.932-.816,1.859-1.228,2.792a5.4,5.4,0,0,0-.631-1.445,8.547,8.547,0,0,0-1.356-1.473,69.98,69.98,0,0,1-6.839-7.4,7.321,7.321,0,0,0-1.485-1.536,2.291,2.291,0,0,0-2.027-.37,2.135,2.135,0,0,0-1.193,1.247,4.334,4.334,0,0,0-.24,1.75,11.543,11.543,0,0,0,1.7,5.47,22.684,22.684,0,0,0,3.629,4.5,1.09,1.09,0,0,1,.276.375,1.05,1.05,0,0,1,.019.445c-.073.65-.142,1.3-.215,1.95a36.659,36.659,0,0,1-5.827-6.345,44.136,44.136,0,0,0-3.3-4.414,3.59,3.59,0,0,0-2.459-1.383,2.606,2.606,0,0,0-2.274,1.734,5.287,5.287,0,0,0-.1,2.991,16.759,16.759,0,0,0,4.24,7.487,22.045,22.045,0,0,0,2.737,2.624,5.541,5.541,0,0,1,1.066.979,4.719,4.719,0,0,1,.693,1.747q.371,1.473.736,2.939c-3.571-3.848-6.212-8.47-9.6-12.487a8.079,8.079,0,0,0-2.852-2.4,2.158,2.158,0,0,0-1.64-.121,2.437,2.437,0,0,0-1.114,2.452,10.9,10.9,0,0,0,.9,3.748A36.342,36.342,0,0,0,240.1,246.5q2.625,3.949,5.246,7.9a15.182,15.182,0,0,1-1.309-1.021q-1.8-1.516-3.642-2.976a26.551,26.551,0,0,0-7.059-4.4,3.745,3.745,0,0,0-1.375-.289,1.478,1.478,0,0,0-1.206.625,1.869,1.869,0,0,0-.16,1.229,9.4,9.4,0,0,0,2.87,4.84" transform="translate(-126.619 -123.527)" fill="#f9bb91"/>
        <path id="Trazado_114485" data-name="Trazado 114485" d="M304.435,251.964a.214.214,0,0,1,.423-.065,71.254,71.254,0,0,0,1.688,8.828c.069.267-.355.33-.423.065a71.25,71.25,0,0,1-1.688-8.828" transform="translate(-167.185 -138.239)" fill="#e5a070"/>
        <path id="Trazado_114486" data-name="Trazado 114486" d="M285.494,259.747c.424.564,1.048.924,1.5,1.463a6.662,6.662,0,0,1,.962,2.226l1.712,5.094c.087.26-.305.432-.393.17l-1.678-4.994a6.741,6.741,0,0,0-.939-2.231c-.45-.539-1.073-.9-1.5-1.463-.165-.22.17-.487.336-.266" transform="translate(-156.576 -142.6)" fill="#e5a070"/>
        <path id="Trazado_114487" data-name="Trazado 114487" d="M275.643,278.669a12.056,12.056,0,0,0,.524,2.023.219.219,0,0,1-.111.281.216.216,0,0,1-.282-.111,12.657,12.657,0,0,1-.555-2.128.214.214,0,0,1,.423-.065" transform="translate(-151.141 -152.941)" fill="#e5a070"/>
        <path id="Trazado_114488" data-name="Trazado 114488" d="M262.96,289.862a.218.218,0,0,1,.3.035l.958,1.212a.214.214,0,0,1-.336.266l-.958-1.212a.217.217,0,0,1,.035-.3" transform="translate(-144.366 -159.159)" fill="#e5a070"/>
        <path id="Trazado_114489" data-name="Trazado 114489" d="M248.148,286.806a3.886,3.886,0,0,1,1.128-2.782.214.214,0,0,1,.266.336,3.489,3.489,0,0,0-.967,2.49.214.214,0,0,1-.426-.045" transform="translate(-136.275 -155.952)" fill="#e5a070"/>
        <path id="Trazado_114490" data-name="Trazado 114490" d="M247.081,284.062a.219.219,0,0,1,.3-.046.216.216,0,0,1,.046.3,2.5,2.5,0,0,0-.584,1.7.221.221,0,0,1-.179.244.215.215,0,0,1-.244-.179,2.941,2.941,0,0,1,.662-2.022" transform="translate(-135.324 -155.951)" fill="#e5a070"/>
        <path id="Trazado_114491" data-name="Trazado 114491" d="M258.039,270.184a4.53,4.53,0,0,1,2.047-1.411.22.22,0,0,1,.282.111.216.216,0,0,1-.111.282,4.113,4.113,0,0,0-1.872,1.271c-.175.211-.522-.041-.345-.253" transform="translate(-141.68 -147.595)" fill="#e5a070"/>
        <path id="Trazado_114492" data-name="Trazado 114492" d="M259.607,272.644a2.5,2.5,0,0,1,1.285-1.087.214.214,0,0,1,.17.393,1.966,1.966,0,0,0-.641.375c-.046.04-.092.082-.135.125-.009.009-.034.036-.013.013l-.029.032c-.022.024-.043.049-.064.073a2.325,2.325,0,0,0-.227.33.215.215,0,0,1-.3.046.22.22,0,0,1-.046-.3" transform="translate(-142.547 -149.123)" fill="#e5a070"/>
        <path id="Trazado_114493" data-name="Trazado 114493" d="M276.191,261.006a4.96,4.96,0,0,1,2.1-1.559c.256-.1.428.293.17.393a4.524,4.524,0,0,0-1.924,1.419c-.17.216-.516-.036-.345-.253" transform="translate(-151.65 -142.472)" fill="#e5a070"/>
        <path id="Trazado_114494" data-name="Trazado 114494" d="M278.833,263.986a3.2,3.2,0,0,1,1.8-1.159.217.217,0,0,1,.245.179.22.22,0,0,1-.179.244,2.736,2.736,0,0,0-1.517.989c-.168.218-.514-.034-.345-.253" transform="translate(-153.102 -144.334)" fill="#e5a070"/>
        <path id="Trazado_114495" data-name="Trazado 114495" d="M292.9,251.372a3.2,3.2,0,0,1,2.4-.622c.272.041.229.467-.045.426a2.772,2.772,0,0,0-2.093.532c-.219.167-.486-.169-.266-.336" transform="translate(-160.808 -137.686)" fill="#e5a070"/>
        <path id="Trazado_114496" data-name="Trazado 114496" d="M295.924,253.381a3.271,3.271,0,0,1,1.159-.249.234.234,0,0,1,.159.039.214.214,0,0,1-.094.384,3.127,3.127,0,0,0-.553.063l-.126.029-.073.019h0l-.041.013c-.089.027-.176.06-.262.1a.214.214,0,1,1-.17-.393" transform="translate(-162.443 -139.012)" fill="#e5a070"/>
        <path id="Trazado_114497" data-name="Trazado 114497" d="M310.7,256.623a.216.216,0,0,1,.235-.191,5.02,5.02,0,0,1,2.235,1.027c.213.173-.039.519-.253.345a4.569,4.569,0,0,0-2.026-.947.22.22,0,0,1-.191-.235" transform="translate(-170.625 -140.823)" fill="#e5a070"/>
        <path id="Trazado_114498" data-name="Trazado 114498" d="M311.3,259.029a.219.219,0,0,1,.276-.124,2.83,2.83,0,0,1,1.219.809.216.216,0,0,1-.035.3.22.22,0,0,1-.3-.036c-.038-.043-.078-.084-.119-.125h0l-.026-.024-.059-.052a2.569,2.569,0,0,0-.269-.2c-.046-.03-.092-.059-.14-.086l-.013-.007-.02-.01-.077-.039a2.57,2.57,0,0,0-.312-.126.216.216,0,0,1-.124-.276" transform="translate(-170.949 -142.176)" fill="#e5a070"/>
        <path id="Trazado_114499" data-name="Trazado 114499" d="M294.908,284.214a4.464,4.464,0,0,1,2.821-.976c.276,0,.229.427-.045.426a4,4,0,0,0-2.511.886.214.214,0,0,1-.266-.336" transform="translate(-161.911 -155.546)" fill="#e5a070"/>
        <path id="Trazado_114500" data-name="Trazado 114500" d="M284.048,287.946a6.993,6.993,0,0,1,2.931-1.1.214.214,0,0,1,.065.423,6.516,6.516,0,0,0-2.731,1.013c-.228.15-.5-.184-.266-.336" transform="translate(-155.942 -157.526)" fill="#e5a070"/>
        <path id="Trazado_114501" data-name="Trazado 114501" d="M273.455,294.88a2.968,2.968,0,0,1,1.93-1.638.215.215,0,0,1,.244.179.219.219,0,0,1-.179.244,2.509,2.509,0,0,0-1.594,1.367.219.219,0,0,1-.276.124.216.216,0,0,1-.124-.276" transform="translate(-150.165 -161.037)" fill="#e5a070"/>
        <path id="Trazado_114502" data-name="Trazado 114502" d="M361.531,402.239a18.13,18.13,0,0,1-.958,1.684,9.04,9.04,0,0,1-1.346,1.522,38.668,38.668,0,0,0-2.869,3.012c-.178.21.134.5.313.292a40.035,40.035,0,0,1,2.942-3.081A9.154,9.154,0,0,0,360.9,404.2a17.168,17.168,0,0,0,1.011-1.762.214.214,0,0,0-.379-.2" transform="translate(-195.672 -220.836)" fill="#525272"/>
        <path id="Trazado_114503" data-name="Trazado 114503" d="M370.864,396.752a.221.221,0,0,0-.256.162l-.41,1.133a.215.215,0,0,0,.162.256.22.22,0,0,0,.256-.162l.41-1.133a.214.214,0,0,0-.162-.256" transform="translate(-203.297 -217.882)" fill="#525272"/>
        <path id="Trazado_114504" data-name="Trazado 114504" d="M75.608,210.6c-1.361,1.128-2.729,2.246-4.081,3.385a7.388,7.388,0,0,0-1.564,1.683,10.308,10.308,0,0,0-.884,2,10.493,10.493,0,0,1-.953,2.083c-.42.663-.921,1.274-1.3,1.962a9.231,9.231,0,0,0-.925,4.222,15.749,15.749,0,0,1-.578,5.019c-.095.255.284.457.38.2a13.066,13.066,0,0,0,.6-4.331,11.755,11.755,0,0,1,.622-4.34,11.081,11.081,0,0,1,1.214-1.985,9.53,9.53,0,0,0,1.091-2.011c.258-.666.47-1.351.776-2a5.817,5.817,0,0,1,1.406-1.838c.71-.642,1.467-1.234,2.2-1.845l2.307-1.913c.211-.175-.1-.466-.313-.292" transform="translate(-35.863 -115.624)" fill="#525272"/>
        <path id="Trazado_114505" data-name="Trazado 114505" d="M108,191.37a12.164,12.164,0,0,1-2.935,1.407,21.554,21.554,0,0,0-2.723,1.545c-.891.571-1.773,1.16-2.706,1.66a12.533,12.533,0,0,1-2.815,1.066,3.127,3.127,0,0,0-2.308,1.451c-.112.25.267.451.38.2.367-.823,1.327-1.053,2.123-1.257a12.538,12.538,0,0,0,2.769-1.052c1.835-.968,3.465-2.29,5.348-3.172a13.713,13.713,0,0,0,3.181-1.552c.211-.176-.1-.466-.313-.292" transform="translate(-51.891 -105.065)" fill="#525272"/>
        <path id="Trazado_114506" data-name="Trazado 114506" d="M90.915,196.149a9.623,9.623,0,0,1-2.567,1.364c-.923.32-1.9.456-2.794.86a13.424,13.424,0,0,0-4.129,3.423c-.187.2.126.5.313.292a12.544,12.544,0,0,1,4.151-3.4c.9-.376,1.885-.5,2.8-.846a10.038,10.038,0,0,0,2.45-1.33c.22-.163,0-.529-.225-.365" transform="translate(-44.685 -107.696)" fill="#525272"/>
        <path id="Trazado_114507" data-name="Trazado 114507" d="M67.624,214.2a10.284,10.284,0,0,0-3.3,3.818c-.982,1.734-1.853,3.539-2.672,5.355q-.712,1.582-1.353,3.194c-.1.253.277.455.38.2q1.114-2.8,2.439-5.5a29.215,29.215,0,0,1,2.668-4.736,7.793,7.793,0,0,1,2.063-1.963.214.214,0,0,0-.225-.365" transform="translate(-33.105 -117.611)" fill="#525272"/>
        <path id="Trazado_114508" data-name="Trazado 114508" d="M75.643,201.925c-.805.677-1.856.958-2.694,1.586a7.407,7.407,0,0,0-1.147,1.16,11.092,11.092,0,0,0-1.067,1.414c-.143.235.236.433.38.2a10.866,10.866,0,0,1,1.059-1.389,6.076,6.076,0,0,1,1.192-1.155,27.346,27.346,0,0,0,2.59-1.523c.211-.177-.1-.468-.313-.292" transform="translate(-38.828 -110.861)" fill="#525272"/>
        <path id="Trazado_114509" data-name="Trazado 114509" d="M352.611,243.489a16.925,16.925,0,0,1-.423-4.186,13.541,13.541,0,0,0-.385-2.058,17.492,17.492,0,0,1-.4-2.2c-.292-2.6-.153-5.419-1.6-7.724a8.853,8.853,0,0,0-1.4-1.6,2.74,2.74,0,0,1-1.057-1.982c.01-.276-.418-.26-.428.015-.052,1.4,1.237,2.194,2.045,3.141a7.584,7.584,0,0,1,1.522,3.489c.278,1.406.3,2.846.441,4.268a17.224,17.224,0,0,0,.323,2.13c.16.715.371,1.421.465,2.149.2,1.56-.041,3.169.482,4.681.09.26.5.138.41-.123" transform="translate(-190.518 -122.761)" fill="#525272"/>
        <path id="Trazado_114510" data-name="Trazado 114510" d="M359.595,274.238a15.808,15.808,0,0,1-.553-2.986c0-.276-.424-.26-.428.015a13.66,13.66,0,0,0,.535,2.9,16.971,16.971,0,0,1,.011,3.232.214.214,0,0,0,.428-.015,18.968,18.968,0,0,0,.007-3.149" transform="translate(-196.939 -148.854)" fill="#525272"/>
        <path id="Trazado_114511" data-name="Trazado 114511" d="M363.128,265.6c-.311-1.233-1.012-2.462-.841-3.769.035-.271-.382-.368-.418-.094a8.734,8.734,0,0,0,.743,3.6,9.7,9.7,0,0,1,.31,4.009c-.036.271.382.368.418.094a10.247,10.247,0,0,0-.212-3.84" transform="translate(-198.711 -143.646)" fill="#525272"/>
        <path id="Trazado_114512" data-name="Trazado 114512" d="M359.183,242.1c-.155-.228-.52,0-.365.225.871,1.281.679,2.9.722,4.365a.214.214,0,0,0,.428-.015c-.044-1.546.132-3.225-.785-4.575" transform="translate(-197.032 -132.904)" fill="#525272"/>
        <path id="Trazado_114513" data-name="Trazado 114513" d="M360.519,382.407a.214.214,0,0,0,.015.428c.61-.018-.317,2.741-.426,3.049a24.341,24.341,0,0,1-1.54,3.378A20.691,20.691,0,0,1,354.4,395a10.1,10.1,0,0,0-2.4,2.679.214.214,0,0,0,.38.2,9.806,9.806,0,0,1,2.329-2.586,15.713,15.713,0,0,0,2.463-2.86,34.293,34.293,0,0,0,1.971-3.362,22.567,22.567,0,0,0,1.542-3.6,9.282,9.282,0,0,0,.486-2.063c.032-.436-.126-1.022-.66-1.006" transform="translate(-193.298 -210.006)" fill="#525272"/>
        <path id="Trazado_114514" data-name="Trazado 114514" d="M236.011,290a54.876,54.876,0,0,1-3.714-5.152,13.313,13.313,0,0,0-2.159-2.274,17.383,17.383,0,0,1-2.494-2.232,3.8,3.8,0,0,1-.953-3.3c.07-.266-.348-.361-.418-.094-.6,2.274,1.289,4.092,2.883,5.376a15.6,15.6,0,0,1,2.455,2.33c.7.868,1.294,1.812,1.9,2.742a20.423,20.423,0,0,0,2.2,2.914c.19.2.481-.114.292-.313" transform="translate(-124.2 -152.007)" fill="#525272"/>
        <path id="Trazado_114515" data-name="Trazado 114515" d="M239.151,304.52a12.07,12.07,0,0,0-.712-1.817,6.354,6.354,0,0,0-1.233-1.559,9.037,9.037,0,0,1-2.168-3.327c-.094-.258-.5-.136-.41.123a9.262,9.262,0,0,0,2.013,3.242,8.263,8.263,0,0,1,1.323,1.544,10.163,10.163,0,0,1,.777,1.918.214.214,0,0,0,.41-.123" transform="translate(-128.843 -163.473)" fill="#525272"/>
        <path id="Trazado_114516" data-name="Trazado 114516" d="M319.5,246.641c-.062-.269-.472-.144-.41.123.513,2.232-1.087,4.212-2.058,6.066a32.81,32.81,0,0,0-2.332,6.056c-.348,1.191-.66,2.393-.971,3.594-.069.267.349.361.418.094a65.622,65.622,0,0,1,1.926-6.515,26.367,26.367,0,0,1,1.338-3.031c.513-.979,1.133-1.9,1.589-2.911a5.474,5.474,0,0,0,.5-3.476" transform="translate(-172.289 -135.366)" fill="#525272"/>
        <path id="Trazado_114517" data-name="Trazado 114517" d="M318.542,270.531c-.494.769-.307,1.707-.547,2.549a6.79,6.79,0,0,1-.654,1.381l-.807,1.461c-.133.241.246.44.38.2l.807-1.461a8.429,8.429,0,0,0,.635-1.305c.293-.848.069-1.85.567-2.626.149-.232-.231-.429-.38-.2" transform="translate(-173.815 -148.511)" fill="#525272"/>
        <path id="Trazado_114518" data-name="Trazado 114518" d="M291.561,229.309a17.669,17.669,0,0,0-3.19-4.121c-.593-.567-1.246-1.056-1.864-1.593a3.217,3.217,0,0,1-1.249-1.863c-.039-.27-.467-.258-.428.015.234,1.619,1.88,2.494,2.981,3.5a17.266,17.266,0,0,1,3.384,4.283c.135.241.5.015.365-.225" transform="translate(-156.419 -121.66)" fill="#525272"/>
        <path id="Trazado_114519" data-name="Trazado 114519" d="M299.7,232.5a7.139,7.139,0,0,0-1.978-2.931c-.206-.183-.5.13-.292.313a6.688,6.688,0,0,1,1.859,2.741c.093.259.5.137.41-.123" transform="translate(-163.3 -126.042)" fill="#525272"/>
        <path id="Trazado_114520" data-name="Trazado 114520" d="M236.229,238.249a5.69,5.69,0,0,0-2.109,3.931,5.417,5.417,0,0,0,.248,2.241c.294.865.92,1.719.814,2.673-.031.271.387.368.417.094a4.76,4.76,0,0,0-.633-2.411,5.224,5.224,0,0,1,1.487-6.163c.214-.169-.009-.535-.225-.365" transform="translate(-128.558 -130.815)" fill="#525272"/>
        <path id="Trazado_114521" data-name="Trazado 114521" d="M233.265,254.842l-.479-2.8a.215.215,0,0,0-.266-.144.219.219,0,0,0-.144.267l.479,2.8a.216.216,0,0,0,.266.144.219.219,0,0,0,.144-.267" transform="translate(-127.612 -138.332)" fill="#525272"/>
        <path id="Trazado_114522" data-name="Trazado 114522" d="M172.181,288.854c-.07-.267-.48-.143-.41.123a7.262,7.262,0,0,1,.18,2.789,9.251,9.251,0,0,1-.821,2.6c-.712,1.567-1.562,3.24-1.1,5.006.069.268.48.143.41-.123-.483-1.851.619-3.587,1.308-5.226a7.977,7.977,0,0,0,.433-5.169" transform="translate(-93.303 -158.548)" fill="#525272"/>
        <path id="Trazado_114523" data-name="Trazado 114523" d="M175.831,286.079c.011,3.264-1.665,6.2-2.333,9.329a11.364,11.364,0,0,0-.266,2.678.214.214,0,0,0,.428-.015c-.09-3.265,1.574-6.212,2.282-9.328a11.893,11.893,0,0,0,.317-2.679c0-.276-.429-.261-.428.015" transform="translate(-95.132 -156.988)" fill="#525272"/>
        <path id="Trazado_114524" data-name="Trazado 114524" d="M179.6,254.747a8,8,0,0,0-2.6-1.96,3.3,3.3,0,0,0-1.622-.373,4.2,4.2,0,0,0-1.618.589c-.243.131-.018.495.225.365a3.5,3.5,0,0,1,1.507-.532,3.274,3.274,0,0,1,1.559.452,7.722,7.722,0,0,1,2.26,1.772c.182.206.473-.108.292-.313" transform="translate(-95.366 -138.614)" fill="#525272"/>
        <path id="Trazado_114525" data-name="Trazado 114525" d="M186.281,253.62a4.068,4.068,0,0,0-2.029-2.187c-.248-.118-.449.261-.2.38a3.621,3.621,0,0,1,1.817,1.93.22.22,0,0,0,.266.143.215.215,0,0,0,.144-.266" transform="translate(-101.014 -138.067)" fill="#525272"/>
        <path id="Trazado_114526" data-name="Trazado 114526" d="M87.058,253.148a7.868,7.868,0,0,1-1.112-2.2c-.247-.819-.353-1.671-.532-2.505a6.27,6.27,0,0,0-.9-2.283,19.438,19.438,0,0,0-1.6-1.827,5.1,5.1,0,0,1-1.281-2.409,4.674,4.674,0,0,1,.3-2.779c.11-.251-.269-.452-.38-.2a5.132,5.132,0,0,0,.234,4.59c.831,1.437,2.343,2.334,2.919,3.941A17.445,17.445,0,0,1,85.28,250a8.592,8.592,0,0,0,.779,2.334,23.1,23.1,0,0,0,3.023,3.942c1.229,1.47,2.425,3.314,2.184,5.319-.033.271.385.369.417.094.429-3.57-2.805-5.927-4.625-8.542" transform="translate(-44.549 -131.155)" fill="#525272"/>
        <path id="Trazado_114527" data-name="Trazado 114527" d="M97.94,284.521a8.8,8.8,0,0,0-.19-1.193,1.8,1.8,0,0,0-1.3-1.4c-.27-.05-.366.367-.094.418a1.486,1.486,0,0,1,1.028,1.3c.147.709.2,1.449.284,2.167.034.272.462.259.428-.015l-.158-1.276" transform="translate(-52.828 -154.821)" fill="#525272"/>
        <path id="Trazado_114528" data-name="Trazado 114528" d="M117.423,217.56a6.547,6.547,0,0,0-3.626,2.576,6.318,6.318,0,0,0-.576,1.027,6.057,6.057,0,0,1-.582,1.154,4.308,4.308,0,0,1-1.052.864,7.519,7.519,0,0,0-2.505,3.071c-.112.25.267.451.38.2a7.225,7.225,0,0,1,1.322-2,6.956,6.956,0,0,1,.923-.827,10.79,10.79,0,0,0,1-.736,7.606,7.606,0,0,0,1.152-2.042,6.061,6.061,0,0,1,3.689-2.873.214.214,0,0,0-.123-.41" transform="translate(-59.893 -119.472)" fill="#525272"/>
        <path id="Trazado_114529" data-name="Trazado 114529" d="M122.339,211.933a4.4,4.4,0,0,0-2.23.413,4.307,4.307,0,0,0-.962.623,6.785,6.785,0,0,1-.938.829c-.351.2-.743.321-1.1.52a3.45,3.45,0,0,0-.846.674,3.567,3.567,0,0,0-.908,1.933c-.036.271.381.368.418.094a3.174,3.174,0,0,1,.885-1.821,3.074,3.074,0,0,1,.822-.592c.338-.169.7-.286,1.023-.487a5.334,5.334,0,0,0,.8-.717,3.892,3.892,0,0,1,.879-.616,4.02,4.02,0,0,1,2.172-.424c.275.022.257-.406-.015-.428" transform="translate(-63.351 -116.38)" fill="#525272"/>
        <path id="Trazado_114530" data-name="Trazado 114530" d="M153.651,224.03a16.023,16.023,0,0,0-1.476-2.215c-.448-.61-.885-1.438-1.61-1.755a1.986,1.986,0,0,0-1.931.187c-.225.159,0,.524.224.365a1.556,1.556,0,0,1,1.68-.085,2.377,2.377,0,0,1,.658.677c.226.306.451.614.676.921a20.471,20.471,0,0,1,1.186,1.714,5.741,5.741,0,0,1,.472.976c.091.257.18.587-.04.8-.2.192.116.484.313.292.525-.509.116-1.344-.152-1.876" transform="translate(-81.574 -120.759)" fill="#525272"/>
        <path id="Trazado_114531" data-name="Trazado 114531" d="M159.14,223.238a3.733,3.733,0,0,0-.633-.777c-.238-.225-.556-.543-.911-.5-.272.033-.259.462.015.428a.506.506,0,0,1,.359.171,4.1,4.1,0,0,1,.316.284,3.207,3.207,0,0,1,.514.661,2.349,2.349,0,0,1,.283,1.713.214.214,0,0,0,.418.094,2.8,2.8,0,0,0-.361-2.074" transform="translate(-86.438 -121.892)" fill="#525272"/>
        <path id="Trazado_114532" data-name="Trazado 114532" d="M59.432,390.242c-1.586.081-2.457-1.536-2.728-2.872-.3-1.5-.2-3.09-.907-4.486a4.932,4.932,0,0,0-1.418-1.576,6.374,6.374,0,0,1-.82-.738,3.392,3.392,0,0,1-.6-1.066c-.3-.8-.544-1.631-.811-2.446-.249-.758-.515-1.513-.719-2.284-.386-1.457-.627-3.23.455-4.456.182-.206-.131-.5-.313-.292a4.586,4.586,0,0,0-.754,3.981,17.123,17.123,0,0,0,.612,2.234l.894,2.725a4.932,4.932,0,0,0,1.119,2.1,12.557,12.557,0,0,1,1.731,1.607c.961,1.384.8,3.191,1.111,4.773a4.594,4.594,0,0,0,1.079,2.306,2.7,2.7,0,0,0,2.083.917.214.214,0,0,0-.015-.428" transform="translate(-27.834 -203.168)" fill="#525272"/>
        <path id="Trazado_114533" data-name="Trazado 114533" d="M59.7,409.311c-1.012.159-1.728-.719-2.224-1.472a11.06,11.06,0,0,0-.789-1.119,4.514,4.514,0,0,0-.98-.818,3.079,3.079,0,0,1-.974-.854,2.958,2.958,0,0,1-.378-1.194,7.209,7.209,0,0,0-.5-2.4c-.126-.246-.491-.019-.365.224.624,1.213.144,2.767,1.08,3.858.482.562,1.211.826,1.715,1.368s.837,1.262,1.325,1.842a2.4,2.4,0,0,0,2.11.995c.269-.042.257-.471-.015-.428" transform="translate(-29.356 -220.407)" fill="#525272"/>
      </g>
    </g>
  </g>
</svg>
