<svg xmlns="http://www.w3.org/2000/svg" xmlns:xlink="http://www.w3.org/1999/xlink" width="489.194" height="385.251" viewBox="0 0 489.194 385.251">
  <defs>
    <clipPath id="clip-path">
      <rect id="Rectángulo_33938" data-name="Rectángulo 33938" width="434.86" height="275.765" fill="none"/>
    </clipPath>
    <clipPath id="clip-path-3">
      <rect id="Rectángulo_33911" data-name="Rectángulo 33911" width="28.187" height="178.622" fill="none"/>
    </clipPath>
    <clipPath id="clip-path-4">
      <rect id="Rectángulo_33912" data-name="Rectángulo 33912" width="107.127" height="30.538" fill="none"/>
    </clipPath>
    <clipPath id="clip-path-5">
      <rect id="Rectángulo_33927" data-name="Rectángulo 33927" width="14.748" height="15.13" fill="none"/>
    </clipPath>
    <clipPath id="clip-path-7">
      <rect id="Rectángulo_33924" data-name="Rectángulo 33924" width="8.499" height="15.126" fill="none"/>
    </clipPath>
    <clipPath id="clip-path-8">
      <rect id="Rectángulo_33925" data-name="Rectángulo 33925" width="12.892" height="15.08" fill="none"/>
    </clipPath>
    <clipPath id="clip-path-9">
      <rect id="Rectángulo_33929" data-name="Rectángulo 33929" width="146.738" height="59.899" fill="none"/>
    </clipPath>
    <clipPath id="clip-path-10">
      <rect id="Rectángulo_33936" data-name="Rectángulo 33936" width="132.108" height="13.821" fill="none"/>
    </clipPath>
  </defs>
  <g id="Grupo_80804" data-name="Grupo 80804" transform="translate(-804.484 -6391)">
    <rect id="BG" width="489.194" height="385.251" transform="translate(804.484 6391)" fill="#e8e8e8" opacity="0.949"/>
    <g id="Grupo_80454" data-name="Grupo 80454" transform="translate(831.651 6470.692)">
      <g id="Grupo_80453" data-name="Grupo 80453" clip-path="url(#clip-path)">
        <g id="Grupo_80452" data-name="Grupo 80452">
          <g id="Grupo_80451" data-name="Grupo 80451" clip-path="url(#clip-path)">
            <path id="Trazado_113840" data-name="Trazado 113840" d="M492.468,130.23V298.694c0,5.9,24.009,10.67,53.624,10.67,5.738,0,11.257-.178,16.434-.512,11.631-.738,21.536-2.254,28.186-4.232,5.694-1.693,9.014-3.73,9.014-5.925V130.23Z" transform="translate(-172.193 -45.535)" fill="#ffb74d"/>
            <g id="Grupo_80396" data-name="Grupo 80396" transform="translate(390.334 84.695)" style="mix-blend-mode: soft-light;isolation: isolate">
              <g id="Grupo_80395" data-name="Grupo 80395">
                <g id="Grupo_80394" data-name="Grupo 80394" clip-path="url(#clip-path-3)">
                  <path id="Trazado_113841" data-name="Trazado 113841" d="M600.193,130.23V308.852c11.631-.738,21.536-2.254,28.186-4.232V130.23Z" transform="translate(-600.193 -130.23)" fill="#faf6f2"/>
                </g>
              </g>
            </g>
            <g id="Grupo_80399" data-name="Grupo 80399" transform="translate(320.275 84.695)" style="mix-blend-mode: soft-light;isolation: isolate">
              <g id="Grupo_80398" data-name="Grupo 80398">
                <g id="Grupo_80397" data-name="Grupo 80397" clip-path="url(#clip-path-4)">
                  <path id="Trazado_113842" data-name="Trazado 113842" d="M599.6,134.9s-25.427,34.3-107.127,23.9V130.23Z" transform="translate(-492.468 -130.23)" fill="#162842"/>
                </g>
              </g>
            </g>
            <path id="Trazado_113843" data-name="Trazado 113843" d="M481.329,123.944c0,10.01,36.409,13.642,60.868,13.642s60.88-3.632,60.88-13.642c0-2.008-1.463-3.76-4-5.276a8.017,8.017,0,0,1-1.451,1.437,13.006,13.006,0,0,1-1.792,1.181v5.246c-6.639,3.288-24.789,7.117-53.635,7.117-28.956,0-47.138-3.859-53.7-7.156a.65.65,0,0,1-.088-.049l.165-.256v-4.9a12.958,12.958,0,0,1-1.792-1.181,7.976,7.976,0,0,1-1.451-1.437c-2.54,1.516-4,3.267-4,5.276" transform="translate(-168.298 -41.493)" fill="#de8762"/>
            <path id="Trazado_113844" data-name="Trazado 113844" d="M492.215,127.872a.743.743,0,0,0,.088.049c6.563,3.3,24.746,7.156,53.7,7.156,28.846,0,47-3.829,53.635-7.117v-5.177l-.066-.029c-10.509,5.876-37.662,7.6-53.569,7.6s-43.048-1.723-53.558-7.6l-.066.029v4.833Z" transform="translate(-172.104 -42.921)" fill="#d56d48"/>
            <path id="Trazado_113845" data-name="Trazado 113845" d="M657.293,122.733l.066.03v-.07a.211.211,0,0,1-.066.04" transform="translate(-229.825 -42.9)" fill="#de8762"/>
            <path id="Trazado_113846" data-name="Trazado 113846" d="M492.468,122.693v.069l.066-.029a.263.263,0,0,1-.066-.04" transform="translate(-172.193 -42.9)" fill="#de8762"/>
            <path id="Trazado_113847" data-name="Trazado 113847" d="M492.468,122.693v.07l.066-.03a.223.223,0,0,1-.066-.04m107.193.04.066.03v-.07a.212.212,0,0,1-.066.04" transform="translate(-172.193 -42.9)" fill="#de8762"/>
            <path id="Trazado_113848" data-name="Trazado 113848" d="M485.91,111.416a4.486,4.486,0,0,0,1.022,2.8,8,8,0,0,0,1.451,1.437,13.083,13.083,0,0,0,1.792,1.181.227.227,0,0,0,.066.04c10.509,5.876,37.662,7.6,53.558,7.6s43.06-1.723,53.569-7.6a.226.226,0,0,0,.066-.04,13.084,13.084,0,0,0,1.792-1.181,8,8,0,0,0,1.451-1.437,4.485,4.485,0,0,0,1.022-2.8c0-2.146-1.627-3.957-4.4-5.492v5.492a1.454,1.454,0,0,1-.506.955,7.9,7.9,0,0,1-2.034,1.329,23.138,23.138,0,0,1-2.793,1.162c-7.87,2.8-24.272,5.67-48.171,5.67s-40.3-2.874-48.16-5.67a23.137,23.137,0,0,1-2.793-1.162,7.953,7.953,0,0,1-2.034-1.329,1.453,1.453,0,0,1-.506-.955v-5.492c-2.77,1.535-4.4,3.347-4.4,5.492" transform="translate(-169.9 -37.037)" fill="#de8762"/>
            <path id="Trazado_113849" data-name="Trazado 113849" d="M492.671,92.428c0,.945,1.77,2.166,5.222,3.406h.011c1.011.364,2.166.738,3.463,1.093,1.275.354,2.682.708,4.232,1.043,2.858.62,6.178,1.211,9.949,1.723h.022c2.836.384,5.936.728,9.289,1h.044c6.233.531,13.323.847,21.26.847s15.028-.315,21.26-.847h.044c3.353-.276,6.453-.62,9.3-1h.022c3.77-.511,7.09-1.1,9.937-1.722,1.55-.335,2.968-.689,4.244-1.043,1.3-.354,2.451-.728,3.463-1.093h.01c3.452-1.24,5.222-2.461,5.222-3.406,0-3.09-18.886-9.115-53.5-9.115s-53.492,6.024-53.492,9.115" transform="translate(-172.264 -29.131)" fill="#d56d48"/>
            <path id="Trazado_113850" data-name="Trazado 113850" d="M485.91,90.311c0,2.145,1.627,3.957,4.4,5.492a.6.6,0,0,0,.088.049,25.244,25.244,0,0,0,2.331,1.112h.011c.868.354,1.8.7,2.792,1.024,1.693.551,3.551,1.054,5.54,1.506h.011c1.616.364,3.331.708,5.1,1.014,2.144.374,4.376.708,6.662.994h.011a258.684,258.684,0,0,0,30.945,1.861,258.991,258.991,0,0,0,30.957-1.861h.011c2.286-.285,4.518-.62,6.661-.994,1.77-.306,3.485-.65,5.1-1.014h.011q3-.679,5.54-1.506c.989-.325,1.924-.669,2.793-1.024h.011a25.312,25.312,0,0,0,2.33-1.112.586.586,0,0,0,.088-.049c2.771-1.535,4.4-3.347,4.4-5.492,0-10.325-37.871-13.052-57.9-13.052S485.91,79.986,485.91,90.311m4.4,0c0-3.09,18.886-9.115,53.492-9.115s53.5,6.024,53.5,9.115c0,.945-1.77,2.166-5.222,3.406h-.01c-1.012.364-2.166.738-3.463,1.093-1.275.354-2.694.708-4.244,1.043-2.847.62-6.167,1.211-9.937,1.722H574.4c-2.847.384-5.947.728-9.3,1h-.044c-6.233.531-13.324.847-21.26.847s-15.028-.315-21.26-.847h-.044c-3.353-.276-6.453-.62-9.289-1h-.022c-3.771-.512-7.091-1.1-9.949-1.723-1.55-.335-2.957-.689-4.232-1.043-1.3-.354-2.452-.728-3.463-1.093h-.011c-3.452-1.24-5.222-2.461-5.222-3.406" transform="translate(-169.9 -27.014)" fill="#de8762"/>
            <path id="Trazado_113851" data-name="Trazado 113851" d="M492.671,105.9v5.492a1.455,1.455,0,0,0,.505.955,7.972,7.972,0,0,0,2.034,1.329A23.063,23.063,0,0,0,498,114.834c7.86,2.8,24.262,5.67,48.161,5.67s40.3-2.874,48.171-5.67a23.116,23.116,0,0,0,2.793-1.162,7.909,7.909,0,0,0,2.034-1.329,1.452,1.452,0,0,0,.505-.955V105.9c-.021-.01-.055-.03-.088-.049a25.135,25.135,0,0,1-2.33,1.112h-.011c-.869.354-1.8.7-2.793,1.024q-2.539.827-5.54,1.506h-.011c-1.616.364-3.331.709-5.1,1.014-2.144.374-4.376.709-6.662.994h-.011a259.117,259.117,0,0,1-30.957,1.86,258.809,258.809,0,0,1-30.945-1.86h-.011c-2.287-.285-4.518-.62-6.662-.994-1.77-.305-3.485-.65-5.1-1.014h-.011c-1.989-.453-3.847-.955-5.54-1.506-.989-.325-1.924-.669-2.792-1.024h-.011a25.077,25.077,0,0,1-2.331-1.112.988.988,0,0,1-.088.049" transform="translate(-172.264 -37.01)" fill="#d56d48"/>
            <line id="Línea_150" data-name="Línea 150" y2="0.098" transform="translate(427.402 68.789)" fill="#de8762"/>
            <line id="Línea_151" data-name="Línea 151" y2="0.098" transform="translate(320.407 68.789)" fill="#de8762"/>
            <line id="Línea_152" data-name="Línea 152" y2="0.64" transform="translate(427.534 85.04)" fill="#de8762"/>
            <path id="Trazado_113852" data-name="Trazado 113852" d="M482.715,84.218c0,.594,0,.993-.012.993v19.564a1.627,1.627,0,0,0,.566,1.08,8.9,8.9,0,0,0,2.3,1.5,27.767,27.767,0,0,0,3.147,1.318c.048.01.084.032.133.043a74.32,74.32,0,0,0,8.959,2.429c2.677.561,5.715,1.112,9.092,1.6,2.761.4,5.752.767,8.971,1.08,2.183.227,4.474.41,6.873.583,2.846.194,5.837.356,8.972.464q3.943.145,8.188.183c1.073.021,2.158.021,3.256.021,1.953,0,3.859-.021,5.715-.054q4.847-.081,9.285-.3,4.721-.226,8.971-.594,4.866-.4,9.092-.939,4.9-.632,8.959-1.382c2.556-.475,4.859-.972,6.885-1.49q3.2-.81,5.534-1.641a28.049,28.049,0,0,0,3.159-1.318c.084-.043.181-.086.265-.129a8.449,8.449,0,0,0,2.038-1.371,1.628,1.628,0,0,0,.567-1.08V79.1h-.025a1.465,1.465,0,0,1-.193.432.688.688,0,0,1-.121.162,5.036,5.036,0,0,1-1.338,1.123c-.253.151-.518.313-.82.464-.253.13-.518.27-.808.4-.168.075-.338.162-.53.248-.061.022-.121.044-.193.076-.193.086-.386.162-.591.237-.4.173-.832.335-1.29.5h-.012c-1.145.41-2.448.842-3.907,1.242-.278.075-.567.151-.857.226s-.579.162-.88.227c-.965.248-1.99.486-3.063.723-3.219.7-6.969,1.372-11.238,1.943h-.024c-1.206.163-2.448.313-3.738.464s-2.616.291-3.979.421c-.9.087-1.844.172-2.786.248h-.06c-.724.065-1.459.119-2.207.173q-1.086.1-2.207.162c-.542.044-1.1.076-1.652.108-.59.033-1.181.075-1.772.1l-1.182.064c-1.375.076-2.785.129-4.22.173-.109.01-.2.01-.314.01q-1.157.049-2.351.065c-.8.033-1.591.044-2.4.054s-1.591.033-2.4.033c-1.085.011-2.195.021-3.316.021-1.194,0-2.363-.01-3.509-.021l-2.616-.033-1.3-.033c-1.182-.021-2.351-.054-3.5-.1-.181-.011-.35-.011-.519-.021q-1.935-.065-3.8-.162c-.265-.011-.531-.033-.8-.044-1.5-.075-2.955-.172-4.378-.27-.615-.043-1.23-.086-1.833-.14s-1.193-.086-1.785-.141h-.048c-1.1-.086-2.159-.183-3.208-.291l-1.9-.194c-.567-.055-1.109-.119-1.664-.184-1.278-.151-2.52-.3-3.726-.464h-.024c-1.869-.248-3.642-.518-5.306-.8-.711-.119-1.411-.248-2.086-.367-1.362-.259-2.653-.518-3.858-.778-1.749-.378-3.34-.777-4.787-1.176s-2.761-.832-3.907-1.242H488.6c-2.81-1.015-4.642-2.008-5.426-2.883a.821.821,0,0,1-.169-.194.77.77,0,0,1-.133-.194,1.126,1.126,0,0,1-.181-.572s.024,3.541.024,5.322" transform="translate(-168.774 -27.586)" fill="#acd7e1"/>
            <path id="Trazado_113853" data-name="Trazado 113853" d="M482.691,73.358a1.126,1.126,0,0,0,.181.572.772.772,0,0,0,.133.194,2.368,2.368,0,0,0,.169.194c.784.875,2.616,1.868,5.426,2.883h.012c1.145.41,2.448.842,3.907,1.242s3.038.8,4.787,1.177c1.206.259,2.5.518,3.858.777.676.118,1.362.248,2.086.367,1.664.281,3.436.551,5.306.8h.024c1.206.162,2.448.313,3.726.464.542.064,1.1.118,1.664.183.627.065,1.254.129,1.9.194,1.049.108,2.11.2,3.208.291h.048c.591.054,1.182.1,1.785.14s1.217.1,1.833.14c1.423.1,2.882.194,4.377.27.265.01.531.032.8.043q1.863.1,3.8.162c.169.011.338.011.519.021,1.145.044,2.315.075,3.5.1l1.3.033,2.616.032c1.146.011,2.315.022,3.509.022,1.121,0,2.231-.011,3.316-.022.808,0,1.6-.01,2.4-.032s1.6-.033,2.4-.055,1.567-.032,2.352-.064a2.969,2.969,0,0,0,.313-.011c1.435-.043,2.845-.108,4.22-.172l1.182-.065,1.773-.1c.554-.033,1.109-.065,1.651-.108q1.122-.065,2.207-.162c.747-.054,1.483-.108,2.207-.173h.061c.94-.075,1.881-.162,2.785-.248q2.045-.194,3.979-.421c1.29-.152,2.532-.3,3.738-.464h.024c4.269-.572,8.019-1.242,11.238-1.943,1.073-.238,2.1-.475,3.063-.724.3-.075.59-.151.88-.226s.579-.152.857-.227c1.459-.4,2.761-.831,3.907-1.242h.012c.458-.162.892-.324,1.29-.5.205-.075.41-.162.591-.237.072-.033.133-.054.193-.075.181-.086.362-.162.53-.248.289-.129.555-.27.808-.4.3-.152.567-.313.82-.464a5.048,5.048,0,0,0,1.338-1.122,1.427,1.427,0,0,0,.121-.163,1.464,1.464,0,0,0,.193-.432,1.149,1.149,0,0,0,.025-.2c0-3.5-21.355-10.3-60.472-10.3q-5.788,0-11.046.194c-.856.021-1.688.054-2.52.1l-2.134.1c-.447.021-.881.044-1.327.075-2.617.14-5.125.324-7.512.529q-.724.064-1.411.129c-5.631.518-10.6,1.188-14.892,1.943-.531.086-1.037.183-1.543.281-.338.064-.663.129-.989.194s-.663.118-.976.194-.639.13-.941.194c-.928.184-1.82.389-2.664.6-.567.14-1.109.27-1.64.41-.265.054-.518.129-.771.2-.519.14-1,.281-1.472.421s-.928.28-1.35.421c-.4.129-.772.259-1.134.378a.471.471,0,0,0-.109.043c-.591.206-1.145.411-1.652.626-2.64,1.08-4.112,2.138-4.353,3.012a.887.887,0,0,0-.036.248" transform="translate(-168.774 -22.048)" fill="#c9edf0"/>
            <path id="Trazado_113854" data-name="Trazado 113854" d="M570.668,94.683v25.879c1.073.021,2.159.021,3.256.021,1.954,0,3.859-.021,5.716-.054V94.65c-1.857.033-3.762.054-5.716.054-1.1,0-2.183,0-3.256-.021" transform="translate(-199.536 -33.095)" fill="#bae2e8"/>
            <path id="Trazado_113855" data-name="Trazado 113855" d="M598.74,93.86v25.879q4.721-.226,8.971-.594V93.255q-4.25.373-8.971.6" transform="translate(-209.351 -32.607)" fill="#bae2e8"/>
            <path id="Trazado_113856" data-name="Trazado 113856" d="M626.514,91.08v25.89q4.9-.632,8.959-1.382V89.719c-2.267.41-4.739.81-7.416,1.166h-.024q-.741.1-1.519.194" transform="translate(-219.063 -31.371)" fill="#bae2e8"/>
            <path id="Trazado_113857" data-name="Trazado 113857" d="M650.878,85.746v25.879q3.2-.81,5.534-1.641a27.933,27.933,0,0,0,3.159-1.318c.085-.043.181-.086.265-.129V82.648a26.114,26.114,0,0,1-3.3,1.4h-.012c-1.145.41-2.448.842-3.907,1.242q-.832.226-1.736.453" transform="translate(-227.581 -28.898)" fill="#bae2e8"/>
            <path id="Trazado_113858" data-name="Trazado 113858" d="M492.165,84.938v25.89a74.429,74.429,0,0,0,8.959,2.43V87.378c-.169-.033-.338-.075-.507-.108-1.748-.378-3.34-.777-4.787-1.177-1.362-.367-2.58-.766-3.665-1.155" transform="translate(-172.087 -29.699)" fill="#bae2e8"/>
            <path id="Trazado_113859" data-name="Trazado 113859" d="M519.921,91.164v25.868c2.761.4,5.752.767,8.971,1.08V92.233c-2.58-.248-5.016-.54-7.295-.842h-.024l-1.652-.227" transform="translate(-181.792 -31.876)" fill="#bae2e8"/>
            <path id="Trazado_113860" data-name="Trazado 113860" d="M544.284,93.687v25.89c2.846.194,5.836.356,8.971.464V94.162q-4.7-.161-8.971-.475" transform="translate(-190.311 -32.758)" fill="#bae2e8"/>
            <path id="Trazado_113861" data-name="Trazado 113861" d="M603.114,75.006c-.406,1.552-2.657,2.17-3.948,2.778l-2.114.717.153-.026h-.012l-.043,0-.113.029C584.7,81.988,572.42,82.73,559.95,83.413a356.881,356.881,0,0,1-41.162-.626c-8.766-.739-18.632-1.72-27.854-4.267l-2.383-.7-.282-.083-.178,0c-.055,0,.462.08.451.081-1.841-.656-4-1.32-5.267-2.637a.041.041,0,0,1,.023.054l-.044-.085c-.109-.183-.073-.113-.077-.209,1.082-1.67,3.542-2.41,5.43-3.295A105.961,105.961,0,0,1,501.8,67.772c-4.165.471-23.935,3.328-20.108,8.589,1.282,1.564,3.779,2.656,5.922,3.517l.19.075.274.006h.012l-.46-.079c1.645.531,3.273,1.185,4.946,1.614a119,119,0,0,0,15.3,3.182A249.986,249.986,0,0,0,577.4,84.27c5.749-.855,14.576-2.852,19.957-5.073a23.768,23.768,0,0,0,3.9-1.976c.828-.551,1.776-1.238,1.85-2.216" transform="translate(-168.255 -23.697)" fill="#acd7e1"/>
            <path id="Trazado_113862" data-name="Trazado 113862" d="M214.57,368.114c-26.141,9.374-56.15,8.573-82.6,2.789-.84-2.424-1.537-5.4-.57-6.9,1.775-2.757,36.9-7.219,49.113-13.011,19.469,2.726,26.807,3.954,26.807,3.954a3.666,3.666,0,0,1,1.109-.547,4.142,4.142,0,0,1,.84-.174,3.5,3.5,0,0,1,.594-.016,3.121,3.121,0,0,1,1.584.507c1.253.793,2.544,2.774,2.876,7.528.159,2.266.23,4.224.246,5.872" transform="translate(-45.78 -122.725)" fill="#bee636"/>
            <path id="Trazado_113863" data-name="Trazado 113863" d="M237.551,337.812l.555,1.957a3.124,3.124,0,0,0-1.586-.507,3.5,3.5,0,0,0-.594.016,4.15,4.15,0,0,0-.841.174,3.656,3.656,0,0,0-1.109.547s-7.337-1.228-26.807-3.954l22.045-27.8,20.729,14.461c-4.39,4.286-9.532,11.141-12.392,15.1" transform="translate(-72.437 -107.78)" fill="#c9edf0"/>
            <path id="Trazado_113864" data-name="Trazado 113864" d="M215.133,377.318a50.572,50.572,0,0,1-.233,6.3s-10.764,4.732-43.18,4.761-37.643-4.533-37.643-4.533a36.544,36.544,0,0,1-1.546-3.737c26.446,5.782,56.455,6.585,82.6-2.789" transform="translate(-46.34 -131.93)" fill="#685fd6"/>
            <path id="Trazado_113865" data-name="Trazado 113865" d="M183.292,373.3c-26.141,9.374-56.15,8.574-82.6,2.789-.84-2.424-1.537-5.4-.57-6.9,1.775-2.758,36.9-7.219,49.112-13.011,19.47,2.726,26.807,3.954,26.807,3.954a3.657,3.657,0,0,1,1.109-.547,4.148,4.148,0,0,1,.841-.174,3.494,3.494,0,0,1,.594-.016,3.12,3.12,0,0,1,1.584.507c1.253.793,2.544,2.774,2.877,7.528.159,2.266.23,4.224.246,5.872" transform="translate(-34.844 -124.538)" fill="#daff60"/>
            <path id="Trazado_113866" data-name="Trazado 113866" d="M133.868,349.756a34.357,34.357,0,0,0,10.355,6.384c.514.2.963-.505.442-.71a33.874,33.874,0,0,1-9.164-5.386,23.574,23.574,0,0,1,3.971,1.132c1.723.624,3.434,1.275,5.15,1.913a.418.418,0,0,0,.429-.684l-4.992-4.559c-.812-.741-1.688-1.454-2.449-2.241-.3-.314-.713-.917.048-.918a5.735,5.735,0,0,1,1.336.261c3.9.987,7.234,3.272,10.448,5.47.406.278.887-.33.535-.642q-2.246-1.989-4.322-4.134-.9-.931-1.761-1.889c-.31-.343-.619-.688-.919-1.04-.176-.206-.7-.738-.431-1.028.22-.238.86-.02,1.121.048q.6.156,1.184.334,1.177.353,2.327.782a36.057,36.057,0,0,1,6.325,3.11,31.924,31.924,0,0,1,2.611,2.484.462.462,0,0,0,.694-.081c.218-.325.411-.659.6-.992.259-.012.494-.192.377-.476-.015-.036-.034-.072-.049-.108a24.056,24.056,0,0,0,2.545-9.9,48.33,48.33,0,0,0-.015-5.465,42.7,42.7,0,0,0-.563-5.511,13.694,13.694,0,0,0-1.907-5.092c-.369-.559-.96-1.13-1.719-.812s-.951,1.3-1.072,1.98a28.841,28.841,0,0,0-.129,6.223c.089,2.112.259,4.22.432,6.328.237,2.883.475,5.772.535,8.663a34.971,34.971,0,0,0-6.264-7.255,35.3,35.3,0,0,0-10.572-6.989,6.644,6.644,0,0,0-2.891-.713,1.341,1.341,0,0,0-1.236,1.616,5.494,5.494,0,0,0,1.335,2.246,25.4,25.4,0,0,0,1.833,2.051c3.41,3.431,7.634,5.986,11.6,8.819a37.95,37.95,0,0,0-3.935-1.5c-.95-.3-3.944-1.527-4.113.281-.075.806.7,1.493,1.2,2.06q1.017,1.151,2.085,2.263c.345.359.7.7,1.057,1.055-.405-.245-.814-.485-1.23-.715-1.018-.564-8.639-4.333-8.4-1.4.061.741.792,1.288,1.316,1.766l2.262,2.066,2.956,2.7c-1.111-.418-2.224-.833-3.342-1.234a19.868,19.868,0,0,0-5.328-1.256.412.412,0,0,0-.318.7m16.447-11.967a30.826,30.826,0,0,1,5.546,7.093q0,.8-.034,1.611c-.585-.411-1.178-.81-1.787-1.188a78.4,78.4,0,0,0-6.568-4.881,63.4,63.4,0,0,1-8.451-6.507c-.609-.592-1.19-1.209-1.734-1.853a6.8,6.8,0,0,1-1.5-2.193c-.384-1.336,1.556-.631,2.208-.409a21.025,21.025,0,0,1,2.786,1.193,40.225,40.225,0,0,1,9.531,7.134m6.97,8q-.259-.54-.544-1.067c.012-3.532-.292-7.06-.58-10.581-.156-1.907-.306-3.814-.39-5.725a36.44,36.44,0,0,1,.023-5.752,5.147,5.147,0,0,1,.347-1.523c.051-.114.161-.356.306-.395.222-.059.4.2.5.336a9.414,9.414,0,0,1,1.185,2.314,20.06,20.06,0,0,1,1.048,5.062c.558,5.722.689,12-1.893,17.33" transform="translate(-46.765 -111.859)" fill="#fff"/>
            <path id="Trazado_113867" data-name="Trazado 113867" d="M206.272,343l.555,1.957a3.122,3.122,0,0,0-1.585-.507,3.5,3.5,0,0,0-.594.016,4.127,4.127,0,0,0-.84.174,3.655,3.655,0,0,0-1.109.547s-7.338-1.228-26.807-3.954l22.045-27.8L218.665,327.9c-4.39,4.287-9.532,11.141-12.393,15.1" transform="translate(-61.501 -109.593)" fill="#fff"/>
            <path id="Trazado_113868" data-name="Trazado 113868" d="M183.854,382.5a50.408,50.408,0,0,1-.233,6.3s-10.763,4.732-43.18,4.761S102.8,389.03,102.8,389.03a36.537,36.537,0,0,1-1.546-3.737c26.446,5.782,56.455,6.585,82.6-2.789" transform="translate(-35.403 -133.744)" fill="#887eec"/>
            <path id="Trazado_113869" data-name="Trazado 113869" d="M328.7,107.5c-.206,2.773-2.33,4.612-4.414,6.157-2.448,1.814-4.881,3.526-5.776,6.609-2,6.91,2.663,13.637,2.583,20.523a11.218,11.218,0,0,1-3.32,8.075,21.144,21.144,0,0,1-7,4.1c-2.718,1.109-5.523,2.013-8.122,3.384a22.163,22.163,0,0,0-4.009,2.742,25.139,25.139,0,0,0-3.225,6.252c-2.195,6.3-1.458,14.121-6.743,19-5.333,4.937-13.177,4.675-19.945,4.668a56.278,56.278,0,0,0-6.228.261,29.85,29.85,0,0,0-5.871,1.339c-3.511,1.149-7.084,2.75-10.848,2.726a10.093,10.093,0,0,1-4.762-1.18,16.1,16.1,0,0,1-3.4-2.638c-2.077-2.005-4.065-4.549-6.942-5.4-3.653-1.078-7.171,1.133-10.365,2.607a18.83,18.83,0,0,1-9.588,1.87,17.94,17.94,0,0,1-15.1-10.539,18.285,18.285,0,0,1,2.235-18.653c4.453-6.03,11.22-9.541,17.163-13.859a42.152,42.152,0,0,0,3.812-3.1,10.42,10.42,0,0,0,2.908-4.5c0-.016.008-.024.008-.032,1.014-3.217,1.442-6.593,2.464-9.81a16.47,16.47,0,0,1,5.134-7.932,26.567,26.567,0,0,1,8.431-4.438c6.585-2.258,14.01-2.947,19.6-7.48,4.454-3.613,7.219-8.8,10.595-13.336a29.008,29.008,0,0,1,5.61-5.958,16.852,16.852,0,0,1,8.732-3.336,30.369,30.369,0,0,1,11.046,1.426A97.894,97.894,0,0,1,304.029,90.9c.689.293,16.284,7.979,20.048,10.238,5.389,2.757,4.85,3.28,4.628,6.363" transform="translate(-67.848 -29.91)" fill="#363b7e"/>
            <path id="Trazado_113870" data-name="Trazado 113870" d="M385.013,109.519c-3.31,3.126-6.167,7.054-9.446,9.924a13.162,13.162,0,0,1-7.387,2.754c.11.253.217.508.322.761.637,1.53,1.291,3.065,1.928,4.595a39.905,39.905,0,0,1,13.895,7.286,11.893,11.893,0,0,1,3.946,5.275,14.177,14.177,0,0,1,.886,4.6h.028l.005.011L403.1,113.87Z" transform="translate(-128.735 -38.294)" fill="#e5ad8a"/>
            <path id="Trazado_113871" data-name="Trazado 113871" d="M375.566,123.422a13.151,13.151,0,0,1-7.387,2.754q.165.379.323.76c.641,1.53,1.288,3.063,1.93,4.593a39.913,39.913,0,0,1,13.9,7.286,11.989,11.989,0,0,1,3.944,5.275s.666-8.208-10.124-23.19c-.841.893-1.7,1.747-2.581,2.522" transform="translate(-128.735 -42.273)" fill="#e48858"/>
            <path id="Trazado_113872" data-name="Trazado 113872" d="M370.335,148.672c.142,4.017-.967,8.344-1.87,12.457-1.712,7.9-5.516,5.1-7.307,4.786s-2.322,1.926-3.993.824a4.172,4.172,0,0,1-1.657-3.217c-.118,1.086-2.123,2.679-2.607,2.235s-4.39-2.583-4.96-2.337-1.807,2.393-2.345,3.455a2.784,2.784,0,0,1-3.559,1.078c-1.411-.65-1.386-1.054-3.043-3.669a21.849,21.849,0,0,0-2.963-3.17,4.486,4.486,0,0,0-4.913-.84,6.61,6.61,0,0,1-2.5.792c-2.543-.5-2.441-2.528-7.37-2.488a15.772,15.772,0,0,1-6.893-1.711,8.062,8.062,0,0,0,1.64-1.53,16.29,16.29,0,0,1,9.873-5.745c7.647-1.189,10.4-7.964,10.4-15.08a10.405,10.405,0,0,0-.072-1.189l-.142-.008a13.3,13.3,0,0,1-1.783-9.026,3.888,3.888,0,0,1,.888-2.14,4.537,4.537,0,0,1,2.884-1.062,21.306,21.306,0,0,1,4.707-.206,7.559,7.559,0,0,1,4.294,1.7,6.676,6.676,0,0,1,1.189,1.4,17.012,17.012,0,0,1,1.442,2.924c.642,1.53,1.292,3.059,1.933,4.588a39.933,39.933,0,0,1,13.891,7.29,11.816,11.816,0,0,1,3.946,5.278,13.975,13.975,0,0,1,.888,4.6" transform="translate(-109.914 -42.245)" fill="#e5ad8a"/>
            <path id="Trazado_113873" data-name="Trazado 113873" d="M337.5,173.432a10.525,10.525,0,0,0,1.183-2.289,12.487,12.487,0,0,0,.313-2.126c.41-1.344.862-3.113,2.118-3.9l-.033-.263c-1.777.143-3.072,1.945-3.974,3.442a5.167,5.167,0,0,0-.97,2.624,3.41,3.41,0,0,0,1.107,2.565Z" transform="translate(-117.529 -57.641)" fill="#363b7e"/>
            <path id="Trazado_113874" data-name="Trazado 113874" d="M362.727,182.165a1.027,1.027,0,0,0,1.183-1.675c-1.2.114-1.47.509-1.183,1.675" transform="translate(-126.792 -63.109)" fill="#363b7e"/>
            <path id="Trazado_113875" data-name="Trazado 113875" d="M373.633,187.039a9.094,9.094,0,0,1,3.453-5.35l-.848,3.118s-.675,3.068-2.605,2.233" transform="translate(-130.642 -63.528)" fill="#e48858"/>
            <path id="Trazado_113876" data-name="Trazado 113876" d="M345.291,174.936a5.14,5.14,0,0,0,2.746-5.17,2.254,2.254,0,0,0-1.147-1.784c.16,2.478-1.391,4.508-1.6,6.954" transform="translate(-120.732 -58.735)" fill="#363b7e"/>
            <path id="Trazado_113877" data-name="Trazado 113877" d="M370.161,137.8c-3.611-2.153-8.189-1.677-12.072-.594,4.106.092,8.043-.436,12.072.594" transform="translate(-125.207 -47.655)" fill="#e48858"/>
            <path id="Trazado_113878" data-name="Trazado 113878" d="M349.277,127.154a9.148,9.148,0,0,0,6.994,4.971c.944.1,2.227.271,2.93-.524a5.41,5.41,0,0,1-2.579-.753c-2.586-1.061-4.85-2.383-7.345-3.694" transform="translate(-122.126 -44.46)" fill="#e48858"/>
            <path id="Trazado_113879" data-name="Trazado 113879" d="M334.294,139.848c4.943,3.362,5.722,10.893,1.592,15.383-2.568,3.085-6.721,3.82-10.4,4.552-1.831.343-3.653.765-5.49,1.035-3.539.5-7.486,1.255-9.323,4.688,1.178-3.8,5.592-5.229,9.1-5.9l5.381-1.283c3.433-.805,7.19-1.351,9.617-4.089a10.312,10.312,0,0,0-.48-14.382" transform="translate(-108.628 -48.898)" fill="#363b7e"/>
            <path id="Trazado_113880" data-name="Trazado 113880" d="M273.32,97.643c-1.377,5.449-5.791,9.565-10.579,12.22-7.309,3.963-15.769,4.84-23.489,7.644-6.142,2.242-12.335,6.211-14.624,12.6-1.336,3.927-1.147,8.157-3.278,11.987-2.832,5.022-8.064,7.694-12.309,11.175-4.995,4.282-9.931,9.693-11.071,16.376a14.431,14.431,0,0,0,10.382,15.419,14.66,14.66,0,0,1-11.267-15.532c1.02-7,5.9-12.823,11.085-17.321,4.11-3.448,9.215-6.1,11.853-10.846,1.924-3.486,1.75-7.95,3.148-11.775,2.494-6.816,9.074-11.052,15.623-13.368,7.749-2.742,16.257-3.3,23.587-7.038,4.834-2.409,9.241-6.253,10.94-11.538" transform="translate(-68.883 -34.141)" fill="#363b7e"/>
            <path id="Trazado_113881" data-name="Trazado 113881" d="M269.266,97.012c-8.68,11.885-35.541,9.514-48.518,22.849a23.162,23.162,0,0,0-5.025,7.2c-2.316,5.528-2.938,12.062-6.637,17.048-4.407,6.271-11.038,10.5-15.083,16.978-3.97,6.137-4.486,14.879.078,20.845,3.585,4.743,10.283,7.243,16.034,5.209-5.761,2.408-12.757.015-16.642-4.725-6.083-7.545-4.11-18.967,2.122-25.794,3.894-4.666,8.8-8.416,12.247-13.376,3.581-5.027,4.042-11.189,6.5-16.793a24.658,24.658,0,0,1,5.4-7.619c13.8-13.865,40.02-10.342,49.525-21.82" transform="translate(-66.361 -33.921)" fill="#363b7e"/>
            <path id="Trazado_113882" data-name="Trazado 113882" d="M293.309,87c-.407,12.726-11.665,21.861-22.726,26.135-5.65,2.333-11.555,3.845-17.314,5.633-5.627,1.757-11.541,3.6-15.863,7.718-5.36,4.985-4.754,9.465-5.306,16.2a23.506,23.506,0,0,1-5.713,12.595c-5.091,5.666-12.8,8.337-17.281,14.565a12.841,12.841,0,0,0,.74,16.447,13.132,13.132,0,0,1-1.377-16.891c5.159-7.568,15.067-10.417,19.462-18.588a22.142,22.142,0,0,0,2.738-8.3c.476-6.993-.046-11.769,5.649-17.172,4.586-4.3,10.7-6.178,16.534-7.947,5.82-1.731,11.665-3.265,17.286-5.384,10.986-3.981,22.115-12.568,23.173-25.007" transform="translate(-72.039 -30.419)" fill="#52569c"/>
            <path id="Trazado_113883" data-name="Trazado 113883" d="M310.643,90.993c3.076,11.279-4.961,22.177-14.382,27.577-13.909,8.492-32.234,9.677-43.28,22.527a21.4,21.4,0,0,0-4.025,6.845,17.218,17.218,0,0,0-.469,7.866c.791,5.351,2.387,11.27-.14,16.467a18.25,18.25,0,0,1-5.2,6.485c-1.979,1.74-4.046,4.175-3.328,6.991-1.3-4.492,3.522-7.218,5.829-10.279a15.785,15.785,0,0,0,3.033-11.386c-.27-2.688-.968-5.346-1.4-8.1-1.221-5.9.766-11.338,4.593-15.808,7.268-8.778,18.424-12.516,28.758-16.14,10.1-3.612,20.976-7.93,26.867-17.4a21.225,21.225,0,0,0,3.145-15.644" transform="translate(-83.778 -31.816)" fill="#52569c"/>
            <path id="Trazado_113884" data-name="Trazado 113884" d="M318.228,133.551c-3.224,13.727-19.544,15.41-29.666,21.917-5.2,3.242-9.563,8.306-10.2,14.52-.506,4.219,1.615,7.965,2.937,11.916,3.622,10.5-1.651,22.721-11.857,27.085a22.116,22.116,0,0,0,11.734-20.606c-.574-9.8-7.858-14.058-2.468-24.885,4.12-7.973,12.809-11.713,20.728-14.626,7.683-2.86,16.3-6.8,18.791-15.321" transform="translate(-94.212 -46.697)" fill="#52569c"/>
            <path id="Trazado_113885" data-name="Trazado 113885" d="M321.012,179.878c-6.118,8.045-1.807,18.268-3.133,27.456a22.477,22.477,0,0,1-8.559,14.6,26.107,26.107,0,0,0,7.071-14.8c1.01-8.949-2.856-20.172,4.621-27.259" transform="translate(-108.155 -62.895)" fill="#52569c"/>
            <path id="Trazado_113886" data-name="Trazado 113886" d="M263.741,241.757l-19.6,3.193a23.165,23.165,0,0,1-4.643-12.219,3.7,3.7,0,0,1-.023-.373,13.32,13.32,0,0,1,.079-2.393l6.791-5.064c1.815-2.037,11.894-3.637,11.894-3.637Z" transform="translate(-83.726 -77.366)" fill="#acdb10"/>
            <path id="Trazado_113887" data-name="Trazado 113887" d="M342.116,325.75s-23.344.879-34.81-14.1-22.9-59.913-22.9-59.913c-5.507-.222-11.894-5.84-11.894-5.84l-28.193,50.555c-9.7-.444-15.111-4.525-15.111-4.525S218.874,288.3,214.135,274.2c0,0,32.837-66.681,40.761-78.337a6.625,6.625,0,0,1,2.124-1.989c3.035-1.807,11.26-5.793,20.761-2.884,0,0,29.755,11.4,60.928,47.742Z" transform="translate(-74.873 -66.421)" fill="#232558"/>
            <path id="Trazado_113888" data-name="Trazado 113888" d="M397.928,301.256s-8.15,27.646-26.434,29.848-37.2-.22-44.924-9.252S297.59,294.207,279.2,251.8c0,0-6.306.313-6.628-3.525,0,0-10.554,14.869-20.246,20.487s-31.06,25.773-31.06,25.773-21.477-8.04-22.028-18.5c0,0,36.361-53.928,41.743-58.626s17.961-19.939,22.276-22.438c7.575-4.384,20.5-6,22.394-3.908S333.5,238.806,333.5,238.806s69.719,35.906,64.432,62.45" transform="translate(-69.663 -66.488)" fill="#363b7e"/>
            <path id="Trazado_113889" data-name="Trazado 113889" d="M394.392,302.738c-4.441,10.394-11.094,21.379-22.536,24.942-11.678,3.805-23.647-1.926-31.128-10.982a79.568,79.568,0,0,1-9.51-14.514c-7.861-14.79-16.336-31.085-24.179-45.754a135.713,135.713,0,0,0-8.93-14.632c-1.66-2.305-3.362-4.629-5.72-5.888-2.183-1.195-5.353-1.219-6.935.909-1.573,1.871-2.508,7.134-5.857,6.677-.955-.324-1.319-1.036-1.906-1.665-1.252-1.476-2.657-3.148-4.717-3.174-3.559-.069-2.059,4.212-3.705,6.214-1.729,2.36-5.207,2.637-6.336,5.471-1.063,2.557-.86,5.619-1.638,8.333-2.133,8.58-8.285,15.46-14.7,21.166-8.6,7.536-18.6,13.933-24.388,24.083a50.789,50.789,0,0,1,10.859-13.337c8.356-7.716,18.253-14.311,24.008-24.338a28.541,28.541,0,0,0,3.8-12.021c.192-3,1.15-6.281,4.089-7.742a10.407,10.407,0,0,0,3.227-2.387c.732-.941.623-2.345.99-3.906.547-2.813,3.9-3.58,6.193-2.309a11.884,11.884,0,0,1,3.383,3.042c.984,1.121,1.21,1.795,2.378.54,1.873-2.112,2.188-5.69,5.044-7.115,5.5-2.674,10.36,2.353,13.16,6.563a136.1,136.1,0,0,1,9.092,14.762c7.79,14.715,16.208,31.053,23.993,45.862a83.248,83.248,0,0,0,9.229,14.376c7.16,8.879,18.6,14.556,29.982,11.028,11.3-3.256,18.065-14.074,22.759-24.2" transform="translate(-77.694 -81.679)" fill="#232558"/>
            <path id="Trazado_113890" data-name="Trazado 113890" d="M343.339,216.186c-8.033-7.376-15.745-15.15-23.364-22.925-4.119-4.677-9.054-3.538-14.469-2.3a49.813,49.813,0,0,0-14.863,6.394,41.2,41.2,0,0,1,14.542-7.588c5.953-1.68,11.268-2.692,15.9,2.372,7.629,7.858,15.083,15.782,22.252,24.053" transform="translate(-101.624 -65.872)" fill="#232558"/>
            <path id="Trazado_113891" data-name="Trazado 113891" d="M426.088,231.612c-2.979,13.55-5.016,25.278-4.85,32.164s-5.452,14.207-9.469,10.46S383.3,234.75,359.779,227.206l-12.441-15.42s.6-.27,3.962-3.63a12.4,12.4,0,0,1-1.1-5.729c.277-2.86,1.046-6.64.444-8.36s-8.32-4.469-9.144-7.718c0,0-3.693,6.554-25,14.754s-21.26,14.375-35.357,17.845-33.376,10.682-33.376,10.682-.476-.515-1.221-1.426c-2.409-2.964-7.575-10.111-7.726-16.973v-.008a11.949,11.949,0,0,1,.507-3.844s1.189-1.022,3.138-2.512a90.743,90.743,0,0,1,11.91-7.837c7.932-4.24,13.716-10.468,22.719-13s8.344-10.959,28.17-15.42c0,0,11.783-13.439,18.169-21.039s15.658-11.561,15.658-11.561,2.741-9.532,11.767-11.323a17.2,17.2,0,0,1,8.265-11.806s1.157,2.147,10.571,3.629,18.558-.174,24.121,13.106,25.167,26.323,27.2,58.376,8.043,30.071,5.071,43.614" transform="translate(-83.502 -39.471)" fill="#daff60"/>
            <path id="Trazado_113892" data-name="Trazado 113892" d="M422.218,190.154c-6.684,7.73-17.191,10.013-26.216,13.84a41.2,41.2,0,0,0-8.578,4.705,95.486,95.486,0,0,0-7.415,6.539,56.717,56.717,0,0,1-26.472,13.527,63.425,63.425,0,0,0,25.64-14.436,91.891,91.891,0,0,1,7.475-6.676,41.5,41.5,0,0,1,8.878-4.793c9.128-3.721,19.443-5.55,26.687-12.706" transform="translate(-123.616 -66.488)" fill="#685fd6"/>
            <path id="Trazado_113893" data-name="Trazado 113893" d="M427.048,253.981a157.23,157.23,0,0,1,53.507,27.273,290.589,290.589,0,0,0-53.507-27.273" transform="translate(-149.319 -88.805)" fill="#685fd6"/>
            <path id="Trazado_113894" data-name="Trazado 113894" d="M467.382,294.944c-10.674-12.632-25.124-21.445-40.409-27.4-2.449-.832-5.042-2.225-7.634-2.038a3.117,3.117,0,0,0-1.461.44c-.007.017.007-.021,0-.013a.5.5,0,0,0,.107.172c13.276,12.412,30.3,20.431,42.394,34.219,3.659,4.12,7.188,8.335,10.74,12.543-3.767-4.009-7.407-8.146-11.207-12.109-11.311-12.195-26.255-19.713-38.988-30.326-1.065-.884-2.091-1.814-3.113-2.75a3.105,3.105,0,0,1-1.169-1.513,1.236,1.236,0,0,1,.235-.985,2.259,2.259,0,0,1,1.213-.7,9.072,9.072,0,0,1,5.423.5,118.13,118.13,0,0,1,18.829,8.624,84.516,84.516,0,0,1,25.037,21.345" transform="translate(-145.673 -92.393)" fill="#685fd6"/>
            <path id="Trazado_113895" data-name="Trazado 113895" d="M469.026,159.448c-1.377-8.488-2.261-17.908-9.111-23.959,8.192,4.677,9.621,15.361,9.111,23.959" transform="translate(-160.811 -47.374)" fill="#685fd6"/>
            <path id="Trazado_113896" data-name="Trazado 113896" d="M425.651,126.482c-9.258-4.244-18.025-1.428-26.374,3.265-7.687,3.818-9.136,6.733-11.125,14.881-1.362,5.2-3.795,10.028-5.9,14.946,1.606-5.069,3.759-10,4.919-15.191,1.7-8.392,3.587-11.927,11.518-15.758,8.609-4.738,17.88-7.335,26.966-2.142" transform="translate(-133.654 -43.226)" fill="#685fd6"/>
            <path id="Trazado_113897" data-name="Trazado 113897" d="M413.534,230.612c7.176-3.115,14.254-6.257,21.385-9.472a50.183,50.183,0,0,1-21.385,9.472" transform="translate(-144.593 -77.322)" fill="#685fd6"/>
            <path id="Trazado_113898" data-name="Trazado 113898" d="M298.074,221.515a42.27,42.27,0,0,0,13.24,17.435c1.43,1.026,2.8,2.265,4.534,2.477,1.79.146,1.647-.866,1.028-2.1-1.654-3.674-4.518-6.492-6.812-9.819a22.63,22.63,0,0,1-4.184-14.211,24.455,24.455,0,0,0,5.007,13.616c1.483,1.949,3.15,3.79,4.673,5.8a22.271,22.271,0,0,1,2.482,4.084,4.247,4.247,0,0,1,.552,2.094c-.057,1.446-1.782,2-2.873,1.813-2.033-.237-3.652-1.64-5.164-2.789a38.323,38.323,0,0,1-5.4-5.275,36.766,36.766,0,0,1-7.086-13.127" transform="translate(-104.222 -75.278)" fill="#685fd6"/>
            <path id="Trazado_113899" data-name="Trazado 113899" d="M225.576,248.52c-1.949,1.49-3.138,2.512-3.138,2.512a11.949,11.949,0,0,0-.507,3.844v.008c-1.878,1.268-3.962,2.337-5.625,2.322,0,0-.4,7.932-4.406,8.74s-2.971-1.838-3.669-6.608c0,0-1.91,6.307-4.628,7.559,0,0,4.033,5,3.851,9.224s-1.941,3.7-1.941,3.7.586,3.011-1.91,2.94-7.417-5.119-7.417-5.119l-2.568,4.232s-4.113-3.74-2.869-5.943a53.13,53.13,0,0,0,2.789-6.688s-.325-4.588,1.91-6.308c0,0-.547-1.323.737-4.335s7.852-12.3,10.649-13.954,15.508-6.918,15.508-6.918c0,.032,0,.166.016.388a3.559,3.559,0,0,0,.024.373,22.6,22.6,0,0,0,3.193,10.032" transform="translate(-66.614 -83.122)" fill="#e5ad8a"/>
            <path id="Trazado_113900" data-name="Trazado 113900" d="M225.238,281.074l-9.794,2.71s-.879,15.071-16.735,19.2L188.392,313.23s-4.889-.658-6.094-4.517c0,0-3.97-2.259-4.405-4.295s9.913-10.024,9.913-10.024l1.395-3.3s10.166-23.02,15.15-24.445a119.553,119.553,0,0,1,13.162-2.552c.142,6.862,5.317,14.018,7.726,16.981" transform="translate(-62.196 -92.341)" fill="#e5ad8a"/>
            <path id="Trazado_113901" data-name="Trazado 113901" d="M195.723,317.407c-1,2.553-3.009,4.8-4.7,6.811a1.218,1.218,0,0,0-.2.613,19.731,19.731,0,0,0,.338,2.9c.237,1.337.563,2.667.908,4.058a12.79,12.79,0,0,1-2.675-5.833,3.351,3.351,0,0,1,.271-2.551,27.546,27.546,0,0,1,3-3.116c.99-.966,1.979-1.941,3.063-2.88" transform="translate(-66.177 -110.982)" fill="#e48858"/>
            <path id="Trazado_113902" data-name="Trazado 113902" d="M189.111,316.416a23.96,23.96,0,0,1-4,6.564c-.939,1.175-.933,2.514-1.247,4.056a5.277,5.277,0,0,1,.9-6.185,21.607,21.607,0,0,1,4.347-4.435" transform="translate(-64.072 -110.636)" fill="#e48858"/>
            <path id="Trazado_113903" data-name="Trazado 113903" d="M195.823,299.557a15.491,15.491,0,0,1-4.135,9.025,15.487,15.487,0,0,1,4.135-9.025" transform="translate(-67.024 -104.741)" fill="#e48858"/>
            <path id="Trazado_113904" data-name="Trazado 113904" d="M216.634,262.593c.448,2.78.726,5.589.975,8.358.172,1.32.294,2.85,1,3.483,2.057,1.56,4.506-.79,5.4-2.736a29.452,29.452,0,0,0,1.725-5.882,1.34,1.34,0,0,1,.421-.716,1.674,1.674,0,0,1,.643-.282,23.384,23.384,0,0,0,4.811-1.951,17.609,17.609,0,0,1-4.817,2.971c-.354,2.145-.49,4.44-1.426,6.5-1.07,2.834-5.046,5.762-7.815,3.152-1.162-1.327-1.084-2.9-1.167-4.464-.018-2.826.049-5.616.255-8.434" transform="translate(-75.657 -91.816)" fill="#e48858"/>
            <path id="Trazado_113905" data-name="Trazado 113905" d="M218.78,266.428a2.913,2.913,0,0,1,4.523-.681,5.549,5.549,0,0,1-4.523.681" transform="translate(-76.497 -92.643)" fill="#e48858"/>
            <path id="Trazado_113906" data-name="Trazado 113906" d="M197.926,272.689c.438,3,1.6,5.775,2.328,8.708.572,1.757.208,3.91,1.817,5.085a27.229,27.229,0,0,1,4.86,3.641,2.214,2.214,0,0,0,.876.616c1.011-.038,1.714-1.4,1.908-2.353.477-3.683-2.25-6.961-4.4-9.76a1.035,1.035,0,0,1-.144-1.263,2.932,2.932,0,0,1,.272-.349c1.767-2.088,3.447-4.285,5.055-6.509a51.606,51.606,0,0,1-4.4,7.262.338.338,0,0,0-.061.1c-.031.064-.005-.053-.008-.055.025.037.3.35.358.406,2.522,2.842,5.425,6.32,4.843,10.454-.289,1.7-1.742,3.977-3.788,3.591a3.553,3.553,0,0,1-1.594-1.029,22.729,22.729,0,0,0-2.185-1.913c-4.17-2.786-3.819-2.86-4.428-7.714-.484-2.95-1.392-5.895-1.316-8.918" transform="translate(-69.204 -94.583)" fill="#e48858"/>
            <path id="Trazado_113907" data-name="Trazado 113907" d="M194.615,286.217a53.542,53.542,0,0,1,.906,5.733c.116.9.152,1.456.944,1.963l2.359,1.614c1.564,1.117,3.122,2.256,4.616,3.46a2.63,2.63,0,0,0,1,.576c1.331.178,1.979-1.366,1.813-2.661a2.7,2.7,0,0,1-.286,2.973,2.128,2.128,0,0,1-1.626.722,3.355,3.355,0,0,1-1.6-.594c-2.493-1.535-4.827-3.142-7.177-4.9a3.429,3.429,0,0,1-1.269-3.092,53.388,53.388,0,0,1,.325-5.795" transform="translate(-67.928 -100.077)" fill="#e48858"/>
            <path id="Trazado_113923" data-name="Trazado 113923" d="M87.53,266.3s2.207,3.5,2.231,6.548" transform="translate(-30.605 -93.114)" fill="#e1756d"/>
            <path id="Trazado_113929" data-name="Trazado 113929" d="M359.143,33.047l-4.835,7.182a11.384,11.384,0,0,1-9.313-6.27l4.835-7.182a5.613,5.613,0,0,1,9.313,6.269" transform="translate(-120.629 -8.497)" fill="#5a9fb3"/>
            <path id="Trazado_113930" data-name="Trazado 113930" d="M351.2,45.423l-4.835,7.182a5.613,5.613,0,1,1-9.312-6.269l4.835-7.182a11.383,11.383,0,0,0,9.313,6.269" transform="translate(-117.517 -13.69)" fill="#fff"/>
            <g id="Grupo_80444" data-name="Grupo 80444" transform="translate(273.348 32.306)">
              <g id="Grupo_80443" data-name="Grupo 80443">
                <g id="Grupo_80442" data-name="Grupo 80442" clip-path="url(#clip-path-5)">
                  <g id="Grupo_80441" data-name="Grupo 80441" style="isolation: isolate">
                    <g id="Grupo_80440" data-name="Grupo 80440">
                      <g id="Grupo_80439" data-name="Grupo 80439" clip-path="url(#clip-path-5)">
                        <g id="Grupo_80435" data-name="Grupo 80435">
                          <g id="Grupo_80434" data-name="Grupo 80434">
                            <g id="Grupo_80433" data-name="Grupo 80433" clip-path="url(#clip-path-7)">
                              <path id="Trazado_113931" data-name="Trazado 113931" d="M428.81,49.728a5.714,5.714,0,0,0-3.474,1.079c-3.066,2.145-4.085,6.779-2.276,10.347a6.273,6.273,0,0,0,5.356,3.646l-1.855-.047a6.277,6.277,0,0,1-5.352-3.648c-1.813-3.566-.794-8.2,2.27-10.349a5.773,5.773,0,0,1,3.474-1.079Z" transform="translate(-420.311 -49.675)" fill="#5a9fb3"/>
                            </g>
                          </g>
                        </g>
                        <g id="Grupo_80438" data-name="Grupo 80438" transform="translate(1.855 0.05)">
                          <g id="Grupo_80437" data-name="Grupo 80437">
                            <g id="Grupo_80436" data-name="Grupo 80436" clip-path="url(#clip-path-8)">
                              <path id="Trazado_113932" data-name="Trazado 113932" d="M426.332,50.834c3.065-2.147,7.017-1,8.827,2.57s.793,8.2-2.272,10.346-7.017,1-8.827-2.57-.793-8.2,2.272-10.346" transform="translate(-423.164 -49.752)" fill="#97c0cd"/>
                            </g>
                          </g>
                        </g>
                      </g>
                    </g>
                  </g>
                </g>
              </g>
            </g>
            <path id="Trazado_113933" data-name="Trazado 113933" d="M386.253,40.767l3.184,7.082a10.209,10.209,0,0,1-9.183,4.129L377.07,44.9a5.034,5.034,0,0,1,9.183-4.129" transform="translate(-131.689 -13.216)" fill="#8a7eee"/>
            <path id="Trazado_113934" data-name="Trazado 113934" d="M391.387,53.254l3.185,7.082a5.035,5.035,0,1,1-9.184,4.129L382.2,57.383a10.209,10.209,0,0,0,9.183-4.129" transform="translate(-133.639 -18.62)" fill="#fff"/>
            <path id="Trazado_113935" data-name="Trazado 113935" d="M398,5.413a3.933,3.933,0,0,0-2.217-1.133L381.956,2.044a5.735,5.735,0,0,0-6.075,4,4.32,4.32,0,0,0,.891,4.358l-1.926-1.985a4.306,4.306,0,0,1-.9-4.353A5.747,5.747,0,0,1,380.024.057L393.857,2.3a3.94,3.94,0,0,1,2.219,1.126Z" transform="translate(-130.672 0)" fill="#8a7eee"/>
            <path id="Trazado_113936" data-name="Trazado 113936" d="M396.825,5.348a4.076,4.076,0,0,1,3.114,5.492,5.733,5.733,0,0,1-6.072,4L380.035,12.6a4.072,4.072,0,0,1-3.116-5.487,5.74,5.74,0,0,1,6.073-4Z" transform="translate(-131.71 -1.066)" fill="#ab9af9"/>
            <path id="Trazado_113937" data-name="Trazado 113937" d="M395.532,6.36s.016,4.887-1.871,7.956" transform="translate(-137.645 -2.224)" fill="#e1756d"/>
            <path id="Trazado_113938" data-name="Trazado 113938" d="M395.532,6.36a6.645,6.645,0,0,1-.259,6.35,4.336,4.336,0,0,1-1.612,1.606,16.228,16.228,0,0,1,.13-2.13,14.53,14.53,0,0,1,1.741-5.826" transform="translate(-137.645 -2.224)" fill="#8a7eee"/>
            <path id="Trazado_113939" data-name="Trazado 113939" d="M406.649,78.374a3.768,3.768,0,1,1-5.189,1.214,3.768,3.768,0,0,1,5.189-1.214" transform="translate(-140.173 -27.205)" fill="#8a7eee"/>
            <g id="Grupo_80447" data-name="Grupo 80447" transform="translate(216.681 209.721)" opacity="0.3">
              <g id="Grupo_80446" data-name="Grupo 80446">
                <g id="Grupo_80445" data-name="Grupo 80445" clip-path="url(#clip-path-9)">
                  <rect id="Rectángulo_33928" data-name="Rectángulo 33928" width="143.626" height="50.005" transform="translate(-0.012 10.015) rotate(-3.998)" fill="#faf6f2"/>
                </g>
              </g>
            </g>
            <rect id="Rectángulo_33930" data-name="Rectángulo 33930" width="82.773" height="42.432" transform="translate(222.16 222.702) rotate(-3.947)" fill="#5a9fb3"/>
            <rect id="Rectángulo_33931" data-name="Rectángulo 33931" width="98.617" height="10.936" transform="matrix(0.998, -0.07, 0.07, 0.998, 318.045, 224.276)" fill="#acd7e1"/>
            <rect id="Rectángulo_33932" data-name="Rectángulo 33932" width="98.617" height="10.036" transform="translate(319.158 240.305) rotate(-4.019)" fill="#acd7e1"/>
            <rect id="Rectángulo_33933" data-name="Rectángulo 33933" width="98.617" height="5.132" transform="translate(318.805 235.186) rotate(-4.019)" fill="#94c3c9"/>
            <path id="Trazado_113940" data-name="Trazado 113940" d="M638.721,311.272c12.057-.83,11.645,10.7,11.645,10.7l2.349,33.856s2,11.379-10.055,12.21Z" transform="translate(-223.331 -108.822)" fill="#94c3c9"/>
            <path id="Trazado_113941" data-name="Trazado 113941" d="M329.885,337.874l3.462,49.885-7.022-6.009L323.76,344.8Z" transform="translate(-113.204 -118.139)" fill="#acd7e1"/>
            <path id="Trazado_113942" data-name="Trazado 113942" d="M316.282,360.051l3.081-.212,1.541,22.22-3.08.212-.14-2.013-6.7.461-1.262-18.183,6.7-.462Z" transform="translate(-108.295 -125.819)" fill="#94c3c9"/>
            <path id="Trazado_113943" data-name="Trazado 113943" d="M278.362,366.492l1.079,15.721a160.457,160.457,0,0,1-42.747-2.81l-.289-4.259a160.5,160.5,0,0,1,41.956-8.652" transform="translate(-82.66 -128.145)" fill="#c9524e"/>
            <path id="Trazado_113944" data-name="Trazado 113944" d="M306.242,358.968l1.714,24.7-5.811.391-.317-4.476-1.079-15.721-.317-4.489Z" transform="translate(-105.047 -125.514)" fill="#e1756d"/>
            <rect id="Rectángulo_33934" data-name="Rectángulo 33934" width="6.717" height="18.227" transform="translate(201.427 236.72) rotate(-3.969)" fill="#acd7e1"/>
            <path id="Trazado_113945" data-name="Trazado 113945" d="M69.477,388.966l107.971-7.26.122,1.762-110.025,7.4Z" transform="translate(-23.617 -133.465)" fill="#2f2f61"/>
            <rect id="Rectángulo_33935" data-name="Rectángulo 33935" width="12.757" height="42.58" transform="matrix(0.998, -0.068, 0.068, 0.998, 304.797, 217.004)" fill="#2f2f61"/>
            <path id="Trazado_113946" data-name="Trazado 113946" d="M563.119,295.376l1.318,19.005a55.054,55.054,0,0,1,6.035,22.083,70.273,70.273,0,0,1-2.834,24.036l1.288,18.515c-12.071.83-12.033-16.14-12.033-16.14l-.039.013L553.406,313l.02-.006s-2.378-16.787,9.693-17.617" transform="translate(-193.441 -103.279)" fill="#94c3c9"/>
            <path id="Trazado_113947" data-name="Trazado 113947" d="M569.66,378.487c-9.827-24.227-10.97-54.558-5.084-79.9.192,3.4.088,6.748.175,10.1a502.883,502.883,0,0,0,4.909,69.8" transform="translate(-196.153 -104.403)" fill="#7cb4b7"/>
            <g id="Grupo_80450" data-name="Grupo 80450" transform="translate(226.096 218.844)" style="mix-blend-mode: soft-light;isolation: isolate">
              <g id="Grupo_80449" data-name="Grupo 80449">
                <g id="Grupo_80448" data-name="Grupo 80448" clip-path="url(#clip-path-10)">
                  <line id="Línea_153" data-name="Línea 153" y1="8.616" x2="132.107" transform="translate(0 2.611)" fill="#faf6f2"/>
                  <path id="Trazado_113948" data-name="Trazado 113948" d="M347.654,347.731c21.545-6.15,43.5-8.685,65.66-10.285,22.181-1.316,44.279-1.656,66.448,1.669-21.541,6.175-43.5,8.709-65.66,10.285-22.181,1.292-44.278,1.63-66.447-1.669" transform="translate(-347.654 -336.503)" fill="#faf6f2"/>
                </g>
              </g>
            </g>
          </g>
        </g>
      </g>
    </g>
  </g>
</svg>
