<svg xmlns="http://www.w3.org/2000/svg" xmlns:xlink="http://www.w3.org/1999/xlink" width="107" height="107" viewBox="0 0 107 107">
  <defs>
    <clipPath id="clip-path">
      <rect id="Rectángulo_46529" data-name="Rectángulo 46529" width="92.2" height="38.713" fill="#12263f" stroke="#12263f" stroke-width="1"/>
    </clipPath>
  </defs>
  <g id="Grupo_80812" data-name="Grupo 80812" transform="translate(-175.667 -1953)">
    <circle id="Elipse_4723" data-name="Elipse 4723" cx="53.5" cy="53.5" r="53.5" transform="translate(175.667 1953)" fill="#ffb74d"/>
    <g id="Grupo_80713" data-name="Grupo 80713" transform="translate(184.982 1985.829)">
      <g id="Grupo_80712" data-name="Grupo 80712" clip-path="url(#clip-path)">
        <path id="Trazado_114642" data-name="Trazado 114642" d="M37.306,34.082a14.993,14.993,0,0,1-6.5,2.281,70.108,70.108,0,0,1-18.065.683,37.86,37.86,0,0,1-8.726-1.519A15.22,15.22,0,0,1,1.19,34.212,2.413,2.413,0,0,1,0,31.93q.048-6.476,0-12.954A2.51,2.51,0,0,1,1.07,16.832a10.611,10.611,0,0,1,3.806-1.655,47.572,47.572,0,0,1,9.184-1.351,71.516,71.516,0,0,1,15.786.62,21.548,21.548,0,0,1,6.763,1.962v-.625c0-3.462.018-6.925-.011-10.387a2.608,2.608,0,0,1,1.185-2.3,12.593,12.593,0,0,1,4.691-1.819A61.275,61.275,0,0,1,55.706,0,53.943,53.943,0,0,1,69.441,1.4a28.03,28.03,0,0,0,5.564.815A18.047,18.047,0,0,1,91.927,17.34,18.287,18.287,0,0,1,76.439,38.549a17.759,17.759,0,0,1-10.265-1.673,1.679,1.679,0,0,0-.889-.163,73.99,73.99,0,0,1-15.172.394,40.643,40.643,0,0,1-9.455-1.581c-1.113-.36-2.16-.924-3.351-1.445M1.681,27.419c0,1.57.017,3.031-.01,4.491a.967.967,0,0,0,.562,1.019,22.636,22.636,0,0,0,2.845,1.145,49.917,49.917,0,0,0,12.976,1.567,55.715,55.715,0,0,0,14.412-1.369,29.786,29.786,0,0,0,3.557-1.318.96.96,0,0,0,.6-1.046c-.034-1.305-.011-2.612-.014-3.918,0-.163-.022-.325-.027-.4-1.389.431-2.727.926-4.1,1.259a51.071,51.071,0,0,1-10.042,1.209,71.34,71.34,0,0,1-14.63-.8,20.839,20.839,0,0,1-6.121-1.841m16.332-5.432a64.985,64.985,0,0,0,12.7-.969,17.478,17.478,0,0,0,5.062-1.576c.325-.175.77-.532.765-.8s-.437-.667-.767-.8a25.278,25.278,0,0,0-3.435-1.2,53.6,53.6,0,0,0-12.435-1.3,58.42,58.42,0,0,0-14,1.3,11.015,11.015,0,0,0-3.738,1.416c-.633.428-.623.76.008,1.183a3.636,3.636,0,0,0,.775.425c.915.329,1.825.689,2.765.928a52.2,52.2,0,0,0,12.3,1.4M74.09,3.818A16.606,16.606,0,1,0,90.51,20.238,16.54,16.54,0,0,0,74.09,3.818M1.687,20.967c0,1.388-.013,2.727.015,4.065a.784.784,0,0,0,.32.551,8.912,8.912,0,0,0,1.593.869A30.122,30.122,0,0,0,11,28.016a74.814,74.814,0,0,0,14.132.207,37.9,37.9,0,0,0,8.88-1.534,13.6,13.6,0,0,0,2.118-.984.886.886,0,0,0,.452-.584c.04-1.369.021-2.74.021-4.124a.745.745,0,0,0-.2.023A23.022,23.022,0,0,1,29.026,23a69.584,69.584,0,0,1-14.067.536c-4.5-.283-8.994-.639-13.271-2.567M68.555,2.9a.626.626,0,0,0-.131-.054c-.993-.181-1.981-.4-2.98-.533a72.138,72.138,0,0,0-18.751-.094,26.586,26.586,0,0,0-6.745,1.569,6.649,6.649,0,0,0-1.357.761c-.406.29-.4.589-.013.891a3.589,3.589,0,0,0,1.07.632,42.064,42.064,0,0,0,4.409,1.249,68.224,68.224,0,0,0,15.766.894,2.161,2.161,0,0,0,1.4-.623,37.6,37.6,0,0,1,3.782-2.935A32.435,32.435,0,0,1,68.555,2.9M38.284,27.519c0,1.332.07,2.656-.023,3.968a1.512,1.512,0,0,0,1.119,1.749,38.93,38.93,0,0,0,4.433,1.348,64.988,64.988,0,0,0,17.893.821c.528-.04,1.055-.105,1.72-.173-.277-.231-.444-.373-.614-.511a15.485,15.485,0,0,1-3.46-3.742,1.747,1.747,0,0,0-1.768-.879c-6.524.074-13.025-.087-19.3-2.58m0-13.674c0,1.447.031,2.872-.015,4.3a1.135,1.135,0,0,0,.742,1.236,31.252,31.252,0,0,0,3.675,1.3,54.485,54.485,0,0,0,12.957,1.308,1.118,1.118,0,0,0,.245-.036c.126-1.85.248-3.644.371-5.451a.37.37,0,0,0-.1-.023c-.226-.007-.453-.006-.679-.011-5.818-.129-11.625-.332-17.192-2.62m.043-6.508a1.07,1.07,0,0,0-.039.2c0,1.079.058,2.164-.023,3.237a1.425,1.425,0,0,0,.982,1.58,22.187,22.187,0,0,0,2.89,1.035,57.521,57.521,0,0,0,14.356,1.39.675.675,0,0,0,.462-.347c.674-1.332,1.321-2.677,1.98-4.017.072-.146.163-.282.269-.465-.175-.009-.261-.02-.347-.018a78.221,78.221,0,0,1-11.367-.419A27.374,27.374,0,0,1,38.5,7.348a.554.554,0,0,0-.174-.011m-.043,13.607c0,1.162.076,2.259-.023,3.34a1.572,1.572,0,0,0,1.133,1.8,29.53,29.53,0,0,0,3.664,1.177,62.859,62.859,0,0,0,14.533,1.171c.041,0,.082-.04.117-.058a.489.489,0,0,0,0-.123c-.462-1.437-.915-2.877-1.4-4.3a.648.648,0,0,0-.5-.281c-2.05-.1-4.108-.1-6.151-.27-3.852-.317-7.695-.732-11.371-2.457" transform="translate(0 0)" fill="#12263f" stroke="#12263f" stroke-width="1"/>
        <path id="Trazado_114643" data-name="Trazado 114643" d="M252.789,38.646a14.664,14.664,0,1,1,14.58,14.836,14.744,14.744,0,0,1-14.58-14.836m27.655.024a12.991,12.991,0,1,0-13,13.137,13.076,13.076,0,0,0,13-13.137" transform="translate(-193.394 -18.271)" fill="#12263f" stroke="#12263f" stroke-width="1"/>
        <path id="Trazado_114644" data-name="Trazado 114644" d="M303.5,59.792h1c-.113.589.228.714.7.841a2.7,2.7,0,0,1,1.966,2.316l-1.674.221-.78-1.107-.2.063c0,.646.044,1.3-.013,1.938-.052.582.133.831.708,1.015a2.751,2.751,0,0,1,2.236,2.934,3.059,3.059,0,0,1-2.362,3.066c-.457.131-.648.308-.574.776a4.364,4.364,0,0,1,.005.648h-.957c-.024-.046-.057-.078-.052-.1.142-.824-.162-1.211-1.012-1.469-1.235-.375-1.74-1.452-1.958-2.754l1.82-.226a2.155,2.155,0,0,0,1.132,1.547c0-.961.023-1.858-.024-2.752-.008-.142-.314-.317-.514-.393a3.065,3.065,0,0,1-2.063-3.643,2.546,2.546,0,0,1,1.956-2.088c.464-.125.761-.27.654-.826m1.044,9.8a1.365,1.365,0,0,0,1.165-1.478c-.034-.667-.4-1.05-1.165-1.2Zm-1.08-7.543a1.271,1.271,0,0,0,0,2.421Z" transform="translate(-229.928 -45.743)" fill="#12263f" stroke="#12263f" stroke-width="1"/>
        <path id="Trazado_114645" data-name="Trazado 114645" d="M323.593,50.463a5.6,5.6,0,0,1-.006.724.751.751,0,0,1-.729.693.767.767,0,0,1-.868-.586,1.777,1.777,0,0,1-.06-.463,9.315,9.315,0,0,0-9.107-9.133,1.129,1.129,0,0,1-.777-.31.962.962,0,0,1-.126-.845.99.99,0,0,1,.76-.478,16.335,16.335,0,0,1,3.282.5,10.9,10.9,0,0,1,7.632,9.9" transform="translate(-238.591 -30.65)" fill="#12263f" stroke="#12263f" stroke-width="1"/>
      </g>
    </g>
  </g>
</svg>
