<svg xmlns="http://www.w3.org/2000/svg" xmlns:xlink="http://www.w3.org/1999/xlink" width="400" height="333.953" viewBox="0 0 400 333.953">
  <defs>
    <clipPath id="clip-path">
      <rect id="Rectángulo_33966" data-name="Rectángulo 33966" width="203.473" height="333.953" fill="none"/>
    </clipPath>
    <clipPath id="clip-path-3">
      <path id="Trazado_114030" data-name="Trazado 114030" d="M55.964,201.775a231.9,231.9,0,0,1-35.771-3.311l-.03,5.139s17.319,4.567,35.451,3.97,28.97-4.383,28.97-4.383l.076-5.893s-11.2,4.48-28.7,4.48" transform="translate(-20.163 -197.295)" fill="none"/>
    </clipPath>
    <clipPath id="clip-path-5">
      <rect id="Rectángulo_33962" data-name="Rectángulo 33962" width="77.461" height="251.014" fill="none"/>
    </clipPath>
    <clipPath id="clip-path-6">
      <rect id="Rectángulo_33963" data-name="Rectángulo 33963" width="32.136" height="96.122" fill="none"/>
    </clipPath>
    <clipPath id="clip-path-7">
      <rect id="Rectángulo_33964" data-name="Rectángulo 33964" width="35.428" height="88.442" fill="none"/>
    </clipPath>
  </defs>
  <g id="Grupo_80806" data-name="Grupo 80806" transform="translate(-390.001 -8928)">
    <g id="Image_Place_Holder" data-name="Image Place Holder" transform="translate(390.001 8985.223)" opacity="0.1">
      <rect id="Image_Place_Holder-2" data-name="Image Place Holder" width="400" height="270.769" rx="10" fill="#a5d20e"/>
    </g>
    <g id="Grupo_80502" data-name="Grupo 80502" transform="translate(511 8928)">
      <g id="Grupo_80501" data-name="Grupo 80501" clip-path="url(#clip-path)">
        <g id="Grupo_80487" data-name="Grupo 80487">
          <g id="Grupo_80486" data-name="Grupo 80486" clip-path="url(#clip-path)">
            <path id="Trazado_114013" data-name="Trazado 114013" d="M95.767,99.068c9.738,4.674,17.529,40.316,21.813,42.458,0,0,7.4,1.923,9.057,13.146,1.85,12.563-11.2,13.146-11.2,13.146Z" transform="translate(-17.154 -17.745)" fill="#ffb74d"/>
            <path id="Trazado_114014" data-name="Trazado 114014" d="M14.874,50.139c-1.073-3.85.081-7.829,2.36-9.338,1.628-1.078,3.4-.748,5.344-.163,2.17.655,15.6-3.121,17.071-1.458s-2.326,6.754-1.323,8.673c1.3,2.484-5.63,4.449-4.581,7.017.78,1.907,1.495,4.012.8,5.845-.726,1.913,3.384,12.069,1.14,11.868,0,0-6.835,2.732-14.993-9.865a50.348,50.348,0,0,1-5.818-12.579" transform="translate(-2.592 -6.942)" fill="#c27d4f"/>
            <path id="Trazado_114015" data-name="Trazado 114015" d="M81.607,376.295c-2.49,19.852,18.677,14.478,18.213,20.476s-24.218,5.247-26.772,1.386c-3.1-4.682.039-22.9.039-22.9Z" transform="translate(-12.839 -67.215)" fill="#514b4c"/>
            <path id="Trazado_114016" data-name="Trazado 114016" d="M21.869,376.295c1.906,19.852-11.383,15.52-11.372,20.476.011,6.006,16.621,5.247,19.289,1.386,3.235-4.682.634-22.9.634-22.9Z" transform="translate(-1.88 -67.215)" fill="#514b4c"/>
            <path id="Trazado_114017" data-name="Trazado 114017" d="M79.24,274.093C78.9,298.263,77.6,349.56,77.6,349.56s-9.579,6.494-22.188.719c0,0-1.967-47.417-3.2-76.026-1.2-27.729-1.836-41.059-1.836-41.059s-2.451,26.115-3.617,42.224c-1.188,16.4-7.044,74.5-7.044,74.5s-10.907,5.049-21.451-.36c0,0-.464-45.038.616-75.025,1.046-29.021,1.217-79.719,1.217-79.719l60.835-.5s-1.36,56.243-1.692,79.782" transform="translate(-3.254 -34.805)" fill="#08306e"/>
            <path id="Trazado_114018" data-name="Trazado 114018" d="M29.39,352.825a23.528,23.528,0,0,1-10.833-2.584.585.585,0,0,1,.534-1.041c9.185,4.711,18.357,1.226,20.092.485.481-4.785,5.882-58.587,7.008-74.148C47.343,259.609,49.971,227,50,226.668a.586.586,0,0,1,.211-.4l5.428-4.469-.268-26a.585.585,0,0,1,.579-.59.611.611,0,0,1,.59.579l.271,26.277a.584.584,0,0,1-.213.456l-5.453,4.489c-.246,3.055-2.687,33.425-3.787,48.613-1.175,16.224-6.986,73.936-7.045,74.516a.585.585,0,0,1-.325.467,26.135,26.135,0,0,1-10.6,2.22" transform="translate(-3.267 -34.965)" fill="#88a29e"/>
            <path id="Trazado_114019" data-name="Trazado 114019" d="M45.91,300.124a.576.576,0,0,1-.254-.058.584.584,0,0,1-.271-.781,10.671,10.671,0,0,0,.924-6.488.584.584,0,0,1,1.15-.207,11.849,11.849,0,0,1-1.023,7.2.584.584,0,0,1-.526.329" transform="translate(-8.119 -52.322)" fill="#88a29e"/>
            <path id="Trazado_114020" data-name="Trazado 114020" d="M31.1,304.187a.583.583,0,0,1-.559-.415,22.915,22.915,0,0,1,.476-14.3.585.585,0,0,1,1.1.4,21.733,21.733,0,0,0-.456,13.564.583.583,0,0,1-.392.728.568.568,0,0,1-.168.025" transform="translate(-5.305 -51.781)" fill="#88a29e"/>
            <path id="Trazado_114021" data-name="Trazado 114021" d="M20.163,203.6s17.32,4.567,35.451,3.97,28.969-4.383,28.969-4.383l.076-5.894s-11.2,4.48-28.7,4.48a231.9,231.9,0,0,1-35.771-3.311Z" transform="translate(-3.612 -35.339)" fill="#e8ac68"/>
          </g>
        </g>
        <g id="Grupo_80489" data-name="Grupo 80489" transform="translate(16.551 161.956)">
          <g id="Grupo_80488" data-name="Grupo 80488" clip-path="url(#clip-path-3)">
            <path id="Trazado_114022" data-name="Trazado 114022" d="M25.41,206.39H25.4a.585.585,0,0,1-.577-.593l.1-6.622a.611.611,0,0,1,.593-.576.585.585,0,0,1,.575.594l-.1,6.621a.586.586,0,0,1-.584.576" transform="translate(-20.998 -197.529)" fill="#d89655"/>
            <path id="Trazado_114023" data-name="Trazado 114023" d="M29.681,207.665h-.017a.584.584,0,0,1-.568-.6l.195-7.3a.585.585,0,0,1,1.169.032l-.2,7.3a.584.584,0,0,1-.583.569" transform="translate(-21.763 -197.635)" fill="#d89655"/>
            <path id="Trazado_114024" data-name="Trazado 114024" d="M40.95,209.444h-.024a.584.584,0,0,1-.561-.607l.292-7.3a.6.6,0,0,1,.607-.561.585.585,0,0,1,.561.607l-.292,7.3a.585.585,0,0,1-.584.561" transform="translate(-23.782 -197.954)" fill="#d89655"/>
            <path id="Trazado_114025" data-name="Trazado 114025" d="M53.525,210.47H53.51a.585.585,0,0,1-.569-.6l.195-7.5a.6.6,0,0,1,.6-.569.584.584,0,0,1,.569.6l-.195,7.5a.585.585,0,0,1-.584.569" transform="translate(-26.034 -198.102)" fill="#d89655"/>
            <path id="Trazado_114026" data-name="Trazado 114026" d="M57.44,210.318h-.008a.585.585,0,0,1-.576-.593l.1-7.109a.585.585,0,0,1,.584-.576h.007a.585.585,0,0,1,.577.593l-.1,7.109a.584.584,0,0,1-.584.576" transform="translate(-26.735 -198.145)" fill="#d89655"/>
            <path id="Trazado_114027" data-name="Trazado 114027" d="M69.756,209.788a.585.585,0,0,1-.584-.576l-.1-6.817a.585.585,0,0,1,.576-.593.594.594,0,0,1,.593.576l.1,6.817a.585.585,0,0,1-.576.593Z" transform="translate(-28.924 -198.102)" fill="#d89655"/>
            <path id="Trazado_114028" data-name="Trazado 114028" d="M79.3,209.054a.584.584,0,0,1-.583-.552l-.39-6.913a.584.584,0,0,1,.551-.616.576.576,0,0,1,.616.551l.39,6.913a.584.584,0,0,1-.551.616H79.3" transform="translate(-30.581 -197.953)" fill="#d89655"/>
            <path id="Trazado_114029" data-name="Trazado 114029" d="M87.962,207.687a.584.584,0,0,1-.583-.552l-.39-7.207a.585.585,0,1,1,1.167-.063l.39,7.206a.586.586,0,0,1-.552.616h-.032" transform="translate(-32.133 -197.656)" fill="#d89655"/>
          </g>
        </g>
        <g id="Grupo_80500" data-name="Grupo 80500">
          <g id="Grupo_80499" data-name="Grupo 80499" clip-path="url(#clip-path)">
            <path id="Trazado_114031" data-name="Trazado 114031" d="M75,294.2a.585.585,0,0,1-.523-.323,10.492,10.492,0,0,1-.808-7.1.584.584,0,0,1,1.135.277,9.306,9.306,0,0,0,.717,6.3.585.585,0,0,1-.26.784A.576.576,0,0,1,75,294.2" transform="translate(-13.143 -51.288)" fill="#88a29e"/>
            <path id="Trazado_114032" data-name="Trazado 114032" d="M88.183,296.106a.612.612,0,0,1-.148-.019.584.584,0,0,1-.418-.713,27.308,27.308,0,0,0,.081-13.423.584.584,0,0,1,1.134-.281,28.489,28.489,0,0,1-.085,14,.586.586,0,0,1-.566.437" transform="translate(-15.691 -50.373)" fill="#88a29e"/>
            <path id="Trazado_114033" data-name="Trazado 114033" d="M73.02,361.808A26.267,26.267,0,0,1,62.006,359.3a.584.584,0,0,1-.341-.507c-.02-.474-1.982-47.743-3.2-76.024-1.183-27.4-2.131-40.295-2.141-40.421a.584.584,0,0,1,.539-.626.592.592,0,0,1,.626.539c.009.127.959,13.037,2.143,40.458,1.165,26.972,3,71.213,3.187,75.665,11.975,5.312,20.708-.418,20.8-.476a.584.584,0,0,1,.655.968,21.755,21.755,0,0,1-11.249,2.93" transform="translate(-10.088 -43.297)" fill="#88a29e"/>
            <path id="Trazado_114034" data-name="Trazado 114034" d="M20.047,179.229c-2.24-2.824,1.753-26.538.584-42.976s.451-36.587,1.656-39.051c1.169-.8,9.446-6.973,23.469-7.272C59.2,89.644,70.3,93.517,74.386,96.8s6.134,23.61,7.6,37.656,2.165,44.43,2.165,44.43-10.74,3.786-28.707,4.384-35.392-4.044-35.392-4.044" transform="translate(-3.466 -16.106)" fill="#ffb74d"/>
            <path id="Trazado_114035" data-name="Trazado 114035" d="M156.057,356.863l1.781,7.984c.517,2.317-.034,4.218.2,5.248s1.354,2.793,1.813,4.852l2.011,9.014a5.464,5.464,0,0,1-3.01,6.167,8.98,8.98,0,0,1-5.488.526,8.829,8.829,0,0,1-5.146,5.332c-4.044,1.532-8.546-1.171-8.546-1.171a5.646,5.646,0,0,1-3.957,1.375,4.892,4.892,0,0,1-4.9-3.962l-1.465-6.567c-.517-2.318.034-4.219-.138-6.078s-2.22-2.308-3.025-5.914l-2.011-9.013,9.423-8.006Z" transform="translate(-22.241 -63.883)" fill="#d0d0d0"/>
            <path id="Trazado_114036" data-name="Trazado 114036" d="M113.635,317.5a3.732,3.732,0,0,0,3.32,1.226c1.849-.451,1.78-3.49,3.05-3.8s3.536,2.191,6.135,1.285,4.436-3.054,6.516-3.562,3.853,1.707,8.013.69,4.855-3.631,4.855-3.631L97.259,93.371l-31.89,7.793Z" transform="translate(-11.709 -16.725)" fill="#f3e6e3"/>
            <path id="Trazado_114037" data-name="Trazado 114037" d="M139.333,371.624a10.7,10.7,0,0,1-5.52-1.547.584.584,0,0,1,.6-1,9.323,9.323,0,0,0,8.444.666c.5-.213.975-.467,1.481-.736a13.536,13.536,0,0,1,2.421-1.093,13.282,13.282,0,0,1,3.385-.428c.421-.016.841-.033,1.259-.066a5.388,5.388,0,0,0,3.779-1.478.584.584,0,1,1,.864.787,6.545,6.545,0,0,1-4.552,1.857c-.433.034-.868.05-1.3.067a12.228,12.228,0,0,0-3.092.378,12.593,12.593,0,0,0-2.211,1c-.5.27-1.028.548-1.571.781a10.148,10.148,0,0,1-3.987.808" transform="translate(-23.918 -65.513)" fill="#b7b7b7"/>
            <path id="Trazado_114038" data-name="Trazado 114038" d="M157.31,372.438a.584.584,0,0,1-.029-1.167,4.426,4.426,0,0,0,3.421-2.023.584.584,0,1,1,.974.644,5.6,5.6,0,0,1-4.337,2.545h-.03" transform="translate(-28.073 -66.092)" fill="#b7b7b7"/>
            <path id="Trazado_114039" data-name="Trazado 114039" d="M139.012,384.527a5.4,5.4,0,0,1-3.559-1.217.584.584,0,0,1,.761-.887,4.834,4.834,0,0,0,4.194.774,17.291,17.291,0,0,0,3-1.085c.5-.218,1.006-.435,1.517-.629a7.663,7.663,0,0,1,5.186-.456.585.585,0,0,1-.359,1.113,6.587,6.587,0,0,0-4.412.435c-.494.189-.982.4-1.469.609a18.5,18.5,0,0,1-3.207,1.153,7.523,7.523,0,0,1-1.653.19" transform="translate(-24.226 -68.201)" fill="#b7b7b7"/>
            <path id="Trazado_114040" data-name="Trazado 114040" d="M158.629,380.566a.585.585,0,0,1-.352-.118,5.784,5.784,0,0,0-3.695-1.2.57.57,0,0,1-.606-.562.584.584,0,0,1,.562-.6,6.942,6.942,0,0,1,4.443,1.438.584.584,0,0,1-.353,1.05" transform="translate(-27.58 -67.72)" fill="#b7b7b7"/>
            <path id="Trazado_114041" data-name="Trazado 114041" d="M134.407,378.357a5.787,5.787,0,0,1-5.169-3.685.584.584,0,0,1,1.085-.433,4.49,4.49,0,0,0,4.563,2.916.584.584,0,1,1,.166,1.156,4.354,4.354,0,0,1-.645.047" transform="translate(-23.141 -66.968)" fill="#b7b7b7"/>
            <path id="Trazado_114042" data-name="Trazado 114042" d="M133.314,391.562a.584.584,0,0,1-.42-.99,5.037,5.037,0,0,1,3.948-1.53.585.585,0,0,1,.537.628.593.593,0,0,1-.629.538,3.819,3.819,0,0,0-3.016,1.176.581.581,0,0,1-.42.179" transform="translate(-23.774 -69.683)" fill="#b7b7b7"/>
            <path id="Trazado_114043" data-name="Trazado 114043" d="M144.8,395.218a22.541,22.541,0,0,1-6.071-1.065.584.584,0,0,1,.319-1.124,19.867,19.867,0,0,0,6.35,1,7.321,7.321,0,0,0,5.438-2.56.585.585,0,0,1,.913.731,8.474,8.474,0,0,1-6.286,3c-.221.011-.442.017-.663.017" transform="translate(-24.773 -70.081)" fill="#b7b7b7"/>
            <path id="Trazado_114044" data-name="Trazado 114044" d="M155.886,395.653a.585.585,0,0,1-.3-1.084,5.537,5.537,0,0,0,2.423-3.433.584.584,0,0,1,1.134.277,6.715,6.715,0,0,1-2.949,4.154.58.58,0,0,1-.3.085" transform="translate(-27.818 -69.98)" fill="#b7b7b7"/>
            <path id="Trazado_114045" data-name="Trazado 114045" d="M165.731,393.78a.584.584,0,0,1-.337-1.061,3.03,3.03,0,0,0,.788-3.582.585.585,0,1,1,1.054-.507,4.214,4.214,0,0,1-1.168,5.042.577.577,0,0,1-.337.108" transform="translate(-29.581 -69.552)" fill="#b7b7b7"/>
            <path id="Trazado_114046" data-name="Trazado 114046" d="M137.307,401.867a3.8,3.8,0,0,1-1.823-.465,4.516,4.516,0,0,1-2.134-2.823.584.584,0,1,1,1.132-.29,3.323,3.323,0,0,0,1.562,2.087,2.588,2.588,0,0,0,2.321.092.584.584,0,0,1,.495,1.058,3.674,3.674,0,0,1-1.553.341" transform="translate(-23.882 -71.262)" fill="#b7b7b7"/>
            <path id="Trazado_114047" data-name="Trazado 114047" d="M149.227,403.205a5.94,5.94,0,0,1-3.994-1.567.585.585,0,0,1,.789-.863,4.6,4.6,0,0,0,5.154.8.584.584,0,0,1,.53,1.042,5.456,5.456,0,0,1-2.479.586" transform="translate(-25.98 -71.759)" fill="#b7b7b7"/>
            <g id="Grupo_80492" data-name="Grupo 80492" transform="translate(53.642 81.411)" opacity="0.3" style="mix-blend-mode: multiply;isolation: isolate">
              <g id="Grupo_80491" data-name="Grupo 80491">
                <g id="Grupo_80490" data-name="Grupo 80490" clip-path="url(#clip-path-5)">
                  <path id="Trazado_114048" data-name="Trazado 114048" d="M77.131,99.175l53.22,238.536c1.3,3.99,3.161,7.139,5.581,7.813,3.118.867,6.874-1.137,6.874-1.137a8.826,8.826,0,0,1-5.146,5.331c-4.045,1.532-8.547-1.17-8.547-1.17a5.643,5.643,0,0,1-3.957,1.374,4.89,4.89,0,0,1-4.9-3.962l-1.465-6.567c-.517-2.318.034-4.218-.137-6.077s-2.221-2.309-3.026-5.914l-2.011-9.014L83.963,185.5,65.346,102.055Z" transform="translate(-65.346 -99.175)" fill="#5e5270"/>
                </g>
              </g>
            </g>
            <path id="Trazado_114049" data-name="Trazado 114049" d="M84,185.931c.768,2.632,9.422,3.133,17.5,1.308s15.593-5.98,14.827-9.209l-18.9-84.725-32.331,7.9Z" transform="translate(-11.661 -16.713)" fill="#d49868"/>
            <path id="Trazado_114050" data-name="Trazado 114050" d="M97.364,92.724c.789,3.527-5.788,8.155-14.69,10.335s-16.757,1.088-17.546-2.439,5.788-8.155,14.69-10.335S96.575,89.2,97.364,92.724" transform="translate(-11.654 -15.971)" fill="#d49868"/>
            <g id="Grupo_80495" data-name="Grupo 80495" transform="translate(53.426 75.487)" opacity="0.3" style="mix-blend-mode: multiply;isolation: isolate">
              <g id="Grupo_80494" data-name="Grupo 80494">
                <g id="Grupo_80493" data-name="Grupo 80493" clip-path="url(#clip-path-6)">
                  <path id="Trazado_114051" data-name="Trazado 114051" d="M75.9,91.96c-6.7,2.368-11.261,6.043-10.787,9l-.021,0L84,185.691c.633,2.167,6.615,2.885,13.219,2.054Z" transform="translate(-65.084 -91.959)" fill="#6d5751"/>
                </g>
              </g>
            </g>
            <g id="Grupo_80498" data-name="Grupo 80498" transform="translate(61.206 77.55)" opacity="0.3" style="mix-blend-mode: multiply;isolation: isolate">
              <g id="Grupo_80497" data-name="Grupo 80497">
                <g id="Grupo_80496" data-name="Grupo 80496" clip-path="url(#clip-path-7)">
                  <path id="Trazado_114052" data-name="Trazado 114052" d="M117.329,191.888a.916.916,0,0,1-.868.988.973.973,0,0,1-.918-.988.917.917,0,0,1,.868-.988.973.973,0,0,1,.918.988" transform="translate(-81.902 -111.744)" fill="#6d5751"/>
                  <path id="Trazado_114053" data-name="Trazado 114053" d="M93.661,115.525a.916.916,0,0,1-.868.988.973.973,0,0,1-.918-.988.917.917,0,0,1,.868-.988.973.973,0,0,1,.918.988" transform="translate(-77.662 -98.066)" fill="#6d5751"/>
                  <path id="Trazado_114054" data-name="Trazado 114054" d="M105.371,122.832a.916.916,0,0,1-.868.988.973.973,0,0,1-.918-.988.917.917,0,0,1,.868-.988.973.973,0,0,1,.918.988" transform="translate(-79.76 -99.375)" fill="#6d5751"/>
                  <path id="Trazado_114055" data-name="Trazado 114055" d="M86.085,160.171a.916.916,0,0,1-.868.988.973.973,0,0,1-.918-.988.917.917,0,0,1,.868-.989.974.974,0,0,1,.918.989" transform="translate(-76.305 -106.063)" fill="#6d5751"/>
                  <path id="Trazado_114056" data-name="Trazado 114056" d="M112.543,163.377a1.282,1.282,0,0,1-1.215,1.384,1.363,1.363,0,0,1-1.285-1.384,1.284,1.284,0,0,1,1.215-1.384,1.363,1.363,0,0,1,1.285,1.384" transform="translate(-80.916 -106.566)" fill="#6d5751"/>
                  <path id="Trazado_114057" data-name="Trazado 114057" d="M76.57,112.688a1.031,1.031,0,0,1-.976,1.112,1.1,1.1,0,0,1-1.033-1.112,1.032,1.032,0,0,1,.977-1.112,1.1,1.1,0,0,1,1.032,1.112" transform="translate(-74.561 -97.536)" fill="#6d5751"/>
                  <path id="Trazado_114058" data-name="Trazado 114058" d="M95.817,200.614a1.031,1.031,0,0,1-.976,1.112,1.1,1.1,0,0,1-1.033-1.112,1.032,1.032,0,0,1,.977-1.112,1.1,1.1,0,0,1,1.032,1.112" transform="translate(-78.008 -113.285)" fill="#6d5751"/>
                  <path id="Trazado_114059" data-name="Trazado 114059" d="M93.982,95.584a1.031,1.031,0,0,1-.976,1.112,1.1,1.1,0,0,1-1.033-1.112,1.032,1.032,0,0,1,.977-1.112,1.1,1.1,0,0,1,1.032,1.112" transform="translate(-77.68 -94.472)" fill="#6d5751"/>
                  <path id="Trazado_114060" data-name="Trazado 114060" d="M98.542,154.3a1.283,1.283,0,0,1-1.215,1.384,1.363,1.363,0,0,1-1.285-1.384,1.283,1.283,0,0,1,1.215-1.384,1.363,1.363,0,0,1,1.285,1.384" transform="translate(-78.409 -104.941)" fill="#6d5751"/>
                  <path id="Trazado_114061" data-name="Trazado 114061" d="M79.1,130.856a1.283,1.283,0,0,1-1.215,1.384,1.363,1.363,0,0,1-1.285-1.384,1.283,1.283,0,0,1,1.215-1.384,1.363,1.363,0,0,1,1.285,1.384" transform="translate(-74.927 -100.741)" fill="#6d5751"/>
                </g>
              </g>
            </g>
            <path id="Trazado_114062" data-name="Trazado 114062" d="M61.578,91.1l-.082-.105a66.746,66.746,0,0,0-13.357-1.063A45.827,45.827,0,0,0,32.71,92.862l-.054.087A20.485,20.485,0,0,0,50.769,98.5c8.885-1.418,10.809-7.4,10.809-7.4" transform="translate(-5.849 -16.106)" fill="#e49d88"/>
            <path id="Trazado_114063" data-name="Trazado 114063" d="M33.245,139.538a.584.584,0,0,1-.387-1.023,12.871,12.871,0,0,0,3.709-5.6.584.584,0,0,1,1.109.369,14.044,14.044,0,0,1-4.045,6.107.582.582,0,0,1-.386.146" transform="translate(-5.85 -23.736)" fill="#e8ac68"/>
            <path id="Trazado_114064" data-name="Trazado 114064" d="M36.428,72.6a55.444,55.444,0,0,1,1.863,17.449,27.283,27.283,0,0,0,10.684,2.135,20.529,20.529,0,0,0,9.535-2.727A73.657,73.657,0,0,1,57.4,81.249L38.2,70.271Z" transform="translate(-6.525 -12.587)" fill="#e49d88"/>
            <path id="Trazado_114065" data-name="Trazado 114065" d="M58.059,86.875c-.268-1.672-.571-3.856-.661-5.626L38.2,70.271,36.428,72.6A51.566,51.566,0,0,1,38.1,81.916c2.258,3.515,7.5,9.825,15.385,8.439a14.963,14.963,0,0,0,7.136-3.132c-.84-.127-1.693-.245-2.566-.349" transform="translate(-6.525 -12.587)" fill="#cf807b"/>
            <path id="Trazado_114066" data-name="Trazado 114066" d="M32.386,61.517c2.95-1.326,2.174-5.538.338-8.022,0,0,4.172-5.071,1.02-10.708,3.669-5.2,17.3-11.305,20.988-2.635,6.162,14.491,7.189,23.356,6.643,28.082-.575,4.971-5.032,8.074-11.3,7.6a17.813,17.813,0,0,1-12.888-7.6c-2.7,1.844-5.733.671-7.867-1.576-4-5.074.852-6.6,3.063-5.137" transform="translate(-4.978 -6.413)" fill="#f1ae96"/>
            <path id="Trazado_114067" data-name="Trazado 114067" d="M53.1,53.97a13.223,13.223,0,0,0,.067,2.624,7.5,7.5,0,0,0,.264,1.289,4.631,4.631,0,0,0,.268.721,5.9,5.9,0,0,0,.331.653,8.815,8.815,0,0,0,2.159,2.453,26.726,26.726,0,0,0,2.563,1.743,3.933,3.933,0,0,1,.457.328s.041.039.016.011a.405.405,0,0,1-.087-.254c0,.233.01-.112,0,.018a2.089,2.089,0,0,1-.5.681,6.692,6.692,0,0,1-1.274.982l-.553.3-.011.007a.55.55,0,0,0-.213.76.581.581,0,0,0,.579.285,4.322,4.322,0,0,0,.754-.2,5.592,5.592,0,0,0,1.78-1.033,3.389,3.389,0,0,0,.933-1.268,1.674,1.674,0,0,0,.089-.626,1.142,1.142,0,0,0-.219-.56,1.91,1.91,0,0,0-.225-.235,5.184,5.184,0,0,0-.7-.489A25.509,25.509,0,0,1,57.1,60.574a8.7,8.7,0,0,1-1.895-1.947,4.994,4.994,0,0,1-.339-.584,3.557,3.557,0,0,1-.229-.527,9.9,9.9,0,0,1-.309-1.1,13.37,13.37,0,0,1-.252-1.744c-.023-.424-.037-.665-.037-.665a.479.479,0,0,0-.5-.451.465.465,0,0,0-.448.41" transform="translate(-9.504 -9.594)" fill="#d0807c"/>
            <path id="Trazado_114068" data-name="Trazado 114068" d="M34.392,69.839c1.2,1.047,1.6,2.441.878,3.114s-2.277.37-3.481-.676-1.6-2.441-.878-3.114,2.277-.37,3.481.676" transform="translate(-5.472 -12.324)" fill="#cf807b"/>
            <path id="Trazado_114069" data-name="Trazado 114069" d="M55.582,49.918c.346.831,2.131.4,4.007.105,2.77-.433,3.441-.59,3.5-1.382.03-.384-.653-2.007-3.668-1.62-3.526.451-4.195,2.044-3.84,2.9" transform="translate(-9.941 -8.412)" fill="#c27d4f"/>
            <path id="Trazado_114070" data-name="Trazado 114070" d="M43.22,55.681c-1.828,1.109-3.116,2.282-3.858,1.762-.629-.441-.809-2.083,1.978-4.2,1.538-1.17,4.349-2.17,5.175-.729.77,1.345-1.432,2.039-3.294,3.169" transform="translate(-6.981 -9.278)" fill="#c27d4f"/>
            <path id="Trazado_114071" data-name="Trazado 114071" d="M43.868,60.39c-.27.264,1.515,2.418,4.1,1.174,1.877-.9,1.417-2.436,1.092-2.482s-.525.886-1.55,1.437c-1.376.74-3.374-.394-3.644-.13" transform="translate(-7.853 -10.583)" fill="#5e5254"/>
            <path id="Trazado_114072" data-name="Trazado 114072" d="M57.528,55.429c-.441.52,1.419,2.306,3.545,1.3,1.938-.913,1.381-2.747,1.039-2.722s-.056,1.1-1.475,1.721c-1.583.69-2.89-.586-3.109-.3" transform="translate(-10.293 -9.674)" fill="#5e5254"/>
            <path id="Trazado_114073" data-name="Trazado 114073" d="M57.461,73.964c.96-.332,1.5-1.524,3.032-2.076s2.043-.086,2.266.587-.515,1.594-1.674,1.923a4.832,4.832,0,0,1-3.624-.433" transform="translate(-10.292 -12.833)" fill="#5e5254"/>
            <path id="Trazado_114074" data-name="Trazado 114074" d="M59.542,77.423a1.978,1.978,0,0,0,2.45.488c1.313-.5,1.9-1.64,1.733-2.071s-.911.333-2.066.77-2.28.383-2.116.813" transform="translate(-10.662 -13.561)" fill="#cf807b"/>
            <path id="Trazado_114075" data-name="Trazado 114075" d="M62.346,60.237a9.418,9.418,0,0,1,8.261-6.794c4.28-.278,5.421-2.364,5.787-4.364S72.7,44,73.731,40.949a8.831,8.831,0,0,1,3.808-4.537s-5.031-2.97-1.609-9.228,6.841-5.46,6.841-5.46-2.881-3.013-1.009-5.571S85.2,13.616,85.2,13.616a7.668,7.668,0,0,1,2.583-4.989,8.676,8.676,0,0,1,5.1-1.74S95.812-.3,107.212.009s14,11.383,14,11.383,2.216-1.226,3.893,1.528a4.907,4.907,0,0,1,.17,5.076s7.654,7.187,2.1,13.68-12,4.857-12,4.857-1.226,3.075-4.088,3.783a5.972,5.972,0,0,1-5.032-1.206s-4.97,4.665-11.057,4.555-8.687-5.9-8.687-5.9-4.625.708-5.809,4.171c-1.4,4.079,6.579,8.089,2.232,13.077-3.619,4.154-7.163.793-11.572,1.674a34.889,34.889,0,0,0-9.013,3.545" transform="translate(-11.167 0)" fill="#d0d0d0"/>
            <path id="Trazado_114076" data-name="Trazado 114076" d="M46.345,104.874A25.938,25.938,0,0,1,30.874,99.8a.584.584,0,0,1,.7-.934,24.756,24.756,0,0,0,21.529,3.875.585.585,0,0,1,.332,1.121,25.009,25.009,0,0,1-7.093,1.013" transform="translate(-5.488 -17.688)" fill="#e8ac68"/>
            <path id="Trazado_114077" data-name="Trazado 114077" d="M49.839,109.905a19.471,19.471,0,0,1-4.16-.449.584.584,0,1,1,.25-1.141,18.37,18.37,0,0,0,9.236-.368.584.584,0,0,1,.34,1.118,19.5,19.5,0,0,1-5.666.84" transform="translate(-8.1 -19.331)" fill="#e8ac68"/>
            <path id="Trazado_114078" data-name="Trazado 114078" d="M59.181,147.432a.584.584,0,0,1-.392-1.019l7.784-7.019a.584.584,0,0,1,.782.868l-7.784,7.019a.582.582,0,0,1-.392.15" transform="translate(-10.496 -24.941)" fill="#e8ac68"/>
            <path id="Trazado_114079" data-name="Trazado 114079" d="M64.1,148.628a.584.584,0,0,1-.395-1.015l2.541-2.328a.584.584,0,0,1,.79.862L64.5,148.474a.584.584,0,0,1-.395.154" transform="translate(-11.378 -25.996)" fill="#e8ac68"/>
            <path id="Trazado_114080" data-name="Trazado 114080" d="M101.3,48.509a8.072,8.072,0,0,1-4.051-1.075,8.176,8.176,0,0,1-4-7.037.585.585,0,0,1,.584-.579h.006a.585.585,0,0,1,.579.59,6.883,6.883,0,0,0,10.341,6.019.584.584,0,1,1,.586,1.011,8.067,8.067,0,0,1-4.044,1.07" transform="translate(-16.702 -7.132)" fill="#b7b7b7"/>
            <path id="Trazado_114081" data-name="Trazado 114081" d="M106.226,44.527a.584.584,0,0,1-.011-1.168,3.646,3.646,0,0,0,3.394-3.753.585.585,0,0,1,.535-.63.592.592,0,0,1,.63.536,4.81,4.81,0,0,1-4.535,5.015h-.012" transform="translate(-18.923 -6.981)" fill="#b7b7b7"/>
            <path id="Trazado_114082" data-name="Trazado 114082" d="M119.932,45.2a4.044,4.044,0,0,1-.681-.056.585.585,0,0,1,.195-1.153,3.1,3.1,0,0,0,3.179-4.636.584.584,0,1,1,1-.6,4.262,4.262,0,0,1-3.7,6.443" transform="translate(-21.273 -6.891)" fill="#b7b7b7"/>
            <path id="Trazado_114083" data-name="Trazado 114083" d="M131.666,37.842a.584.584,0,0,1-.054-1.166,6.5,6.5,0,0,0,5.676-5.859,6.5,6.5,0,0,0-4.894-6.525.584.584,0,1,1,.255-1.14,7.706,7.706,0,0,1,5.805,7.739,7.707,7.707,0,0,1-6.732,6.949l-.056,0" transform="translate(-23.479 -4.144)" fill="#b7b7b7"/>
            <path id="Trazado_114084" data-name="Trazado 114084" d="M134.873,20.9a.584.584,0,0,1-.291-1.091,1.915,1.915,0,0,0,.591-2.6.585.585,0,1,1,.963-.663,3.081,3.081,0,0,1-.972,4.277.577.577,0,0,1-.291.078" transform="translate(-24.054 -2.918)" fill="#b7b7b7"/>
            <path id="Trazado_114085" data-name="Trazado 114085" d="M118.978,33.657A7.547,7.547,0,0,1,115.864,33a.584.584,0,0,1,.481-1.065A6.6,6.6,0,0,0,124.8,22.67a.585.585,0,1,1,1.017-.577,7.728,7.728,0,0,1-6.837,11.564" transform="translate(-20.692 -3.904)" fill="#b7b7b7"/>
            <path id="Trazado_114086" data-name="Trazado 114086" d="M127.322,14.465h-.016a.584.584,0,0,1-.569-.6,9.214,9.214,0,0,0-8.789-9.448A.584.584,0,0,1,118,3.25a10.382,10.382,0,0,1,9.9,10.646.585.585,0,0,1-.584.569" transform="translate(-21.027 -0.582)" fill="#b7b7b7"/>
            <path id="Trazado_114087" data-name="Trazado 114087" d="M106.928,6.094a.585.585,0,0,1-.413-1,5.918,5.918,0,0,1,5.559-1.509.584.584,0,0,1-.293,1.131,4.723,4.723,0,0,0-4.441,1.206.582.582,0,0,1-.412.17" transform="translate(-19.048 -0.611)" fill="#b7b7b7"/>
            <path id="Trazado_114088" data-name="Trazado 114088" d="M103.944,16.61a.585.585,0,0,1-.584-.553,4.455,4.455,0,0,0-6.7-3.608.584.584,0,0,1-.592-1.008A5.625,5.625,0,0,1,104.527,16a.585.585,0,0,1-.553.614h-.03" transform="translate(-17.156 -1.914)" fill="#b7b7b7"/>
            <path id="Trazado_114089" data-name="Trazado 114089" d="M115.686,20.727a.585.585,0,0,1-.584-.58,4.269,4.269,0,0,0-5.506-4.049.584.584,0,0,1-.338-1.118,5.438,5.438,0,0,1,7.014,5.158.585.585,0,0,1-.58.589Z" transform="translate(-19.496 -2.643)" fill="#b7b7b7"/>
            <path id="Trazado_114090" data-name="Trazado 114090" d="M106.1,27.719a.584.584,0,0,1-.581-.533,6.362,6.362,0,0,0-12.07-2.2.584.584,0,0,1-1.053-.506,7.53,7.53,0,0,1,14.287,2.6.584.584,0,0,1-.531.633l-.052,0" transform="translate(-16.539 -3.623)" fill="#b7b7b7"/>
            <path id="Trazado_114091" data-name="Trazado 114091" d="M85.209,42.436a4.173,4.173,0,0,1-1.606-.317,4.253,4.253,0,0,1-2.467-2.935.585.585,0,1,1,1.14-.259,3.018,3.018,0,0,0,4.531,1.9.585.585,0,0,1,.616.994,4.223,4.223,0,0,1-2.215.619" transform="translate(-14.531 -6.891)" fill="#b7b7b7"/>
            <path id="Trazado_114092" data-name="Trazado 114092" d="M92.155,20.34a.584.584,0,0,1-.391-.15,1.606,1.606,0,0,0-2.033-.023.584.584,0,1,1-.761-.887,2.784,2.784,0,0,1,3.575.041.584.584,0,0,1-.391,1.019" transform="translate(-15.9 -3.341)" fill="#b7b7b7"/>
            <path id="Trazado_114093" data-name="Trazado 114093" d="M104.157,32.328a.591.591,0,0,1-.242-.053.584.584,0,0,1-.289-.774,3.125,3.125,0,0,0-1.337-3.873.584.584,0,1,1,.537-1.038,4.3,4.3,0,0,1,1.863,5.395.585.585,0,0,1-.532.342" transform="translate(-18.265 -4.751)" fill="#b7b7b7"/>
            <path id="Trazado_114094" data-name="Trazado 114094" d="M124.38,19.29a.585.585,0,0,1-.525-.84,3.146,3.146,0,0,0-.62-3.509.584.584,0,1,1,.812-.841,4.3,4.3,0,0,1,.859,4.861.585.585,0,0,1-.526.328" transform="translate(-22.042 -2.496)" fill="#b7b7b7"/>
            <path id="Trazado_114095" data-name="Trazado 114095" d="M89.08,36.974a2.681,2.681,0,0,1-1.226-.288.584.584,0,0,1,.535-1.039,1.881,1.881,0,0,0,2.541-1.253.584.584,0,1,1,1.149.208,2.913,2.913,0,0,1-1.618,2.043,3.139,3.139,0,0,1-1.381.328" transform="translate(-15.68 -6.075)" fill="#b7b7b7"/>
            <path id="Trazado_114096" data-name="Trazado 114096" d="M79.967,152.945a43.677,43.677,0,0,0,9.085-2.049c4.723-1.858,6.534-6.536,7.51-5.885s0,3.871-2.165,6.035a33.565,33.565,0,0,0,7.275-1.467c3.066-1.285,4.778-4.244,5.7-3.884s.268,1.886.268,1.886.994-1.24,1.594-.586c.445.484.2,2.047-.937,4.445a1.752,1.752,0,0,1,.131,1.285c-.242,1.163-1.5,3.977-5.9,5.835-4.131,1.743-9.059,1.394-12.388,1.781a38.032,38.032,0,0,0-7.9,1.858Z" transform="translate(-14.324 -25.963)" fill="#f1ae96"/>
            <path id="Trazado_114097" data-name="Trazado 114097" d="M106.545,153.356a.35.35,0,0,1-.108-.684,11.046,11.046,0,0,0,5.6-4.761.351.351,0,1,1,.613.34,11.544,11.544,0,0,1-5.992,5.088.356.356,0,0,1-.108.017" transform="translate(-19.021 -26.461)" fill="#d3837b"/>
            <path id="Trazado_114098" data-name="Trazado 114098" d="M107.559,157.609a.351.351,0,0,1-.085-.691,9.431,9.431,0,0,0,5.205-3.945.351.351,0,1,1,.6.364,9.973,9.973,0,0,1-5.635,4.261.342.342,0,0,1-.085.011" transform="translate(-19.203 -27.37)" fill="#d3837b"/>
            <path id="Trazado_114099" data-name="Trazado 114099" d="M119.237,167.578c-2.018-.415-3.44,1.511-6.727,2.271s-10.148-.126-10.931,1.148,5.353,1.881,7.706,2.495-.653,5.083-2.79,6.6-5.389,3.925-5.26,4.659c.18,1.025,1.689.538,1.689.538s-2.149,1.063-1.652,1.817,2.037.554,2.917.083a1.023,1.023,0,0,0,.333,1.237c.674.529,4.223-.3,7.457-2.454,4.09-2.727,6.328-8.151,7.057-8.522s3.131-1.225,3.8-2.612c.912-1.9.91-6.335-3.6-7.26" transform="translate(-18.126 -30.006)" fill="#f1ae96"/>
            <path id="Trazado_114100" data-name="Trazado 114100" d="M103.223,188.646a.351.351,0,0,1-.142-.671,23.675,23.675,0,0,0,5.459-3.593.351.351,0,1,1,.467.524,23.966,23.966,0,0,1-5.643,3.71.347.347,0,0,1-.141.03" transform="translate(-18.426 -33.01)" fill="#d3837b"/>
            <path id="Trazado_114101" data-name="Trazado 114101" d="M105,191.071a.351.351,0,0,1-.066-.7,13.5,13.5,0,0,0,6.15-3.314.351.351,0,1,1,.492.5,13.964,13.964,0,0,1-6.51,3.5.3.3,0,0,1-.066.007" transform="translate(-18.745 -33.489)" fill="#d3837b"/>
            <path id="Trazado_114102" data-name="Trazado 114102" d="M57.977,235.764a.585.585,0,0,1-.15-1.149,17.272,17.272,0,0,0,8.041-4.815.584.584,0,0,1,.853.8,18.447,18.447,0,0,1-8.593,5.146.562.562,0,0,1-.151.021" transform="translate(-10.28 -41.128)" fill="#88a29e"/>
            <path id="Trazado_114103" data-name="Trazado 114103" d="M173.328,357.547c8.18-10.225,18.5-2.377,30.968-8.765s10.389-17.875,8.608-18.274-4.631,2.4-4.631,2.4a12.44,12.44,0,0,1,4.631-8.383c4.275-3.193,8.55-11.975,4.988-17.963s-11.044-6.786-16.744-9.581S197.941,288.2,205.065,285s18.169-11.177,14.963-27.943-18.881-23.551-18.881-23.551,7.124,7.185,2.849,15.967-12.468,7.984-24.938,15.967-19.95,23.551-5.7,32.733c0,0-3.779,12.05,5.344,17.165,7.857,4.4,11.505,3.29,14.9,6.334,3.563,3.194,4.906,10.615-3.288,14.208s-16.989,10.564-16.989,21.665" transform="translate(-29.664 -41.826)" fill="#d0d0d0"/>
            <path id="Trazado_114104" data-name="Trazado 114104" d="M198.871,299.442a.584.584,0,0,1-.58-.516c-.641-5.46,3.291-10.244,7.184-12.9,1.421-.969,2.933-1.814,4.4-2.631a30.638,30.638,0,0,0,7.368-5.108,18.7,18.7,0,0,0,.282-25.108.584.584,0,1,1,.857-.795,19.865,19.865,0,0,1-.3,26.719,31.97,31.97,0,0,1-7.635,5.312c-1.44.8-2.929,1.636-4.306,2.576-3.611,2.464-7.263,6.858-6.683,11.8a.584.584,0,0,1-.512.648.645.645,0,0,1-.069,0" transform="translate(-35.506 -45.173)" fill="#b7b7b7"/>
            <path id="Trazado_114105" data-name="Trazado 114105" d="M200.722,315.86H200.7a8.071,8.071,0,0,1-6.887-5.082,9.8,9.8,0,0,1,.941-9.061.585.585,0,1,1,.957.671,8.588,8.588,0,0,0-.819,7.942,6.891,6.891,0,0,0,5.852,4.362.584.584,0,0,1-.021,1.168" transform="translate(-34.591 -53.999)" fill="#b7b7b7"/>
            <path id="Trazado_114106" data-name="Trazado 114106" d="M200.418,352.208a.584.584,0,0,1-.375-1.033c2.34-1.958,3.475-5.818,2.761-9.389-1.5-7.477-6.107-8.864-11.447-10.471a27.639,27.639,0,0,1-7.619-3.163,7.222,7.222,0,0,1-3.319-3.906.584.584,0,1,1,1.128-.3,6.117,6.117,0,0,0,2.84,3.239,26.777,26.777,0,0,0,7.307,3.015c5.222,1.572,10.622,3.2,12.255,11.36.807,4.035-.461,8.261-3.157,10.515a.583.583,0,0,1-.374.136" transform="translate(-32.313 -57.947)" fill="#b7b7b7"/>
            <path id="Trazado_114107" data-name="Trazado 114107" d="M220.075,335.63a.584.584,0,0,1-.282-1.1,7.447,7.447,0,0,0,3.545-6.016,7.688,7.688,0,0,0-2.912-6.447.584.584,0,1,1,.685-.947,8.776,8.776,0,0,1,3.394,7.454,8.533,8.533,0,0,1-4.147,6.979.575.575,0,0,1-.282.073" transform="translate(-39.315 -57.5)" fill="#b7b7b7"/>
            <path id="Trazado_114108" data-name="Trazado 114108" d="M197,367.857a22.336,22.336,0,0,1-2.422-.131.585.585,0,0,1,.128-1.162,23.191,23.191,0,0,0,19.2-7.38.584.584,0,1,1,.85.8A24.636,24.636,0,0,1,197,367.857" transform="translate(-34.76 -64.304)" fill="#b7b7b7"/>
            <path id="Trazado_114109" data-name="Trazado 114109" d="M187.471,321.659a.573.573,0,0,1-.091-.007,6.112,6.112,0,0,1-4.046-2.814,7.576,7.576,0,0,1-1.073-5.956.584.584,0,0,1,1.131.295,6.39,6.39,0,0,0,.919,5.02,4.953,4.953,0,0,0,3.25,2.3.584.584,0,0,1-.089,1.162" transform="translate(-32.608 -55.965)" fill="#b7b7b7"/>
            <path id="Trazado_114110" data-name="Trazado 114110" d="M173.349,298.923a.583.583,0,0,1-.456-.219c-2.518-3.142-1.994-8.084-.173-11.343,1.908-3.412,5.025-5.705,7.775-7.728a.584.584,0,1,1,.693.941c-2.656,1.953-5.664,4.167-7.447,7.358-1.631,2.917-2.132,7.3.064,10.042a.584.584,0,0,1-.456.95" transform="translate(-30.661 -50.067)" fill="#b7b7b7"/>
            <path id="Trazado_114111" data-name="Trazado 114111" d="M230.138,262.965a.585.585,0,0,1-.468-.934c5.561-7.44,3.079-17.738-.736-24.3-2.918-5.016-6.971-9.376-10.89-13.591-1.986-2.137-4.039-4.346-5.933-6.624-7.175-8.635-10.261-16.869-9.17-24.476a.584.584,0,0,1,1.157.167c-1.042,7.266,1.957,15.193,8.912,23.563,1.873,2.253,3.915,4.45,5.89,6.574,3.962,4.263,8.059,8.671,11.044,13.8,3.994,6.867,6.564,17.686.662,25.583a.584.584,0,0,1-.469.235" transform="translate(-36.312 -34.488)" fill="#d0d0d0"/>
            <path id="Trazado_114112" data-name="Trazado 114112" d="M191.432,254.236a.584.584,0,0,1-.182-1.139c4.542-1.492,9.514-3.449,11.032-7.8,1.116-3.2-.124-6.834-1.153-9.29a48.443,48.443,0,0,0-5.458-9.7.584.584,0,1,1,.946-.686,49.538,49.538,0,0,1,5.589,9.935c1.1,2.633,2.429,6.547,1.18,10.126-1.612,4.619-6.61,6.825-11.771,8.521a.565.565,0,0,1-.182.03" transform="translate(-34.185 -40.371)" fill="#d0d0d0"/>
            <path id="Trazado_114113" data-name="Trazado 114113" d="M191.31,227.922a.585.585,0,0,1-.509-.3,23.054,23.054,0,0,1-2.755-14.4.584.584,0,0,1,1.157.159,21.873,21.873,0,0,0,2.615,13.666.584.584,0,0,1-.508.872" transform="translate(-33.645 -38.102)" fill="#d0d0d0"/>
            <path id="Trazado_114114" data-name="Trazado 114114" d="M237.051,283.871a.585.585,0,0,1-.331-1.066,18.655,18.655,0,0,0,7.924-15.858.584.584,0,0,1,.558-.609.578.578,0,0,1,.609.558,19.849,19.849,0,0,1-8.43,16.872.577.577,0,0,1-.33.1" transform="translate(-42.356 -47.706)" fill="#d0d0d0"/>
            <path id="Trazado_114115" data-name="Trazado 114115" d="M164.673,305.128a.585.585,0,0,1-.352-.118c-4.2-3.169-6.3-9.14-5.363-15.212.726-4.695,3.019-9.382,7.22-14.754a.584.584,0,0,1,.921.72c-4.072,5.207-6.292,9.723-6.986,14.212-.873,5.653,1.055,11.188,4.913,14.1a.585.585,0,0,1-.353,1.051" transform="translate(-28.433 -49.225)" fill="#d0d0d0"/>
            <path id="Trazado_114116" data-name="Trazado 114116" d="M160.134,273.822a.584.584,0,0,1-.546-.794,17.985,17.985,0,0,1,10.9-10.476.585.585,0,1,1,.375,1.107,16.8,16.8,0,0,0-10.186,9.787.585.585,0,0,1-.546.375" transform="translate(-28.578 -47.023)" fill="#d0d0d0"/>
            <path id="Trazado_114117" data-name="Trazado 114117" d="M231.729,337.716a.584.584,0,0,1-.391-1.019,14.038,14.038,0,0,0-1.252-21.877.584.584,0,1,1,.677-.952,15.207,15.207,0,0,1,1.356,23.7.584.584,0,0,1-.391.15" transform="translate(-41.169 -56.201)" fill="#d0d0d0"/>
            <path id="Trazado_114118" data-name="Trazado 114118" d="M210.688,201.486a.584.584,0,0,1-.529-.337,26.131,26.131,0,0,1,1.175-24.077.584.584,0,0,1,1.006.6,24.949,24.949,0,0,0-1.122,22.987.585.585,0,0,1-.282.777.576.576,0,0,1-.247.055" transform="translate(-37.216 -31.666)" fill="#d0d0d0"/>
            <path id="Trazado_114119" data-name="Trazado 114119" d="M18.615,37.573s.154-7.463,6.693-10.343,14.008-2.6,17.358-4.274c3.528-1.762.712-3.312.712-3.312s2.634-.1,3.4,1.486c1.179,2.443-.389,3.57-.389,3.57s2.19-.969,2.539-2.731a3.95,3.95,0,0,0-1.052-3.312s6.022,1.293,7.848,5.4c1.743,3.919.836,9.313-6.327,11.87s-18.2,3.779-18.2,3.779Z" transform="translate(-3.334 -3.342)" fill="#c27d4f"/>
            <path id="Trazado_114120" data-name="Trazado 114120" d="M24.444,62.315a.455.455,0,0,1-.1-.9,7.627,7.627,0,0,0,5.45-5.181.455.455,0,1,1,.875.251A8.449,8.449,0,0,1,24.547,62.3a.445.445,0,0,1-.1.012" transform="translate(-4.297 -10.014)" fill="#ad663b"/>
            <path id="Trazado_114121" data-name="Trazado 114121" d="M28.934,64.475a.455.455,0,0,1-.163-.88,4.513,4.513,0,0,0,2.606-2.655.455.455,0,0,1,.855.309,5.437,5.437,0,0,1-3.137,3.2.452.452,0,0,1-.163.03" transform="translate(-5.101 -10.862)" fill="#ad663b"/>
            <path id="Trazado_114122" data-name="Trazado 114122" d="M16.428,49.837a.456.456,0,0,1-.448-.378,5.029,5.029,0,0,1,2.256-5,.455.455,0,1,1,.479.773,4.1,4.1,0,0,0-1.838,4.079.456.456,0,0,1-.372.525.414.414,0,0,1-.077.007" transform="translate(-2.851 -7.95)" fill="#ad663b"/>
            <path id="Trazado_114123" data-name="Trazado 114123" d="M21.02,39.811a.455.455,0,0,1-.455-.45,9.106,9.106,0,0,1,3.551-7.241.455.455,0,0,1,.548.726,8.182,8.182,0,0,0-3.19,6.5.455.455,0,0,1-.45.461Z" transform="translate(-3.683 -5.737)" fill="#ad663b"/>
            <path id="Trazado_114124" data-name="Trazado 114124" d="M51.708,36.362a.455.455,0,0,1-.136-.889,17.924,17.924,0,0,0,5.18-2.383,7.807,7.807,0,0,0,3.165-4.411,4.956,4.956,0,0,0-1.45-4.887.455.455,0,0,1,.58-.7A5.879,5.879,0,0,1,60.8,28.886a8.713,8.713,0,0,1-3.518,4.942,18.787,18.787,0,0,1-5.44,2.514.461.461,0,0,1-.136.021" transform="translate(-9.18 -4.118)" fill="#ad663b"/>
            <path id="Trazado_114125" data-name="Trazado 114125" d="M59.123,27.348a.44.44,0,0,1-.065,0,.455.455,0,0,1-.386-.514,2.142,2.142,0,0,0-1.7-2.314.455.455,0,1,1,.145-.9,3.051,3.051,0,0,1,2.459,3.34.455.455,0,0,1-.45.391" transform="translate(-10.136 -4.229)" fill="#ad663b"/>
            <path id="Trazado_114126" data-name="Trazado 114126" d="M31.2,42.168a.455.455,0,0,1-.015-.91,67.193,67.193,0,0,0,7.035-.616.455.455,0,1,1,.128.9,68.175,68.175,0,0,1-7.132.626H31.2" transform="translate(-5.506 -7.279)" fill="#ad663b"/>
            <path id="Trazado_114127" data-name="Trazado 114127" d="M33.3,49.147l-.048,0a.455.455,0,0,1-.4-.5,4.723,4.723,0,0,0-.968-3.376.455.455,0,0,1,.716-.561,5.63,5.63,0,0,1,1.156,4.032.454.454,0,0,1-.451.407" transform="translate(-5.693 -7.977)" fill="#ad663b"/>
            <path id="Trazado_114128" data-name="Trazado 114128" d="M45.029,27.26c-.138,0-.276,0-.414-.014a.455.455,0,0,1-.423-.485.441.441,0,0,1,.485-.422,5.631,5.631,0,0,0,5.166-2.768.455.455,0,0,1,.791.451,6.556,6.556,0,0,1-5.6,3.238" transform="translate(-7.916 -4.181)" fill="#ad663b"/>
            <path id="Trazado_114129" data-name="Trazado 114129" d="M18.82,98.594C-1.438,110.947-6.9,163.558,10.154,168.612c19.788,5.864,42.492-1.618,60.084-12.173a26.843,26.843,0,0,0-.584-7.986,19.206,19.206,0,0,0-4.09-7.011c-14.264,3.356-40.8,3.993-40.8,3.993l4.577-22.69S26.027,100.737,18.82,98.594" transform="translate(0 -17.66)" fill="#ffb74d"/>
            <path id="Trazado_114130" data-name="Trazado 114130" d="M25.372,177.154q-1.922,0-3.8-.122a.585.585,0,0,1,.077-1.167c17.505,1.158,38.568-6.212,51.792-14.077a26,26,0,0,0-.589-7.491,18.214,18.214,0,0,0-3.729-6.513c-14.238,3.264-40.321,3.924-40.584,3.93a.545.545,0,0,1-.463-.21.583.583,0,0,1-.123-.493l4.187-20.158a.584.584,0,1,1,1.144.237L29.25,150.525c4.384-.135,27.228-.964,39.947-3.957a.585.585,0,0,1,.56.168A19.6,19.6,0,0,1,73.986,154a27.164,27.164,0,0,1,.6,8.187.584.584,0,0,1-.282.448c-12.427,7.456-31.885,14.519-48.934,14.519" transform="translate(-3.767 -23.355)" fill="#e8ac68"/>
            <path id="Trazado_114131" data-name="Trazado 114131" d="M15.46,180.621h-.03a8.255,8.255,0,0,1-6.965-4.789.584.584,0,0,1,1.068-.474,7.062,7.062,0,0,0,5.957,4.1.584.584,0,0,1-.03,1.168" transform="translate(-1.507 -31.348)" fill="#e8ac68"/>
            <path id="Trazado_114132" data-name="Trazado 114132" d="M18.694,158.56a.584.584,0,0,1-.327-1.069,17.848,17.848,0,0,1,6.7-2.745,9.241,9.241,0,0,0-4.389.036.584.584,0,1,1-.313-1.126,11.278,11.278,0,0,1,7.6.854.584.584,0,0,1-.23,1.111,16.934,16.934,0,0,0-8.71,2.839.583.583,0,0,1-.326.1" transform="translate(-3.244 -27.465)" fill="#e8ac68"/>
          </g>
        </g>
      </g>
    </g>
  </g>
</svg>
