<svg id="Grupo_80683" data-name="Grupo 80683" xmlns="http://www.w3.org/2000/svg" xmlns:xlink="http://www.w3.org/1999/xlink" width="218.44" height="192.142" viewBox="0 0 218.44 192.142">
  <defs>
    <clipPath id="clip-path">
      <rect id="Rect치ngulo_46515" data-name="Rect치ngulo 46515" width="218.44" height="192.142" fill="none"/>
    </clipPath>
    <clipPath id="clip-path-3">
      <rect id="Rect치ngulo_46513" data-name="Rect치ngulo 46513" width="186.789" height="191.943" fill="none"/>
    </clipPath>
  </defs>
  <g id="Grupo_80682" data-name="Grupo 80682" clip-path="url(#clip-path)">
    <g id="Grupo_80681" data-name="Grupo 80681">
      <g id="Grupo_80680" data-name="Grupo 80680" clip-path="url(#clip-path)">
        <path id="Trazado_114283" data-name="Trazado 114283" d="M229.977,298.568c.153-1.089.453-4.821.195-5.478a3.625,3.625,0,0,0-1.856-1.979,11.764,11.764,0,0,0-6.27-.828c-3.379.543-6.226,5.966-8.535,9.192s-6.151,8.314-6.442,13.134,4.71,6.565,8.417,7.175c6.886,1.133,9-3.266,10.217-6.1s1.374-7.677,1.745-8.944a13.218,13.218,0,0,1,.9-2.633c.554-.984,1.118.133,1.632-3.543" transform="translate(-108.157 -151.565)" fill="#342f68"/>
        <path id="Trazado_114284" data-name="Trazado 114284" d="M235.322,268.791c.292-1.163,1.061-3.3,2.057-5.918l-12.858-2.248a50.157,50.157,0,0,1-.1,6.463,63.038,63.038,0,0,1-3.184,11.355c-1.1,2.928-2.312,4.018-4.172,7.961-1.72,3.644-1.1,4.809.2,6.6s4.864,2.516,6.971,2.3,5.376-1.942,6.04-4.048,2.081-6.431,3.18-9.363.856-9.081,1.868-13.1" transform="translate(-112.836 -136.139)" fill="#f8aa9f"/>
        <path id="Trazado_114285" data-name="Trazado 114285" d="M279.327,309.69c.01-1.1-.182-4.839-.525-5.456a3.625,3.625,0,0,0-2.1-1.719,11.768,11.768,0,0,0-6.325,0c-3.279.981-5.39,6.732-7.256,10.232s-5.008,9.049-4.665,13.866,5.531,5.89,9.285,6.009c6.975.221,8.494-4.418,9.329-7.382s.355-7.792.556-9.1a13.247,13.247,0,0,1,.546-2.729c.419-1.048,1.126-.015,1.153-3.726" transform="translate(-134.993 -157.794)" fill="#342f68"/>
        <path id="Trazado_114286" data-name="Trazado 114286" d="M281.688,280.739c.137-1.191.618-3.414,1.263-6.137l-13.042-.543a50.1,50.1,0,0,1,.747,6.421,63.053,63.053,0,0,1-1.667,11.674c-.707,3.048-1.765,4.287-3.092,8.44-1.227,3.839-.457,4.911,1.062,6.514s5.151,1.856,7.212,1.366,5.075-2.63,5.457-4.8,1.22-6.647,1.926-9.7-.343-9.114.133-13.232" transform="translate(-138.576 -143.157)" fill="#f8aa9f"/>
        <path id="Trazado_114287" data-name="Trazado 114287" d="M311.644,30.924a14.2,14.2,0,0,0-5.691-1.758s1.574-5.149-.121-9.292a11.308,11.308,0,0,0-4.6-5.651s.605-3.767-1.574-6.278a6.328,6.328,0,0,0-5.207-2.135A14.244,14.244,0,0,0,284.4.034c-6.539-.5-11.383,4.646-11.383,4.646a10.188,10.188,0,0,0-10.172,2.888c-4.6,4.771-3.39,11.427-3.39,11.427a16.062,16.062,0,0,0-4.359,7.911,15.088,15.088,0,0,0,.605,7.66s-6.538,6.906-2.3,15.7,18.768,8.539,23.612,5.651a29.54,29.54,0,0,0,8.113-7.66s6.9,6.4,12.957,3.139,5.57-8.916,5.57-8.916,5.449,4.27,9.2,1.131,2.3-10.925-1.211-12.682" transform="translate(-131.619 0)" fill="#333145"/>
        <path id="Trazado_114288" data-name="Trazado 114288" d="M306.685,121.987s6.539-4.359,7.992-9.445.318-11.844-.121-16.589a20.6,20.6,0,0,0-5.126-11.175c-7.682-8.537-26.045-6.975-34.491-6.975s-27.345,2.53-34.368,9.069c-5.245,4.884-8.153,13.239-7.508,18.406.47,3.755,8.445,3.009,10.414,7.871,2.448,6.044.335,12.843.412,14.685.285,6.773.182,29.1,3.652,31s17.927,4.482,26.464,5.336c7.211.721,29.533-2.971,33.507-8.323s-.825-33.858-.825-33.858" transform="translate(-121.696 -40.582)" fill="#757fc0"/>
        <path id="Trazado_114289" data-name="Trazado 114289" d="M232.953,144.694c1.937-.969,3.662-2.668,6.192-2a78.113,78.113,0,0,1,2.937-7.558c1.07-2.011,2.645-8.673,2.645-8.673s-2.423-6.249-6.557-7.417-7.521-.582-8.573.021c-1.894,1.086-4.038,8.755-6.016,13.432-2.735,6.467-4.45,12.178-2.494,16.549s9.87-3.361,11.867-4.359" transform="translate(-115.047 -61.836)" fill="#f8aa9f"/>
        <path id="Trazado_114290" data-name="Trazado 114290" d="M298.764,76.873c-9.025,1.7-13.662,3.073-16.171,6.913s10.285,13.548,18.375,12.038c9.585-1.789,15.674-10.863,15.286-14.591s-8.465-6.062-17.491-4.36" transform="translate(-147.447 -39.86)" fill="#f8aa9f"/>
        <path id="Trazado_114291" data-name="Trazado 114291" d="M308.889,61.059l-7.37,1.509-7.535.023s-8.636,9.025-8.434,11.638,3.229,7.588,7.911,9.041,7.871,2.3,14.773-.847,6.055-12.23,6.055-12.23Z" transform="translate(-149.157 -31.895)" fill="#dc8575"/>
        <path id="Trazado_114292" data-name="Trazado 114292" d="M307.821,31.653c-1.414-.864-3.443,1.144-3.773,1.515a36.942,36.942,0,0,0-2.034-6.413c-2.489-5.1-8.376-8.022-13.469-8.357-7.5-.492-12.94,2.753-15.8,9.837a24.844,24.844,0,0,0-1.632,11.579,3.219,3.219,0,0,0-2.319-.053c-1.232.527-2.5,4.487-.541,7.063s5.988,2.829,6.414,2.819c2.419,4.306,6.188,8.644,11.488,10.025a14.417,14.417,0,0,0,14.111-4.508c3.525-3.765,5.779-10.453,5.551-12.439a10.306,10.306,0,0,0,3.9-5.067c.574-2.195.172-4.73-1.9-6" transform="translate(-139.595 -9.584)" fill="#f8aa9f"/>
        <path id="Trazado_114293" data-name="Trazado 114293" d="M327.532,72.048c1.049-.566,1.776-3.067,3.067-2.584a2.49,2.49,0,0,1,1.857,3.068c-.243,1.857-2.18,2.745-3.311,3.148a4.343,4.343,0,0,1-4.278-1.372c-.969-1.292,1.614-1.7,2.664-2.26" transform="translate(-169.586 -36.253)" fill="#bf7595"/>
        <path id="Trazado_114294" data-name="Trazado 114294" d="M308.374,29.263c-.606-1.816-1.938-10.9-9.324-13.32a21.6,21.6,0,0,0-13.8.242s-6.3-.242-9.2,3.754-4.117,11.746-3.875,14.41a33.476,33.476,0,0,0,1.574,7.628,6.215,6.215,0,0,0,2.906,3.148c.969.363,1.676-1.25,1.7-2.059s-.155-2.821-.155-2.821a20.172,20.172,0,0,0,3.787-1.417c3.512-1.937,4.48-6.781,4.48-6.781s2.3,2.785,5.085,3.027a6.135,6.135,0,0,0,4.48-1.333,6.645,6.645,0,0,0,4.723,2.786,18.49,18.49,0,0,0,4-.242s1.211,2.422,2.058,2.664,2.059-1.453,2.18-2.785a23.544,23.544,0,0,0-.605-6.9" transform="translate(-142.154 -7.797)" fill="#333145"/>
        <path id="Trazado_114295" data-name="Trazado 114295" d="M311.309,91.308s.646-1.453,3.391-2.1a3.828,3.828,0,0,1,4.036,1.131" transform="translate(-162.615 -46.525)" fill="none" stroke="#cb6163" stroke-miterlimit="10" stroke-width="2"/>
        <path id="Trazado_114296" data-name="Trazado 114296" d="M309.96,69.824c1.293,1.027,2.488,3.263,1.778,4.831-.249.614-.875,1.155-.821,1.69.266.866,1.415,1.056,2.265,1.238a2.607,2.607,0,0,1-3.634-.528,2.21,2.21,0,0,1-.112-1.982c.158-.474.528-.97.624-1.36a15.016,15.016,0,0,1-.1-3.889" transform="translate(-161.542 -36.473)" fill="#dc8575"/>
        <path id="Trazado_114297" data-name="Trazado 114297" d="M321.533,70.679a3.7,3.7,0,0,0,1.425,1.467,3.43,3.43,0,0,0,3.514-.784,4.744,4.744,0,0,0,1.116-1.773,3.085,3.085,0,0,1-.553,2.25c-1.564,2.211-5.437,1.907-5.5-1.16" transform="translate(-167.955 -36.35)" fill="#593143"/>
        <path id="Trazado_114298" data-name="Trazado 114298" d="M291.619,76a3.7,3.7,0,0,0,1.425,1.467,3.429,3.429,0,0,0,3.514-.784,4.739,4.739,0,0,0,1.116-1.773,3.085,3.085,0,0,1-.553,2.25c-1.563,2.211-5.437,1.907-5.5-1.16" transform="translate(-152.33 -39.131)" fill="#593143"/>
        <path id="Trazado_114299" data-name="Trazado 114299" d="M294.919,65.544l-.036.008.488.129-.019-.021a.672.672,0,0,0-.8-.1,12.634,12.634,0,0,0-1.43.873c-.151.11-.3.228-.448.336-.1.069-.194.133-.3.192-.046.027-.094.052-.141.077-.021.011-.211.1-.12.06s-.089.032-.108.039q-.113.039-.229.071c-.132.037-.334.081-.425.095a3.072,3.072,0,0,1-.473.023c-.164-.006.037.027-.131-.022-.071-.021-.144-.037-.215-.058s-.138-.045-.207-.068c-.241-.079.119.069-.095-.04-.116-.059-.231-.117-.343-.183a3.352,3.352,0,0,1-.329-.218.883.883,0,0,0-1.2.315.9.9,0,0,0,.315,1.2,4.149,4.149,0,0,0,1.4.674,3.868,3.868,0,0,0,2.447-.231,4.963,4.963,0,0,0,1.443-.944c.449-.4.94-.755,1.392-1.157a.671.671,0,0,0,.1-.8l-.006-.011v.506l.019-.03a.492.492,0,0,0-.55-.716" transform="translate(-150.564 -34.2)" fill="#333145"/>
        <path id="Trazado_114300" data-name="Trazado 114300" d="M318.916,62.965l.027.021-.147-.354-.005.044a.672.672,0,0,0,.485.637l.107.045.219.093c.212.09.427.165.645.24.16.055.322.107.481.167l.137.053c-.205-.077-.047-.02,0,0a4.677,4.677,0,0,0,1.932.437,3.758,3.758,0,0,0,2.4-.8,4.485,4.485,0,0,0,.914-1,.879.879,0,0,0-1.517-.887c-.016.025-.034.049-.051.074-.1.144.147-.176-.026.032a4.142,4.142,0,0,1-.526.525c.1-.08.024-.017-.035.023s-.128.088-.2.128-.115.064-.174.094c.149-.074-.055.019-.093.03a2.767,2.767,0,0,1-.947.135c-.065,0-.13,0-.195-.007-.025,0-.264-.034-.069,0-.117-.019-.233-.043-.348-.073-.2-.054-.4-.127-.606-.191a12.37,12.37,0,0,0-1.7-.382.678.678,0,0,0-.746.3l-.017.036.433-.249-.038,0c-.361.037-.716.543-.344.831" transform="translate(-166.506 -31.979)" fill="#333145"/>
        <path id="Trazado_114301" data-name="Trazado 114301" d="M294.975,83.786s-3.269,6.66-.363,7.265,2.785-1.453,2.422-2.785a34.373,34.373,0,0,0-2.059-4.48" transform="translate(-153.264 -43.766)" fill="#fff"/>
        <path id="Trazado_114302" data-name="Trazado 114302" d="M324.889,90.043a.043.043,0,0,1,0,.085.043.043,0,0,1,0-.085" transform="translate(-169.687 -47.035)" fill="#dc8c7a"/>
        <path id="Trazado_114303" data-name="Trazado 114303" d="M255.157,226.36c2.128.363,6.245.363,7.7-.606.776-.517,3.3-4.764,5.086-8.234,1.553-3.027,4.6-8.476,4.6-8.476s12.558,11.43,23.656,3.32,9.575-25.449,8.8-28.023-5.206-10.8-11.14-17.921c-7.265-8.719-14.5-12.2-17.921-12.594-9.39-1.067-14.046,8.234-14.046,8.234s-1.818-10.739-11.867-10.9c-13.445-.213-18.7,31.109-20.407,40.5s-4.269,26.89-3.415,27.744a9.991,9.991,0,0,0,6.142,3.2c4.117.726,7.588.457,8.156,0,1.067-.855,5.406-7.389,5.406-7.389s.363,7.508,1.7,8.84,5.431,1.939,7.559,2.3" transform="translate(-118.068 -78.961)" fill="#342f68"/>
        <path id="Trazado_114304" data-name="Trazado 114304" d="M268.145,227.063a203.091,203.091,0,0,1,5.2-26.827c2.12-7.675,4.3-15.508,8.253-22.483a15.222,15.222,0,0,1,2.05-2.758,29.221,29.221,0,0,0-2.8,6.159c-1.489,4.271-2.715,8.632-3.9,13-2.987,10.864-5.641,22.085-8.8,32.911" transform="translate(-140.068 -91.41)" fill="#18204d"/>
        <path id="Trazado_114305" data-name="Trazado 114305" d="M255.157,185.266a93.231,93.231,0,0,0-6.706-9.331c-1.511-1.617-6.055-6.3-8.961-7.508a13.866,13.866,0,0,0-8.13-.541,15.415,15.415,0,0,0-9.727,5.975c1.5,3.241,5.844,7.291,10.019,10.356,4.286,3.146,14.818,7.62,18.165,8.649,3.809,1.175,6.39-5.63,5.34-7.6" transform="translate(-115.772 -87.507)" fill="#f8aa9f"/>
        <path id="Trazado_114306" data-name="Trazado 114306" d="M300.029,204.537c-1.446-.278-1.707,1.432-1.707,1.432l-1.256.105s1.553-1.421.674-2.8c-1.6-2.52-4.7-3.382-6.9-3.567s-7.395,1.1-7.395,1.1-6.349,5.763-6.1,7.429,3,4.683,6.159,7.045a13.571,13.571,0,0,0,7,2.945,14.7,14.7,0,0,0,5.1.2,3.206,3.206,0,0,0,2.393-1.6,4.694,4.694,0,0,0,2.015-1.284,2.23,2.23,0,0,0,.688-2.338s1.624-.345,1.728-2.671c.081-1.748-1.137-1.215-1.137-1.215a4.385,4.385,0,0,0,1.043-2.5,4.058,4.058,0,0,0-2.3-2.274" transform="translate(-144.871 -104.307)" fill="#f8aa9f"/>
        <path id="Trazado_114307" data-name="Trazado 114307" d="M300.924,230.473A22.928,22.928,0,0,0,305.567,232l2.447.385c.822.135,1.646.283,2.478.5-3.317.623-7.214.253-9.569-2.408" transform="translate(-157.19 -120.39)" fill="#dc8575"/>
        <path id="Trazado_114308" data-name="Trazado 114308" d="M304.3,224.237a23.571,23.571,0,0,1,4.373,1.165,16.182,16.182,0,0,0,3.032.392c.848.059,1.705.118,2.578.238a10.573,10.573,0,0,1-5.925.257,23.477,23.477,0,0,1-4.058-2.053" transform="translate(-158.951 -117.132)" fill="#dc8575"/>
        <path id="Trazado_114309" data-name="Trazado 114309" d="M308.316,216.951a21.334,21.334,0,0,0,4.312.953,22.423,22.423,0,0,1,4.485.59c-2.943.629-6.522.772-8.8-1.543" transform="translate(-161.051 -113.326)" fill="#dc8575"/>
        <path id="Trazado_114310" data-name="Trazado 114310" d="M313.182,210.816a6.021,6.021,0,0,1-2.843-.206,4.151,4.151,0,0,1-2.325-1.7c.491.112.922.257,1.352.386a15.19,15.19,0,0,1,3.817,1.516" transform="translate(-160.893 -109.128)" fill="#dc8575"/>
        <path id="Trazado_114311" data-name="Trazado 114311" d="M391.79,104.512a31,31,0,0,1-.556,10.53c-1.288,6.468-5.186,11.065-8.943,12.65s-9.986.812-13.011-2.4-5.151-8.494-6.12-12.612.749-10.311,2.422-12.351,10.414-2.906,10.414-2.906Z" transform="translate(-189.553 -50.888)" fill="#dc8575"/>
        <path id="Trazado_114312" data-name="Trazado 114312" d="M375.568,114.671c-.564,2.474-1.541,5.227-2.307,7.626-.3.833-.55,1.684-.97,2.589a6.954,6.954,0,0,1-.513-2.831,9.047,9.047,0,0,1,3.789-7.383" transform="translate(-194.201 -59.899)" fill="#d0675f"/>
        <path id="Trazado_114313" data-name="Trazado 114313" d="M346.65,30.155c1.392-2.7,5.63-2.182,8.146-.122s5.439,7.923,6.365,6.842c1.243-1.444-5.688-19.458-5.442-26.887.126-3.763,4.64-5.891,6.4-1.013,1.5,4.155,6.26,22.176,7.191,22.025s.161-22.692.747-26.563c.633-4.179,5.4-3.759,6.285-.73s1.008,27.169,2.369,27.064,3.509-20.589,5.243-23.862,5.434-3.025,5.893,1.219-5.107,23.958-3.952,24.263,6.074-11.934,9.058-15.773c1.206-1.554,5.239-.607,4.349,2.989-.508,2.055-4.929,11.607-7.516,19.267-2.087,6.184-3.065,9.688-4.7,13.513s-6.445,8.741-12.543,7.985-13.172-1.321-15.768-5.405a41.443,41.443,0,0,1-4.477-10.24c-1.44-4.766-9.041-11.877-7.649-14.573" transform="translate(-180.987 -0.715)" fill="#f8aa9f"/>
        <path id="Trazado_114314" data-name="Trazado 114314" d="M381.164,81.02c5.252,2.847,7.506,10.538,3.706,15.406.914-5.974-.559-10.354-3.706-15.406" transform="translate(-199.104 -42.321)" fill="#dc8575"/>
        <path id="Trazado_114315" data-name="Trazado 114315" d="M406.031,74.587c-4.049-.211-8-.744-12.007-1.113-3.953-.31-7.93-.831-11.847.032,5.855-3.941,17.745-1.679,23.854,1.081" transform="translate(-199.633 -37.29)" fill="#dc8575"/>
        <path id="Trazado_114316" data-name="Trazado 114316" d="M319.862,235.325c4.8-10.532,10.447-21.633,12.846-32.989a41.212,41.212,0,0,0,.716-5.033c1.725,12.123-6.326,28.523-13.562,38.022" transform="translate(-167.083 -103.063)" fill="#18204d"/>
        <path id="Trazado_114317" data-name="Trazado 114317" d="M345.721,211.228c2.076-1.935,4.282-3.41,5.812-5.812-.246,2.948-3.123,5.111-5.812,5.812" transform="translate(-180.59 -107.301)" fill="#18204d"/>
        <path id="Trazado_114318" data-name="Trazado 114318" d="M265.605,186.17c-1.606-1.152-3.834-.86-5.642-.518-2.107.4-4.09.615-5.48,2.617-.505.728.134,1.953.948,1.375,2.945-2.088,6.843-1.247,10.067-2.561a.53.53,0,0,0,.107-.914" transform="translate(-132.838 -96.818)" fill="#bf7595"/>
        <path id="Trazado_114319" data-name="Trazado 114319" d="M269.058,193.97c-1.968-1.946-5.394-.058-7.6.272-.946.141-1.02,1.734,0,1.715a29.231,29.231,0,0,0,3.875-.514c1.245-.193,2.736-.008,3.728-.993a.369.369,0,0,0,0-.48" transform="translate(-136.188 -100.869)" fill="#bf7595"/>
        <path id="Trazado_114320" data-name="Trazado 114320" d="M241.432,140.751a8.266,8.266,0,0,0-1.765-.438c.471-.108.969-.21,1.545-.388,2.66-.82,1.872-4.227-.615-4.545-4.164-.532-9.354.8-12.039,4.159-.6.744-.339,2.318.9,2.17.138-.016.275-.039.413-.061a11.35,11.35,0,0,0-1.03,1.079,2.253,2.253,0,0,0,2.718,3.522c3.251-1.442,6.521-1.107,9.875-1.885,1.955-.453,1.609-3.006,0-3.614" transform="translate(-119.219 -70.658)" fill="#bf7595"/>
        <g id="Grupo_80679" data-name="Grupo 80679" transform="translate(0 0.199)" style="mix-blend-mode: multiply;isolation: isolate">
          <g id="Grupo_80678" data-name="Grupo 80678">
            <g id="Grupo_80677" data-name="Grupo 80677" clip-path="url(#clip-path-3)">
              <path id="Trazado_114321" data-name="Trazado 114321" d="M181.189,42.007c3.482-3.2,4.539-9.633,3.711-19.088C183.612,8.193,178.559,9.5,178.559,9.5a8.186,8.186,0,0,0-3.467-4.611,3.2,3.2,0,0,0-4.18.821,5.448,5.448,0,0,0-3.53-3.506,4.539,4.539,0,0,0-4.264.774S160.965.208,158.642.429s-5.357,3.581-9.3,7.242c-2.8,2.6-2.655,4.751-2.02,6.117-2.5,1.273-4.641,3.6-2.937,8.3,2.243,6.189,11.88,19.246,11.88,19.246s-1.037,14.838-1.037,20.687,1.214,13.122.828,18.344a1.8,1.8,0,0,0-1.518.176c-3.351,2.426-11.894,14.982-15.575,19.836s-12.907,4.892-16.962,4.076-9.582-1.239-17.411-2.171a75.183,75.183,0,0,0-11.237-.53l-1.421-7.1a22.33,22.33,0,0,0,8.114-7.608,12.3,12.3,0,0,0,1.228-2.465c-5.625-3.386-11.22.8-13.39-1.217s-.061-9.742,2.7-11c1.4-.641,3.936,2.29,6.364,2.995s6.061-.767,6.061-.767l0-5.324a4.219,4.219,0,0,0,4.445-1.853c1.852-2.593-4.815-7.409-5.186-13.335,2.3-2.654,5.251-9.264,3.182-13.694,1.493-2.545,2.612-6.37.814-8.9a9.783,9.783,0,0,0-1.077-1.259c-1.819-2.266-4.735-3.214-7.9-3.437-.189-.039-.372-.079-.562-.12-2.75-.584-5.408-1.306-8.116-1.863-6.887-2.762-18.951-5.679-27.458-4.064-7.066,1.342-9.631,5.927-9.631,5.927s-4.815.741-7.779,3.334-5.059,6.412-5.308,9.319,1.233,9.572,1.233,9.572S34.718,57.433,36.5,61.735a11.165,11.165,0,0,0,3.244,4.816c.045,4.983,3.89,9.925,8.706,11.633,1.231,2.516,2.7,5.52,5.293,7.743a38.1,38.1,0,0,1,5.186,5.926l-.809,11.641c-6.939-.127-24.527-2.5-32.837,2.179-9.794,5.508-14.978,19.955-18.436,28.588S-2.135,160.837.859,172.066s15.348,14.973,15.348,14.973a52.358,52.358,0,0,1,1.252,5.32H142.012c.595-12.789,5.738-27.269,6.213-29.012.705-2.593,4-5.58,7.408-7.78s14.288-10.615,18.893-15.927,4.411-13.177,2.975-18.918c0-.016-.01-.033-.013-.05,4.08-8.8,8.689-24.463,9.262-33.634.577-9.236-5.484-44.589-5.561-45.03" transform="translate(0 -0.417)" fill="#adadad"/>
            </g>
          </g>
        </g>
      </g>
    </g>
  </g>
</svg>
