<svg xmlns="http://www.w3.org/2000/svg" xmlns:xlink="http://www.w3.org/1999/xlink" width="107" height="107" viewBox="0 0 107 107">
  <defs>
    <clipPath id="clip-path">
      <rect id="Rectángulo_46530" data-name="Rectángulo 46530" width="80.364" height="71.632" fill="#fff" stroke="#fff" stroke-width="1"/>
    </clipPath>
  </defs>
  <g id="Grupo_80813" data-name="Grupo 80813" transform="translate(-795.667 -1953)">
    <circle id="Elipse_4722" data-name="Elipse 4722" cx="53.5" cy="53.5" r="53.5" transform="translate(795.667 1953)" fill="#08306e"/>
    <g id="Grupo_80715" data-name="Grupo 80715" transform="translate(808.985 1969.675)">
      <g id="Grupo_80714" data-name="Grupo 80714" clip-path="url(#clip-path)">
        <path id="Trazado_114646" data-name="Trazado 114646" d="M80.364,30.495c-.965,1.806-2.128,2.057-3.8.834Q58.668,18.217,40.776,5.1a.846.846,0,0,0-1.206.037Q21.71,18.233,3.834,31.309c-1.415,1.036-2.647.992-3.429-.118-.769-1.093-.441-2.217.955-3.24Q19.895,14.38,38.431.812C39.9-.267,40.487-.267,41.937.794q18.6,13.614,37.188,27.242a9.131,9.131,0,0,1,1.239,1.36Z" transform="translate(0 0)" fill="#fff" stroke="#fff" stroke-width="1"/>
        <path id="Trazado_114647" data-name="Trazado 114647" d="M63.146,188.7v-.949c0-5.649-.02-11.3.007-16.946a10.425,10.425,0,0,1,20.815-1.019c.078,1.094.057,2.2.058,3.293q.008,7.335,0,14.671v.97h16.7v-.946q0-15.966,0-31.931a2.091,2.091,0,0,1,2.03-2.381,2.01,2.01,0,0,1,2.086,1.734,6.594,6.594,0,0,1,.057,1.016q0,16.985,0,33.97c0,2.047-.687,2.736-2.72,2.736q-9.885,0-19.77,0c-1.823,0-2.56-.741-2.56-2.566,0-6.538.013-13.076-.007-19.613a6.266,6.266,0,1,0-12.529,0c-.019,6.512-.005,13.023-.007,19.535a5.6,5.6,0,0,1-.037.939,2.058,2.058,0,0,1-2.207,1.7c-3.53.01-7.061,0-10.591,0q-4.825,0-9.65,0c-1.823,0-2.561-.737-2.562-2.577q-.005-15.73,0-31.46c0-1.124-.032-2.251.023-3.372a2.017,2.017,0,0,1,2.12-2.047,2.061,2.061,0,0,1,2.03,2.145c.007.235,0,.471,0,.706q0,15.691,0,31.381V188.7Z" transform="translate(-33.398 -121.284)" fill="#fff" stroke="#fff" stroke-width="1"/>
      </g>
    </g>
  </g>
</svg>
