<svg xmlns="http://www.w3.org/2000/svg" xmlns:xlink="http://www.w3.org/1999/xlink" width="52.651" height="64" viewBox="0 0 52.651 64">
  <defs>
    <clipPath id="clip-path">
      <rect id="Rectángulo_33769" data-name="Rectángulo 33769" width="52.651" height="64" fill="none"/>
    </clipPath>
  </defs>
  <g id="Grupo_80122" data-name="Grupo 80122" transform="translate(-444 -936)">
    <g id="Grupo_80121" data-name="Grupo 80121" transform="translate(444 936)" clip-path="url(#clip-path)">
      <path id="Trazado_113526" data-name="Trazado 113526" d="M25.616,10.109a47.266,47.266,0,0,1,7.12-.19c3.646.172,7.134.192,10.293,2.336a7.554,7.554,0,0,1,2.878,8.86c-.66,1.7-1.889,3.03-2.214,4.873-.343,1.945.014,3.932-.02,5.89-.012.724.7,1.205,1.235,1.713,1.031.984,2,2.031,3.011,3.032.435.43.927.632.835,1.311-.206,1.518-1.777,1.586-2.675,2.461a1.916,1.916,0,0,0-.371,2.253,2.135,2.135,0,0,1,.242,1.725c-.252.509-.916.747-1.085,1.29-.152.493.174,1.038.026,1.532-.252.838-1.418.819-1.841,1.44a5.968,5.968,0,0,0-.8,2.716c-.173,2.528-1.509,3.658-3.916,3.351a21.93,21.93,0,0,1-3.741-1.082c-2.391-.758-4.816-1.008-4.72,2.145.079,2.639-.028,5.279.016,7.918.043,2.564,1.509,6.145-2.4,6.122-2.218-.013-12.663-.405-13.215-2.09a1.857,1.857,0,0,1,.067-1.033l2.369-9.1c.246-.945,1.15-2.637.208-3.422-.812-.677-1.832.07-2.689.293a12.9,12.9,0,0,1-3.2.314c-7.2.025-9.343-2.926-10.888-9.884-.609-2.744.872-5.06,3.058-6.7a30.422,30.422,0,0,1,2.74-1.506,2.511,2.511,0,0,0,1.316-2.5c.1-2.144-.833-4.229-1.028-6.3a14.09,14.09,0,0,1,.725-5.844A15.87,15.87,0,0,1,14.8,13.046a31.855,31.855,0,0,1,10.815-2.936" transform="translate(0 -5.805)" fill="#08306e"/>
      <path id="Trazado_113527" data-name="Trazado 113527" d="M53.812,63.708c-.523-3.623-.788-7.367-.877-8.869-.274-4.639.892-5.412,5.266-4.025a15.884,15.884,0,0,0,3.316,1c2.641.337,4.107-.9,4.3-3.676.081-1.182.658-3.665,1.79-4.355.364-.222.772-.365,1.138-.585a.763.763,0,0,0,.288-.259.751.751,0,0,0,.077-.344c.026-.652-.18-1.364.159-1.921.314-.516,1.022-.744,1.217-1.315a1.424,1.424,0,0,0,.016-.709c-.126-.7-.622-1.243-.632-1.944a2.093,2.093,0,0,1,.437-1.379c.487-.6,1.192-.735,1.781-1.152a3.176,3.176,0,0,0,1.3-1.645c.128-.651-.435-1.072-.831-1.464-1.114-1.1-2.177-2.251-3.31-3.333-.584-.557-1.368-1.085-1.355-1.879.042-2.449-.971-6.28.8-8.308a8.659,8.659,0,0,0,2.271-6.583,8.79,8.79,0,0,0-3.783-6.638C58.962-1.254,44.59-.519,38.574,8.049a16.966,16.966,0,0,0-2.748,10.683c.177,3.129,1.162,6.418,3.6,8.388,2.981,2.411,7.464,2.2,10.845.387a10.744,10.744,0,0,0,4.913-5.092c1.417-3.333,1.288-7.816-2.257-9.834-4.068-2.315-8.808,1.55-9.412,5.565-.961,6.391,3.562,12.573,2.833,18.976a15.473,15.473,0,0,1-2.321,5.936" transform="translate(-21.064 -0.441)" fill="none" stroke="#fff" stroke-linecap="round" stroke-linejoin="round" stroke-width="1"/>
      <path id="Trazado_113528" data-name="Trazado 113528" d="M68.163,79.543a4.28,4.28,0,0,1,3.458.5c.286.184-.962,1.42-2.583,1.882a4.753,4.753,0,0,1-3.347-.389A3.922,3.922,0,0,1,68.163,79.543Z" transform="translate(-38.658 -46.715)" fill="none" stroke="#fff" stroke-linecap="round" stroke-linejoin="round" stroke-width="1"/>
      <path id="Trazado_113529" data-name="Trazado 113529" d="M67.348,92.989a4.282,4.282,0,0,1,2.969,1.843c.189.283-1.449.918-3.119.695a4.753,4.753,0,0,1-2.914-1.693A3.921,3.921,0,0,1,67.348,92.989Z" transform="translate(-37.83 -54.703)" fill="none" stroke="#fff" stroke-linecap="round" stroke-linejoin="round" stroke-width="1"/>
      <path id="Trazado_113530" data-name="Trazado 113530" d="M48.105,78.09a4.282,4.282,0,0,0-3.413-.752c-.333.071.4,1.668,1.749,2.674a4.754,4.754,0,0,0,3.269.821A3.923,3.923,0,0,0,48.105,78.09Z" transform="translate(-26.254 -45.46)" fill="none" stroke="#fff" stroke-linecap="round" stroke-linejoin="round" stroke-width="1"/>
      <path id="Trazado_113531" data-name="Trazado 113531" d="M43.42,91.528a4.28,4.28,0,0,0-3.429.673c-.277.2,1.03,1.371,2.671,1.753a4.751,4.751,0,0,0,3.325-.551A3.923,3.923,0,0,0,43.42,91.528Z" transform="translate(-23.512 -53.798)" fill="none" stroke="#fff" stroke-linecap="round" stroke-linejoin="round" stroke-width="1"/>
    </g>
  </g>
</svg>
