<svg xmlns="http://www.w3.org/2000/svg" xmlns:xlink="http://www.w3.org/1999/xlink" width="107" height="107" viewBox="0 0 107 107">
  <defs>
    <clipPath id="clip-path">
      <rect id="Rectángulo_46527" data-name="Rectángulo 46527" width="54.174" height="78.234" fill="#fff"/>
    </clipPath>
  </defs>
  <g id="Grupo_80810" data-name="Grupo 80810" transform="translate(-175.667 -1710)">
    <circle id="Elipse_4720" data-name="Elipse 4720" cx="53.5" cy="53.5" r="53.5" transform="translate(175.667 1710)" fill="#08306e"/>
    <g id="Grupo_80709" data-name="Grupo 80709" transform="translate(199.722 1724.383)">
      <g id="Grupo_80708" data-name="Grupo 80708" clip-path="url(#clip-path)">
        <path id="Trazado_114637" data-name="Trazado 114637" d="M25.092,78.234c-1.4-.243-2.821-.383-4.187-.745C10.159,74.639,3.393,67.789.691,57.024A26.936,26.936,0,0,1,.047,50.9C-.036,45.144.015,39.39.019,33.636c0-5.391,4.286-8.7,9.493-7.345.118.031.24.041.426.071,0-.323,0-.6,0-.876,0-4.506-.022-9.013.008-13.519A7.09,7.09,0,0,1,16.939,4.69a19.6,19.6,0,0,1,3.167.38A7.4,7.4,0,0,1,33.111,3.029a7.51,7.51,0,0,1,4.716-1.083,7.2,7.2,0,0,1,6.5,7c.032,1.321.005,2.643.005,4.029.59-.116,1.12-.247,1.657-.321a7.11,7.11,0,0,1,8.125,6.91c.036,10.9.136,21.795-.051,32.688C53.849,64.773,44.2,75.7,31.836,77.8c-.922.156-1.847.292-2.771.437ZM14.538,43.173c.23.07.4.122.567.171,5.037,1.449,8.1,4.751,8.976,9.905a32.509,32.509,0,0,1,.154,5.335,2.316,2.316,0,0,1-2.309,2.5,2.369,2.369,0,0,1-2.292-2.539c-.014-1.095,0-2.19,0-3.285a7.356,7.356,0,0,0-7.113-7.65c-1.853-.152-2.577-.93-2.577-2.783q0-5.691,0-11.383a2.7,2.7,0,0,0-1.5-2.629A2.638,2.638,0,0,0,4.62,33.308c-.013,5.959-.021,11.918.01,17.876a25.394,25.394,0,0,0,.3,3.647A22.442,22.442,0,0,0,49.514,51.1c.043-10.364.022-20.728.026-31.092a2.613,2.613,0,1,0-5.208.006c-.011,2.419-.01,4.838-.015,7.257q-.009,4.164-.019,8.327a2.368,2.368,0,0,1-1.362,2.364,2.291,2.291,0,0,1-3.252-2.3c-.015-2.775.014-5.551.02-8.327q.02-8.976.034-17.953a2.628,2.628,0,0,0-2.988-2.849,2.587,2.587,0,0,0-2.342,2.8q-.028,11.612-.047,23.224c0,1.8-.893,2.895-2.327,2.885s-2.3-1.1-2.291-2.915q.02-6.723.042-13.445.016-5.806.021-11.612a2.679,2.679,0,1,0-5.347-.036q-.012,12.529-.008,25.057a5.191,5.191,0,0,1-.109,1.21A2.268,2.268,0,0,1,20,33.9a4.176,4.176,0,0,1-.147-1.277q-.013-10.046-.009-20.092a6.787,6.787,0,0,0-.073-1.14,2.526,2.526,0,0,0-2.3-2.1A2.6,2.6,0,0,0,14.54,12.1q-.006,15.2,0,30.4v.669" transform="translate(0 0)" fill="#fff"/>
      </g>
    </g>
  </g>
</svg>
