<svg id="Grupo_80730" data-name="Grupo 80730" xmlns="http://www.w3.org/2000/svg" xmlns:xlink="http://www.w3.org/1999/xlink" width="305.86" height="416.227" viewBox="0 0 305.86 416.227">
  <defs>
    <clipPath id="clip-path">
      <rect id="Rectángulo_46544" data-name="Rectángulo 46544" width="305.86" height="416.226" fill="none"/>
    </clipPath>
    <clipPath id="clip-path-3">
      <rect id="Rectángulo_46541" data-name="Rectángulo 46541" width="15.964" height="12.638" fill="none"/>
    </clipPath>
    <clipPath id="clip-path-4">
      <rect id="Rectángulo_46542" data-name="Rectángulo 46542" width="4.916" height="5.911" fill="none"/>
    </clipPath>
  </defs>
  <g id="Grupo_80729" data-name="Grupo 80729" clip-path="url(#clip-path)">
    <g id="Grupo_80728" data-name="Grupo 80728">
      <g id="Grupo_80727" data-name="Grupo 80727" clip-path="url(#clip-path)">
        <path id="Trazado_114648" data-name="Trazado 114648" d="M15.745,295.19c.034-1.849.093-3.69.164-5.521.443-11.3,1.184-22.659,3.976-33.612,4.682-18.365,14.885-34.744,23.052-51.847S57.4,167.938,53.5,149.393c-2.163-10.286-7.344-19.715-9.87-29.916-9.5-38.387,13.433-75.65,45.286-95.66C114.962,7.457,146.907,1.737,177.5,4.9c26.776,2.768,55.179,14.126,67.317,38.154,18.967,37.549-10.186,85.46,6.268,124.177,3.544,8.339,9.034,15.691,13.191,23.739,6.62,12.814,9.736,27.1,12.738,41.21,5.421,25.471,10.716,51.481,7.922,77.37-1.462,13.553-5.53,27.524-15.291,37.039-13.535,13.195-34.372,14.738-53.27,14.31a445.567,445.567,0,0,1-71.5-7.421c-11.085-2.066-22.285-4.564-33.522-3.618-16.183,1.364-34.9,13.181-51.277,8.736-12.26-3.327-31.68-19.821-38-30.609-5.7-9.746-6.545-21.384-6.342-32.8" transform="translate(12.009 3.106)" fill="#ffe0b2"/>
        <path id="Trazado_114649" data-name="Trazado 114649" d="M0,213.262c-.713,20.318,129.972,41.545,192.717,32.592,22.214-3.168,38.04-16.7,54.868-18.655,30.7-3.562,54.951,3.772,58.149-12.765,4.952-25.6-142.421-25.458-179.589-25.2S.984,185.332,0,213.262" transform="translate(0 144.514)" fill="#efd2a6"/>
        <path id="Trazado_114650" data-name="Trazado 114650" d="M98.437,43.429s.956,9.762,2.18,13.333c0,0-12.551,1.429-16.531.2,0,0,1.531-6.428-.612-18.162Z" transform="translate(63.777 29.647)" fill="#ff8873"/>
        <g id="Grupo_80723" data-name="Grupo 80723" transform="translate(147.252 68.45)" opacity="0.5" style="mix-blend-mode: multiply;isolation: isolate">
          <g id="Grupo_80722" data-name="Grupo 80722">
            <g id="Grupo_80721" data-name="Grupo 80721" clip-path="url(#clip-path-3)">
              <path id="Trazado_114651" data-name="Trazado 114651" d="M99.439,51.286c-.333.044-.669.083-1.018.109a18.636,18.636,0,0,1-12.874-4.117c-.379-.3-.743-.614-1.094-.937a70.99,70.99,0,0,0-.979-7.538l14.963,4.625s.4,4.029,1,7.857" transform="translate(-83.475 -38.802)" fill="#b4744b"/>
            </g>
          </g>
        </g>
        <path id="Trazado_114652" data-name="Trazado 114652" d="M106.169,219.1c.039.314.083.628.131.942a9.439,9.439,0,0,0,.811,3.052c1.295,2.457,4.375,3.263,7.118,3.685s5.8.856,7.55,3.009a2.62,2.62,0,0,1,.688,2.083,3.363,3.363,0,0,1-.52,1.1,7.088,7.088,0,0,1-2.732,2.895,7.206,7.206,0,0,1-2.717.476c-5.319.233-9.8,1.125-15.042-.446a16.707,16.707,0,0,1-4.8-2c-4.578-3.064-4.281-7.642-3.357-12.283.845-4.244.67-9.284.471-13.6a25.582,25.582,0,0,1,.053-5.439,10.515,10.515,0,0,1,1.305-3.583,4.365,4.365,0,0,1,1.258-1.459,4.534,4.534,0,0,1,2.044-.628,10.224,10.224,0,0,1,5.481.8,7.443,7.443,0,0,1,3.507,3.279c.591,1.289-.242,2.784-.538,4.075a39.9,39.9,0,0,0-.707,14.038" transform="translate(70.854 150.386)" fill="#ff8873"/>
        <path id="Trazado_114653" data-name="Trazado 114653" d="M92.038,211.125c.21,6.509,1.753,26.893,1.753,26.893s11.263,4.267,23.188.626c0,0,3.293-16.869,3.876-26.363.388-6.317,4.7-31.252,4.913-58.028L85.7,155.542c2.106,17.122,6.188,50.762,6.343,55.583" transform="translate(65.474 117.854)" fill="#bec6d5"/>
        <path id="Trazado_114654" data-name="Trazado 114654" d="M90.717,197.252a37.952,37.952,0,0,0,22.982.2c.478-.148.273-.9-.206-.751a37.2,37.2,0,0,1-22.569-.2c-.476-.157-.681.594-.206.75" transform="translate(69.104 150.117)" fill="#8e9aad"/>
        <path id="Trazado_114655" data-name="Trazado 114655" d="M105.613,136.213a20.414,20.414,0,0,0,2.72-6.386c.005-.048.009-.1.014-.143a38.811,38.811,0,0,1,.935-9.605q.2-2.1.409-4.209c.233-2.385.513-4.9,1.942-6.827s4.431-2.895,6.275-1.364a5.082,5.082,0,0,1,1.462,2.411c1.822.566,2.812,1.307,2.727,3.682-.173,4.832,1.552,9.81,1.531,14.805a55.05,55.05,0,0,1-2.653,17.212,7.014,7.014,0,0,1-3.486,4.431c-1.925,1.226-3.42,2.962-5.391,4.149a4.5,4.5,0,0,1-2.627.831,3.525,3.525,0,0,1-2.822-2.607,10.369,10.369,0,0,1-.139-4.048q.445-4.567.889-9.136c-.958,1.455-1.865,2.5-2.463,2.378-.66-.212-1.438-1.928.676-5.574" transform="translate(79.639 81.694)" fill="#ff8873"/>
        <path id="Trazado_114656" data-name="Trazado 114656" d="M126.447,147.883a2.519,2.519,0,0,1-.6,1.854,2.141,2.141,0,0,1-.808.392c-4.655,1.394-9.644-2-11.8-6.354s-2.216-9.4-2.378-14.26a241.8,241.8,0,0,0-2.807-29.569,9.256,9.256,0,0,0-1.5-4.4c-.97-1.231-2.849-1.895-4.149-1.021a13.141,13.141,0,0,1,7.892-12.3c3.547-1.471,6.024-.25,9.5-.049,2.207.129,4.341-1.305,6.28.785a8.153,8.153,0,0,1,1.637,3.8c2.022,8.619-.092,16.691-.215,25.393q-.251,17.869-1.048,35.727" transform="translate(78.23 62.275)" fill="#08306e"/>
        <path id="Trazado_114657" data-name="Trazado 114657" d="M82.8,136.213a20.415,20.415,0,0,1-2.72-6.386c-.005-.048-.009-.1-.014-.143a38.812,38.812,0,0,0-.935-9.605q-.2-2.1-.409-4.209c-.233-2.385-.513-4.9-1.942-6.827s-4.431-2.895-6.275-1.364a5.082,5.082,0,0,0-1.462,2.411c-1.822.566-2.812,1.307-2.727,3.682.173,4.832-1.552,9.81-1.531,14.805a55.05,55.05,0,0,0,2.653,17.212,7.017,7.017,0,0,0,3.484,4.431c1.926,1.226,3.422,2.962,5.393,4.149a4.5,4.5,0,0,0,2.627.831,3.525,3.525,0,0,0,2.822-2.607,10.369,10.369,0,0,0,.139-4.048q-.445-4.567-.889-9.136c.958,1.455,1.865,2.5,2.463,2.378.66-.212,1.438-1.928-.676-5.574" transform="translate(49.495 81.694)" fill="#ff8873"/>
        <path id="Trazado_114658" data-name="Trazado 114658" d="M64.7,151.92a2.519,2.519,0,0,0,.6,1.854,2.141,2.141,0,0,0,.808.392c4.655,1.394,9.644-2,11.8-6.354s2.216-9.4,2.378-14.26a241.387,241.387,0,0,1,2.807-29.567c1.048-6.659,4.07-15.643,1.739-22.216C82.647,75.612,76.245,70.4,70.2,68.459A4.209,4.209,0,0,0,68.06,68.2c-1.819.392-2.429,2.639-2.671,4.484q-1.5,11.447-2.216,22.978c-.43,6.952.376,13.6.475,20.533Q63.9,134.062,64.7,151.92" transform="translate(48.17 52.063)" fill="#08306e"/>
        <path id="Trazado_114659" data-name="Trazado 114659" d="M113.362,159.195l-5.64.554c-1.254.124-2.708.12-3.562,1.2a6.43,6.43,0,0,0-.907,3.454q-.275,2.821-.552,5.643-.561,5.75-1.124,11.5c-.272,2.764-.9,6.015.958,8.39,1.743,2.224,4.849,2.8,7.518,2.71.5-.016.5-.794,0-.778-3.022.1-6.744-.753-7.737-4.033a14.114,14.114,0,0,1-.046-5.421l.572-5.86q.585-5.967,1.168-11.935a9.589,9.589,0,0,1,.416-2.561c.5-1.265,1.672-1.365,2.861-1.487,2.023-.206,4.048-.4,6.074-.6.494-.048.5-.827,0-.778" transform="translate(77.36 121.628)" fill="#8e9aad"/>
        <path id="Trazado_114660" data-name="Trazado 114660" d="M85.435,218.044q.058.471.131.942a9.439,9.439,0,0,0,.811,3.052c1.295,2.457,4.375,3.263,7.118,3.685s5.8.856,7.55,3.009a2.62,2.62,0,0,1,.688,2.083,3.363,3.363,0,0,1-.52,1.1,7.087,7.087,0,0,1-2.732,2.895,7.2,7.2,0,0,1-2.717.476c-5.319.233-9.8,1.125-15.042-.446a16.709,16.709,0,0,1-4.8-2c-4.578-3.064-4.281-7.642-3.357-12.283.845-4.244.67-9.284.471-13.6a25.583,25.583,0,0,1,.053-5.439,10.515,10.515,0,0,1,1.305-3.583,4.366,4.366,0,0,1,1.258-1.459,4.534,4.534,0,0,1,2.045-.628,10.224,10.224,0,0,1,5.481.8,7.443,7.443,0,0,1,3.507,3.279c.591,1.29-.242,2.784-.538,4.075a39.9,39.9,0,0,0-.707,14.038" transform="translate(55.012 149.578)" fill="#ff8873"/>
        <path id="Trazado_114661" data-name="Trazado 114661" d="M68.029,216.109c.21,6.509-.374,23.887-.374,23.887s20.953,4.511,32.878.871c0,0,3.293-16.869,3.876-26.365.388-6.317,4.7-31.252,4.913-58.028l-38.306-9.037c-2.987,18.288-3.142,63.851-2.987,68.672" transform="translate(51.69 112.646)" fill="#bec6d5"/>
        <path id="Trazado_114662" data-name="Trazado 114662" d="M71.108,195.635a37.952,37.952,0,0,0,22.982.2c.478-.148.273-.9-.206-.751a37.2,37.2,0,0,1-22.569-.2c-.476-.157-.681.594-.206.75" transform="translate(54.123 148.882)" fill="#8e9aad"/>
        <path id="Trazado_114663" data-name="Trazado 114663" d="M96.225,157.5l-5.64.554c-1.254.124-2.708.12-3.562,1.2a6.43,6.43,0,0,0-.907,3.454q-.275,2.821-.552,5.643-.561,5.75-1.124,11.5c-.272,2.764-.9,6.015.958,8.39,1.743,2.224,4.849,2.8,7.518,2.71.5-.016.5-.794,0-.778-3.022.1-6.744-.753-7.737-4.033a14.114,14.114,0,0,1-.046-5.421l.572-5.86q.585-5.967,1.168-11.935a9.589,9.589,0,0,1,.416-2.561c.5-1.265,1.672-1.365,2.861-1.487,2.023-.206,4.048-.4,6.074-.6.494-.048.5-.827,0-.778" transform="translate(64.267 120.335)" fill="#8e9aad"/>
        <path id="Trazado_114664" data-name="Trazado 114664" d="M136.954,85.166l-3.662-26.131q-5.2-1.688-10.552-2.87c-1.752-.385-3.653-.113-4.634-1.612a4.916,4.916,0,0,1-.3-3.339,3.888,3.888,0,0,0-.605-3.253,3.953,3.953,0,0,0-2.359-.91,68.759,68.759,0,0,0-16.088-.42,2.549,2.549,0,0,0-1.75.635,2.591,2.591,0,0,0-.482,1.265c-.222,1.192.219,3.577-.005,4.768-3.082,1.757-7.5,1.619-10.988,2.265-3.315.616-6.811.729-9.808,2.27a14.62,14.62,0,0,0-6.178,6.717,28.443,28.443,0,0,0-1.865,5.257c-.446,1.688-1.293,3.085-1.558,4.851a218.664,218.664,0,0,0-2.175,21.934,46.859,46.859,0,0,0,.3,9.947,18.309,18.309,0,0,0,3.936,9.027c4.814,5.558,12.657,6.624,19.526,6.774,16.661.365,33.347.713,49.982-.268-.443-12.528-.591-23.065-.739-36.907" transform="translate(48.766 35.409)" fill="#08306e"/>
        <path id="Trazado_114665" data-name="Trazado 114665" d="M76.67,89.3l3.662-26.131q5.2-1.688,10.552-2.87c1.752-.385,3.653-.113,4.634-1.612a4.916,4.916,0,0,0,.3-3.339c-.187-1.438.3-1.759.67-2.844.459-1.328.221-2.773.843-4.1a3.632,3.632,0,0,1,2.988-2.233,91.5,91.5,0,0,1,13.151.616l-.1,2.314a12,12,0,0,0,.423,4.729c2.045,5.5,9.658,5.01,14.3,5.871,3.315.616,6.811.729,9.808,2.27a14.62,14.62,0,0,1,6.178,6.717,35.066,35.066,0,0,1,2.651,8.868,118.546,118.546,0,0,1,2.029,17.8c.118,3.069.115,6.141.113,9.212-.005,6.763-.36,13.569-.365,20.334.542.2.007,1.085-.572,1.1l-22.022.482c-16.661.365-33.347.713-49.982-.268.443-12.528.591-23.065.739-36.907" transform="translate(58.014 35.248)" fill="#08306e"/>
        <path id="Trazado_114666" data-name="Trazado 114666" d="M139.58,146.057c.159-13.142.221-26.415-2.59-39.253-7.076-3.092-15.183-1.327-22.887-.8-6.9.466-13.8-.127-20.692-.487-4.874-.254-15.546-2.157-18.409,1.819-3.262,4.525-2.988,15.62-3.463,21.043-.619,7.109-.82,14.246-1.021,21.377q-.214,7.584-.43,15.167l-.471,16.675c-.081,2.865-1.967,13.151.432,14.989.582.445,4.789.108,5.661.206,2.7.3,5.391.744,8.093,1.048a151.4,151.4,0,0,0,16.261,1.035,172.447,172.447,0,0,0,25.407-2.106c5.126-.744,11.588-.4,13.174-6.282,1.552-5.765.406-13.385.527-19.291q.254-12.566.408-25.136" transform="translate(52.593 80.097)" fill="#bec6d5"/>
        <path id="Trazado_114667" data-name="Trazado 114667" d="M94.446,124.448c-.7,7.141-.868,14.361-1.261,21.525S92.4,160.3,92.031,167.466c-.727,14.185-1.394,28.371-1.91,42.563-.293,8.039-.693,16.1-.7,24.146a.3.3,0,0,0,.6,0c.326-7.164.407-14.343.662-21.512s.545-14.336.864-21.5c.632-14.188,1.348-28.371,2.064-42.554.408-8.035,1.083-16.111,1.148-24.157,0-.2-.293-.2-.312,0" transform="translate(68.32 94.967)" fill="#8e9aad"/>
        <path id="Trazado_114668" data-name="Trazado 114668" d="M96.835,107.3a75.646,75.646,0,0,0-.1,8.7q0,4.456-.007,8.912c0,2.792.263,5.731-.52,8.443a18.424,18.424,0,0,1-1.618,3.75,19.144,19.144,0,0,0-1.815,3.2.2.2,0,0,0,.323.189,12.535,12.535,0,0,0,2.073-3.271,19.594,19.594,0,0,0,1.4-3.182c.87-2.66.663-5.5.662-8.259l-.005-9.131q0-2.281-.007-4.565a42.8,42.8,0,0,0-.085-4.782.154.154,0,0,0-.307,0" transform="translate(70.879 81.868)" fill="#8e9aad"/>
        <path id="Trazado_114669" data-name="Trazado 114669" d="M94.031,140.056c-.249-5.677-1.078-11.369-1.674-17.019q-.437-4.146-.878-8.291c-.3-2.761-.409-5.618-.956-8.342-.042-.212-.376-.161-.374.051.048,2.826.557,5.7.863,8.51q.463,4.255.933,8.51c.607,5.52,1.005,11.126,1.949,16.6.012.078.141.06.138-.019" transform="translate(68.876 81.192)" fill="#8e9aad"/>
        <path id="Trazado_114670" data-name="Trazado 114670" d="M142.265,77.863a6.171,6.171,0,0,0-4.258-4.327c-2.491-.522-4.876,1.065-6.984,2.487A67.745,67.745,0,0,1,110.1,85.787c-8.617,2.2-18.058,2.385-25.862,6.322A24.12,24.12,0,0,0,75,95.317c-3.4,2.281-3.5,5.844-3.343,9.584.171,4.153.854,8.291.55,12.456-.346,4.766-.993,9.5-1.5,14.257-.164,1.528-.986,4.091.228,5.327,1.157,1.182,3.56,1.838,5.091,2.274,9.7,2.757,20.032-1.118,30.087-.376,2.477.183,4.925.647,7.4.827a38.912,38.912,0,0,0,9.242-.5c2.694-.45,5.68-1.57,8.406-1.579l3.133-.011a2.284,2.284,0,0,0,1.734-.489,1.176,1.176,0,0,0,.261-.594l.979-.217a3.6,3.6,0,0,0,1.727-.725,3.475,3.475,0,0,0,.834-1.895,100.617,100.617,0,0,0,1.563-16.368q.677-16.556,1.351-33.113a18.2,18.2,0,0,0-.482-6.31" transform="translate(53.699 56.106)" fill="#08306e"/>
        <path id="Trazado_114671" data-name="Trazado 114671" d="M120.154,44.569c2.565-.247,7.217-4.32,7.848-11.175s-7.236-5.253-8.063-3.1c-.249-2.565-12.1-15.458-25.847-7.012.7-1.427-.485-2.348-2.544-.208a1.513,1.513,0,1,0-2.362,1.868c-3.861.676-10.087,5.223-7.255,19.119C93.2,54.875,98.823,55.5,98.823,55.5s9.316-3.36,10.3-3.907,11.032-7.019,11.032-7.019" transform="translate(62.051 15.623)" fill="#1b1b29"/>
        <path id="Trazado_114672" data-name="Trazado 114672" d="M120.288,37.346s-4.262,19.5-8.945,23.252c-3.514,2.814-7.73,4.751-13.239,3.108a16.534,16.534,0,0,1-9.385-7.474,19.01,19.01,0,0,1-2.57-9.956c-2.554-.983-7.165-3.837-4.084-9.441,1.778-3.018,6.823-1.7,7.734,2.359.8,1.54,2.389.61,4.322-2.812a46.507,46.507,0,0,1,4.033-6.472c.425-.3,10.492,8.822,22.135,7.437" transform="translate(61.917 22.846)" fill="#ff8873"/>
        <path id="Trazado_114673" data-name="Trazado 114673" d="M96.764,33.406s-3.195,1.085-4.932.52-1.8,1.208,1.076,1.75,4.322-.138,4.793-.829.046-1.723-.937-1.441" transform="translate(69.235 25.486)" fill="#1b1b29"/>
        <path id="Trazado_114674" data-name="Trazado 114674" d="M100.152,35.487s1.582,2.524,3.05,3.027.579,1.875-1.646.746-2.84-2.413-2.794-3.188.877-1.323,1.39-.586" transform="translate(75.455 26.847)" fill="#1b1b29"/>
        <path id="Trazado_114675" data-name="Trazado 114675" d="M100.014,37.35a55.418,55.418,0,0,1-1.332,6.47c-.162.545-.279,1.021-.48,1.623a1.711,1.711,0,0,1-1.468,1.168,4.668,4.668,0,0,1-3.2-1.057,5.737,5.737,0,0,0,3.1.494,1.178,1.178,0,0,0,.931-.833c.134-.446.261-1.048.393-1.563a55.929,55.929,0,0,1,2.057-6.3" transform="translate(71.462 28.537)" fill="#563528"/>
        <path id="Trazado_114676" data-name="Trazado 114676" d="M94.839,37.8a2.9,2.9,0,0,1-1.873,1.681,2.68,2.68,0,0,1-1.311.005,3.21,3.21,0,0,1-1.147-.556,4.055,4.055,0,0,0,2.36.192,4.1,4.1,0,0,0,1.97-1.323" transform="translate(69.151 28.88)" fill="#9d5f3b"/>
        <path id="Trazado_114677" data-name="Trazado 114677" d="M97.59,40.288a9.435,9.435,0,0,0,1.436,1.681,6.6,6.6,0,0,0,1.843,1.191,3.79,3.79,0,0,1-3.279-2.872" transform="translate(74.562 30.781)" fill="#9d5f3b"/>
        <g id="Grupo_80726" data-name="Grupo 80726" transform="translate(144.785 60.744)" opacity="0.5" style="mix-blend-mode: multiply;isolation: isolate">
          <g id="Grupo_80725" data-name="Grupo 80725">
            <g id="Grupo_80724" data-name="Grupo 80724" clip-path="url(#clip-path-4)">
              <path id="Trazado_114678" data-name="Trazado 114678" d="M86.15,40.345a9.536,9.536,0,0,0,.171-2.734,2.361,2.361,0,0,0-1.175-1.983,3.916,3.916,0,0,0-1.163-.37,1.228,1.228,0,0,0-.972.321,1.73,1.73,0,0,0-.5,1.08,1.132,1.132,0,0,0,.363,1.184c-.52-.092-.739-.711-.79-1.191a2.256,2.256,0,0,1,.429-1.512,1.826,1.826,0,0,1,1.54-.7,4.411,4.411,0,0,1,1.519.432,2.97,2.97,0,0,1,1.418,2.711,5.643,5.643,0,0,1-.836,2.764" transform="translate(-82.076 -34.434)" fill="#bf9991"/>
            </g>
          </g>
        </g>
        <path id="Trazado_114679" data-name="Trazado 114679" d="M93.534,37.425c-.212,1.094-1.021,1.858-1.808,1.706s-1.256-1.162-1.044-2.256.33.953,1.117,1.1,1.947-1.648,1.736-.554" transform="translate(69.244 27.929)" fill="#202222"/>
        <path id="Trazado_114680" data-name="Trazado 114680" d="M100.324,40.116c-.212,1.1-.923,1.879-1.589,1.75s-1.035-1.122-.824-2.214.346,1.02,1.013,1.148,1.612-1.776,1.4-.684" transform="translate(74.761 30.056)" fill="#202222"/>
        <path id="Trazado_114681" data-name="Trazado 114681" d="M114.277,26.459a3.068,3.068,0,0,1,3.489,2.8c.016,1.674-1.609,2.877-2.944,3.574a16.933,16.933,0,0,1-8.716,1.485,37.52,37.52,0,0,1-8.619-1.692,15.881,15.881,0,0,1-7.114-3.78c-.146-.15-.351.071-.226.228,2.085,2.586,5.527,3.549,8.6,4.387a29.637,29.637,0,0,0,11.015,1.2c2.764-.309,6.508-1.217,8-3.858a2.99,2.99,0,0,0-.2-3.281,3.431,3.431,0,0,0-3.288-1.194c-.081.007-.083.136,0,.129" transform="translate(68.845 20.093)" fill="#383854"/>
        <path id="Trazado_114682" data-name="Trazado 114682" d="M108.936,26.206a3.211,3.211,0,0,1,2.743,3.022,6.235,6.235,0,0,1-1.856,4.477,9.841,9.841,0,0,1-3.863,2.886,10.248,10.248,0,0,1-5.4.2c-.189-.034-.272.242-.081.293a9.131,9.131,0,0,0,5.922-.185,10.792,10.792,0,0,0,4.218-3.516,5.62,5.62,0,0,0,1.3-4.8,3.388,3.388,0,0,0-2.978-2.565c-.122-.005-.122.183,0,.191" transform="translate(76.684 19.876)" fill="#383854"/>
        <path id="Trazado_114683" data-name="Trazado 114683" d="M108.345,25.374c4.567.411,6.038,6.044,4.475,9.66-1.535,3.546-6.343,7.7-10.35,5.506a.184.184,0,0,0-.187.318c2,1.489,4.625.692,6.53-.538a11.553,11.553,0,0,0,4.5-5.243c1.57-3.879-.152-9.69-4.973-9.937-.152-.009-.148.221,0,.235" transform="translate(78.085 19.207)" fill="#383854"/>
        <path id="Trazado_114684" data-name="Trazado 114684" d="M90.908,23.45c-4.594-1.254-8.467,2.351-9.822,6.465-1.328,4.029-.743,10.2,4.038,11.674a.146.146,0,0,0,.113-.266c-4.195-2.173-5.105-6.9-3.8-11.166,1.228-4,4.927-7.636,9.411-6.5a.108.108,0,0,0,.056-.208" transform="translate(61.481 17.723)" fill="#383854"/>
        <path id="Trazado_114685" data-name="Trazado 114685" d="M97.119,46.336a1.209,1.209,0,0,0-.233-1.233,2.339,2.339,0,0,0-1.058-.831,7.2,7.2,0,0,0-1.27-.362,8.317,8.317,0,0,0-1.409-.212.381.381,0,0,0-.337.194.506.506,0,0,0-.053.2.379.379,0,0,0,.194.337,16.01,16.01,0,0,0,2.3.8,1.887,1.887,0,0,1,.418.178c.039.023.078.048.115.074.074.051-.046-.042.021.016a1.839,1.839,0,0,1,.157.153c.009.009.081.1.039.041.021.03.042.06.062.092a2.016,2.016,0,0,1,.106.191,1.277,1.277,0,0,0,.282.455.433.433,0,0,0,.669-.086" transform="translate(70.87 33.387)" fill="#202222"/>
        <path id="Trazado_114686" data-name="Trazado 114686" d="M74.955,70.45a209.99,209.99,0,0,0-3.5,53.745c.288,4.983.965,10.081-.3,14.987a.287.287,0,0,0,.552.153c1.147-4.048.873-8.231.6-12.38q-.442-6.761-.506-13.541a234.739,234.739,0,0,1,1.364-27.136c.572-5.267,1.2-10.533,2.015-15.769.023-.141-.189-.2-.219-.06" transform="translate(54.292 53.763)" fill="#232323"/>
        <path id="Trazado_114687" data-name="Trazado 114687" d="M112.209,69.275c1.5,18.642.526,37.267-1.4,55.837-.549,5.278-1.166,10.549-1.745,15.823-.032.284.411.28.443,0,2.134-18.513,4.108-37.154,4.061-55.812-.012-5.292-.318-10.582-.84-15.848-.034-.33-.552-.339-.524,0" transform="translate(83.331 52.736)" fill="#232323"/>
        <path id="Trazado_114688" data-name="Trazado 114688" d="M83.821,51.865c2.7,2.891,6.687,3.586,10.477,3.708a34.76,34.76,0,0,0,5.844-.164c1.565-.217,3.71-.753,4.5-2.288.076-.146-.083-.332-.236-.236a12.017,12.017,0,0,1-2.254,1.3,10.635,10.635,0,0,1-2.665.52,42.45,42.45,0,0,1-5.19.079c-3.586-.123-7.388-.723-10.058-3.334a.3.3,0,0,0-.418.418" transform="translate(63.978 39.24)" fill="#232323"/>
        <path id="Trazado_114689" data-name="Trazado 114689" d="M114.722,80.047a60.239,60.239,0,0,1-3.685,8.774c-.713,1.334-1.491,2.637-2.325,3.9-.88,1.332-1.888,2.6-2.725,3.955-.168.272.2.529.425.33a20.856,20.856,0,0,0,2.967-3.567,41.2,41.2,0,0,0,2.593-4.235,37.255,37.255,0,0,0,3.512-8.945.4.4,0,0,0-.762-.21" transform="translate(80.944 60.947)" fill="#232323"/>
        <path id="Trazado_114690" data-name="Trazado 114690" d="M87.136,113.8a9.948,9.948,0,0,1-5.536-5.544,11.385,11.385,0,0,1-.681-2.65.271.271,0,0,0-.542,0,7.622,7.622,0,0,0,.434,2.867,9.73,9.73,0,0,0,1.4,2.641,9.136,9.136,0,0,0,4.736,3.373c.452.129.6-.519.189-.686" transform="translate(61.408 80.489)" fill="#232323"/>
        <path id="Trazado_114691" data-name="Trazado 114691" d="M98.085,112.58c.074-.048.146-.1.221-.146l-.185.049c.437-.007.8-.526,1.051-.838a8.328,8.328,0,0,0,.755-1.1,6.916,6.916,0,0,0,.527-1.185,5.217,5.217,0,0,0,.173-.616,1.552,1.552,0,0,0,.011-.372,1.076,1.076,0,0,0-.03-.335.27.27,0,0,0-.446-.116.977.977,0,0,0-.157.247c-.049.1-.123.182-.166.289-.072.191-.136.383-.21.572a8.538,8.538,0,0,1-.508,1.046,7.25,7.25,0,0,1-.617.946c-.25.319-.723.669-.75,1.092.035-.086.072-.171.108-.258-.056.071-.113.141-.171.21-.221.266.064.727.4.512" transform="translate(74.578 82.397)" fill="#232323"/>
        <path id="Trazado_114692" data-name="Trazado 114692" d="M73.838,73.108a26.364,26.364,0,0,1,1.974-2.851c.355-.445.723-.88,1.092-1.314q.278-.325.566-.64a3.554,3.554,0,0,0,.557-.662.219.219,0,0,0-.3-.3,2.863,2.863,0,0,0-.683.538c-.208.192-.415.388-.616.589a13.974,13.974,0,0,0-1.185,1.357,19.33,19.33,0,0,0-1.9,2.992.286.286,0,0,0,.494.289" transform="translate(56.009 51.436)" fill="#232323"/>
        <path id="Trazado_114693" data-name="Trazado 114693" d="M71.216,13.728c-.651,1.321-1.26,2.664-1.87,4-.3.663-.57,1.337-.85,2.007a11.815,11.815,0,0,0-.725,2.052.209.209,0,0,0,.379.161,12.029,12.029,0,0,0,1.085-1.87c.328-.644.663-1.281.968-1.937.614-1.312,1.23-2.623,1.8-3.953.228-.527-.526-1-.792-.462" transform="translate(51.774 10.307)"/>
        <path id="Trazado_114694" data-name="Trazado 114694" d="M83.571,11.78c-.937,2.055-1.87,4.108-2.7,6.211-.069.173.215.289.3.127,1.034-1.985,1.962-4.017,2.889-6.051.15-.332-.34-.621-.492-.288" transform="translate(61.782 8.887)"/>
        <path id="Trazado_114695" data-name="Trazado 114695" d="M66.883,23.78c-.594,2.057-1.178,4.114-1.672,6.2a.188.188,0,0,0,.363.1c.729-2.016,1.369-4.059,2-6.107a.357.357,0,0,0-.688-.191" transform="translate(49.818 17.978)"/>
        <path id="Trazado_114696" data-name="Trazado 114696" d="M59.649,14.287q-.4,1.334-.808,2.667c-.065.215.259.3.335.092q.479-1.312.956-2.625c.109-.3-.39-.445-.483-.134" transform="translate(44.95 10.783)"/>
        <path id="Trazado_114697" data-name="Trazado 114697" d="M126.252,26.815q-.619,1.778-1.237,3.558a34.217,34.217,0,0,0-1.125,3.588c-.069.305.381.535.529.224a34.822,34.822,0,0,0,1.355-3.53l1.26-3.625c.171-.494-.61-.706-.781-.215" transform="translate(94.65 20.274)"/>
        <path id="Trazado_114698" data-name="Trazado 114698" d="M136.145,28.283c-.508,2.39-1.05,4.779-1.335,7.21-.023.2.275.217.332.044.751-2.3,1.251-4.678,1.785-7.038.115-.508-.674-.725-.781-.215" transform="translate(102.998 21.387)"/>
        <path id="Trazado_114699" data-name="Trazado 114699" d="M120.354,23.793c-.9,2.628-1.909,5.248-2.605,7.938-.042.164.208.286.282.118,1.157-2.547,2.03-5.243,2.994-7.869.153-.418-.526-.609-.67-.187" transform="translate(89.959 17.997)"/>
        <path id="Trazado_114700" data-name="Trazado 114700" d="M124.383,46.3q-.651,1.768-1.3,3.533c-.21.568-.42,1.134-.621,1.7a17.609,17.609,0,0,0-.617,1.849c-.053.226.272.385.388.164a17.332,17.332,0,0,0,.72-1.734c.229-.584.452-1.173.674-1.761l1.355-3.592c.141-.37-.457-.535-.594-.164" transform="translate(93.086 35.215)"/>
        <path id="Trazado_114701" data-name="Trazado 114701" d="M117.139,40.29l-.8,2.667c-.069.229.273.316.353.1q.482-1.312.961-2.625c.116-.318-.413-.471-.512-.141" transform="translate(88.877 30.642)"/>
        <path id="Trazado_114702" data-name="Trazado 114702" d="M61.957,33.788c-.582,2.06-1.207,4.11-1.642,6.208a.159.159,0,0,0,.307.085c.744-2.009,1.3-4.08,1.9-6.135a.3.3,0,0,0-.568-.157" transform="translate(46.079 25.656)"/>
        <path id="Trazado_114703" data-name="Trazado 114703" d="M57.065,24.73A12.207,12.207,0,0,0,55.5,28.7a10.726,10.726,0,0,0-.092,4.174c.041.194.342.145.342-.046a16.1,16.1,0,0,1,.369-4.029,13.272,13.272,0,0,1,1.556-3.719c.238-.385-.374-.741-.609-.355" transform="translate(42.206 18.767)"/>
        <path id="Trazado_114704" data-name="Trazado 114704" d="M90.635.838c8.453.7,16.769,2.962,25.25,2.941,6.906-.018,13.7-1.551,20.542-2.521a126.923,126.923,0,0,1,29.653-.7c7.224.676,14.86,2.2,20.071,7.255,2.752,2.667,4.516,7.423,1.828,10.156-2.851,2.9-7.633.926-11.5-.318-9.977-3.2-20.717-.069-31.155.856-19.212,1.7-38.5-4.218-57.71-2.5-7.354.656-14.934,2.4-21.975.178a8.266,8.266,0,0,1-4.264-2.643,3.864,3.864,0,0,1-.116-4.713c1.824-2.073,5.356-2.388,7.85-3.041a16.963,16.963,0,0,0,2.221-.693,25.839,25.839,0,0,0,4.25-2.662C79.566-.247,86.011.457,90.635.838" transform="translate(46.229 0)"/>
      </g>
    </g>
  </g>
</svg>
