<svg xmlns="http://www.w3.org/2000/svg" xmlns:xlink="http://www.w3.org/1999/xlink" width="668.5" height="666.885" viewBox="0 0 668.5 666.885">
  <defs>
    <clipPath id="clip-path">
      <path id="Trazado_114211" data-name="Trazado 114211" d="M109.592,128.631l34.8,21.218,13.149,39.241a170.337,170.337,0,0,1,192.588-8.671L383.37,155.8,406.061,46.37A307.722,307.722,0,0,0,335.9,38.2c-86.161,0-164.359,36.831-226.311,90.428" transform="translate(-109.592 -38.203)" fill="#a5d20e"/>
    </clipPath>
    <clipPath id="clip-path-2">
      <path id="Trazado_114212" data-name="Trazado 114212" d="M261.184,0a84.857,84.857,0,1,0,84.854,84.856A84.857,84.857,0,0,0,261.184,0Z" transform="translate(-176.326)" fill="#88ac0c"/>
    </clipPath>
    <clipPath id="clip-path-3">
      <path id="Trazado_114213" data-name="Trazado 114213" d="M186.21,79.255a69.371,69.371,0,1,0,69.373-69.37,69.451,69.451,0,0,0-69.373,69.37" transform="translate(-186.21 -9.885)" fill="#fff"/>
    </clipPath>
    <clipPath id="clip-path-4">
      <path id="Trazado_114214" data-name="Trazado 114214" d="M301.472,130.971,268.214,155.6a170.347,170.347,0,0,1,67.761,180.486l33.687,24.007,111.086-12.231C470.881,231.581,399.628,144.92,310.9,91.321Z" transform="translate(-268.214 -91.321)" fill="#ffb74d"/>
    </clipPath>
    <clipPath id="clip-path-5">
      <path id="Trazado_114215" data-name="Trazado 114215" d="M377.016,143.394a84.855,84.855,0,1,0,111.1,80.888v-.323a84.81,84.81,0,0,0-111.1-80.565" transform="translate(-318.356 -139.217)" fill="#eca43a"/>
    </clipPath>
    <clipPath id="clip-path-6">
      <path id="Trazado_114216" data-name="Trazado 114216" d="M376.193,152.514a69.347,69.347,0,1,0,21.387-3.4,69.453,69.453,0,0,0-21.387,3.4" transform="translate(-328.251 -149.113)" fill="#fff"/>
    </clipPath>
    <clipPath id="clip-path-7">
      <path id="Trazado_114217" data-name="Trazado 114217" d="M306.025,341.561a169.675,169.675,0,0,1-87.9,32.091L205.7,413.108l45.96,101.871C359.2,469.661,419.6,375.118,443.159,274.168l-40.624,3.285-33.7-24.018a169.808,169.808,0,0,1-62.809,88.126" transform="translate(-205.702 -253.435)" fill="#08306e"/>
    </clipPath>
    <clipPath id="clip-path-8">
      <path id="Trazado_114218" data-name="Trazado 114218" d="M264.828,333.559a84.839,84.839,0,1,0,49.808-16.213,84.852,84.852,0,0,0-49.808,16.213" transform="translate(-229.844 -317.346)" fill="#052454"/>
    </clipPath>
    <clipPath id="clip-path-9">
      <path id="Trazado_114219" data-name="Trazado 114219" d="M268.317,340.474A69.432,69.432,0,1,0,309,327.25a69.452,69.452,0,0,0-40.684,13.224" transform="translate(-239.748 -327.25)" fill="#fff"/>
    </clipPath>
    <clipPath id="clip-path-10">
      <path id="Trazado_114220" data-name="Trazado 114220" d="M108.328,263.032l-82.68,75.19c76.329,88.271,184.911,116.5,288.2,107.71l-15.68-37.618L310.6,368.84A170.348,170.348,0,0,1,149.691,262.654Z" transform="translate(-25.648 -262.654)" fill="#42a5f5"/>
    </clipPath>
    <clipPath id="clip-path-11">
      <path id="Trazado_114221" data-name="Trazado 114221" d="M49.3,323.182A84.837,84.837,0,1,0,118.019,288.2,84.856,84.856,0,0,0,49.3,323.182" transform="translate(-33.088 -288.196)" fill="#337fbc"/>
    </clipPath>
    <clipPath id="clip-path-12">
      <path id="Trazado_114222" data-name="Trazado 114222" d="M56.215,326.672A69.433,69.433,0,1,0,112.43,298.1a69.448,69.448,0,0,0-56.215,28.57" transform="translate(-42.993 -298.101)" fill="#fff"/>
    </clipPath>
    <clipPath id="clip-path-13">
      <path id="Trazado_114223" data-name="Trazado 114223" d="M67.782,385.29l30.93-26.534,41.385-.378a170.351,170.351,0,0,1,51.265-185.845l-13.142-39.222-97.06-55.4C20.8,177.783,27.5,289.77,67.782,385.29" transform="translate(-36.689 -77.913)" fill="#c63c3c"/>
    </clipPath>
    <clipPath id="clip-path-14">
      <path id="Trazado_114224" data-name="Trazado 114224" d="M4.176,150.71A84.763,84.763,0,1,0,84.86,92.053,84.854,84.854,0,0,0,4.176,150.71" transform="translate(0 -92.053)" fill="#9c2828"/>
    </clipPath>
    <clipPath id="clip-path-15">
      <path id="Trazado_114225" data-name="Trazado 114225" d="M13.3,149.89A69.344,69.344,0,1,0,79.32,101.948,69.447,69.447,0,0,0,13.3,149.89" transform="translate(-9.895 -101.948)" fill="#fff"/>
    </clipPath>
  </defs>
  <g id="Grupo_80809" data-name="Grupo 80809" transform="translate(-465.75 -1699.399)">
    <g id="Grupo_80560" data-name="Grupo 80560" transform="translate(465.75 1699.399)">
      <g id="Grupo_80531" data-name="Grupo 80531" transform="translate(171.689 59.85)">
        <g id="Grupo_80530" data-name="Grupo 80530" clip-path="url(#clip-path)">
          <rect id="Rectángulo_46398" data-name="Rectángulo 46398" width="296.469" height="150.892" transform="translate(0 -0.005)" fill="#a5d20e"/>
        </g>
      </g>
      <g id="Grupo_80533" data-name="Grupo 80533" transform="translate(276.236)">
        <g id="Grupo_80532" data-name="Grupo 80532" clip-path="url(#clip-path-2)">
          <rect id="Rectángulo_46399" data-name="Rectángulo 46399" width="169.712" height="169.714" fill="#88ac0c"/>
        </g>
      </g>
      <g id="Grupo_80535" data-name="Grupo 80535" transform="translate(291.72 15.486)">
        <g id="Grupo_80534" data-name="Grupo 80534" clip-path="url(#clip-path-3)">
          <rect id="Rectángulo_46400" data-name="Rectángulo 46400" width="138.741" height="138.741" transform="translate(0 0)" fill="#fff"/>
        </g>
      </g>
      <g id="Grupo_80537" data-name="Grupo 80537" transform="translate(420.189 143.065)">
        <g id="Grupo_80536" data-name="Grupo 80536" clip-path="url(#clip-path-4)">
          <rect id="Rectángulo_46401" data-name="Rectángulo 46401" width="285.181" height="321.289" transform="translate(-78.983 25.661) rotate(-17.998)" fill="#ffb74d"/>
        </g>
      </g>
      <g id="Grupo_80539" data-name="Grupo 80539" transform="translate(498.743 218.1)">
        <g id="Grupo_80538" data-name="Grupo 80538" clip-path="url(#clip-path-5)">
          <rect id="Rectángulo_46402" data-name="Rectángulo 46402" width="244.452" height="244.453" transform="translate(-86.207 41.607) rotate(-28.731)" fill="#eca43a"/>
        </g>
      </g>
      <g id="Grupo_80541" data-name="Grupo 80541" transform="translate(514.245 233.603)">
        <g id="Grupo_80540" data-name="Grupo 80540" clip-path="url(#clip-path-6)">
          <rect id="Rectángulo_46403" data-name="Rectángulo 46403" width="193.452" height="188.05" transform="translate(-51.668 14.048) rotate(-17.998)" fill="#fff"/>
        </g>
      </g>
      <g id="Grupo_80543" data-name="Grupo 80543" transform="translate(322.257 397.036)">
        <g id="Grupo_80542" data-name="Grupo 80542" clip-path="url(#clip-path-7)">
          <rect id="Rectángulo_46404" data-name="Rectángulo 46404" width="345.84" height="351.168" transform="matrix(0.809, -0.588, 0.588, 0.809, -124.373, 90.367)" fill="#08306e"/>
        </g>
      </g>
      <g id="Grupo_80545" data-name="Grupo 80545" transform="translate(360.077 497.161)">
        <g id="Grupo_80544" data-name="Grupo 80544" clip-path="url(#clip-path-8)">
          <rect id="Rectángulo_46405" data-name="Rectángulo 46405" width="261.474" height="258.702" transform="matrix(0.819, -0.574, 0.574, 0.819, -96.444, 59.673)" fill="#052454"/>
        </g>
      </g>
      <g id="Grupo_80547" data-name="Grupo 80547" transform="translate(375.593 512.676)">
        <g id="Grupo_80546" data-name="Grupo 80546" clip-path="url(#clip-path-9)">
          <rect id="Rectángulo_46406" data-name="Rectángulo 46406" width="214.152" height="212.105" transform="translate(-79.618 51.119) rotate(-36.001)" fill="#fff"/>
        </g>
      </g>
      <g id="Grupo_80549" data-name="Grupo 80549" transform="translate(40.18 411.479)">
        <g id="Grupo_80548" data-name="Grupo 80548" clip-path="url(#clip-path-10)">
          <rect id="Rectángulo_46407" data-name="Rectángulo 46407" width="324.788" height="346.053" transform="translate(-91.335 125.706) rotate(-53.999)" fill="#42a5f5"/>
        </g>
      </g>
      <g id="Grupo_80551" data-name="Grupo 80551" transform="translate(51.836 451.494)">
        <g id="Grupo_80550" data-name="Grupo 80550" clip-path="url(#clip-path-11)">
          <rect id="Rectángulo_46408" data-name="Rectángulo 46408" width="261.091" height="263.059" transform="matrix(0.615, -0.789, 0.789, 0.615, -99.136, 112.593)" fill="#337fbc"/>
        </g>
      </g>
      <g id="Grupo_80553" data-name="Grupo 80553" transform="translate(67.353 467.011)">
        <g id="Grupo_80552" data-name="Grupo 80552" clip-path="url(#clip-path-12)">
          <rect id="Rectángulo_46409" data-name="Rectángulo 46409" width="212.101" height="214.149" transform="translate(-79.615 96.831) rotate(-53.999)" fill="#fff"/>
        </g>
      </g>
      <g id="Grupo_80555" data-name="Grupo 80555" transform="translate(57.477 122.06)">
        <g id="Grupo_80554" data-name="Grupo 80554" clip-path="url(#clip-path-13)">
          <rect id="Rectángulo_46410" data-name="Rectángulo 46410" width="345.038" height="257.194" transform="translate(-106.22 278.031) rotate(-72.002)" fill="#c63c3c"/>
        </g>
      </g>
      <g id="Grupo_80557" data-name="Grupo 80557" transform="translate(0 144.212)">
        <g id="Grupo_80556" data-name="Grupo 80556" clip-path="url(#clip-path-14)">
          <rect id="Rectángulo_46411" data-name="Rectángulo 46411" width="232.369" height="238.743" transform="translate(-65.895 160.853) rotate(-70.935)" fill="#9c2828"/>
        </g>
      </g>
      <g id="Grupo_80559" data-name="Grupo 80559" transform="translate(15.501 159.714)">
        <g id="Grupo_80558" data-name="Grupo 80558" clip-path="url(#clip-path-15)">
          <rect id="Rectángulo_46412" data-name="Rectángulo 46412" width="188.046" height="193.453" transform="translate(-51.668 133.12) rotate(-72.002)" fill="#fff"/>
        </g>
      </g>
    </g>
    <path id="Trazado_114812" data-name="Trazado 114812" d="M3.508,15H1.164V3.625H3.508Zm4.1-8.453.07.977a2.951,2.951,0,0,1,2.43-1.133,2.453,2.453,0,0,1,2,.789,3.682,3.682,0,0,1,.672,2.359V15H10.523V9.594a1.465,1.465,0,0,0-.312-1.043,1.4,1.4,0,0,0-1.039-.324,1.553,1.553,0,0,0-1.43.813V15H5.484V6.547ZM17.2,4.469V6.547h1.445V8.2H17.2v4.219a1.007,1.007,0,0,0,.18.672.9.9,0,0,0,.688.2,3.6,3.6,0,0,0,.664-.055v1.711a4.648,4.648,0,0,1-1.367.2,2.156,2.156,0,0,1-2.422-2.4V8.2H13.7V6.547h1.234V4.469Zm6.594,10.688a4.15,4.15,0,0,1-3.027-1.141,4.054,4.054,0,0,1-1.168-3.039v-.219a5.106,5.106,0,0,1,.492-2.277A3.612,3.612,0,0,1,21.48,6.934a3.914,3.914,0,0,1,2.059-.543,3.508,3.508,0,0,1,2.73,1.094,4.444,4.444,0,0,1,1,3.1v.922H21.883a2.1,2.1,0,0,0,.66,1.328,2,2,0,0,0,1.395.5,2.437,2.437,0,0,0,2.039-.945l1.109,1.242a3.389,3.389,0,0,1-1.375,1.121A4.511,4.511,0,0,1,23.789,15.156Zm-.258-6.945a1.411,1.411,0,0,0-1.09.455,2.357,2.357,0,0,0-.535,1.3h3.141V9.788a1.681,1.681,0,0,0-.406-1.165A1.456,1.456,0,0,0,23.531,8.211Zm9.766.453a6.134,6.134,0,0,0-.812-.062,1.654,1.654,0,0,0-1.68.867V15H28.547V6.547H30.68l.063,1.008a2.092,2.092,0,0,1,1.883-1.164,2.366,2.366,0,0,1,.7.1Zm4.391,3.578,1.57-5.7h2.359L38.766,15H36.609L33.758,6.547h2.359ZM46.4,15.156a4.15,4.15,0,0,1-3.027-1.141A4.054,4.054,0,0,1,42.2,10.977v-.219A5.106,5.106,0,0,1,42.7,8.48,3.612,3.612,0,0,1,44.09,6.934a3.914,3.914,0,0,1,2.059-.543,3.508,3.508,0,0,1,2.73,1.094,4.444,4.444,0,0,1,1,3.1v.922H44.492a2.1,2.1,0,0,0,.66,1.328,2,2,0,0,0,1.395.5,2.437,2.437,0,0,0,2.039-.945L49.7,13.633a3.389,3.389,0,0,1-1.375,1.121A4.511,4.511,0,0,1,46.4,15.156Zm-.258-6.945a1.411,1.411,0,0,0-1.09.455,2.357,2.357,0,0,0-.535,1.3h3.141V9.788a1.681,1.681,0,0,0-.406-1.165A1.456,1.456,0,0,0,46.141,8.211Zm7.094-1.664.07.977a2.951,2.951,0,0,1,2.43-1.133,2.453,2.453,0,0,1,2,.789,3.682,3.682,0,0,1,.672,2.359V15H56.148V9.594a1.465,1.465,0,0,0-.312-1.043A1.4,1.4,0,0,0,54.8,8.227a1.553,1.553,0,0,0-1.43.813V15H51.109V6.547Zm10.4,6.789a1.481,1.481,0,0,0,1.016-.344,1.2,1.2,0,0,0,.406-.914h2.117a2.9,2.9,0,0,1-.469,1.574,3.093,3.093,0,0,1-1.262,1.109,3.949,3.949,0,0,1-1.77.395A3.67,3.67,0,0,1,60.813,14a4.56,4.56,0,0,1-1.047-3.184v-.148A4.508,4.508,0,0,1,60.8,7.555a3.627,3.627,0,0,1,2.852-1.164,3.555,3.555,0,0,1,2.543.9,3.2,3.2,0,0,1,.973,2.4H65.055a1.551,1.551,0,0,0-.406-1.072,1.51,1.51,0,0,0-2.223.163,3.333,3.333,0,0,0-.4,1.866v.235a3.375,3.375,0,0,0,.4,1.878A1.377,1.377,0,0,0,63.633,13.336ZM70.844,15H68.578V6.547h2.266Zm-2.4-10.641a1.112,1.112,0,0,1,.34-.836,1.465,1.465,0,0,1,1.848,0,1.105,1.105,0,0,1,.344.836,1.108,1.108,0,0,1-.348.844,1.448,1.448,0,0,1-1.836,0A1.108,1.108,0,0,1,68.445,4.359ZM72.352,10.7a5.013,5.013,0,0,1,.484-2.242A3.546,3.546,0,0,1,74.23,6.93a4.069,4.069,0,0,1,2.113-.539,3.849,3.849,0,0,1,2.793,1.047,4.2,4.2,0,0,1,1.207,2.844l.016.578a4.418,4.418,0,0,1-1.086,3.121,4.209,4.209,0,0,1-5.832,0,4.5,4.5,0,0,1-1.09-3.187Zm2.258.16a3.16,3.16,0,0,0,.453,1.843,1.628,1.628,0,0,0,2.578.008,3.457,3.457,0,0,0,.461-2.015,3.128,3.128,0,0,0-.461-1.831,1.5,1.5,0,0,0-1.3-.649,1.474,1.474,0,0,0-1.281.646A3.516,3.516,0,0,0,74.609,10.856Zm9.219-4.309.07.977a2.951,2.951,0,0,1,2.43-1.133,2.453,2.453,0,0,1,2,.789A3.682,3.682,0,0,1,89,9.539V15H86.742V9.594a1.465,1.465,0,0,0-.312-1.043,1.4,1.4,0,0,0-1.039-.324,1.553,1.553,0,0,0-1.43.813V15H81.7V6.547ZM94.6,15.156a4.15,4.15,0,0,1-3.027-1.141,4.054,4.054,0,0,1-1.168-3.039v-.219A5.106,5.106,0,0,1,90.9,8.48a3.612,3.612,0,0,1,1.395-1.547,3.914,3.914,0,0,1,2.059-.543,3.508,3.508,0,0,1,2.73,1.094,4.444,4.444,0,0,1,1,3.1v.922H92.7a2.1,2.1,0,0,0,.66,1.328,2,2,0,0,0,1.395.5,2.437,2.437,0,0,0,2.039-.945L97.9,13.633a3.389,3.389,0,0,1-1.375,1.121A4.511,4.511,0,0,1,94.6,15.156Zm-.258-6.945a1.411,1.411,0,0,0-1.09.455,2.357,2.357,0,0,0-.535,1.3h3.141V9.788a1.681,1.681,0,0,0-.406-1.165A1.456,1.456,0,0,0,94.344,8.211Zm9.594,4.453a.727.727,0,0,0-.41-.652,4.659,4.659,0,0,0-1.316-.426Q99.2,10.953,99.2,9.023a2.323,2.323,0,0,1,.934-1.879,3.766,3.766,0,0,1,2.441-.754,4.053,4.053,0,0,1,2.574.758,2.388,2.388,0,0,1,.965,1.969h-2.258a1.092,1.092,0,0,0-.312-.8A1.322,1.322,0,0,0,102.563,8a1.351,1.351,0,0,0-.883.258.814.814,0,0,0-.312.656.7.7,0,0,0,.355.605,3.657,3.657,0,0,0,1.2.4,9.8,9.8,0,0,1,1.422.379,2.336,2.336,0,0,1,1.789,2.273,2.2,2.2,0,0,1-.992,1.871,4.28,4.28,0,0,1-2.562.715,4.47,4.47,0,0,1-1.887-.379A3.166,3.166,0,0,1,99.4,13.738a2.414,2.414,0,0,1-.469-1.426h2.141a1.179,1.179,0,0,0,.445.922,1.766,1.766,0,0,0,1.109.32,1.635,1.635,0,0,0,.98-.246A.766.766,0,0,0,103.938,12.664Z" transform="translate(772.892 1774.293)" fill="#12263f"/>
    <path id="Trazado_114813" data-name="Trazado 114813" d="M17.874,12.016A1.2,1.2,0,0,0,17.406,11a6.148,6.148,0,0,0-1.687-.75,11.963,11.963,0,0,1-1.93-.777,3.153,3.153,0,0,1-1.937-2.82A2.747,2.747,0,0,1,12.371,5a3.389,3.389,0,0,1,1.492-1.129,5.616,5.616,0,0,1,2.184-.406,5.112,5.112,0,0,1,2.172.441A3.458,3.458,0,0,1,19.7,5.156a3.261,3.261,0,0,1,.527,1.828H17.882A1.534,1.534,0,0,0,17.39,5.77a2.023,2.023,0,0,0-1.383-.434,2.162,2.162,0,0,0-1.336.363,1.146,1.146,0,0,0-.477.957,1.1,1.1,0,0,0,.559.93,6.311,6.311,0,0,0,1.645.7,7.106,7.106,0,0,1,2.914,1.492A2.972,2.972,0,0,1,20.226,12a2.737,2.737,0,0,1-1.117,2.316,4.891,4.891,0,0,1-3.008.84,5.808,5.808,0,0,1-2.391-.48,3.783,3.783,0,0,1-1.645-1.316,3.371,3.371,0,0,1-.566-1.937h2.352q0,1.883,2.25,1.883a2.189,2.189,0,0,0,1.3-.34A1.106,1.106,0,0,0,17.874,12.016Zm7.68,3.141a4.15,4.15,0,0,1-3.027-1.141,4.054,4.054,0,0,1-1.168-3.039v-.219a5.106,5.106,0,0,1,.492-2.277,3.612,3.612,0,0,1,1.395-1.547A3.914,3.914,0,0,1,25.3,6.391a3.508,3.508,0,0,1,2.73,1.094,4.444,4.444,0,0,1,1,3.1v.922H23.648a2.1,2.1,0,0,0,.66,1.328,2,2,0,0,0,1.395.5,2.437,2.437,0,0,0,2.039-.945l1.109,1.242a3.389,3.389,0,0,1-1.375,1.121A4.511,4.511,0,0,1,25.554,15.156ZM25.3,8.211a1.411,1.411,0,0,0-1.09.455,2.357,2.357,0,0,0-.535,1.3h3.141V9.788a1.681,1.681,0,0,0-.406-1.165A1.456,1.456,0,0,0,25.3,8.211Zm9.766.453a6.134,6.134,0,0,0-.812-.062,1.654,1.654,0,0,0-1.68.867V15H30.312V6.547h2.133l.063,1.008A2.092,2.092,0,0,1,34.39,6.391a2.366,2.366,0,0,1,.7.1Zm4.391,3.578,1.57-5.7h2.359L40.531,15H38.374L35.523,6.547h2.359ZM46.757,15H44.492V6.547h2.266Zm-2.4-10.641a1.112,1.112,0,0,1,.34-.836,1.465,1.465,0,0,1,1.848,0,1.105,1.105,0,0,1,.344.836,1.108,1.108,0,0,1-.348.844,1.448,1.448,0,0,1-1.836,0A1.108,1.108,0,0,1,44.359,4.359Zm7.773,8.977a1.481,1.481,0,0,0,1.016-.344,1.2,1.2,0,0,0,.406-.914h2.117a2.9,2.9,0,0,1-.469,1.574,3.093,3.093,0,0,1-1.262,1.109,3.949,3.949,0,0,1-1.77.395A3.67,3.67,0,0,1,49.312,14a4.56,4.56,0,0,1-1.047-3.184v-.148A4.508,4.508,0,0,1,49.3,7.555a3.627,3.627,0,0,1,2.852-1.164,3.555,3.555,0,0,1,2.543.9,3.2,3.2,0,0,1,.973,2.4H53.554a1.551,1.551,0,0,0-.406-1.072,1.51,1.51,0,0,0-2.223.163,3.333,3.333,0,0,0-.4,1.866v.235a3.375,3.375,0,0,0,.4,1.878A1.377,1.377,0,0,0,52.132,13.336ZM59.343,15H57.078V6.547h2.266Zm-2.4-10.641a1.112,1.112,0,0,1,.34-.836,1.465,1.465,0,0,1,1.848,0,1.105,1.105,0,0,1,.344.836,1.108,1.108,0,0,1-.348.844,1.448,1.448,0,0,1-1.836,0A1.108,1.108,0,0,1,56.945,4.359ZM60.851,10.7a5.013,5.013,0,0,1,.484-2.242A3.546,3.546,0,0,1,62.73,6.93a4.069,4.069,0,0,1,2.113-.539,3.849,3.849,0,0,1,2.793,1.047,4.2,4.2,0,0,1,1.207,2.844l.016.578a4.418,4.418,0,0,1-1.086,3.121,4.209,4.209,0,0,1-5.832,0,4.5,4.5,0,0,1-1.09-3.187Zm2.258.16a3.16,3.16,0,0,0,.453,1.843,1.628,1.628,0,0,0,2.578.008,3.457,3.457,0,0,0,.461-2.015A3.128,3.128,0,0,0,66.14,8.86a1.5,1.5,0,0,0-1.3-.649,1.474,1.474,0,0,0-1.281.646A3.516,3.516,0,0,0,63.109,10.856Zm11.719,1.808a.727.727,0,0,0-.41-.652,4.659,4.659,0,0,0-1.316-.426q-3.016-.633-3.016-2.562a2.323,2.323,0,0,1,.934-1.879,3.766,3.766,0,0,1,2.441-.754,4.053,4.053,0,0,1,2.574.758A2.388,2.388,0,0,1,77,9.117H74.742a1.092,1.092,0,0,0-.312-.8A1.322,1.322,0,0,0,73.453,8a1.351,1.351,0,0,0-.883.258.814.814,0,0,0-.312.656.7.7,0,0,0,.355.605,3.657,3.657,0,0,0,1.2.4,9.8,9.8,0,0,1,1.422.379,2.336,2.336,0,0,1,1.789,2.273,2.2,2.2,0,0,1-.992,1.871,4.28,4.28,0,0,1-2.562.715,4.47,4.47,0,0,1-1.887-.379,3.166,3.166,0,0,1-1.293-1.039,2.414,2.414,0,0,1-.469-1.426H71.96a1.179,1.179,0,0,0,.445.922,1.766,1.766,0,0,0,1.109.32,1.635,1.635,0,0,0,.98-.246A.766.766,0,0,0,74.828,12.664Zm7.281-1.953A5.094,5.094,0,0,1,83,7.563a2.877,2.877,0,0,1,2.426-1.172,2.589,2.589,0,0,1,2.039.922V3h2.266V15H87.687l-.109-.9a2.657,2.657,0,0,1-2.172,1.055,2.869,2.869,0,0,1-2.395-1.176A5.258,5.258,0,0,1,82.109,10.711Zm2.258.168a3.337,3.337,0,0,0,.414,1.823,1.349,1.349,0,0,0,1.2.634,1.511,1.511,0,0,0,1.477-.884V9.111A1.489,1.489,0,0,0,86,8.227Q84.367,8.227,84.367,10.879Zm11,4.277a4.15,4.15,0,0,1-3.027-1.141,4.054,4.054,0,0,1-1.168-3.039v-.219a5.106,5.106,0,0,1,.492-2.277,3.612,3.612,0,0,1,1.395-1.547,3.914,3.914,0,0,1,2.059-.543,3.508,3.508,0,0,1,2.73,1.094,4.444,4.444,0,0,1,1,3.1v.922H93.46a2.1,2.1,0,0,0,.66,1.328,2,2,0,0,0,1.395.5,2.437,2.437,0,0,0,2.039-.945l1.109,1.242a3.389,3.389,0,0,1-1.375,1.121A4.511,4.511,0,0,1,95.367,15.156Zm-.258-6.945a1.411,1.411,0,0,0-1.09.455,2.357,2.357,0,0,0-.535,1.3h3.141V9.788a1.681,1.681,0,0,0-.406-1.165A1.456,1.456,0,0,0,95.109,8.211ZM25.652,38.141a2.831,2.831,0,0,1-2.312,1.016,2.67,2.67,0,0,1-2.074-.781,3.335,3.335,0,0,1-.73-2.289V30.547h2.258v5.467q0,1.322,1.2,1.322a1.63,1.63,0,0,0,1.578-.8V30.547h2.266V39H25.714Zm8.641-5.477a6.134,6.134,0,0,0-.812-.062,1.654,1.654,0,0,0-1.68.867V39H29.542V30.547h2.133l.063,1.008a2.092,2.092,0,0,1,1.883-1.164,2.366,2.366,0,0,1,.7.1Zm.609,2.047a4.954,4.954,0,0,1,.926-3.133,3,3,0,0,1,2.5-1.187,2.631,2.631,0,0,1,2.164.953l.094-.8h2.047v8.172a3.613,3.613,0,0,1-.5,1.93,3.236,3.236,0,0,1-1.418,1.25,4.985,4.985,0,0,1-2.141.43,4.635,4.635,0,0,1-1.812-.371A3.217,3.217,0,0,1,35.417,41l1-1.375a2.645,2.645,0,0,0,2.047.945,1.936,1.936,0,0,0,1.4-.48,1.8,1.8,0,0,0,.5-1.363v-.453a2.612,2.612,0,0,1-2.055.883,2.992,2.992,0,0,1-2.465-1.191A4.953,4.953,0,0,1,34.9,34.8Zm2.258.168a3.085,3.085,0,0,0,.461,1.8,1.466,1.466,0,0,0,1.266.653,1.568,1.568,0,0,0,1.477-.775V33a1.564,1.564,0,0,0-1.461-.775,1.476,1.476,0,0,0-1.277.665A3.477,3.477,0,0,0,37.16,34.879Zm11.094,4.277a4.15,4.15,0,0,1-3.027-1.141,4.054,4.054,0,0,1-1.168-3.039v-.219a5.106,5.106,0,0,1,.492-2.277,3.612,3.612,0,0,1,1.395-1.547A3.914,3.914,0,0,1,48,30.391a3.508,3.508,0,0,1,2.73,1.094,4.444,4.444,0,0,1,1,3.1v.922H46.347a2.1,2.1,0,0,0,.66,1.328,2,2,0,0,0,1.395.5,2.437,2.437,0,0,0,2.039-.945l1.109,1.242a3.389,3.389,0,0,1-1.375,1.121A4.511,4.511,0,0,1,48.253,39.156ZM48,32.211a1.411,1.411,0,0,0-1.09.455,2.357,2.357,0,0,0-.535,1.3h3.141v-.181a1.681,1.681,0,0,0-.406-1.165A1.456,1.456,0,0,0,48,32.211Zm7.094-1.664.07.977a2.951,2.951,0,0,1,2.43-1.133,2.453,2.453,0,0,1,2,.789,3.682,3.682,0,0,1,.672,2.359V39H58V33.594a1.465,1.465,0,0,0-.312-1.043,1.4,1.4,0,0,0-1.039-.324,1.553,1.553,0,0,0-1.43.813V39H52.964V30.547Zm10.4,6.789a1.481,1.481,0,0,0,1.016-.344,1.2,1.2,0,0,0,.406-.914h2.117a2.9,2.9,0,0,1-.469,1.574A3.093,3.093,0,0,1,67.3,38.762a3.949,3.949,0,0,1-1.77.395A3.67,3.67,0,0,1,62.667,38a4.56,4.56,0,0,1-1.047-3.184v-.148a4.508,4.508,0,0,1,1.039-3.117,3.627,3.627,0,0,1,2.852-1.164,3.555,3.555,0,0,1,2.543.9,3.2,3.2,0,0,1,.973,2.4H66.91a1.551,1.551,0,0,0-.406-1.072,1.51,1.51,0,0,0-2.223.163,3.333,3.333,0,0,0-.4,1.866v.235a3.375,3.375,0,0,0,.4,1.878A1.377,1.377,0,0,0,65.488,37.336ZM72.7,39H70.433V30.547H72.7ZM70.3,28.359a1.112,1.112,0,0,1,.34-.836,1.465,1.465,0,0,1,1.848,0,1.193,1.193,0,0,1,0,1.68,1.448,1.448,0,0,1-1.836,0A1.108,1.108,0,0,1,70.3,28.359ZM79.456,39a2.507,2.507,0,0,1-.227-.758,2.732,2.732,0,0,1-2.133.914,3,3,0,0,1-2.059-.719,2.312,2.312,0,0,1-.816-1.812,2.389,2.389,0,0,1,1-2.062,4.915,4.915,0,0,1,2.879-.727h1.039v-.484a1.393,1.393,0,0,0-.3-.937,1.183,1.183,0,0,0-.949-.352,1.345,1.345,0,0,0-.895.273.929.929,0,0,0-.324.75H74.41a2.268,2.268,0,0,1,.453-1.359,3,3,0,0,1,1.281-.98A4.669,4.669,0,0,1,78,30.391a3.689,3.689,0,0,1,2.48.785,2.747,2.747,0,0,1,.918,2.207v3.664a4.041,4.041,0,0,0,.336,1.82V39Zm-1.867-1.57a1.945,1.945,0,0,0,.922-.223,1.462,1.462,0,0,0,.625-.6V35.156h-.844q-1.7,0-1.8,1.172l-.008.133a.9.9,0,0,0,.3.7A1.153,1.153,0,0,0,77.589,37.43Zm10.125-.766a.727.727,0,0,0-.41-.652,4.659,4.659,0,0,0-1.316-.426q-3.016-.633-3.016-2.562a2.323,2.323,0,0,1,.934-1.879,3.766,3.766,0,0,1,2.441-.754,4.053,4.053,0,0,1,2.574.758,2.388,2.388,0,0,1,.965,1.969H87.628a1.092,1.092,0,0,0-.312-.8A1.322,1.322,0,0,0,86.339,32a1.351,1.351,0,0,0-.883.258.814.814,0,0,0-.312.656.7.7,0,0,0,.355.605,3.657,3.657,0,0,0,1.2.4,9.8,9.8,0,0,1,1.422.379A2.336,2.336,0,0,1,89.91,36.57a2.2,2.2,0,0,1-.992,1.871,4.28,4.28,0,0,1-2.562.715,4.47,4.47,0,0,1-1.887-.379,3.166,3.166,0,0,1-1.293-1.039,2.414,2.414,0,0,1-.469-1.426h2.141a1.179,1.179,0,0,0,.445.922,1.766,1.766,0,0,0,1.109.32,1.635,1.635,0,0,0,.98-.246A.766.766,0,0,0,87.714,36.664Z" transform="translate(492.782 1912.293)" fill="#12263f"/>
    <path id="Trazado_114815" data-name="Trazado 114815" d="M7.808,10.992V15H5.464V3.625H9.9a5.134,5.134,0,0,1,2.254.469,3.454,3.454,0,0,1,1.5,1.332,3.714,3.714,0,0,1,.523,1.965,3.266,3.266,0,0,1-1.145,2.637,4.767,4.767,0,0,1-3.168.965Zm0-1.9H9.9a2.059,2.059,0,0,0,1.418-.437,1.591,1.591,0,0,0,.488-1.25,1.876,1.876,0,0,0-.492-1.352,1.839,1.839,0,0,0-1.359-.531H7.808Zm12.578-.43a6.134,6.134,0,0,0-.812-.062,1.654,1.654,0,0,0-1.68.867V15H15.636V6.547h2.133l.063,1.008a2.092,2.092,0,0,1,1.883-1.164,2.366,2.366,0,0,1,.7.1Zm.453,2.031a5.013,5.013,0,0,1,.484-2.242A3.546,3.546,0,0,1,22.718,6.93a4.069,4.069,0,0,1,2.113-.539,3.849,3.849,0,0,1,2.793,1.047,4.2,4.2,0,0,1,1.207,2.844l.016.578a4.418,4.418,0,0,1-1.086,3.121,3.775,3.775,0,0,1-2.914,1.176,3.793,3.793,0,0,1-2.918-1.172,4.5,4.5,0,0,1-1.09-3.187Zm2.258.16A3.16,3.16,0,0,0,23.55,12.7a1.628,1.628,0,0,0,2.578.008,3.457,3.457,0,0,0,.461-2.015,3.128,3.128,0,0,0-.461-1.831,1.5,1.5,0,0,0-1.3-.649,1.474,1.474,0,0,0-1.281.646A3.516,3.516,0,0,0,23.1,10.856Zm10.656,2.48a1.481,1.481,0,0,0,1.016-.344,1.2,1.2,0,0,0,.406-.914h2.117a2.9,2.9,0,0,1-.469,1.574,3.093,3.093,0,0,1-1.262,1.109,3.949,3.949,0,0,1-1.77.395A3.67,3.67,0,0,1,30.933,14a4.56,4.56,0,0,1-1.047-3.184v-.148a4.508,4.508,0,0,1,1.039-3.117,3.627,3.627,0,0,1,2.852-1.164,3.555,3.555,0,0,1,2.543.9,3.2,3.2,0,0,1,.973,2.4H35.175a1.551,1.551,0,0,0-.406-1.072,1.51,1.51,0,0,0-2.223.163,3.333,3.333,0,0,0-.4,1.866v.235a3.375,3.375,0,0,0,.4,1.878A1.377,1.377,0,0,0,33.753,13.336Zm8.719,1.82a4.15,4.15,0,0,1-3.027-1.141,4.054,4.054,0,0,1-1.168-3.039v-.219a5.106,5.106,0,0,1,.492-2.277,3.612,3.612,0,0,1,1.395-1.547,3.914,3.914,0,0,1,2.059-.543,3.508,3.508,0,0,1,2.73,1.094,4.444,4.444,0,0,1,1,3.1v.922H40.566a2.1,2.1,0,0,0,.66,1.328,2,2,0,0,0,1.395.5,2.437,2.437,0,0,0,2.039-.945l1.109,1.242a3.389,3.389,0,0,1-1.375,1.121A4.511,4.511,0,0,1,42.472,15.156Zm-.258-6.945a1.411,1.411,0,0,0-1.09.455,2.357,2.357,0,0,0-.535,1.3H43.73V9.788a1.681,1.681,0,0,0-.406-1.165A1.456,1.456,0,0,0,42.214,8.211Zm4.664,2.5a5.094,5.094,0,0,1,.887-3.148,2.877,2.877,0,0,1,2.426-1.172,2.589,2.589,0,0,1,2.039.922V3H54.5V15H52.456l-.109-.9a2.657,2.657,0,0,1-2.172,1.055,2.869,2.869,0,0,1-2.395-1.176A5.258,5.258,0,0,1,46.878,10.711Zm2.258.168A3.337,3.337,0,0,0,49.55,12.7a1.349,1.349,0,0,0,1.2.634,1.511,1.511,0,0,0,1.477-.884V9.111a1.489,1.489,0,0,0-1.461-.884Q49.136,8.227,49.136,10.879ZM58.628,15H56.363V6.547h2.266ZM56.23,4.359a1.112,1.112,0,0,1,.34-.836,1.465,1.465,0,0,1,1.848,0,1.105,1.105,0,0,1,.344.836,1.108,1.108,0,0,1-.348.844,1.448,1.448,0,0,1-1.836,0A1.108,1.108,0,0,1,56.23,4.359ZM62.6,6.547l.07.945a2.971,2.971,0,0,1,2.43-1.1A2.255,2.255,0,0,1,67.347,7.68a2.9,2.9,0,0,1,2.539-1.289,2.521,2.521,0,0,1,2.047.8A3.681,3.681,0,0,1,72.6,9.6V15H70.339V9.609a1.61,1.61,0,0,0-.281-1.051,1.246,1.246,0,0,0-.992-.332A1.409,1.409,0,0,0,67.66,9.2l.008,5.8H65.41V9.617a1.59,1.59,0,0,0-.289-1.062,1.259,1.259,0,0,0-.984-.328,1.463,1.463,0,0,0-1.391.8V15H60.488V6.547ZM76.722,15H74.456V6.547h2.266Zm-2.4-10.641a1.112,1.112,0,0,1,.34-.836,1.465,1.465,0,0,1,1.848,0,1.105,1.105,0,0,1,.344.836,1.108,1.108,0,0,1-.348.844,1.448,1.448,0,0,1-1.836,0A1.108,1.108,0,0,1,74.324,4.359Zm8.148,10.8a4.15,4.15,0,0,1-3.027-1.141,4.054,4.054,0,0,1-1.168-3.039v-.219a5.106,5.106,0,0,1,.492-2.277,3.612,3.612,0,0,1,1.395-1.547,3.914,3.914,0,0,1,2.059-.543,3.508,3.508,0,0,1,2.73,1.094,4.444,4.444,0,0,1,1,3.1v.922H80.566a2.1,2.1,0,0,0,.66,1.328,2,2,0,0,0,1.395.5,2.437,2.437,0,0,0,2.039-.945l1.109,1.242a3.389,3.389,0,0,1-1.375,1.121A4.511,4.511,0,0,1,82.472,15.156Zm-.258-6.945a1.411,1.411,0,0,0-1.09.455,2.357,2.357,0,0,0-.535,1.3H83.73V9.788a1.681,1.681,0,0,0-.406-1.165A1.456,1.456,0,0,0,82.214,8.211Zm7.094-1.664.07.977a2.951,2.951,0,0,1,2.43-1.133,2.453,2.453,0,0,1,2,.789,3.682,3.682,0,0,1,.672,2.359V15H92.222V9.594a1.465,1.465,0,0,0-.312-1.043,1.4,1.4,0,0,0-1.039-.324,1.553,1.553,0,0,0-1.43.813V15H87.183V6.547Zm9.586-2.078V6.547h1.445V8.2H98.894v4.219a1.007,1.007,0,0,0,.18.672.9.9,0,0,0,.688.2,3.6,3.6,0,0,0,.664-.055v1.711a4.648,4.648,0,0,1-1.367.2,2.156,2.156,0,0,1-2.422-2.4V8.2H95.4V6.547h1.234V4.469Zm2.117,6.227a5.013,5.013,0,0,1,.484-2.242A3.546,3.546,0,0,1,102.89,6.93,4.069,4.069,0,0,1,105,6.391,3.849,3.849,0,0,1,107.8,7.438,4.2,4.2,0,0,1,109,10.281l.016.578a4.418,4.418,0,0,1-1.086,3.121,4.209,4.209,0,0,1-5.832,0,4.5,4.5,0,0,1-1.09-3.187Zm2.258.16a3.16,3.16,0,0,0,.453,1.843,1.628,1.628,0,0,0,2.578.008,3.457,3.457,0,0,0,.461-2.015A3.128,3.128,0,0,0,106.3,8.86a1.5,1.5,0,0,0-1.3-.649,1.474,1.474,0,0,0-1.281.646A3.516,3.516,0,0,0,103.269,10.856Zm11.719,1.808a.727.727,0,0,0-.41-.652,4.659,4.659,0,0,0-1.316-.426q-3.016-.633-3.016-2.562a2.323,2.323,0,0,1,.934-1.879,3.766,3.766,0,0,1,2.441-.754,4.053,4.053,0,0,1,2.574.758,2.388,2.388,0,0,1,.965,1.969H114.9a1.092,1.092,0,0,0-.312-.8A1.322,1.322,0,0,0,113.613,8a1.351,1.351,0,0,0-.883.258.814.814,0,0,0-.312.656.7.7,0,0,0,.355.605,3.657,3.657,0,0,0,1.2.4,9.8,9.8,0,0,1,1.422.379,2.336,2.336,0,0,1,1.789,2.273,2.2,2.2,0,0,1-.992,1.871,4.28,4.28,0,0,1-2.562.715,4.47,4.47,0,0,1-1.887-.379,3.166,3.166,0,0,1-1.293-1.039,2.414,2.414,0,0,1-.469-1.426h2.141a1.179,1.179,0,0,0,.445.922,1.766,1.766,0,0,0,1.109.32,1.635,1.635,0,0,0,.98-.246A.766.766,0,0,0,114.988,12.664ZM37.6,37.336a1.481,1.481,0,0,0,1.016-.344,1.2,1.2,0,0,0,.406-.914h2.117a2.9,2.9,0,0,1-.469,1.574,3.093,3.093,0,0,1-1.262,1.109,3.949,3.949,0,0,1-1.77.395A3.67,3.67,0,0,1,34.777,38,4.56,4.56,0,0,1,33.73,34.82v-.148a4.508,4.508,0,0,1,1.039-3.117,3.627,3.627,0,0,1,2.852-1.164,3.555,3.555,0,0,1,2.543.9,3.2,3.2,0,0,1,.973,2.4H39.019a1.551,1.551,0,0,0-.406-1.072,1.51,1.51,0,0,0-2.223.163,3.333,3.333,0,0,0-.4,1.866v.235a3.375,3.375,0,0,0,.4,1.878A1.377,1.377,0,0,0,37.6,37.336ZM44.808,39H42.542V27h2.266Zm4.3,0H46.847V30.547H49.1Zm-.664-11.883H50.9l-2.164,2.422H46.9Zm4.688,3.43.07.977a2.951,2.951,0,0,1,2.43-1.133,2.453,2.453,0,0,1,2,.789,3.682,3.682,0,0,1,.672,2.359V39H56.042V33.594a1.465,1.465,0,0,0-.312-1.043,1.4,1.4,0,0,0-1.039-.324,1.553,1.553,0,0,0-1.43.813V39H51V30.547ZM62.394,39H60.128V30.547h2.266ZM60,28.359a1.112,1.112,0,0,1,.34-.836,1.465,1.465,0,0,1,1.848,0,1.193,1.193,0,0,1,0,1.68,1.448,1.448,0,0,1-1.836,0A1.108,1.108,0,0,1,60,28.359Zm7.773,8.977a1.481,1.481,0,0,0,1.016-.344,1.2,1.2,0,0,0,.406-.914h2.117a2.9,2.9,0,0,1-.469,1.574,3.093,3.093,0,0,1-1.262,1.109,3.949,3.949,0,0,1-1.77.395A3.67,3.67,0,0,1,64.949,38,4.56,4.56,0,0,1,63.9,34.82v-.148a4.508,4.508,0,0,1,1.039-3.117,3.627,3.627,0,0,1,2.852-1.164,3.555,3.555,0,0,1,2.543.9,3.2,3.2,0,0,1,.973,2.4H69.191a1.551,1.551,0,0,0-.406-1.072,1.51,1.51,0,0,0-2.223.163,3.333,3.333,0,0,0-.4,1.866v.235a3.375,3.375,0,0,0,.4,1.878A1.377,1.377,0,0,0,67.769,37.336ZM72.246,34.7a5.013,5.013,0,0,1,.484-2.242,3.546,3.546,0,0,1,1.395-1.523,4.069,4.069,0,0,1,2.113-.539,3.849,3.849,0,0,1,2.793,1.047,4.2,4.2,0,0,1,1.207,2.844l.016.578a4.418,4.418,0,0,1-1.086,3.121,4.209,4.209,0,0,1-5.832,0,4.5,4.5,0,0,1-1.09-3.187Zm2.258.16a3.16,3.16,0,0,0,.453,1.843,1.628,1.628,0,0,0,2.578.008A3.457,3.457,0,0,0,78,34.691a3.128,3.128,0,0,0-.461-1.831,1.5,1.5,0,0,0-1.3-.649,1.474,1.474,0,0,0-1.281.646A3.516,3.516,0,0,0,74.5,34.856Zm11.719,1.808a.727.727,0,0,0-.41-.652,4.659,4.659,0,0,0-1.316-.426q-3.016-.633-3.016-2.562a2.323,2.323,0,0,1,.934-1.879,3.766,3.766,0,0,1,2.441-.754,4.053,4.053,0,0,1,2.574.758,2.388,2.388,0,0,1,.965,1.969H86.136a1.092,1.092,0,0,0-.312-.8A1.322,1.322,0,0,0,84.847,32a1.351,1.351,0,0,0-.883.258.814.814,0,0,0-.312.656.7.7,0,0,0,.355.605,3.657,3.657,0,0,0,1.2.4,9.8,9.8,0,0,1,1.422.379,2.336,2.336,0,0,1,1.789,2.273,2.2,2.2,0,0,1-.992,1.871,4.28,4.28,0,0,1-2.562.715,4.47,4.47,0,0,1-1.887-.379,3.166,3.166,0,0,1-1.293-1.039,2.414,2.414,0,0,1-.469-1.426h2.141a1.179,1.179,0,0,0,.445.922,1.766,1.766,0,0,0,1.109.32,1.635,1.635,0,0,0,.98-.246A.766.766,0,0,0,86.222,36.664Z" transform="translate(987.892 1986.293)" fill="#12263f"/>
    <path id="Trazado_114816" data-name="Trazado 114816" d="M7.808,10.992V15H5.464V3.625H9.9a5.134,5.134,0,0,1,2.254.469,3.454,3.454,0,0,1,1.5,1.332,3.714,3.714,0,0,1,.523,1.965,3.266,3.266,0,0,1-1.145,2.637,4.767,4.767,0,0,1-3.168.965Zm0-1.9H9.9a2.059,2.059,0,0,0,1.418-.437,1.591,1.591,0,0,0,.488-1.25,1.876,1.876,0,0,0-.492-1.352,1.839,1.839,0,0,0-1.359-.531H7.808Zm12.578-.43a6.134,6.134,0,0,0-.812-.062,1.654,1.654,0,0,0-1.68.867V15H15.636V6.547h2.133l.063,1.008a2.092,2.092,0,0,1,1.883-1.164,2.366,2.366,0,0,1,.7.1Zm.453,2.031a5.013,5.013,0,0,1,.484-2.242A3.546,3.546,0,0,1,22.718,6.93a4.069,4.069,0,0,1,2.113-.539,3.849,3.849,0,0,1,2.793,1.047,4.2,4.2,0,0,1,1.207,2.844l.016.578a4.418,4.418,0,0,1-1.086,3.121,3.775,3.775,0,0,1-2.914,1.176,3.793,3.793,0,0,1-2.918-1.172,4.5,4.5,0,0,1-1.09-3.187Zm2.258.16A3.16,3.16,0,0,0,23.55,12.7a1.628,1.628,0,0,0,2.578.008,3.457,3.457,0,0,0,.461-2.015,3.128,3.128,0,0,0-.461-1.831,1.5,1.5,0,0,0-1.3-.649,1.474,1.474,0,0,0-1.281.646A3.516,3.516,0,0,0,23.1,10.856Zm10.656,2.48a1.481,1.481,0,0,0,1.016-.344,1.2,1.2,0,0,0,.406-.914h2.117a2.9,2.9,0,0,1-.469,1.574,3.093,3.093,0,0,1-1.262,1.109,3.949,3.949,0,0,1-1.77.395A3.67,3.67,0,0,1,30.933,14a4.56,4.56,0,0,1-1.047-3.184v-.148a4.508,4.508,0,0,1,1.039-3.117,3.627,3.627,0,0,1,2.852-1.164,3.555,3.555,0,0,1,2.543.9,3.2,3.2,0,0,1,.973,2.4H35.175a1.551,1.551,0,0,0-.406-1.072,1.51,1.51,0,0,0-2.223.163,3.333,3.333,0,0,0-.4,1.866v.235a3.375,3.375,0,0,0,.4,1.878A1.377,1.377,0,0,0,33.753,13.336Zm8.719,1.82a4.15,4.15,0,0,1-3.027-1.141,4.054,4.054,0,0,1-1.168-3.039v-.219a5.106,5.106,0,0,1,.492-2.277,3.612,3.612,0,0,1,1.395-1.547,3.914,3.914,0,0,1,2.059-.543,3.508,3.508,0,0,1,2.73,1.094,4.444,4.444,0,0,1,1,3.1v.922H40.566a2.1,2.1,0,0,0,.66,1.328,2,2,0,0,0,1.395.5,2.437,2.437,0,0,0,2.039-.945l1.109,1.242a3.389,3.389,0,0,1-1.375,1.121A4.511,4.511,0,0,1,42.472,15.156Zm-.258-6.945a1.411,1.411,0,0,0-1.09.455,2.357,2.357,0,0,0-.535,1.3H43.73V9.788a1.681,1.681,0,0,0-.406-1.165A1.456,1.456,0,0,0,42.214,8.211Zm4.664,2.5a5.094,5.094,0,0,1,.887-3.148,2.877,2.877,0,0,1,2.426-1.172,2.589,2.589,0,0,1,2.039.922V3H54.5V15H52.456l-.109-.9a2.657,2.657,0,0,1-2.172,1.055,2.869,2.869,0,0,1-2.395-1.176A5.258,5.258,0,0,1,46.878,10.711Zm2.258.168A3.337,3.337,0,0,0,49.55,12.7a1.349,1.349,0,0,0,1.2.634,1.511,1.511,0,0,0,1.477-.884V9.111a1.489,1.489,0,0,0-1.461-.884Q49.136,8.227,49.136,10.879ZM58.628,15H56.363V6.547h2.266ZM56.23,4.359a1.112,1.112,0,0,1,.34-.836,1.465,1.465,0,0,1,1.848,0,1.105,1.105,0,0,1,.344.836,1.108,1.108,0,0,1-.348.844,1.448,1.448,0,0,1-1.836,0A1.108,1.108,0,0,1,56.23,4.359ZM62.6,6.547l.07.945a2.971,2.971,0,0,1,2.43-1.1A2.255,2.255,0,0,1,67.347,7.68a2.9,2.9,0,0,1,2.539-1.289,2.521,2.521,0,0,1,2.047.8A3.681,3.681,0,0,1,72.6,9.6V15H70.339V9.609a1.61,1.61,0,0,0-.281-1.051,1.246,1.246,0,0,0-.992-.332A1.409,1.409,0,0,0,67.66,9.2l.008,5.8H65.41V9.617a1.59,1.59,0,0,0-.289-1.062,1.259,1.259,0,0,0-.984-.328,1.463,1.463,0,0,0-1.391.8V15H60.488V6.547ZM76.722,15H74.456V6.547h2.266Zm-2.4-10.641a1.112,1.112,0,0,1,.34-.836,1.465,1.465,0,0,1,1.848,0,1.105,1.105,0,0,1,.344.836,1.108,1.108,0,0,1-.348.844,1.448,1.448,0,0,1-1.836,0A1.108,1.108,0,0,1,74.324,4.359Zm8.148,10.8a4.15,4.15,0,0,1-3.027-1.141,4.054,4.054,0,0,1-1.168-3.039v-.219a5.106,5.106,0,0,1,.492-2.277,3.612,3.612,0,0,1,1.395-1.547,3.914,3.914,0,0,1,2.059-.543,3.508,3.508,0,0,1,2.73,1.094,4.444,4.444,0,0,1,1,3.1v.922H80.566a2.1,2.1,0,0,0,.66,1.328,2,2,0,0,0,1.395.5,2.437,2.437,0,0,0,2.039-.945l1.109,1.242a3.389,3.389,0,0,1-1.375,1.121A4.511,4.511,0,0,1,82.472,15.156Zm-.258-6.945a1.411,1.411,0,0,0-1.09.455,2.357,2.357,0,0,0-.535,1.3H83.73V9.788a1.681,1.681,0,0,0-.406-1.165A1.456,1.456,0,0,0,82.214,8.211Zm7.094-1.664.07.977a2.951,2.951,0,0,1,2.43-1.133,2.453,2.453,0,0,1,2,.789,3.682,3.682,0,0,1,.672,2.359V15H92.222V9.594a1.465,1.465,0,0,0-.312-1.043,1.4,1.4,0,0,0-1.039-.324,1.553,1.553,0,0,0-1.43.813V15H87.183V6.547Zm9.586-2.078V6.547h1.445V8.2H98.894v4.219a1.007,1.007,0,0,0,.18.672.9.9,0,0,0,.688.2,3.6,3.6,0,0,0,.664-.055v1.711a4.648,4.648,0,0,1-1.367.2,2.156,2.156,0,0,1-2.422-2.4V8.2H95.4V6.547h1.234V4.469Zm2.117,6.227a5.013,5.013,0,0,1,.484-2.242A3.546,3.546,0,0,1,102.89,6.93,4.069,4.069,0,0,1,105,6.391,3.849,3.849,0,0,1,107.8,7.438,4.2,4.2,0,0,1,109,10.281l.016.578a4.418,4.418,0,0,1-1.086,3.121,4.209,4.209,0,0,1-5.832,0,4.5,4.5,0,0,1-1.09-3.187Zm2.258.16a3.16,3.16,0,0,0,.453,1.843,1.628,1.628,0,0,0,2.578.008,3.457,3.457,0,0,0,.461-2.015A3.128,3.128,0,0,0,106.3,8.86a1.5,1.5,0,0,0-1.3-.649,1.474,1.474,0,0,0-1.281.646A3.516,3.516,0,0,0,103.269,10.856Zm11.719,1.808a.727.727,0,0,0-.41-.652,4.659,4.659,0,0,0-1.316-.426q-3.016-.633-3.016-2.562a2.323,2.323,0,0,1,.934-1.879,3.766,3.766,0,0,1,2.441-.754,4.053,4.053,0,0,1,2.574.758,2.388,2.388,0,0,1,.965,1.969H114.9a1.092,1.092,0,0,0-.312-.8A1.322,1.322,0,0,0,113.613,8a1.351,1.351,0,0,0-.883.258.814.814,0,0,0-.312.656.7.7,0,0,0,.355.605,3.657,3.657,0,0,0,1.2.4,9.8,9.8,0,0,1,1.422.379,2.336,2.336,0,0,1,1.789,2.273,2.2,2.2,0,0,1-.992,1.871,4.28,4.28,0,0,1-2.562.715,4.47,4.47,0,0,1-1.887-.379,3.166,3.166,0,0,1-1.293-1.039,2.414,2.414,0,0,1-.469-1.426h2.141a1.179,1.179,0,0,0,.445.922,1.766,1.766,0,0,0,1.109.32,1.635,1.635,0,0,0,.98-.246A.766.766,0,0,0,114.988,12.664Zm-95.363,15.8v2.078H21.07V32.2H19.624v4.219a1.007,1.007,0,0,0,.18.672.9.9,0,0,0,.688.2,3.6,3.6,0,0,0,.664-.055v1.711a4.648,4.648,0,0,1-1.367.2,2.156,2.156,0,0,1-2.422-2.4V32.2H16.132V30.547h1.234V28.469Zm6.594,10.688a4.15,4.15,0,0,1-3.027-1.141,4.054,4.054,0,0,1-1.168-3.039v-.219a5.106,5.106,0,0,1,.492-2.277,3.612,3.612,0,0,1,1.395-1.547,3.914,3.914,0,0,1,2.059-.543,3.508,3.508,0,0,1,2.73,1.094,4.444,4.444,0,0,1,1,3.1v.922H24.312a2.1,2.1,0,0,0,.66,1.328,2,2,0,0,0,1.395.5,2.437,2.437,0,0,0,2.039-.945l1.109,1.242a3.389,3.389,0,0,1-1.375,1.121A4.511,4.511,0,0,1,26.218,39.156Zm-.258-6.945a1.411,1.411,0,0,0-1.09.455,2.357,2.357,0,0,0-.535,1.3h3.141v-.181a1.681,1.681,0,0,0-.406-1.165A1.456,1.456,0,0,0,25.96,32.211Zm9.766.453a6.134,6.134,0,0,0-.812-.062,1.654,1.654,0,0,0-1.68.867V39H30.976V30.547h2.133l.063,1.008a2.092,2.092,0,0,1,1.883-1.164,2.366,2.366,0,0,1,.7.1ZM41.476,39a2.507,2.507,0,0,1-.227-.758,2.732,2.732,0,0,1-2.133.914,3,3,0,0,1-2.059-.719,2.312,2.312,0,0,1-.816-1.812,2.389,2.389,0,0,1,1-2.062,4.915,4.915,0,0,1,2.879-.727h1.039v-.484a1.393,1.393,0,0,0-.3-.937,1.183,1.183,0,0,0-.949-.352,1.345,1.345,0,0,0-.895.273.929.929,0,0,0-.324.75H36.429a2.268,2.268,0,0,1,.453-1.359,3,3,0,0,1,1.281-.98,4.669,4.669,0,0,1,1.859-.355,3.689,3.689,0,0,1,2.48.785,2.747,2.747,0,0,1,.918,2.207v3.664a4.041,4.041,0,0,0,.336,1.82V39Zm-1.867-1.57a1.945,1.945,0,0,0,.922-.223,1.462,1.462,0,0,0,.625-.6V35.156h-.844q-1.7,0-1.8,1.172l-.008.133a.9.9,0,0,0,.3.7A1.153,1.153,0,0,0,39.609,37.43Zm13.156-2.578a5.07,5.07,0,0,1-.887,3.129,2.843,2.843,0,0,1-2.395,1.176,2.633,2.633,0,0,1-2.07-.891V42.25H45.156v-11.7h2.094l.078.828a2.654,2.654,0,0,1,2.141-.984,2.862,2.862,0,0,1,2.43,1.156,5.207,5.207,0,0,1,.867,3.188Zm-2.258-.164a3.327,3.327,0,0,0-.418-1.82,1.361,1.361,0,0,0-1.215-.641,1.478,1.478,0,0,0-1.461.813V36.5a1.5,1.5,0,0,0,1.477.836Q50.507,37.336,50.507,34.688Zm7.547,4.469a4.15,4.15,0,0,1-3.027-1.141,4.054,4.054,0,0,1-1.168-3.039v-.219a5.106,5.106,0,0,1,.492-2.277,3.612,3.612,0,0,1,1.395-1.547,3.914,3.914,0,0,1,2.059-.543,3.508,3.508,0,0,1,2.73,1.094,4.444,4.444,0,0,1,1,3.1v.922H56.148a2.1,2.1,0,0,0,.66,1.328,2,2,0,0,0,1.395.5,2.437,2.437,0,0,0,2.039-.945l1.109,1.242a3.389,3.389,0,0,1-1.375,1.121A4.511,4.511,0,0,1,58.054,39.156ZM57.8,32.211a1.411,1.411,0,0,0-1.09.455,2.357,2.357,0,0,0-.535,1.3h3.141v-.181a1.681,1.681,0,0,0-.406-1.165A1.456,1.456,0,0,0,57.8,32.211ZM58,27H60.46L58.3,29.422H56.46Zm9.875,11.141a2.831,2.831,0,0,1-2.312,1.016,2.67,2.67,0,0,1-2.074-.781,3.335,3.335,0,0,1-.73-2.289V30.547h2.258v5.467q0,1.322,1.2,1.322a1.63,1.63,0,0,0,1.578-.8V30.547h2.266V39H67.937Zm6.594-9.672v2.078h1.445V32.2H74.468v4.219a1.007,1.007,0,0,0,.18.672.9.9,0,0,0,.688.2A3.6,3.6,0,0,0,76,37.242v1.711a4.648,4.648,0,0,1-1.367.2,2.156,2.156,0,0,1-2.422-2.4V32.2H70.976V30.547H72.21V28.469ZM79.554,39H77.289V30.547h2.266Zm-2.4-10.641a1.112,1.112,0,0,1,.34-.836,1.465,1.465,0,0,1,1.848,0,1.193,1.193,0,0,1,0,1.68,1.448,1.448,0,0,1-1.836,0A1.108,1.108,0,0,1,77.156,28.359Zm7.773,8.977a1.481,1.481,0,0,0,1.016-.344,1.2,1.2,0,0,0,.406-.914h2.117A2.9,2.9,0,0,1,88,37.652a3.093,3.093,0,0,1-1.262,1.109,3.949,3.949,0,0,1-1.77.395A3.67,3.67,0,0,1,82.109,38a4.56,4.56,0,0,1-1.047-3.184v-.148A4.508,4.508,0,0,1,82.1,31.555a3.627,3.627,0,0,1,2.852-1.164,3.555,3.555,0,0,1,2.543.9,3.2,3.2,0,0,1,.973,2.4H86.351a1.551,1.551,0,0,0-.406-1.072,1.51,1.51,0,0,0-2.223.163,3.333,3.333,0,0,0-.4,1.866v.235a3.375,3.375,0,0,0,.4,1.878A1.377,1.377,0,0,0,84.929,37.336ZM89.406,34.7a5.013,5.013,0,0,1,.484-2.242,3.546,3.546,0,0,1,1.395-1.523,4.069,4.069,0,0,1,2.113-.539,3.849,3.849,0,0,1,2.793,1.047A4.2,4.2,0,0,1,97.4,34.281l.016.578a4.418,4.418,0,0,1-1.086,3.121,4.209,4.209,0,0,1-5.832,0,4.5,4.5,0,0,1-1.09-3.187Zm2.258.16a3.16,3.16,0,0,0,.453,1.843,1.628,1.628,0,0,0,2.578.008,3.457,3.457,0,0,0,.461-2.015,3.128,3.128,0,0,0-.461-1.831,1.5,1.5,0,0,0-1.3-.649,1.474,1.474,0,0,0-1.281.646A3.516,3.516,0,0,0,91.664,34.856Zm11.719,1.808a.727.727,0,0,0-.41-.652,4.659,4.659,0,0,0-1.316-.426q-3.016-.633-3.016-2.562a2.323,2.323,0,0,1,.934-1.879,3.766,3.766,0,0,1,2.441-.754,4.053,4.053,0,0,1,2.574.758,2.388,2.388,0,0,1,.965,1.969H103.3a1.092,1.092,0,0,0-.312-.8,1.322,1.322,0,0,0-.977-.316,1.351,1.351,0,0,0-.883.258.814.814,0,0,0-.312.656.7.7,0,0,0,.355.605,3.657,3.657,0,0,0,1.2.4,9.8,9.8,0,0,1,1.422.379,2.336,2.336,0,0,1,1.789,2.273,2.2,2.2,0,0,1-.992,1.871,4.28,4.28,0,0,1-2.562.715,4.47,4.47,0,0,1-1.887-.379,3.166,3.166,0,0,1-1.293-1.039,2.414,2.414,0,0,1-.469-1.426h2.141a1.179,1.179,0,0,0,.445.922,1.766,1.766,0,0,0,1.109.32,1.635,1.635,0,0,0,.98-.246A.766.766,0,0,0,103.382,36.664Z" transform="translate(848.892 2264.293)" fill="#12263f"/>
    <path id="Trazado_114817" data-name="Trazado 114817" d="M11.812,3.625l2.922,8.25,2.906-8.25h3.078V15H18.367V11.891L18.6,6.523,15.531,15H13.921L10.859,6.531l.234,5.359V15H8.749V3.625Zm14.7,11.531a4.15,4.15,0,0,1-3.027-1.141,4.054,4.054,0,0,1-1.168-3.039v-.219A5.106,5.106,0,0,1,22.8,8.48,3.612,3.612,0,0,1,24.2,6.934a3.914,3.914,0,0,1,2.059-.543,3.508,3.508,0,0,1,2.73,1.094,4.444,4.444,0,0,1,1,3.1v.922H24.6a2.1,2.1,0,0,0,.66,1.328,2,2,0,0,0,1.395.5,2.437,2.437,0,0,0,2.039-.945L29.8,13.633a3.389,3.389,0,0,1-1.375,1.121A4.511,4.511,0,0,1,26.507,15.156Zm-.258-6.945a1.411,1.411,0,0,0-1.09.455,2.357,2.357,0,0,0-.535,1.3h3.141V9.788a1.681,1.681,0,0,0-.406-1.165A1.456,1.456,0,0,0,26.249,8.211Zm4.664,2.5A5.094,5.094,0,0,1,31.8,7.563a2.877,2.877,0,0,1,2.426-1.172,2.589,2.589,0,0,1,2.039.922V3h2.266V15H36.492l-.109-.9a2.657,2.657,0,0,1-2.172,1.055,2.869,2.869,0,0,1-2.395-1.176A5.258,5.258,0,0,1,30.914,10.711Zm2.258.168a3.337,3.337,0,0,0,.414,1.823,1.349,1.349,0,0,0,1.2.634,1.511,1.511,0,0,0,1.477-.884V9.111A1.489,1.489,0,0,0,34.8,8.227Q33.171,8.227,33.171,10.879ZM42.664,15H40.4V6.547h2.266Zm-2.4-10.641a1.112,1.112,0,0,1,.34-.836,1.465,1.465,0,0,1,1.848,0,1.105,1.105,0,0,1,.344.836,1.108,1.108,0,0,1-.348.844,1.448,1.448,0,0,1-1.836,0A1.108,1.108,0,0,1,40.265,4.359Zm7.773,8.977a1.481,1.481,0,0,0,1.016-.344,1.2,1.2,0,0,0,.406-.914h2.117a2.9,2.9,0,0,1-.469,1.574,3.093,3.093,0,0,1-1.262,1.109,3.949,3.949,0,0,1-1.77.395A3.67,3.67,0,0,1,45.218,14a4.56,4.56,0,0,1-1.047-3.184v-.148A4.508,4.508,0,0,1,45.21,7.555a3.627,3.627,0,0,1,2.852-1.164,3.555,3.555,0,0,1,2.543.9,3.2,3.2,0,0,1,.973,2.4H49.46a1.551,1.551,0,0,0-.406-1.072,1.51,1.51,0,0,0-2.223.163,3.333,3.333,0,0,0-.4,1.866v.235a3.375,3.375,0,0,0,.4,1.878A1.377,1.377,0,0,0,48.039,13.336ZM57.765,15a2.507,2.507,0,0,1-.227-.758,2.732,2.732,0,0,1-2.133.914,3,3,0,0,1-2.059-.719,2.312,2.312,0,0,1-.816-1.812,2.389,2.389,0,0,1,1-2.062,4.915,4.915,0,0,1,2.879-.727h1.039V9.352a1.393,1.393,0,0,0-.3-.937,1.183,1.183,0,0,0-.949-.352,1.345,1.345,0,0,0-.895.273.929.929,0,0,0-.324.75H52.718a2.268,2.268,0,0,1,.453-1.359,3,3,0,0,1,1.281-.98,4.669,4.669,0,0,1,1.859-.355,3.689,3.689,0,0,1,2.48.785,2.747,2.747,0,0,1,.918,2.207v3.664a4.041,4.041,0,0,0,.336,1.82V15ZM55.9,13.43a1.945,1.945,0,0,0,.922-.223,1.462,1.462,0,0,0,.625-.6V11.156H56.6q-1.7,0-1.8,1.172l-.008.133a.9.9,0,0,0,.3.7A1.153,1.153,0,0,0,55.9,13.43Zm7.664-6.883.07.945a2.971,2.971,0,0,1,2.43-1.1A2.255,2.255,0,0,1,68.3,7.68a2.9,2.9,0,0,1,2.539-1.289,2.521,2.521,0,0,1,2.047.8,3.681,3.681,0,0,1,.672,2.41V15H71.3V9.609a1.61,1.61,0,0,0-.281-1.051,1.246,1.246,0,0,0-.992-.332,1.409,1.409,0,0,0-1.406.969l.008,5.8H66.367V9.617a1.59,1.59,0,0,0-.289-1.062,1.259,1.259,0,0,0-.984-.328,1.463,1.463,0,0,0-1.391.8V15H61.445V6.547Zm15.625,8.609a4.15,4.15,0,0,1-3.027-1.141,4.054,4.054,0,0,1-1.168-3.039v-.219a5.106,5.106,0,0,1,.492-2.277,3.612,3.612,0,0,1,1.395-1.547,3.914,3.914,0,0,1,2.059-.543,3.508,3.508,0,0,1,2.73,1.094,4.444,4.444,0,0,1,1,3.1v.922H77.281a2.1,2.1,0,0,0,.66,1.328,2,2,0,0,0,1.395.5,2.437,2.437,0,0,0,2.039-.945l1.109,1.242a3.389,3.389,0,0,1-1.375,1.121A4.511,4.511,0,0,1,79.187,15.156Zm-.258-6.945a1.411,1.411,0,0,0-1.09.455,2.357,2.357,0,0,0-.535,1.3h3.141V9.788a1.681,1.681,0,0,0-.406-1.165A1.456,1.456,0,0,0,78.929,8.211Zm7.094-1.664.07.977a2.951,2.951,0,0,1,2.43-1.133,2.453,2.453,0,0,1,2,.789,3.682,3.682,0,0,1,.672,2.359V15H88.937V9.594a1.465,1.465,0,0,0-.312-1.043,1.4,1.4,0,0,0-1.039-.324,1.553,1.553,0,0,0-1.43.813V15H83.9V6.547Zm9.586-2.078V6.547h1.445V8.2H95.609v4.219a1.007,1.007,0,0,0,.18.672.9.9,0,0,0,.688.2,3.6,3.6,0,0,0,.664-.055v1.711a4.648,4.648,0,0,1-1.367.2,2.156,2.156,0,0,1-2.422-2.4V8.2H92.117V6.547h1.234V4.469ZM97.726,10.7a5.013,5.013,0,0,1,.484-2.242A3.546,3.546,0,0,1,99.6,6.93a4.069,4.069,0,0,1,2.113-.539,3.849,3.849,0,0,1,2.793,1.047,4.2,4.2,0,0,1,1.207,2.844l.016.578a4.418,4.418,0,0,1-1.086,3.121,4.209,4.209,0,0,1-5.832,0,4.5,4.5,0,0,1-1.09-3.187Zm2.258.16a3.16,3.16,0,0,0,.453,1.843,1.628,1.628,0,0,0,2.578.008,3.457,3.457,0,0,0,.461-2.015,3.128,3.128,0,0,0-.461-1.831,1.5,1.5,0,0,0-1.3-.649,1.474,1.474,0,0,0-1.281.646A3.516,3.516,0,0,0,99.984,10.856ZM111.7,12.664a.727.727,0,0,0-.41-.652,4.659,4.659,0,0,0-1.316-.426q-3.016-.633-3.016-2.562a2.323,2.323,0,0,1,.934-1.879,3.766,3.766,0,0,1,2.441-.754,4.053,4.053,0,0,1,2.574.758,2.388,2.388,0,0,1,.965,1.969h-2.258a1.092,1.092,0,0,0-.312-.8A1.322,1.322,0,0,0,110.328,8a1.351,1.351,0,0,0-.883.258.814.814,0,0,0-.312.656.7.7,0,0,0,.355.605,3.657,3.657,0,0,0,1.2.4,9.8,9.8,0,0,1,1.422.379A2.336,2.336,0,0,1,113.9,12.57a2.2,2.2,0,0,1-.992,1.871,4.28,4.28,0,0,1-2.562.715,4.47,4.47,0,0,1-1.887-.379,3.166,3.166,0,0,1-1.293-1.039,2.414,2.414,0,0,1-.469-1.426h2.141a1.179,1.179,0,0,0,.445.922,1.766,1.766,0,0,0,1.109.32,1.635,1.635,0,0,0,.98-.246A.766.766,0,0,0,111.7,12.664Z" transform="translate(541.892 2228.293)" fill="#12263f"/>
    <path id="Trazado_114814" data-name="Trazado 114814" d="M-85.512-3.187h-5.637L-92.133,0h-4.395l6.258-17.062H-86.4L-80.1,0h-4.418Zm-4.652-3.176H-86.5l-1.84-5.918Zm15.527-9.469v3.152h2.086v2.742h-2.086v5.8a1.481,1.481,0,0,0,.258,1,1.383,1.383,0,0,0,1.02.281,5.793,5.793,0,0,0,.984-.07V-.105A7.288,7.288,0,0,1-74.6.234a4.137,4.137,0,0,1-3.012-.961,3.939,3.939,0,0,1-.973-2.918V-9.937H-80.2V-12.68h1.617v-3.152ZM-64.863.234a6.518,6.518,0,0,1-4.723-1.74,6.009,6.009,0,0,1-1.8-4.529v-.328A7.787,7.787,0,0,1-70.67-9.8a5.274,5.274,0,0,1,2.1-2.3,6.35,6.35,0,0,1,3.281-.814,5.489,5.489,0,0,1,4.219,1.658A6.516,6.516,0,0,1-59.52-6.633V-5.1h-7.852a2.846,2.846,0,0,0,.926,1.676,2.755,2.755,0,0,0,1.852.609,3.549,3.549,0,0,0,2.93-1.312l1.8,2.133A5.045,5.045,0,0,1-61.951-.369,7.069,7.069,0,0,1-64.863.234Zm-.445-10.1q-1.734,0-2.062,2.3h3.984v-.3a1.956,1.956,0,0,0-.48-1.471A1.912,1.912,0,0,0-65.309-9.867Zm11-2.812.129,1.488a4.3,4.3,0,0,1,3.621-1.723A3.618,3.618,0,0,1-47.6-11.73a5.635,5.635,0,0,1,1.014,3.563V0h-3.961V-8a2.14,2.14,0,0,0-.387-1.412,1.789,1.789,0,0,0-1.406-.451,1.883,1.883,0,0,0-1.723.914V0h-3.949V-12.68Zm15.27,9.867a1.756,1.756,0,0,0,1.289-.451,1.654,1.654,0,0,0,.445-1.26h3.7A4.384,4.384,0,0,1-35.092-1.1,5.558,5.558,0,0,1-38.941.234,5.627,5.627,0,0,1-43.3-1.5a6.834,6.834,0,0,1-1.594-4.8v-.164a7.723,7.723,0,0,1,.709-3.393,5.162,5.162,0,0,1,2.045-2.262,6.1,6.1,0,0,1,3.164-.791,5.488,5.488,0,0,1,3.926,1.371A4.863,4.863,0,0,1-33.6-7.828h-3.7a2.168,2.168,0,0,0-.48-1.512,1.658,1.658,0,0,0-1.289-.527q-1.535,0-1.793,1.957A13.809,13.809,0,0,0-40.945-6.2a5.424,5.424,0,0,0,.457,2.648A1.582,1.582,0,0,0-39.035-2.812ZM-27.762,0h-3.961V-12.68h3.961Zm-4.2-15.949a1.763,1.763,0,0,1,.609-1.383,2.3,2.3,0,0,1,1.582-.539,2.3,2.3,0,0,1,1.582.539,1.763,1.763,0,0,1,.609,1.383,1.763,1.763,0,0,1-.609,1.383,2.3,2.3,0,0,1-1.582.539,2.3,2.3,0,0,1-1.582-.539A1.763,1.763,0,0,1-31.957-15.949Zm6.129,9.492a7.484,7.484,0,0,1,.738-3.381,5.28,5.28,0,0,1,2.121-2.279,6.388,6.388,0,0,1,3.246-.8,5.83,5.83,0,0,1,4.488,1.764,6.768,6.768,0,0,1,1.641,4.8v.141A6.566,6.566,0,0,1-15.24-1.506,5.846,5.846,0,0,1-19.7.234a5.912,5.912,0,0,1-4.348-1.623,6.348,6.348,0,0,1-1.77-4.4Zm3.949.246a4.718,4.718,0,0,0,.551,2.578,1.835,1.835,0,0,0,1.629.82q2.109,0,2.156-3.246v-.4q0-3.41-2.18-3.41-1.98,0-2.145,2.941ZM-19.184-18h4.172l-3.258,3.68-3.223-.006Zm10.957,5.32.129,1.488a4.3,4.3,0,0,1,3.621-1.723A3.618,3.618,0,0,1-1.518-11.73,5.635,5.635,0,0,1-.5-8.168V0H-4.465V-8a2.14,2.14,0,0,0-.387-1.412,1.789,1.789,0,0,0-1.406-.451,1.883,1.883,0,0,0-1.723.914V0H-11.93V-12.68ZM12.223,0h-4.1V-17.062h4.1Zm6.3-12.68.129,1.488a4.3,4.3,0,0,1,3.621-1.723,3.618,3.618,0,0,1,2.959,1.184A5.635,5.635,0,0,1,26.25-8.168V0H22.289V-8A2.14,2.14,0,0,0,21.9-9.416,1.789,1.789,0,0,0,20.5-9.867a1.883,1.883,0,0,0-1.723.914V0H14.824V-12.68Zm14.508-3.152v3.152h2.086v2.742H33.035v5.8a1.481,1.481,0,0,0,.258,1,1.383,1.383,0,0,0,1.02.281,5.793,5.793,0,0,0,.984-.07V-.105a7.288,7.288,0,0,1-2.227.34,4.137,4.137,0,0,1-3.012-.961,3.939,3.939,0,0,1-.973-2.918V-9.937H27.469V-12.68h1.617v-3.152ZM42.809.234a6.518,6.518,0,0,1-4.723-1.74,6.009,6.009,0,0,1-1.8-4.529v-.328A7.787,7.787,0,0,1,37-9.8a5.274,5.274,0,0,1,2.1-2.3,6.35,6.35,0,0,1,3.281-.814,5.489,5.489,0,0,1,4.219,1.658,6.516,6.516,0,0,1,1.547,4.623V-5.1H40.3a2.846,2.846,0,0,0,.926,1.676,2.755,2.755,0,0,0,1.852.609,3.549,3.549,0,0,0,2.93-1.312l1.8,2.133A5.045,5.045,0,0,1,45.721-.369,7.069,7.069,0,0,1,42.809.234Zm-.445-10.1q-1.734,0-2.062,2.3h3.984v-.3a1.956,1.956,0,0,0-.48-1.471A1.912,1.912,0,0,0,42.363-9.867Zm6.914,3.434a8.561,8.561,0,0,1,.633-3.4,5.094,5.094,0,0,1,1.816-2.279,4.788,4.788,0,0,1,2.754-.8,3.807,3.807,0,0,1,3.094,1.336l.141-1.1H61.3V-.48a5.346,5.346,0,0,1-.779,2.912,5,5,0,0,1-2.256,1.9,8.292,8.292,0,0,1-3.422.662,7.153,7.153,0,0,1-2.7-.527,4.876,4.876,0,0,1-2-1.371L51.8.773a3.621,3.621,0,0,0,2.906,1.3q2.625,0,2.625-2.7v-.4A3.708,3.708,0,0,1,54.457.234a4.583,4.583,0,0,1-3.75-1.775,7.356,7.356,0,0,1-1.43-4.752Zm3.961.246a4.511,4.511,0,0,0,.586,2.467,1.849,1.849,0,0,0,1.641.908,2.1,2.1,0,0,0,1.863-.855V-9a2.045,2.045,0,0,0-1.84-.867,1.861,1.861,0,0,0-1.652.943A5.144,5.144,0,0,0,53.238-6.187ZM71.215-9.105l-1.3-.094a2.336,2.336,0,0,0-2.391,1.172V0H63.574V-12.68h3.7l.129,1.629a3.058,3.058,0,0,1,2.777-1.863,3.851,3.851,0,0,1,1.1.141ZM79.43,0a4.459,4.459,0,0,1-.375-1.137A3.672,3.672,0,0,1,76.008.234,4.5,4.5,0,0,1,72.961-.85a3.45,3.45,0,0,1-1.254-2.725A3.546,3.546,0,0,1,73.23-6.691a7.761,7.761,0,0,1,4.43-1.055h1.219v-.671q0-1.755-1.512-1.755a1.236,1.236,0,0,0-1.406,1.39H72.012a3.54,3.54,0,0,1,1.564-2.985,6.575,6.575,0,0,1,3.99-1.147A5.764,5.764,0,0,1,81.4-11.73,4.115,4.115,0,0,1,82.84-8.484v5.613A5.748,5.748,0,0,0,83.379-.2V0ZM76.957-2.578a2.2,2.2,0,0,0,1.225-.316,1.983,1.983,0,0,0,.7-.715V-5.637H77.73q-2.062,0-2.062,1.852a1.131,1.131,0,0,0,.363.873A1.315,1.315,0,0,0,76.957-2.578ZM89.191,0H85.23V-18h3.961Z" transform="translate(791.5 2049.208)" fill="#12263f"/>
  </g>
</svg>
